<svg width="32" height="32" viewBox="0 0 32 32" fill="none" xmlns="http://www.w3.org/2000/svg">
<path d="M16 29C23.1797 29 29 23.1797 29 16C29 8.8203 23.1797 3 16 3C8.8203 3 3 8.8203 3 16C3 23.1797 8.8203 29 16 29Z" stroke="black" stroke-width="2" stroke-miterlimit="10" stroke-linecap="round"/>
<path d="M24.5 25.8L19.8 23.6C19.3 23.4 19.2 22.7 19.7 22.3C20.2 21.9 20.6 21.4 20.9 20.9C21.3 20.3 21.6 19.7 21.8 19.1C22 18.5 22.2 17.9 22.3 17.3C22.4 16.7 22.4 16.2 22.4 15.8V11.8C22.4 11.3 22.2 10.8 21.9 10.2C21.5 9.6 21 9.1 20.4 8.6C19.8 8.1 19.1 7.7 18.3 7.4C17.6 7.2 16.8 7 16 7C15.2 7 14.4 7.2 13.7 7.4C12.9 7.7 12.2 8.1 11.6 8.6C11 9.1 10.5 9.6 10.1 10.2C9.8 10.7 9.6 11.3 9.6 11.8V15.8C9.6 16.2 9.6 16.7 9.7 17.3C9.8 17.9 10 18.5 10.2 19.1C10.4 19.7 10.7 20.3 11.1 20.9C11.4 21.5 11.9 21.9 12.3 22.3C12.7 22.7 12.7 23.3 12.2 23.6L7.5 25.8" stroke="black" stroke-width="2" stroke-miterlimit="10" stroke-linecap="round"/>
</svg>
