<svg width="32" height="32" viewBox="0 0 32 32" fill="none" xmlns="http://www.w3.org/2000/svg">
<path fill-rule="evenodd" clip-rule="evenodd" d="M5 30H27C28.7 30 30 28.7 30 27V26.2C30 26 29.7 25.8 29.5 25.7L28.6 25.2L20.5 21.4C19.9 21.1 19.8 20.3 20.3 19.9C20.9 19.4 25.8 19.3 26.2 18.7C26.6 18 23.5 15.3 23.5 7.7C23.5 7 23.3 6.5 22.9 5.9C22.5 5.2 21.9 4.6 21.2 4C20.5 3.4 19.7 3 18.8 2.6C17.9 2.2 17 2 16.1 2C15.2 2 14.3 2.2 13.4 2.5C12.5 2.9 11.6 3.3 10.9 3.9C10.2 4.5 9.6 5.1 9.2 5.8C8.8 6.4 8.6 6.9 8.6 7.6C8 15.8 5.3 17.6 5.7 18.3C6.1 18.9 11.2 19.3 11.8 19.8C12.3 20.2 12.2 21 11.6 21.3L3.5 25.1L2.6 25.6C2.3 25.8 2 26 2 26.2V27C2 28.6 3.4 30 5 30Z" stroke="black" stroke-width="2" stroke-miterlimit="10" stroke-linecap="round"/>
</svg>
