<svg width="32" height="32" viewBox="0 0 32 32" fill="none" xmlns="http://www.w3.org/2000/svg">
<path d="M26 29H6C4.3 29 3 27.7 3 26V6C3 4.3 4.3 3 6 3H26C27.7 3 29 4.3 29 6V26C29 27.7 27.7 29 26 29Z" stroke="black" stroke-width="2" stroke-miterlimit="10" stroke-linecap="round"/>
<path d="M28.2 28C27.8 27.6 27.3 27.2 26.8 26.8C24 24.9 19.8 23.5 19.8 23.5C19.3 23.3 19.2 22.6 19.7 22.2C20.2 21.8 20.6 21.3 20.9 20.8C21.3 20.2 21.6 19.6 21.8 19C22 18.4 22.2 17.8 22.3 17.2C22.4 16.6 22.4 16.1 22.4 15.7V11.7C22.4 11.2 22.2 10.7 21.9 10.1C21.5 9.5 21 9 20.4 8.5C19.8 8 19.1 7.6 18.3 7.3C17.6 7.2 16.8 7 16 7C15.2 7 14.4 7.2 13.7 7.4C12.9 7.7 12.2 8.1 11.6 8.6C11 9.1 10.5 9.6 10.1 10.2C9.8 10.7 9.6 11.3 9.6 11.8V15.8C9.6 16.2 9.6 16.7 9.7 17.3C9.8 17.9 10 18.5 10.2 19.1C10.4 19.7 10.7 20.3 11.1 20.9C11.4 21.5 11.9 21.9 12.3 22.3C12.7 22.7 12.7 23.3 12.2 23.6C12.2 23.6 6.7 26.2 4 28.2" stroke="black" stroke-width="2" stroke-miterlimit="10" stroke-linecap="round"/>
</svg>
