<svg width="32" height="32" viewBox="0 0 32 32" fill="none" xmlns="http://www.w3.org/2000/svg">
<path d="M20 23H26" stroke="black" stroke-width="2" stroke-miterlimit="10" stroke-linecap="round"/>
<path d="M23 20V26" stroke="black" stroke-width="2" stroke-miterlimit="10" stroke-linecap="round"/>
<path d="M23 30C26.866 30 30 26.866 30 23C30 19.134 26.866 16 23 16C19.134 16 16 19.134 16 23C16 26.866 19.134 30 23 30Z" stroke="black" stroke-width="2" stroke-miterlimit="10"/>
<path d="M24.2 13C23.8 11.6 23.6 9.8 23.6 7.6C23.6 6.9 23.4 6.4 23 5.8C22.6 5.1 22 4.5 21.3 3.9C20.6 3.3 19.8 2.9 18.9 2.5C17.9 2.2 17 2 16.1 2C15.2 2 14.3 2.2 13.4 2.5C12.5 2.9 11.6 3.3 10.9 3.9C10.2 4.5 9.6 5.1 9.2 5.8C8.8 6.4 8.6 6.9 8.6 7.6C8 15.8 5.3 17.6 5.7 18.3C6.1 18.9 11.2 19.3 11.8 19.8C12.3 20.2 12.2 21 11.6 21.3L3.5 25.1L2.6 25.6C2.3 25.8 2 26 2 26.2V27C2 28.7 3.3 30 5 30H15.8" stroke="black" stroke-width="2" stroke-miterlimit="10" stroke-linecap="round"/>
</svg>
