<svg width="32" height="32" viewBox="0 0 32 32" fill="none" xmlns="http://www.w3.org/2000/svg">
<path d="M24.4 13.1C24.6 12.5 24.7 12 24.8 11.5C24.9 11 24.9 10.5 24.9 10.2V6.4C24.9 5.9 24.7 5.4 24.4 5C24.1 4.5 23.6 4 23.1 3.5C22.5 3.1 21.9 2.7 21.2 2.4C20.5 2.2 19.8 2 19 2C18.3 2 17.6 2.1 16.9 2.4C16.2 2.7 15.5 3 15 3.5C14.4 4 14 4.4 13.6 5C13.6 5 13.6 5.1 13.5 5.1" stroke="black" stroke-width="2" stroke-miterlimit="10" stroke-linecap="round"/>
<path d="M18.9 13.9V12.5C18.9 12 18.7 11.5 18.4 11.1C18.1 10.6 17.6 10.1 17.1 9.60001C16.5 9.20001 15.9 8.80001 15.2 8.50001C14.5 8.20001 13.8 8.10001 13.1 8.10001C12.4 8.10001 11.7 8.20001 11 8.50001C10.3 8.80001 9.6 9.10001 9.1 9.60001C8.6 10 8.1 10.5 7.8 11.1C7.5 11.6 7.3 12.1 7.3 12.6V16.3C7.3 16.7 7.3 17.1 7.4 17.6C7.5 18.1 7.6 18.7 7.8 19.2C8 19.8 8.3 20.3 8.6 20.8C8.9 21.3 9.3 21.7 9.7 22.1C10.1 22.4 10 23.1 9.6 23.3L3.2 26.3L2.5 26.7C2.2 26.7 2 26.9 2 27V27.6C2 28.9 3 30 4.4 30H15.9" stroke="black" stroke-width="2" stroke-miterlimit="10" stroke-linecap="round"/>
<path d="M23 30C26.866 30 30 26.866 30 23C30 19.134 26.866 16 23 16C19.134 16 16 19.134 16 23C16 26.866 19.134 30 23 30Z" stroke="black" stroke-width="2" stroke-miterlimit="10"/>
<path d="M20 23L23 26L26 23" stroke="black" stroke-width="2" stroke-miterlimit="10" stroke-linecap="round"/>
<path d="M23 20V25.9" stroke="black" stroke-width="2" stroke-miterlimit="10" stroke-linecap="round"/>
</svg>
