<svg width="32" height="32" viewBox="0 0 32 32" fill="none" xmlns="http://www.w3.org/2000/svg">
<path d="M23.5 13C23.5 12.7 23.5 12.5 23.5 12.3V7.6C23.5 7 23.3 6.4 22.9 5.8C22.5 5.1 21.9 4.5 21.2 3.9C20.5 3.3 19.7 2.9 18.8 2.5C17.9 2.2 17 2 16.1 2C15.2 2 14.3 2.2 13.4 2.5C12.5 2.9 11.6 3.3 10.9 3.9C10.2 4.5 9.6 5.1 9.2 5.8C8.8 6.4 8.6 7 8.6 7.6V12.3C8.6 12.8 8.7 13.3 8.8 14C8.9 14.7 9.1 15.4 9.4 16.1C9.7 16.8 10 17.5 10.4 18.2C10.8 18.8 11.3 19.4 11.9 19.9C12.4 20.3 12.3 21.1 11.7 21.4L3.6 25.2L2.7 25.7C2.3 25.8 2 26 2 26.2V27C2 28.7 3.3 30 5 30H15.8" stroke="black" stroke-width="2" stroke-miterlimit="10" stroke-linecap="round"/>
<path d="M23 30C26.866 30 30 26.866 30 23C30 19.134 26.866 16 23 16C19.134 16 16 19.134 16 23C16 26.866 19.134 30 23 30Z" stroke="black" stroke-width="2" stroke-miterlimit="10"/>
<path d="M26 23L23 20L20 23" stroke="black" stroke-width="2" stroke-miterlimit="10" stroke-linecap="round"/>
<path d="M23 26V20.1" stroke="black" stroke-width="2" stroke-miterlimit="10" stroke-linecap="round"/>
</svg>
