<svg width="32" height="32" viewBox="0 0 32 32" fill="none" xmlns="http://www.w3.org/2000/svg">
<path fill-rule="evenodd" clip-rule="evenodd" d="M4.4 30H21.7C23 30 24.1 28.9 24.1 27.6V27C24.1 26.8 23.9 26.7 23.7 26.6L23 26.2L16.6 23.2C16.1 23 16 22.4 16.4 22C16.9 21.6 17.2 21.2 17.5 20.7C17.8 20.2 18.1 19.6 18.3 19.1C18.5 18.5 18.6 18 18.7 17.5C18.8 17 18.8 16.5 18.8 16.2V12.5C18.8 12 18.6 11.5 18.3 11.1C18 10.6 17.5 10.1 17 9.60001C16.4 9.20001 15.8 8.80001 15.1 8.50001C14.4 8.20001 13.7 8.10001 13 8.10001C12.3 8.10001 11.6 8.20001 10.9 8.50001C10.2 8.80001 9.5 9.10001 9 9.60001C8.5 10 8 10.5 7.7 11.1C7.4 11.6 7.2 12.1 7.2 12.6V16.3C7.2 16.7 7.2 17.1 7.3 17.6C7.4 18.1 7.5 18.7 7.7 19.2C7.9 19.8 8.2 20.3 8.5 20.8C8.8 21.3 9.2 21.7 9.6 22.1C10 22.4 9.9 23.1 9.5 23.3L3.1 26.3L2.4 26.7C2.2 26.7 2 26.9 2 27V27.6C2 28.9 3.1 30 4.4 30Z" stroke="black" stroke-width="2" stroke-miterlimit="10" stroke-linecap="round"/>
<path d="M25 24H27.7C29 24 30.1 22.9 30.1 21.6V21C30.1 20.8 29.9 20.7 29.7 20.6L29 20.2L22.6 17.2C22.1 17 22 16.3 22.4 16C22.9 15.6 23.2 15.2 23.5 14.7C23.8 14.2 24.1 13.6 24.3 13.1C24.5 12.5 24.6 12 24.7 11.5C24.8 11 24.8 10.5 24.8 10.2V6.4C24.8 5.9 24.6 5.4 24.3 5C24 4.5 23.5 4 23 3.5C22.4 3.1 21.8 2.7 21.1 2.4C20.5 2.2 19.8 2 19 2C18.3 2 17.6 2.1 16.9 2.4C16.2 2.7 15.5 3 15 3.5C14.4 4 14 4.4 13.6 5C13.6 5 13.6 5.1 13.5 5.1" stroke="black" stroke-width="2" stroke-miterlimit="10" stroke-linecap="round"/>
</svg>
