<svg width="32" height="32" viewBox="0 0 32 32" fill="none" xmlns="http://www.w3.org/2000/svg">
<path d="M16.31 5.78C13.8156 5.78 11.3771 6.51982 9.30322 7.90586C7.2293 9.29191 5.61305 11.2619 4.65893 13.5667C3.7048 15.8714 3.45566 18.4074 3.94303 20.8538C4.43041 23.3001 5.63238 25.547 7.39692 27.3102C9.16147 29.0733 11.4093 30.2735 13.856 30.7589C16.3028 31.2444 18.8386 30.9932 21.1426 30.0372C23.4466 29.0813 25.4153 27.4635 26.7997 25.3885C28.1841 23.3134 28.922 20.8744 28.92 18.38C28.92 16.7245 28.5938 15.0852 27.9599 13.5559C27.3261 12.0265 26.3971 10.6371 25.226 9.46692C24.0549 8.29677 22.6647 7.36887 21.1349 6.73625C19.605 6.10363 17.9655 5.77869 16.31 5.78V5.78ZM16.31 27.28C14.5537 27.28 12.8368 26.7592 11.3765 25.7835C9.91623 24.8077 8.77806 23.4208 8.10595 21.7982C7.43384 20.1756 7.25799 18.3902 7.60063 16.6676C7.94326 14.945 8.789 13.3628 10.0309 12.1209C11.2728 10.879 12.855 10.0333 14.5776 9.69063C16.3001 9.34799 18.0856 9.52384 19.7082 10.1959C21.3308 10.8681 22.7177 12.0062 23.6935 13.4665C24.6692 14.9268 25.19 16.6437 25.19 18.4C25.1874 20.7543 24.2509 23.0114 22.5862 24.6762C20.9214 26.3409 18.6643 27.2774 16.31 27.28V27.28ZM16.31 11.33V18C16.3101 18.0446 16.3217 18.0885 16.3437 18.1273C16.3656 18.1661 16.3972 18.1987 16.4354 18.2218C16.4735 18.2449 16.517 18.2578 16.5616 18.2592C16.6062 18.2607 16.6504 18.2506 16.69 18.23L22.57 15.23C22.6006 15.2133 22.6276 15.1907 22.6493 15.1634C22.671 15.1361 22.687 15.1048 22.6963 15.0712C22.7056 15.0376 22.7081 15.0025 22.7036 14.9679C22.6991 14.9334 22.6876 14.9001 22.67 14.87C22.0549 13.7849 21.1723 12.8753 20.1064 12.2277C19.0404 11.58 17.8264 11.2159 16.58 11.17C16.5239 11.1652 16.4678 11.1781 16.4194 11.2067C16.371 11.2354 16.3327 11.2785 16.31 11.33V11.33ZM8.08 6.47L7.31 5.7C7.13059 5.51919 6.91717 5.37569 6.68204 5.27776C6.4469 5.17983 6.19471 5.12941 5.94 5.12941C5.68529 5.12941 5.4331 5.17983 5.19796 5.27776C4.96283 5.37569 4.74941 5.51919 4.57 5.7L3.65 6.62C3.29031 6.98325 3.08854 7.4738 3.08854 7.985C3.08854 8.4962 3.29031 8.98675 3.65 9.35L4.41 10.11C4.43535 10.1396 4.46679 10.1633 4.50218 10.1796C4.53756 10.1959 4.57605 10.2043 4.615 10.2043C4.65395 10.2043 4.69244 10.1959 4.72782 10.1796C4.76321 10.1633 4.79465 10.1396 4.82 10.11C5.26161 9.48456 5.75322 8.89596 6.29 8.35C6.82243 7.81179 7.39399 7.31376 8 6.86C8.03475 6.84332 8.06518 6.81883 8.0889 6.78845C8.11262 6.75806 8.12899 6.72261 8.13674 6.68484C8.14449 6.64708 8.1434 6.60804 8.13355 6.57077C8.12371 6.5335 8.10538 6.49901 8.08 6.47ZM20.44 4.47V2.94C20.44 2.42548 20.2356 1.93203 19.8718 1.56821C19.508 1.20439 19.0145 1 18.5 1H14C13.4855 1 12.992 1.20439 12.6282 1.56821C12.2644 1.93203 12.06 2.42548 12.06 2.94V4.51C12.0616 4.55051 12.0723 4.59013 12.0913 4.62594C12.1103 4.66174 12.1372 4.6928 12.1698 4.71681C12.2025 4.74083 12.2402 4.75718 12.28 4.76466C12.3198 4.77213 12.3609 4.77054 12.4 4.76C14.9249 4.05378 17.5951 4.05378 20.12 4.76C20.1614 4.7703 20.2047 4.77025 20.2461 4.75984C20.2875 4.74944 20.3257 4.729 20.3573 4.70034C20.389 4.67168 20.413 4.63568 20.4275 4.5955C20.4419 4.55533 20.4462 4.51223 20.44 4.47V4.47Z" fill="black"/>
</svg>
