<svg width="32" height="32" viewBox="0 0 32 32" fill="none" xmlns="http://www.w3.org/2000/svg">
<path fill-rule="evenodd" clip-rule="evenodd" d="M9.11 29.33C8.9015 29.3471 8.69287 29.2985 8.51348 29.1908C8.33409 29.0832 8.19297 28.922 8.11 28.73L1.18 16.53C1.11175 16.3721 1.07655 16.202 1.07655 16.03C1.07655 15.858 1.11175 15.6878 1.18 15.53L8.18 3.17998C8.27103 3.04014 8.39164 2.92199 8.53333 2.83387C8.67502 2.74575 8.83432 2.6898 9 2.66998H23.08C23.2301 2.68213 23.3755 2.72801 23.5053 2.8042C23.6352 2.88038 23.7462 2.98491 23.83 3.10998L30.83 15.45C30.9089 15.6261 30.9497 15.817 30.9497 16.01C30.9497 16.203 30.9089 16.3938 30.83 16.57L23.94 28.77C23.8508 28.9546 23.7071 29.1073 23.5282 29.2075C23.3493 29.3076 23.144 29.3504 22.94 29.33H9.11ZM13.39 9.67998L5 18.54C5.23862 18.8186 5.53723 19.0396 5.87345 19.1864C6.20966 19.3332 6.57475 19.402 6.94132 19.3875C7.30789 19.3731 7.66644 19.2759 7.99008 19.1031C8.31371 18.9303 8.59403 18.6865 8.81 18.39C10.29 16.84 13.2 13.65 13.2 13.65C13.2 13.65 16.44 16.9 17.94 18.43C18.1797 18.7248 18.4829 18.9615 18.827 19.1226C19.1711 19.2836 19.5472 19.3647 19.9271 19.3599C20.307 19.3551 20.6809 19.2645 21.0208 19.0948C21.3607 18.9251 21.6578 18.6807 21.89 18.38L18.44 14.76C18.63 14.85 19.01 15.14 19.1 15.07C19.53 14.72 19.68 15.07 19.89 15.31C21.03 16.46 22.13 17.67 23.34 18.74C23.807 19.13 24.402 19.333 25.01 19.31C25.6663 19.1655 26.2991 18.9299 26.89 18.61L19.18 10.61L16.94 13.12L13.39 9.67998ZM11.88 16.05L9.46 18.55L11.88 19.55V16.05Z" fill="black"/>
</svg>
