<svg width="32" height="32" viewBox="0 0 32 32" fill="none" xmlns="http://www.w3.org/2000/svg">
<path d="M9 11.33V22.33C8.99868 22.5694 9.04485 22.8066 9.13584 23.028C9.22683 23.2495 9.36084 23.4506 9.53011 23.6199C9.69938 23.7892 9.90054 23.9232 10.122 24.0142C10.3434 24.1052 10.5806 24.1513 10.82 24.15H11.33V28.3C11.3456 28.758 11.5393 29.1919 11.8698 29.5094C12.2004 29.8269 12.6417 30.0029 13.1 30C13.5545 30.0027 13.9915 29.8254 14.3157 29.5068C14.6398 29.1883 14.8247 28.7544 14.83 28.3V24.17H17.17V28.3C17.1831 28.7571 17.3746 29.191 17.7035 29.5087C18.0324 29.8265 18.4727 30.0028 18.93 30C19.3854 30.0027 19.8235 29.8257 20.1493 29.5075C20.475 29.1892 20.6621 28.7553 20.67 28.3V24.17H21.18C21.6627 24.17 22.1256 23.9783 22.4669 23.6369C22.8083 23.2956 23 22.8327 23 22.35V11.35L9 11.33ZM27.67 13.05C27.67 12.5859 27.4856 12.1408 27.1574 11.8126C26.8292 11.4844 26.3841 11.3 25.92 11.3C25.4559 11.3 25.0108 11.4844 24.6826 11.8126C24.3544 12.1408 24.17 12.5859 24.17 13.05V20.17C24.17 20.6341 24.3544 21.0792 24.6826 21.4074C25.0108 21.7356 25.4559 21.92 25.92 21.92C26.3841 21.92 26.8292 21.7356 27.1574 21.4074C27.4856 21.0792 27.67 20.6341 27.67 20.17V13.05ZM7.83 13.05C7.83 12.5859 7.64563 12.1408 7.31744 11.8126C6.98925 11.4844 6.54413 11.3 6.08 11.3C5.61587 11.3 5.17075 11.4844 4.84257 11.8126C4.51438 12.1408 4.33 12.5859 4.33 13.05V20.17C4.34309 20.6218 4.53453 21.0501 4.86246 21.3611C5.19039 21.6722 5.62813 21.8408 6.08 21.83C6.30409 21.8367 6.52729 21.7989 6.73674 21.719C6.94618 21.639 7.13775 21.5184 7.3004 21.3641C7.46306 21.2098 7.59359 21.0249 7.68448 20.82C7.77537 20.615 7.82483 20.3941 7.83 20.17V13.05ZM19.44 4.52L20.54 2.35C20.5582 2.31513 20.5676 2.27632 20.5672 2.23698C20.5669 2.19765 20.5569 2.15899 20.5382 2.12442C20.5194 2.08985 20.4924 2.06042 20.4596 2.03872C20.4268 2.01703 20.3892 2.00373 20.35 2C20.3102 1.99995 20.2712 2.0112 20.2376 2.03245C20.204 2.05369 20.1771 2.08405 20.16 2.12L19.05 4.31C18.0947 3.8655 17.0537 3.63518 16 3.63518C14.9463 3.63518 13.9053 3.8655 12.95 4.31L11.84 2.12C11.823 2.08405 11.796 2.05369 11.7624 2.03245C11.7288 2.0112 11.6898 1.99995 11.65 2C11.6108 2.00373 11.5732 2.01703 11.5404 2.03872C11.5076 2.06042 11.4806 2.08985 11.4618 2.12442C11.4431 2.15899 11.4331 2.19765 11.4328 2.23698C11.4324 2.27632 11.4418 2.31513 11.46 2.35L12.56 4.52C11.4916 5.0268 10.5894 5.82721 9.95903 6.82771C9.32862 7.82821 8.99599 8.98747 9 10.17H23C23.004 8.98747 22.6714 7.82821 22.041 6.82771C21.4106 5.82721 20.5084 5.0268 19.44 4.52ZM13.08 7.83C12.9657 7.82803 12.8546 7.79235 12.7605 7.72743C12.6665 7.66251 12.5937 7.57125 12.5513 7.46511C12.509 7.35898 12.4989 7.24268 12.5224 7.13084C12.5459 7.019 12.6019 6.91659 12.6834 6.83647C12.7649 6.75636 12.8682 6.7021 12.9805 6.68052C13.0927 6.65894 13.2088 6.671 13.3142 6.71517C13.4196 6.75935 13.5096 6.83368 13.5729 6.92883C13.6362 7.02398 13.67 7.13572 13.67 7.25C13.67 7.32702 13.6547 7.40326 13.6249 7.47429C13.5951 7.54532 13.5515 7.60971 13.4966 7.6637C13.4417 7.71769 13.3766 7.7602 13.305 7.78875C13.2335 7.81731 13.157 7.83133 13.08 7.83V7.83ZM18.92 7.83C18.8053 7.83 18.6932 7.79598 18.5978 7.73225C18.5024 7.66852 18.4281 7.57794 18.3842 7.47196C18.3403 7.36598 18.3288 7.24936 18.3511 7.13685C18.3735 7.02434 18.4288 6.92099 18.5099 6.83988C18.591 6.75876 18.6943 6.70352 18.8069 6.68114C18.9194 6.65877 19.036 6.67025 19.142 6.71415C19.2479 6.75805 19.3385 6.83239 19.4023 6.92777C19.466 7.02315 19.5 7.13529 19.5 7.25C19.5 7.40383 19.4389 7.55135 19.3301 7.66012C19.2214 7.76889 19.0738 7.83 18.92 7.83V7.83Z" fill="black"/>
</svg>
