<svg width="32" height="32" viewBox="0 0 32 32" fill="none" xmlns="http://www.w3.org/2000/svg">
<path d="M14.31 15.14L20 19.66L16.21 10.29L14.31 15.14ZM21.2 22.94L13.64 16.82L11.1 23.21H8.91L15.32 7.75003C15.3972 7.56771 15.5268 7.41241 15.6924 7.30381C15.8579 7.19522 16.052 7.13822 16.25 7.14003C16.4447 7.13594 16.6359 7.19243 16.7971 7.30171C16.9584 7.41098 17.0817 7.56764 17.15 7.75003L23 21.8C23.0497 21.9391 23.0832 22.0833 23.1 22.23C23.1096 22.3671 23.0909 22.5047 23.045 22.6342C22.999 22.7638 22.9269 22.8824 22.8331 22.9828C22.7392 23.0832 22.6257 23.1632 22.4996 23.2178C22.3734 23.2724 22.2374 23.3004 22.1 23.3C21.9336 23.3024 21.7685 23.2718 21.614 23.21C21.4595 23.1483 21.3188 23.0565 21.2 22.94V22.94ZM17.5 1.41003C14.5499 1.1068 11.5772 1.70479 8.97391 3.12514C6.37056 4.5455 4.25883 6.72152 2.91716 9.36627C1.57548 12.011 1.06688 15.0003 1.45841 17.9399C1.84995 20.8796 3.12323 23.6315 5.11036 25.8329C7.09749 28.0343 9.70516 29.5818 12.5895 30.2712C15.4739 30.9606 18.4994 30.7597 21.2673 29.6949C24.0351 28.6301 26.4153 26.7514 28.0938 24.3066C29.7724 21.8618 30.6706 18.9656 30.67 16C30.6493 12.3753 29.2955 8.88482 26.8667 6.19408C24.4378 3.50334 21.1037 1.80045 17.5 1.41003" fill="black"/>
</svg>
