<svg width="32" height="32" viewBox="0 0 32 32" fill="none" xmlns="http://www.w3.org/2000/svg">
<path d="M27.3 23.82C26.887 24.7708 26.3812 25.6785 25.79 26.53C25.2343 27.3812 24.5835 28.1662 23.85 28.87C23.1918 29.5466 22.3026 29.9502 21.36 30C20.565 29.9667 19.784 29.7799 19.06 29.45C18.2772 29.1063 17.4347 28.9195 16.58 28.9C15.7024 28.9168 14.8365 29.1036 14.03 29.45C13.3343 29.765 12.5906 29.961 11.83 30.03C11.3509 30.0224 10.8782 29.9185 10.4401 29.7243C10.002 29.5302 9.60746 29.2498 9.28001 28.9C8.52572 28.1663 7.85497 27.3513 7.28001 26.47C6.36614 25.1599 5.64543 23.7252 5.14001 22.21C4.56051 20.5817 4.25635 18.8683 4.24001 17.14C4.18946 15.4415 4.61183 13.7624 5.46001 12.29C6.06156 11.2111 6.93789 10.3107 8.00001 9.68C9.03567 9.04291 10.2242 8.69741 11.44 8.68C12.3587 8.73406 13.2615 8.94371 14.11 9.3C14.7733 9.62305 15.4759 9.85836 16.2 10C17.0056 9.83069 17.7927 9.58284 18.55 9.26C19.5615 8.84899 20.649 8.65809 21.74 8.7C22.7671 8.72831 23.7743 8.98967 24.6855 9.46434C25.5967 9.93902 26.3882 10.6146 27 11.44C26.031 11.9535 25.2247 12.7273 24.6717 13.6742C24.1187 14.6212 23.841 15.7038 23.87 16.8C23.8611 17.6366 24.0294 18.4657 24.3638 19.2326C24.6981 19.9996 25.191 20.6871 25.81 21.25C26.3745 21.7872 27.0318 22.2175 27.75 22.52C27.6 22.97 27.43 23.41 27.26 23.82H27.3ZM21.9 2.56C21.8772 4.00982 21.3301 5.40234 20.36 6.48C19.8623 7.1646 19.205 7.71737 18.4452 8.09031C17.6854 8.46324 16.846 8.64507 16 8.62C15.9898 8.44348 15.9898 8.26652 16 8.09C16.0346 6.60381 16.6106 5.18139 17.62 4.09C18.1805 3.46482 18.8606 2.9582 19.62 2.6C20.3236 2.25498 21.088 2.05115 21.87 2C21.88 2.18653 21.88 2.37347 21.87 2.56H21.9Z" fill="black"/>
</svg>
