<svg width="32" height="32" viewBox="0 0 32 32" fill="none" xmlns="http://www.w3.org/2000/svg">
<path d="M16 6.5C16.8284 6.5 17.5 5.82843 17.5 5C17.5 4.17157 16.8284 3.5 16 3.5C15.1716 3.5 14.5 4.17157 14.5 5C14.5 5.82843 15.1716 6.5 16 6.5Z" fill="black"/>
<path d="M24 9.5C24.8284 9.5 25.5 8.82843 25.5 8C25.5 7.17157 24.8284 6.5 24 6.5C23.1716 6.5 22.5 7.17157 22.5 8C22.5 8.82843 23.1716 9.5 24 9.5Z" fill="black"/>
<path d="M8 9.5C8.82843 9.5 9.5 8.82843 9.5 8C9.5 7.17157 8.82843 6.5 8 6.5C7.17157 6.5 6.5 7.17157 6.5 8C6.5 8.82843 7.17157 9.5 8 9.5Z" fill="black"/>
<path d="M5 17.5C5.82843 17.5 6.5 16.8284 6.5 16C6.5 15.1716 5.82843 14.5 5 14.5C4.17157 14.5 3.5 15.1716 3.5 16C3.5 16.8284 4.17157 17.5 5 17.5Z" fill="black"/>
<path d="M8 25.5C8.82843 25.5 9.5 24.8284 9.5 24C9.5 23.1716 8.82843 22.5 8 22.5C7.17157 22.5 6.5 23.1716 6.5 24C6.5 24.8284 7.17157 25.5 8 25.5Z" fill="black"/>
<path d="M16 28.5C16.8284 28.5 17.5 27.8284 17.5 27C17.5 26.1716 16.8284 25.5 16 25.5C15.1716 25.5 14.5 26.1716 14.5 27C14.5 27.8284 15.1716 28.5 16 28.5Z" fill="black"/>
<path d="M24 25.5C24.8284 25.5 25.5 24.8284 25.5 24C25.5 23.1716 24.8284 22.5 24 22.5C23.1716 22.5 22.5 23.1716 22.5 24C22.5 24.8284 23.1716 25.5 24 25.5Z" fill="black"/>
<path d="M27 17.5C27.8284 17.5 28.5 16.8284 28.5 16C28.5 15.1716 27.8284 14.5 27 14.5C26.1716 14.5 25.5 15.1716 25.5 16C25.5 16.8284 26.1716 17.5 27 17.5Z" fill="black"/>
</svg>
