<svg width="32" height="32" viewBox="0 0 32 32" fill="none" xmlns="http://www.w3.org/2000/svg">
<path d="M16 22C19.3137 22 22 19.3137 22 16C22 12.6863 19.3137 10 16 10C12.6863 10 10 12.6863 10 16C10 19.3137 12.6863 22 16 22Z" stroke="black" stroke-width="2" stroke-miterlimit="10" stroke-linecap="round"/>
<path d="M25.2 25.2C22.8 27.5 19.6 29 16 29C8.8 29 3 23.2 3 16C3 8.8 8.8 3 16 3C23.2 3 29 8.8 29 16C29 17.9 27.4 19.5 25.5 19.5C23.6 19.5 22 17.9 22 16V10" stroke="black" stroke-width="2" stroke-miterlimit="10" stroke-linecap="round"/>
</svg>
