<svg width="32" height="32" viewBox="0 0 32 32" fill="none" xmlns="http://www.w3.org/2000/svg">
<path d="M14.27 20.73L16.89 16.54C17.0372 16.3039 17.0846 16.0191 17.0218 15.7481C16.9589 15.4771 16.791 15.2422 16.555 15.095C16.319 14.9478 16.0341 14.9004 15.7631 14.9632C15.4921 15.026 15.2572 15.1939 15.11 15.43L13.38 18.2L11.65 15.43C11.5028 15.1939 11.2679 15.026 10.9969 14.9632C10.7259 14.9004 10.441 14.9478 10.205 15.095C9.96896 15.2422 9.80106 15.4771 9.73823 15.7481C9.67541 16.0191 9.72281 16.3039 9.87 16.54L12.49 20.73C12.5739 20.8938 12.7014 21.0312 12.8584 21.1272C13.0155 21.2232 13.196 21.274 13.38 21.274C13.564 21.274 13.7445 21.2232 13.9016 21.1272C14.0586 21.0312 14.1861 20.8938 14.27 20.73V20.73ZM22.21 26.46H24.38C24.5155 26.4668 24.6509 26.4459 24.7781 26.3987C24.9052 26.3515 25.0214 26.2789 25.1197 26.1854C25.2179 26.0918 25.296 25.9793 25.3494 25.8546C25.4027 25.7299 25.4302 25.5956 25.43 25.46V10.75C25.4372 10.6102 25.4149 10.4705 25.3647 10.3398C25.3145 10.2092 25.2374 10.0905 25.1384 9.99155C25.0395 9.89258 24.9208 9.81548 24.7902 9.76526C24.6595 9.71503 24.5198 9.69279 24.38 9.69997H22.2C21.9215 9.69997 21.6545 9.8106 21.4575 10.0075C21.2606 10.2044 21.15 10.4715 21.15 10.75C21.15 11.0285 21.2606 11.2955 21.4575 11.4924C21.6545 11.6893 21.9215 11.8 22.2 11.8H23.33V24.37H22.21C21.9328 24.37 21.6671 24.4801 21.4711 24.676C21.2751 24.872 21.165 25.1378 21.165 25.415C21.165 25.6921 21.2751 25.9579 21.4711 26.1539C21.6671 26.3499 21.9328 26.46 22.21 26.46ZM18.09 24.37H8.67V11.8H18.09V24.37ZM19.14 9.69997H7.62C7.48436 9.6998 7.35011 9.72723 7.22541 9.78058C7.1007 9.83393 6.98816 9.9121 6.89461 10.0103C6.80107 10.1085 6.72849 10.2248 6.68128 10.3519C6.63407 10.4791 6.61322 10.6145 6.62 10.75V25.42C6.62 25.6852 6.72536 25.9395 6.9129 26.1271C7.10043 26.3146 7.35479 26.42 7.62 26.42H19.14C19.2755 26.4268 19.4109 26.4059 19.5381 26.3587C19.6652 26.3115 19.7814 26.2389 19.8797 26.1454C19.9779 26.0518 20.056 25.9393 20.1094 25.8146C20.1627 25.6899 20.1902 25.5556 20.19 25.42V10.75C20.1972 10.6102 20.1749 10.4705 20.1247 10.3398C20.0745 10.2092 19.9974 10.0905 19.8984 9.99155C19.7995 9.89258 19.6808 9.81548 19.5502 9.76526C19.4195 9.71503 19.2798 9.69279 19.14 9.69997ZM30.67 4.45997V27.51C30.67 27.9232 30.5885 28.3323 30.43 28.7139C30.2716 29.0955 30.0394 29.4421 29.7468 29.7338C29.4541 30.0255 29.1068 30.2566 28.7247 30.4138C28.3426 30.571 27.9332 30.6513 27.52 30.65H4.52C4.10681 30.6513 3.69742 30.571 3.3153 30.4138C2.93319 30.2566 2.58586 30.0255 2.29322 29.7338C2.00058 29.4421 1.7684 29.0955 1.60997 28.7139C1.45155 28.3323 1.37 27.9232 1.37 27.51V8.65997C1.36993 7.83143 1.69631 7.03621 2.27843 6.44661C2.86054 5.85701 3.65152 5.52049 4.48 5.50997H13.9C14.1785 5.50997 14.4456 5.6206 14.6425 5.81751C14.8394 6.01442 14.95 6.2815 14.95 6.55997C14.95 6.83845 14.8394 7.10552 14.6425 7.30244C14.4456 7.49935 14.1785 7.60997 13.9 7.60997H4.48C4.34453 7.60319 4.2091 7.62404 4.08195 7.67125C3.95479 7.71846 3.83857 7.79104 3.74035 7.88458C3.64213 7.97813 3.56396 8.09067 3.51061 8.21538C3.45726 8.34008 3.42983 8.47434 3.43 8.60997V27.51C3.42983 27.6456 3.45726 27.7799 3.51061 27.9046C3.56396 28.0293 3.64213 28.1418 3.74035 28.2354C3.83857 28.3289 3.95479 28.4015 4.08195 28.4487C4.2091 28.4959 4.34453 28.5168 4.48 28.51H27.48C27.6155 28.5168 27.7509 28.4959 27.8781 28.4487C28.0052 28.4015 28.1214 28.3289 28.2197 28.2354C28.3179 28.1418 28.396 28.0293 28.4494 27.9046C28.5027 27.7799 28.5302 27.6456 28.53 27.51V4.50997C28.5302 4.37434 28.5027 4.24008 28.4494 4.11538C28.396 3.99067 28.3179 3.87813 28.2197 3.78458C28.1214 3.69104 28.0052 3.61846 27.8781 3.57125C27.7509 3.52404 27.6155 3.50319 27.48 3.50997H2.38C2.10152 3.50997 1.83445 3.39935 1.63754 3.20244C1.44063 3.00552 1.33 2.73845 1.33 2.45997C1.33 2.1815 1.44063 1.91442 1.63754 1.71751C1.83445 1.5206 2.10152 1.40997 2.38 1.40997H27.52C28.3554 1.40997 29.1566 1.74185 29.7474 2.33259C30.3381 2.92333 30.67 3.72454 30.67 4.55997V4.45997Z" fill="black"/>
</svg>
