<svg width="32" height="32" viewBox="0 0 32 32" fill="none" xmlns="http://www.w3.org/2000/svg">
<path d="M21.9 7.1L24.7 8L24 10.8L26 13L24 15.2L24.7 18L21.9 18.9L21 21.7L18.2 21L16 23L13.8 21L11 21.7L10.1 18.9L7.3 18L8 15.2L6 13L8 10.8L7.3 8L10.1 7.1L11 4.3L13.8 5L16 3L18.2 5L21 4.3L21.9 7.1Z" stroke="black" stroke-width="2" stroke-miterlimit="10" stroke-linecap="round" stroke-linejoin="round"/>
<path d="M24 18.2L27.9 25L23 24.4L21 29L17 22.1" stroke="black" stroke-width="2" stroke-miterlimit="10" stroke-linecap="round" stroke-linejoin="round"/>
<path d="M8 18.2L4.1 25L9 24.4L11 29L15 22.1" stroke="black" stroke-width="2" stroke-miterlimit="10" stroke-linecap="round" stroke-linejoin="round"/>
</svg>
