<svg width="32" height="32" viewBox="0 0 32 32" fill="none" xmlns="http://www.w3.org/2000/svg">
<path d="M3 29H17" stroke="black" stroke-width="2" stroke-miterlimit="10" stroke-linecap="round"/>
<path d="M10 20C11.6569 20 13 18.6569 13 17C13 15.3431 11.6569 14 10 14C8.34315 14 7 15.3431 7 17C7 18.6569 8.34315 20 10 20Z" stroke="black" stroke-width="2" stroke-miterlimit="10" stroke-linecap="round"/>
<path d="M8 24H12" stroke="black" stroke-width="2" stroke-miterlimit="10" stroke-linecap="round"/>
<path d="M10.6 14.1L22.4 5.2C23.3 4.5 24.5 4.7 25.2 5.6C25.9 6.5 25.7 7.7 24.8 8.4L13 17.3" stroke="black" stroke-width="2" stroke-miterlimit="10" stroke-linecap="round"/>
<path d="M21.6 5.8L20.8 11.4" stroke="black" stroke-width="2" stroke-miterlimit="10" stroke-linecap="round"/>
<path d="M16.8 9.4L16 15" stroke="black" stroke-width="2" stroke-miterlimit="10" stroke-linecap="round"/>
<path d="M16 15V29" stroke="black" stroke-width="2" stroke-miterlimit="10" stroke-linecap="round"/>
<path d="M4 29V13C4 11.3 5.3 10 7 10H13C13.8 10 14.5 10.3 15 10.8" stroke="black" stroke-width="2" stroke-miterlimit="10" stroke-linecap="round"/>
</svg>
