<svg width="32" height="32" viewBox="0 0 32 32" fill="none" xmlns="http://www.w3.org/2000/svg">
<path d="M23.7 27H8.3C6.9 27 5.8 26.1 5.4 24.8L3 16H29L26.6 24.8C26.2 26.1 25.1 27 23.7 27Z" stroke="black" stroke-width="2" stroke-miterlimit="10" stroke-linecap="round"/>
<path d="M6 16V6C6 4.3 7.3 3 9 3H12C13.7 3 15 4.3 15 6V7" stroke="black" stroke-width="2" stroke-miterlimit="10" stroke-linecap="round"/>
<path d="M12 7H18" stroke="black" stroke-width="2" stroke-miterlimit="10" stroke-linecap="round"/>
<path d="M13 11C13.5523 11 14 10.5523 14 10C14 9.44772 13.5523 9 13 9C12.4477 9 12 9.44772 12 10C12 10.5523 12.4477 11 13 11Z" fill="black"/>
<path d="M17 11C17.5523 11 18 10.5523 18 10C18 9.44772 17.5523 9 17 9C16.4477 9 16 9.44772 16 10C16 10.5523 16.4477 11 17 11Z" fill="black"/>
<path d="M13 14C13.5523 14 14 13.5523 14 13C14 12.4477 13.5523 12 13 12C12.4477 12 12 12.4477 12 13C12 13.5523 12.4477 14 13 14Z" fill="black"/>
<path d="M17 14C17.5523 14 18 13.5523 18 13C18 12.4477 17.5523 12 17 12C16.4477 12 16 12.4477 16 13C16 13.5523 16.4477 14 17 14Z" fill="black"/>
<path d="M9 27V29" stroke="black" stroke-width="2" stroke-miterlimit="10" stroke-linecap="round"/>
<path d="M23 27V29" stroke="black" stroke-width="2" stroke-miterlimit="10" stroke-linecap="round"/>
</svg>
