<svg width="32" height="32" viewBox="0 0 32 32" fill="none" xmlns="http://www.w3.org/2000/svg">
<path d="M22 11H26C27.7 11 29 12.3 29 14V17.2C29 18.9 27.7 20.2 26 20.2H22" stroke="black" stroke-width="2" stroke-miterlimit="10" stroke-linecap="round"/>
<path d="M13 24V16" stroke="black" stroke-width="2" stroke-miterlimit="10" stroke-linecap="round"/>
<path d="M9 24V16" stroke="black" stroke-width="2" stroke-miterlimit="10" stroke-linecap="round"/>
<path d="M17 24V16" stroke="black" stroke-width="2" stroke-miterlimit="10" stroke-linecap="round"/>
<path d="M19 3C17.8 3 16.7 3.5 16 4.4C15.3 3.5 14.2 3 13 3C11.8 3 10.7 3.5 10 4.4C9.3 3.5 8.2 3 7 3C4.8 3 3 4.8 3 7C3 9.2 4.8 11 7 11C8.2 11 9.3 10.5 10 9.6C10.7 10.4 11.8 11 13 11C14.2 11 15.3 10.5 16 9.6C16.7 10.4 17.8 11 19 11C21.2 11 23 9.2 23 7C23 4.8 21.2 3 19 3Z" stroke="black" stroke-width="2" stroke-miterlimit="10" stroke-linecap="round"/>
<path d="M4 9.6V25.2C4 27.3 5.7 29 7.9 29H18.2C20.3 29 22.1 27.3 22.1 25.2V9.6" stroke="black" stroke-width="2" stroke-miterlimit="10" stroke-linecap="round"/>
</svg>
