<svg width="32" height="32" viewBox="0 0 32 32" fill="none" xmlns="http://www.w3.org/2000/svg">
<path d="M27 17V29H3V17H27Z" stroke="black" stroke-width="2" stroke-miterlimit="10" stroke-linecap="round"/>
<path d="M15 29C17.2091 29 19 26.3137 19 23C19 19.6863 17.2091 17 15 17C12.7909 17 11 19.6863 11 23C11 26.3137 12.7909 29 15 29Z" stroke="black" stroke-width="2" stroke-miterlimit="10" stroke-linecap="round"/>
<path d="M7 22V23" stroke="black" stroke-width="2" stroke-miterlimit="10" stroke-linecap="round"/>
<path d="M23 22V23" stroke="black" stroke-width="2" stroke-miterlimit="10" stroke-linecap="round"/>
<path d="M9 14L20 3" stroke="black" stroke-width="2" stroke-miterlimit="10" stroke-linecap="round"/>
<path d="M20 3L28.5 11.5L25.9 14" stroke="black" stroke-width="2" stroke-miterlimit="10" stroke-linecap="round"/>
<path d="M10.6 14C10.5 13 10.8 12.1 11.5 11.5C13.1 9.9 16.2 10.6 18.6 12.9C19 13.3 19.3 13.6 19.5 14" stroke="black" stroke-width="2" stroke-miterlimit="10" stroke-linecap="round"/>
<path d="M20.7 9.4L21.4 10.1" stroke="black" stroke-width="2" stroke-miterlimit="10" stroke-linecap="round"/>
</svg>
