<svg width="32" height="32" viewBox="0 0 32 32" fill="none" xmlns="http://www.w3.org/2000/svg">
<path d="M15.42 1.33002H16.79L18.15 1.39002C18.732 1.40724 19.3127 1.45396 19.89 1.53002C20.46 1.59002 20.89 1.64002 21.42 1.73002C22.09 1.83002 22.76 1.96002 23.42 2.12002C24.3691 2.33404 25.2964 2.63532 26.19 3.02002H26.09C26.649 3.25308 27.1764 3.55545 27.66 3.92002V3.92002C27.9982 4.15581 28.2841 4.45878 28.5 4.81002V4.81002C28.666 5.05472 28.7532 5.34433 28.75 5.64002C28.7553 5.70658 28.7553 5.77345 28.75 5.84002V5.84002L28.59 6.84002C28.48 7.62002 28.36 8.40002 28.23 9.16002C28.08 10.09 27.92 11.01 27.78 11.93C27.64 12.85 27.42 14 27.23 15C27.04 16 26.86 17.15 26.68 18.22C26.6203 18.5909 26.4575 18.9374 26.21 19.22C26.1078 19.347 25.9976 19.4672 25.88 19.58C25.4113 19.9824 24.8898 20.3189 24.33 20.58C23.5176 21.0022 22.6628 21.3374 21.78 21.58H21.69C20.6658 21.8613 19.6182 22.0487 18.56 22.14H18.49C17.93 22.19 17.36 22.23 16.81 22.25H15.89C14.8867 22.2477 13.8847 22.1809 12.89 22.05H13C12.34 21.96 11.68 21.85 11 21.71C10.0661 21.5088 9.1548 21.214 8.28 20.83H8.37C7.4323 20.4713 6.58054 19.9193 5.87 19.21C5.65372 18.9826 5.49886 18.7038 5.42 18.4V18.4L5 16.74C4.89 16.14 4.76 15.33 4.65 14.62C4.54 13.91 4.41 13.28 4.3 12.56C4.19 11.84 4.13 11.39 4 10.8C3.87 10.21 3.84 9.62002 3.74 9.00002L3.48 7.40002C3.39 6.86002 3.32 6.40002 3.25 5.78002V5.63002V5.30002C3.28459 5.06141 3.36983 4.83296 3.5 4.63002C3.71313 4.31524 3.98064 4.04095 4.29 3.82002C4.81524 3.43659 5.39061 3.12704 6 2.90002V2.90002C6.77847 2.57528 7.58085 2.31116 8.4 2.11002H8.52C9.21 1.94002 9.9 1.81002 10.58 1.70002L11.58 1.57002L12.58 1.47002L13.23 1.42002L14.23 1.35002H15.5L15.42 1.33002ZM15.95 3.33002C15.1858 3.31689 14.4214 3.34359 13.66 3.41002C12.9 3.50002 12.44 3.50002 11.82 3.58002C11.2 3.66002 10.82 3.72002 10.2 3.84002C9.68146 3.94202 9.17285 4.08925 8.68 4.28002H8.74C8.53679 4.35696 8.34502 4.46125 8.17 4.59002V4.59002C8.06442 4.65889 7.97281 4.74711 7.9 4.85002V4.85002C7.86235 4.89333 7.835 4.94462 7.82 5.00002C7.8207 5.08645 7.8487 5.17045 7.9 5.24002V5.24002C7.90983 5.31605 7.94507 5.38653 8 5.44002C8.10446 5.52134 8.21476 5.59487 8.33 5.66002V5.66002C8.64548 5.83672 8.98128 5.97439 9.33 6.07002V6.07002C10.154 6.30693 10.9973 6.47089 11.85 6.56002H12C12.49 6.56002 13 6.66002 13.49 6.69002C13.98 6.72002 14.49 6.75002 15.06 6.76002C16.26 6.76002 17.47 6.76002 18.65 6.68002L19.84 6.58002L21.26 6.37002C21.8089 6.28963 22.3506 6.16591 22.88 6.00002H22.8C23.1366 5.91434 23.4551 5.76868 23.74 5.57002V5.57002C23.8384 5.50378 23.9261 5.42284 24 5.33002V5.33002C24.0794 5.23862 24.1221 5.12106 24.12 5.00002C24.108 4.90593 24.0659 4.81824 24 4.75002V4.75002C23.9181 4.66497 23.8313 4.58483 23.74 4.51002V4.51002C23.5369 4.36398 23.3148 4.24623 23.08 4.16002V4.16002C22.4322 3.92316 21.7621 3.75229 21.08 3.65002H21C20.5 3.57002 20 3.51002 19.47 3.46002C18.94 3.41002 18.19 3.35002 17.55 3.32002C16.91 3.29002 16.55 3.32002 16.01 3.32002L15.95 3.33002ZM12 15.51C12.0093 15.7985 12.0394 16.0859 12.09 16.37V16.37C12.2595 17.288 12.7527 18.1147 13.48 18.7V18.7C14.0163 19.1397 14.6632 19.4234 15.35 19.52V19.52C15.5651 19.5527 15.7824 19.5694 16 19.57C16.7349 19.5678 17.455 19.3632 18.0812 18.9786C18.7074 18.5941 19.2156 18.0444 19.55 17.39V17.39C19.8357 16.861 19.99 16.2711 20 15.67V15.67V15.55C20.0025 15.2603 19.9689 14.9714 19.9 14.69C19.7959 14.1129 19.5617 13.5672 19.2151 13.0941C18.8686 12.6211 18.4188 12.2333 17.9 11.96V11.96C17.3119 11.663 16.6585 11.5185 16 11.54H15.49C14.8866 11.5875 14.3035 11.7796 13.79 12.1V12.1C13.2146 12.4573 12.7393 12.9549 12.4087 13.5461C12.0781 14.1372 11.9031 14.8027 11.9 15.48V15.48L12 15.51ZM17.1 30.59C17.7343 30.5729 18.3662 30.506 18.99 30.39C19.7247 30.2727 20.4499 30.1022 21.16 29.88H21.05C21.6961 29.6916 22.3198 29.4334 22.91 29.11V29.11C23.3002 28.8879 23.657 28.6119 23.97 28.29V28.29C24.2306 28.0391 24.4292 27.731 24.55 27.39V27.39C24.568 27.2584 24.5947 27.1281 24.63 27C24.78 26.15 24.93 25.3 25.1 24.44C25.27 23.58 25.39 22.95 25.52 22.2C25.5247 22.1803 25.5247 22.1597 25.52 22.14C25.5204 22.0733 25.4961 22.0088 25.4518 21.959C25.4075 21.9091 25.3463 21.8774 25.28 21.87H25.2C25.0779 21.87 24.9589 21.9085 24.86 21.98V21.98L24.22 22.45C23.2767 23.0066 22.2694 23.4465 21.22 23.76H21.12C20.0852 24.0836 19.0194 24.2981 17.94 24.4H17.87C17.41 24.4 16.87 24.48 16.35 24.49H15.35C14.9711 24.5037 14.5919 24.4735 14.22 24.4C13.682 24.3554 13.1475 24.2752 12.62 24.16H12.72C11.5462 23.9347 10.4021 23.5757 9.31 23.09H9.41C8.70444 22.7747 8.03407 22.3859 7.41 21.93V21.93C7.27614 21.8937 7.13547 21.8902 7 21.92H6.9C6.79827 21.919 6.69961 21.9549 6.62236 22.0211C6.54512 22.0873 6.49453 22.1793 6.48 22.28V22.28C6.47503 22.3332 6.47503 22.3868 6.48 22.44C6.46967 22.4962 6.46967 22.5538 6.48 22.61V22.61L7 25.08C7.1 25.67 7.21 26.25 7.32 26.82C7.30787 26.9971 7.3352 27.1747 7.4 27.34C7.50548 27.7217 7.7129 28.0674 8 28.34V28.34C8.32498 28.6625 8.69561 28.9354 9.1 29.15V29.15C9.73306 29.4965 10.4042 29.7684 11.1 29.96H11.17C12.1515 30.2348 13.1554 30.4222 14.17 30.52H14.24C14.82 30.58 15.4 30.6 15.97 30.61H17.09L17.1 30.59ZM18 15.27C17.9854 14.7396 17.7607 14.2367 17.3753 13.8719C16.9899 13.5072 16.4754 13.3104 15.945 13.325C15.4146 13.3396 14.9117 13.5643 14.5469 13.9497C14.1821 14.3351 13.9854 14.8496 14 15.38C13.9951 15.4199 13.9951 15.4602 14 15.5C14.0146 16.0305 14.2393 16.5334 14.6247 16.8981C15.0101 17.2629 15.5246 17.4596 16.055 17.445C16.5854 17.4304 17.0883 17.2057 17.4531 16.8203C17.8179 16.435 18.0146 15.9205 18 15.39C18 15.39 18 15.32 18 15.28V15.27Z" fill="black"/>
</svg>
