<svg width="32" height="32" viewBox="0 0 32 32" fill="none" xmlns="http://www.w3.org/2000/svg">
<path d="M28.12 16.05L16 3.93002L10.69 9.21002L16.75 15.21C16.943 15.408 17.051 15.6735 17.051 15.95C17.051 16.2265 16.943 16.4921 16.75 16.69L10.69 22.83L16 28.16L28.12 16.05ZM10.31 20.33L14.54 16.05L10.31 11.76V20.33ZM30.31 16.81L16.75 30.37C16.552 30.563 16.2865 30.6711 16.01 30.6711C15.7335 30.6711 15.4679 30.563 15.27 30.37L8.42999 23.53C8.27846 23.3461 8.19072 23.118 8.17999 22.88V9.21002C8.18178 8.93408 8.28912 8.6693 8.47999 8.47002L15.32 1.63002C15.5193 1.43915 15.7841 1.33181 16.06 1.33002C16.3355 1.3338 16.5996 1.44086 16.8 1.63002L30.34 15.3C30.5269 15.5031 30.6307 15.769 30.6307 16.045C30.6307 16.321 30.5269 16.5869 30.34 16.79L30.31 16.81ZM6.55999 13.39L3.89999 16.05L6.55999 18.7C6.73232 18.8348 6.8557 19.0224 6.91121 19.234C6.96673 19.4456 6.95131 19.6696 6.86733 19.8716C6.78334 20.0736 6.63542 20.2425 6.44625 20.3524C6.25707 20.4623 6.03708 20.5071 5.81999 20.48C5.54385 20.4792 5.2787 20.3718 5.07999 20.18L1.66999 16.76C1.57183 16.6639 1.49454 16.5486 1.44292 16.4213C1.3913 16.2939 1.36648 16.1574 1.36999 16.02C1.36863 15.7435 1.47644 15.4776 1.66999 15.28L5.07999 11.86C5.18023 11.7569 5.29987 11.6747 5.43202 11.6181C5.56417 11.5615 5.70622 11.5315 5.84999 11.53C5.98545 11.5232 6.12089 11.5441 6.24804 11.5913C6.3752 11.6385 6.49142 11.7111 6.58964 11.8046C6.68786 11.8982 6.76603 12.0107 6.81938 12.1354C6.87273 12.2601 6.90016 12.3944 6.89999 12.53C6.90269 12.6754 6.87367 12.8195 6.81495 12.9525C6.75623 13.0855 6.66922 13.2041 6.55999 13.3V13.39Z" fill="black"/>
</svg>
