<svg width="32" height="32" viewBox="0 0 32 32" fill="none" xmlns="http://www.w3.org/2000/svg">
<path d="M20.4 21H2.8V29H20.4V21Z" stroke="black" stroke-width="2" stroke-miterlimit="10" stroke-linecap="round"/>
<path d="M8.6 21V18.9C8.6 18.3 8.1 17.8 7.5 17.8H5.4C4.8 17.8 4.3 18.3 4.3 18.9V21" stroke="black" stroke-width="2" stroke-miterlimit="10" stroke-linecap="round"/>
<path d="M28.799 17.2716L15.647 4.11956L9.99016 9.77636L23.1422 22.9284L28.799 17.2716Z" stroke="black" stroke-width="2" stroke-miterlimit="10" stroke-linecap="round"/>
<path d="M21.9548 5.91294L18.985 2.94312L16.7223 5.20584L19.6921 8.17566L21.9548 5.91294Z" stroke="black" stroke-width="2" stroke-miterlimit="10" stroke-linecap="round"/>
<path d="M29.8339 13.8214L26.8641 10.8516L24.6014 13.1143L27.5712 16.0841L29.8339 13.8214Z" stroke="black" stroke-width="2" stroke-miterlimit="10" stroke-linecap="round"/>
<path d="M18.7 21V18.5" stroke="black" stroke-width="2" stroke-miterlimit="10" stroke-linecap="round"/>
<path d="M18.1 17.9H15.6C15 17.9 14.5 18.4 14.5 19V21" stroke="black" stroke-width="2" stroke-miterlimit="10" stroke-linecap="round"/>
</svg>
