<svg width="32" height="32" viewBox="0 0 32 32" fill="none" xmlns="http://www.w3.org/2000/svg">
<path d="M16 9.4C23.1797 9.4 29 7.96731 29 6.2C29 4.43269 23.1797 3 16 3C8.8203 3 3 4.43269 3 6.2C3 7.96731 8.8203 9.4 16 9.4Z" stroke="black" stroke-width="2" stroke-miterlimit="10" stroke-linecap="round"/>
<path d="M3 6.2V25.7C3 27.5 8.8 29 16 29C23.2 29 29 27.5 29 25.8V6.2" stroke="black" stroke-width="2" stroke-miterlimit="10" stroke-linecap="round"/>
<path d="M19 13L13 19H19L13 25" stroke="black" stroke-width="2" stroke-miterlimit="10" stroke-linecap="round"/>
<path d="M9.7 22.1C5.7 21.5 3 20.5 3 19.3" stroke="black" stroke-width="2" stroke-miterlimit="10" stroke-linecap="round"/>
<path d="M29 19.2C29 20.5 26.1 21.6 21.9 22.1" stroke="black" stroke-width="2" stroke-miterlimit="10" stroke-linecap="round"/>
<path d="M9.8 15.6C5.7 15 3 14 3 12.8" stroke="black" stroke-width="2" stroke-miterlimit="10" stroke-linecap="round"/>
<path d="M29 12.8C29 14 26.3 15.1 22.3 15.6" stroke="black" stroke-width="2" stroke-miterlimit="10" stroke-linecap="round"/>
</svg>
