<svg width="32" height="32" viewBox="0 0 32 32" fill="none" xmlns="http://www.w3.org/2000/svg">
<path d="M26 27.1H6C4.3 27.1 3 25.8 3 24.1V11.6C3 9.89999 4.3 8.59999 6 8.59999H10.4L12.3 4.89999H19.7L21.6 8.59999H26C27.7 8.59999 29 9.89999 29 11.6V24.2C29 25.8 27.7 27.1 26 27.1Z" stroke="black" stroke-width="2" stroke-miterlimit="10" stroke-linecap="round"/>
<path d="M16 23C18.7614 23 21 20.7614 21 18C21 15.2386 18.7614 13 16 13C13.2386 13 11 15.2386 11 18C11 20.7614 13.2386 23 16 23Z" stroke="black" stroke-width="2" stroke-miterlimit="10" stroke-linecap="round"/>
</svg>
