<svg width="32" height="32" viewBox="0 0 32 32" fill="none" xmlns="http://www.w3.org/2000/svg">
<path d="M8 24C9.65685 24 11 22.6569 11 21C11 19.3431 9.65685 18 8 18C6.34315 18 5 19.3431 5 21C5 22.6569 6.34315 24 8 24Z" stroke="black" stroke-width="2" stroke-miterlimit="10" stroke-linecap="round" stroke-linejoin="round"/>
<path d="M24 24C25.6569 24 27 22.6569 27 21C27 19.3431 25.6569 18 24 18C22.3431 18 21 19.3431 21 21C21 22.6569 22.3431 24 24 24Z" stroke="black" stroke-width="2" stroke-miterlimit="10" stroke-linecap="round" stroke-linejoin="round"/>
<path d="M5 21C5 21 3 21 3 18C3 15 12 8 21 8C30 8 29 15 29 18C29 21 27 21 27 21" stroke="black" stroke-width="2" stroke-miterlimit="10" stroke-linecap="round" stroke-linejoin="round"/>
<path d="M11 21H21" stroke="black" stroke-width="2" stroke-miterlimit="10" stroke-linecap="round" stroke-linejoin="round"/>
<path d="M16 18C16.5523 18 17 17.5523 17 17C17 16.4477 16.5523 16 16 16C15.4477 16 15 16.4477 15 17C15 17.5523 15.4477 18 16 18Z" fill="black"/>
<path d="M16 14V12" stroke="black" stroke-width="2" stroke-miterlimit="10" stroke-linecap="round"/>
</svg>
