<svg width="32" height="32" viewBox="0 0 32 32" fill="none" xmlns="http://www.w3.org/2000/svg">
<path d="M10 29C11.1046 29 12 28.1046 12 27C12 25.8954 11.1046 25 10 25C8.89543 25 8 25.8954 8 27C8 28.1046 8.89543 29 10 29Z" stroke="black" stroke-width="2" stroke-miterlimit="10" stroke-linecap="round"/>
<path d="M23 29C24.1046 29 25 28.1046 25 27C25 25.8954 24.1046 25 23 25C21.8954 25 21 25.8954 21 27C21 28.1046 21.8954 29 23 29Z" stroke="black" stroke-width="2" stroke-miterlimit="10" stroke-linecap="round"/>
<path d="M3 3H6L7.7 18.3C7.9 19.8 9.2 21 10.7 21H22.1C23.3 21 24.3 20.3 24.8 19.2L29 10" stroke="black" stroke-width="2" stroke-miterlimit="10" stroke-linecap="round"/>
<path d="M6.7 10H29" stroke="black" stroke-width="2" stroke-miterlimit="10" stroke-linecap="round"/>
<path d="M12 27H21" stroke="black" stroke-width="2" stroke-miterlimit="10" stroke-linecap="round"/>
</svg>
