<svg width="32" height="32" viewBox="0 0 32 32" fill="none" xmlns="http://www.w3.org/2000/svg">
<path d="M30.64 16V27.6C30.6503 27.7098 30.6503 27.8202 30.64 27.93C30.64 28.654 30.3524 29.3484 29.8404 29.8604C29.3284 30.3724 28.634 30.66 27.91 30.66C27.7969 30.6696 27.6831 30.6696 27.57 30.66H4.16C3.41209 30.66 2.69481 30.3629 2.16596 29.834C1.63711 29.3052 1.34 28.5879 1.34 27.84C1.34 27.74 1.34 27.64 1.34 27.54V4.44999C1.33482 4.35339 1.33482 4.25659 1.34 4.15999C1.34 3.40943 1.63816 2.68961 2.16889 2.15888C2.69962 1.62815 3.41944 1.32999 4.17 1.32999C4.29314 1.3201 4.41687 1.3201 4.54 1.32999H27.54C29.6133 1.32999 30.6467 2.35999 30.64 4.41999V16.02V16ZM23.93 7.13999C23.43 6.88999 23.02 6.64999 22.59 6.46999C20.1372 5.45111 17.506 4.93099 14.85 4.93999H14.32C11 4.99999 8.84 6.99999 8.76 10.25C8.66 14.01 8.68 17.77 8.76 21.51C8.81 24.51 10.47 26.51 13.47 26.67C13.79 26.67 14.17 26.67 14.55 26.67C16.1806 26.6705 17.8066 26.4962 19.4 26.15H19.25C20.9478 25.7356 22.6178 25.2146 24.25 24.59L23.97 24.68C23.5 23.68 23.1 22.97 22.79 22.2C22.48 21.43 22.24 21.46 21.53 21.67C19.7173 22.2449 17.8703 22.7058 16 23.05H15.7C13.82 23.36 12.86 22.38 12.86 20.46V11C12.8544 10.9001 12.8544 10.7999 12.86 10.7C12.86 10.4286 12.9136 10.1599 13.0178 9.90935C13.1219 9.65876 13.2745 9.43122 13.4669 9.2398C13.6592 9.04838 13.8875 8.89685 14.1386 8.79392C14.3897 8.69098 14.6586 8.63867 14.93 8.63999H15.31C16.124 8.64303 16.9353 8.73355 17.73 8.90999H17.66C19.24 9.26999 20.76 9.74999 22.47 10.19L23.93 7.18999V7.13999Z" fill="black"/>
</svg>
