<svg width="32" height="32" viewBox="0 0 32 32" fill="none" xmlns="http://www.w3.org/2000/svg">
<path d="M12 19L16 15L20 19" stroke="black" stroke-width="2" stroke-miterlimit="10" stroke-linecap="round"/>
<path d="M16 27V15.1" stroke="black" stroke-width="2" stroke-miterlimit="10" stroke-linecap="round"/>
<path d="M11 24H9.5C5.9 24 3 21.1 3 17.5C3 13.9 5.9 11 9.5 11C10.4 11 11.2 11.2 12 11.5C12.3 7.9 15.3 5 19 5C22.9 5 26 8.1 26 12C26 12.8 25.9 13.6 25.6 14.3C27.6 15 29 16.8 29 19C29 21.8 26.8 24 24 24H21" stroke="black" stroke-width="2" stroke-miterlimit="10" stroke-linecap="round"/>
</svg>
