<svg width="32" height="32" viewBox="0 0 32 32" fill="none" xmlns="http://www.w3.org/2000/svg">
<path d="M12 25L16 29L20 25" stroke="black" stroke-width="2" stroke-miterlimit="10" stroke-linecap="round"/>
<path d="M16 17V28.9" stroke="black" stroke-width="2" stroke-miterlimit="10" stroke-linecap="round"/>
<path d="M11 22H9.5C5.9 22 3 19.1 3 15.5C3 11.9 5.9 9 9.5 9C10.4 9 11.2 9.2 12 9.5C12.3 5.9 15.3 3 19 3C22.9 3 26 6.1 26 10C26 10.8 25.9 11.6 25.6 12.3C27.6 13 29 14.8 29 17C29 19.8 26.8 22 24 22H21" stroke="black" stroke-width="2" stroke-miterlimit="10" stroke-linecap="round"/>
</svg>
