<svg width="32" height="32" viewBox="0 0 32 32" fill="none" xmlns="http://www.w3.org/2000/svg">
<path d="M13 3H11C9.3 3 8 4.3 8 6V13C8 14.7 6.7 16 5 16" stroke="black" stroke-width="2" stroke-miterlimit="10" stroke-linecap="round"/>
<path d="M13 29H11C9.3 29 8 27.7 8 26V19C8 17.3 6.7 16 5 16H4" stroke="black" stroke-width="2" stroke-miterlimit="10" stroke-linecap="round"/>
<path d="M19 3H21C22.7 3 24 4.3 24 6V13C24 14.7 25.3 16 27 16" stroke="black" stroke-width="2" stroke-miterlimit="10" stroke-linecap="round"/>
<path d="M19 29H21C22.7 29 24 27.7 24 26V19C24 17.3 25.3 16 27 16H28" stroke="black" stroke-width="2" stroke-miterlimit="10" stroke-linecap="round"/>
</svg>
