<svg width="32" height="32" viewBox="0 0 32 32" fill="none" xmlns="http://www.w3.org/2000/svg">
<path d="M23.5 9C26.5376 9 29 7.88071 29 6.5C29 5.11929 26.5376 4 23.5 4C20.4624 4 18 5.11929 18 6.5C18 7.88071 20.4624 9 23.5 9Z" stroke="black" stroke-width="2" stroke-miterlimit="10" stroke-linecap="round"/>
<path d="M29 10.5C29 11.9 26.5 13 23.5 13C20.5 13 18 11.9 18 10.5" stroke="black" stroke-width="2" stroke-miterlimit="10" stroke-linecap="round"/>
<path d="M29 14.5C29 15.9 26.5 17 23.5 17C20.5 17 18 15.9 18 14.5" stroke="black" stroke-width="2" stroke-miterlimit="10" stroke-linecap="round"/>
<path d="M29 18.5C29 19.9 26.5 21 23.5 21C20.5 21 18 19.9 18 18.5" stroke="black" stroke-width="2" stroke-miterlimit="10" stroke-linecap="round"/>
<path d="M29 22.5C29 23.9 26.5 25 23.5 25C20.5 25 18 23.9 18 22.5" stroke="black" stroke-width="2" stroke-miterlimit="10" stroke-linecap="round"/>
<path d="M29 26.5C29 27.9 26.5 29 23.5 29C20.5 29 18 27.9 18 26.5" stroke="black" stroke-width="2" stroke-miterlimit="10" stroke-linecap="round"/>
<path d="M8.5 17C11.5376 17 14 15.8807 14 14.5C14 13.1193 11.5376 12 8.5 12C5.46243 12 3 13.1193 3 14.5C3 15.8807 5.46243 17 8.5 17Z" stroke="black" stroke-width="2" stroke-miterlimit="10" stroke-linecap="round"/>
<path d="M14 18.5C14 19.9 11.5 21 8.5 21C5.5 21 3 19.9 3 18.5" stroke="black" stroke-width="2" stroke-miterlimit="10" stroke-linecap="round"/>
<path d="M14 22.5C14 23.9 11.5 25 8.5 25C5.5 25 3 23.9 3 22.5" stroke="black" stroke-width="2" stroke-miterlimit="10" stroke-linecap="round"/>
<path d="M14 26.5C14 27.9 11.5 29 8.5 29C5.5 29 3 27.9 3 26.5" stroke="black" stroke-width="2" stroke-miterlimit="10" stroke-linecap="round"/>
</svg>
