<svg width="32" height="32" viewBox="0 0 32 32" fill="none" xmlns="http://www.w3.org/2000/svg">
<path d="M22 28C25.866 28 29 24.866 29 21C29 17.134 25.866 14 22 14C18.134 14 15 17.134 15 21C15 24.866 18.134 28 22 28Z" stroke="black" stroke-width="2" stroke-miterlimit="10" stroke-linecap="round"/>
<path d="M19 14.7V11C19 10.4 18.6 10 18 10H6C5.4 10 5 10.4 5 11V15C5 15.6 5.4 16 6 16H17.1" stroke="black" stroke-width="2" stroke-miterlimit="10" stroke-linecap="round"/>
<path d="M16 4H4C3.4 4 3 4.4 3 5V9C3 9.6 3.4 10 4 10H16C16.6 10 17 9.6 17 9V5C17 4.4 16.6 4 16 4Z" stroke="black" stroke-width="2" stroke-miterlimit="10" stroke-linecap="round"/>
<path d="M17.1 16H7C6.4 16 6 16.4 6 17V21C6 21.6 6.4 22 7 22H15.1" stroke="black" stroke-width="2" stroke-miterlimit="10" stroke-linecap="round"/>
<path d="M15.1 22H5C4.4 22 4 22.4 4 23V27C4 27.6 4.4 28 5 28H17C17.6 28 18 27.6 18 27V26.7" stroke="black" stroke-width="2" stroke-miterlimit="10" stroke-linecap="round"/>
</svg>
