<svg width="32" height="32" viewBox="0 0 32 32" fill="none" xmlns="http://www.w3.org/2000/svg">
<path d="M22.5 29C25.5376 29 28 26.5376 28 23.5C28 20.4624 25.5376 18 22.5 18C19.4624 18 17 20.4624 17 23.5C17 26.5376 19.4624 29 22.5 29Z" stroke="black" stroke-width="2" stroke-miterlimit="10" stroke-linecap="round"/>
<path d="M17.4 21.5C16.4 21.8 15.3 22 14 22C10.7 22 8 20.7 8 19V15" stroke="black" stroke-width="2" stroke-miterlimit="10" stroke-linecap="round"/>
<path d="M20 15V18.6" stroke="black" stroke-width="2" stroke-miterlimit="10" stroke-linecap="round"/>
<path d="M12 11C15.3137 11 18 9.65685 18 8C18 6.34315 15.3137 5 12 5C8.68629 5 6 6.34315 6 8C6 9.65685 8.68629 11 12 11Z" stroke="black" stroke-width="2" stroke-miterlimit="10" stroke-linecap="round"/>
<path d="M18 8V12C18 12.2 17.9 12.5 17.8 12.7C17.2 14 14.8 15 12 15C10.6 15 9.2 14.7 8.2 14.3C6.8 13.8 6 12.9 6 12V8" stroke="black" stroke-width="2" stroke-miterlimit="10" stroke-linecap="round"/>
<path d="M15.7 21.9C15 23.1 12.7 24 10 24C6.7 24 4 22.7 4 21C4 19.7 5.7 18.6 8 18.2" stroke="black" stroke-width="2" stroke-miterlimit="10" stroke-linecap="round"/>
<path d="M16 21.8V25C16 26.7 13.3 28 10 28C6.7 28 4 26.7 4 25V21" stroke="black" stroke-width="2" stroke-miterlimit="10" stroke-linecap="round"/>
<path d="M17.8 12.7C19.1 13.3 20 14.1 20 15C20 16.7 17.3 18 14 18C10.7 18 8 16.7 8 15C8 14.8 8.1 14.5 8.2 14.3" stroke="black" stroke-width="2" stroke-miterlimit="10" stroke-linecap="round"/>
</svg>
