<svg width="32" height="32" viewBox="0 0 32 32" fill="none" xmlns="http://www.w3.org/2000/svg">
<path d="M10 24H26C27.7 24 29 22.7 29 21V7C29 5.3 27.7 4 26 4H6C4.3 4 3 5.3 3 7V27C3 28.3 4.6 29 5.6 28.1L10 24Z" stroke="black" stroke-width="2" stroke-miterlimit="10"/>
<path d="M9 15.5C9.82843 15.5 10.5 14.8284 10.5 14C10.5 13.1716 9.82843 12.5 9 12.5C8.17157 12.5 7.5 13.1716 7.5 14C7.5 14.8284 8.17157 15.5 9 15.5Z" fill="black"/>
<path d="M16 15.5C16.8284 15.5 17.5 14.8284 17.5 14C17.5 13.1716 16.8284 12.5 16 12.5C15.1716 12.5 14.5 13.1716 14.5 14C14.5 14.8284 15.1716 15.5 16 15.5Z" fill="black"/>
<path d="M23 15.5C23.8284 15.5 24.5 14.8284 24.5 14C24.5 13.1716 23.8284 12.5 23 12.5C22.1716 12.5 21.5 13.1716 21.5 14C21.5 14.8284 22.1716 15.5 23 15.5Z" fill="black"/>
</svg>
