<svg width="32" height="32" viewBox="0 0 32 32" fill="none" xmlns="http://www.w3.org/2000/svg">
<path d="M9.5 12C10.3284 12 11 11.3284 11 10.5C11 9.67157 10.3284 9 9.5 9C8.67157 9 8 9.67157 8 10.5C8 11.3284 8.67157 12 9.5 12Z" fill="black"/>
<path d="M22.5 12C23.3284 12 24 11.3284 24 10.5C24 9.67157 23.3284 9 22.5 9C21.6716 9 21 9.67157 21 10.5C21 11.3284 21.6716 12 22.5 12Z" fill="black"/>
<path d="M12.5 15C13.3284 15 14 14.3284 14 13.5C14 12.6716 13.3284 12 12.5 12C11.6716 12 11 12.6716 11 13.5C11 14.3284 11.6716 15 12.5 15Z" fill="black"/>
<path d="M19.5 15C20.3284 15 21 14.3284 21 13.5C21 12.6716 20.3284 12 19.5 12C18.6716 12 18 12.6716 18 13.5C18 14.3284 18.6716 15 19.5 15Z" fill="black"/>
<path d="M28.8 23.6L28 12.4C28 12.2 28 12.1 28 11.9C28 8.29999 25.1 5.39999 21.5 5.39999C20.2 5.39999 19 5.79999 18 6.39999H14C13 5.79999 11.8 5.39999 10.5 5.39999C7 5.39999 4 8.39999 4 11.9C4 12.1 4 12.2 4 12.4L3.2 23.6C3.1 24.7 3.7 25.8 4.7 26.3C6 27 7.6 26.5 8.3 25.2L12 18.5H20L23.7 25.2C24.4 26.5 26 27 27.3 26.3C28.3 25.8 28.9 24.7 28.8 23.6Z" stroke="black" stroke-width="2" stroke-miterlimit="10" stroke-linecap="round" stroke-linejoin="round"/>
</svg>
