<svg width="32" height="32" viewBox="0 0 32 32" fill="none" xmlns="http://www.w3.org/2000/svg">
<path d="M16 11C23.1797 11 29 9.20914 29 7C29 4.79086 23.1797 3 16 3C8.8203 3 3 4.79086 3 7C3 9.20914 8.8203 11 16 11Z" stroke="black" stroke-width="2" stroke-miterlimit="10" stroke-linecap="round"/>
<path d="M29 25V7" stroke="black" stroke-width="2" stroke-miterlimit="10" stroke-linecap="round"/>
<path d="M3 7V25" stroke="black" stroke-width="2" stroke-miterlimit="10" stroke-linecap="round"/>
<path d="M29 25C29 27.2 23.2 29 16 29C8.8 29 3 27.2 3 25" stroke="black" stroke-width="2" stroke-miterlimit="10" stroke-linecap="round"/>
<path d="M29 19C29 21.2 23.2 23 16 23C8.8 23 3 21.2 3 19" stroke="black" stroke-width="2" stroke-miterlimit="10" stroke-linecap="round"/>
<path d="M29 13C29 15.2 23.2 17 16 17C8.8 17 3 15.2 3 13" stroke="black" stroke-width="2" stroke-miterlimit="10" stroke-linecap="round"/>
</svg>
