<svg width="32" height="32" viewBox="0 0 32 32" fill="none" xmlns="http://www.w3.org/2000/svg">
<path d="M23 30C26.866 30 30 26.866 30 23C30 19.134 26.866 16 23 16C19.134 16 16 19.134 16 23C16 26.866 19.134 30 23 30Z" stroke="black" stroke-width="2" stroke-miterlimit="10"/>
<path d="M23 24C23.5523 24 24 23.5523 24 23C24 22.4477 23.5523 22 23 22C22.4477 22 22 22.4477 22 23C22 23.5523 22.4477 24 23 24Z" fill="black"/>
<path d="M20 24C20.5523 24 21 23.5523 21 23C21 22.4477 20.5523 22 20 22C19.4477 22 19 22.4477 19 23C19 23.5523 19.4477 24 20 24Z" fill="black"/>
<path d="M26 24C26.5523 24 27 23.5523 27 23C27 22.4477 26.5523 22 26 22C25.4477 22 25 22.4477 25 23C25 23.5523 25.4477 24 26 24Z" fill="black"/>
<path d="M16 11C23.1797 11 29 9.20914 29 7C29 4.79086 23.1797 3 16 3C8.8203 3 3 4.79086 3 7C3 9.20914 8.8203 11 16 11Z" stroke="black" stroke-width="2" stroke-miterlimit="10" stroke-linecap="round"/>
<path d="M29 15V7" stroke="black" stroke-width="2" stroke-miterlimit="10" stroke-linecap="round"/>
<path d="M3 7V25" stroke="black" stroke-width="2" stroke-miterlimit="10" stroke-linecap="round"/>
<path d="M15 29C8.3 28.8 3 27.1 3 25" stroke="black" stroke-width="2" stroke-miterlimit="10" stroke-linecap="round"/>
<path d="M13 22.9C7.3 22.5 3 20.9 3 19" stroke="black" stroke-width="2" stroke-miterlimit="10" stroke-linecap="round"/>
<path d="M15 17C8.3 16.8 3 15.1 3 13" stroke="black" stroke-width="2" stroke-miterlimit="10" stroke-linecap="round"/>
<path d="M29 13C29 13.5 28.7 14 28.1 14.4" stroke="black" stroke-width="2" stroke-miterlimit="10" stroke-linecap="round"/>
</svg>
