<svg width="32" height="32" viewBox="0 0 32 32" fill="none" xmlns="http://www.w3.org/2000/svg">
<path fill-rule="evenodd" clip-rule="evenodd" d="M16 30.67V25C17.4687 25.0017 18.9156 24.644 20.2143 23.9581C21.513 23.2721 22.624 22.2787 23.4505 21.0646C24.277 19.8505 24.7938 18.4525 24.9559 16.9928C25.1179 15.533 24.9202 14.0558 24.38 12.69C23.9485 11.5385 23.2715 10.4948 22.396 9.63131C21.5204 8.76787 20.4674 8.10541 19.31 7.68998C17.9497 7.15196 16.4788 6.95361 15.0246 7.11213C13.5703 7.27064 12.1767 7.78124 10.9642 8.5997C9.75181 9.41817 8.75715 10.5198 8.0664 11.8093C7.37565 13.0988 7.00962 14.5372 7 16H1.33C1.33572 13.6737 1.89269 11.382 2.95524 9.31256C4.0178 7.24316 5.55568 5.45505 7.44281 4.09483C9.32994 2.73461 11.5126 1.84102 13.8118 1.48732C16.111 1.13361 18.4613 1.32986 20.67 2.05998C22.8444 2.74708 24.8217 3.94705 26.4351 5.55867C28.0485 7.17029 29.2506 9.14629 29.94 11.32C30.6721 13.5293 30.8698 15.8807 30.5171 18.1812C30.1643 20.4817 29.271 22.6658 27.9106 24.5542C26.5501 26.4427 24.7613 27.9816 22.6909 29.0447C20.6204 30.1078 18.3274 30.6648 16 30.67ZM10.35 25H16V19.34H10.35V25ZM6 29.35H10.34V25H6V29.35ZM2.36 25H6V21.37H2.36V25Z" fill="black"/>
</svg>
