<svg width="32" height="32" viewBox="0 0 32 32" fill="none" xmlns="http://www.w3.org/2000/svg">
<path d="M26 24H6C4.3 24 3 22.7 3 21V11C3 9.3 4.3 8 6 8H26C27.7 8 29 9.3 29 11V21C29 22.7 27.7 24 26 24Z" stroke="black" stroke-width="2" stroke-miterlimit="10" stroke-linecap="round"/>
<path d="M10 13C10.5523 13 11 12.5523 11 12C11 11.4477 10.5523 11 10 11C9.44772 11 9 11.4477 9 12C9 12.5523 9.44772 13 10 13Z" fill="black"/>
<path d="M10 17C10.5523 17 11 16.5523 11 16C11 15.4477 10.5523 15 10 15C9.44772 15 9 15.4477 9 16C9 16.5523 9.44772 17 10 17Z" fill="black"/>
<path d="M10 21C10.5523 21 11 20.5523 11 20C11 19.4477 10.5523 19 10 19C9.44772 19 9 19.4477 9 20C9 20.5523 9.44772 21 10 21Z" fill="black"/>
<path d="M16.5 20L24.5 12" stroke="black" stroke-width="2" stroke-miterlimit="10" stroke-linecap="round"/>
<path d="M17.5 14C18.3284 14 19 13.3284 19 12.5C19 11.6716 18.3284 11 17.5 11C16.6716 11 16 11.6716 16 12.5C16 13.3284 16.6716 14 17.5 14Z" stroke="black" stroke-width="2" stroke-miterlimit="10" stroke-linecap="round"/>
<path d="M23.5 21C24.3284 21 25 20.3284 25 19.5C25 18.6716 24.3284 18 23.5 18C22.6716 18 22 18.6716 22 19.5C22 20.3284 22.6716 21 23.5 21Z" stroke="black" stroke-width="2" stroke-miterlimit="10" stroke-linecap="round"/>
</svg>
