<svg width="32" height="32" viewBox="0 0 32 32" fill="none" xmlns="http://www.w3.org/2000/svg">
<path d="M1.33 16.53C1.36952 16.4 1.39303 16.2657 1.4 16.13V16.13C1.4 15.87 1.5 15.75 1.81 15.75H21.48C22.1076 15.7506 22.7293 15.6283 23.31 15.39V15.39L23.66 15.23C23.2917 14.5589 23.099 13.8056 23.1 13.04C23.085 12.8403 23.085 12.6397 23.1 12.44C23.2221 11.4649 23.6212 10.5453 24.25 9.79002V9.79002C24.8183 10.0892 25.3219 10.4976 25.7321 10.9918C26.1422 11.486 26.4507 12.0563 26.64 12.67V12.67C26.75 13.11 26.74 13.06 27.18 13.03C27.4521 12.9976 27.7263 12.9875 28 13C28.9739 12.9998 29.9202 13.3235 30.69 13.92V13.92C30.3601 14.8144 29.7719 15.5906 29 16.15C28.2796 16.5865 27.4523 16.815 26.61 16.81H26.41C26.3212 16.8099 26.2347 16.8379 26.1628 16.89C26.091 16.9421 26.0375 17.0156 26.01 17.1V17.1C25.0653 19.3612 23.5707 21.3505 21.6619 22.8873C19.7532 24.4241 17.4907 25.4597 15.08 25.9H14.99C13.7752 26.1435 12.539 26.2641 11.3 26.26H10.72C8.85346 26.2769 7.01647 25.7935 5.4 24.86V24.86C3.65272 23.7408 2.38935 22.0064 1.86 20V19.94C1.69636 19.2814 1.5728 18.6136 1.49 17.94V17.84C1.49 17.72 1.44 17.63 1.41 17.53L1.33 16.53ZM14.33 5.71002V8.17002C14.33 8.40002 14.4 8.46002 14.63 8.46002H17C17.24 8.46002 17.32 8.39002 17.32 8.14002V5.71002H14.33ZM9.88 11.83C10.09 11.83 10.18 11.83 10.17 11.55V9.32002C10.17 9.13002 10.17 9.06002 9.92 9.06002H7.44C7.24 9.06002 7.18 9.13002 7.19 9.32002V11.55C7.19 11.78 7.27 11.83 7.47 11.83H9.88ZM17.09 11.83C17.29 11.83 17.36 11.75 17.35 11.56V9.32002C17.35 9.14002 17.35 9.06002 17.1 9.06002H14.63C14.43 9.06002 14.36 9.12002 14.36 9.32002V11.55C14.36 11.77 14.44 11.83 14.65 11.83H17.09ZM11 9.06002C10.82 9.06002 10.76 9.13002 10.76 9.30002V11.57C10.76 11.74 10.82 11.83 11 11.83H13.48C13.66 11.83 13.72 11.74 13.72 11.57V9.30002C13.72 9.10002 13.63 9.06002 13.44 9.06002H12.24C11.84 9.06002 11.44 9.06002 11.02 9.06002H11ZM6.38 15.13C6.54 15.13 6.6 15.07 6.6 14.9V12.67C6.6 12.5 6.54 12.43 6.38 12.43H3.87C3.7 12.43 3.64 12.5 3.64 12.66V14.9C3.64 15.09 3.73 15.13 3.9 15.13H6.38ZM9.91 15.13C10.1 15.13 10.17 15.08 10.17 14.88V12.7C10.17 12.49 10.1 12.43 9.89 12.43H7.47C7.28 12.43 7.2 12.49 7.21 12.69V14.87C7.21 15.08 7.28 15.13 7.49 15.13H9.91V15.13ZM17.12 15.13C17.31 15.13 17.38 15.08 17.37 14.89V12.69C17.37 12.52 17.37 12.43 17.14 12.43H14.63C14.45 12.43 14.38 12.49 14.38 12.68V14.88C14.38 15.09 14.46 15.13 14.66 15.13H17.12ZM20.68 15.13C20.85 15.13 20.94 15.13 20.94 14.9V12.67C20.94 12.5 20.88 12.43 20.72 12.43H18.18C18.02 12.43 17.96 12.5 17.96 12.67V14.9C17.96 15.09 18.05 15.13 18.21 15.13H20.68ZM11.09 12.43C10.9 12.43 10.81 12.49 10.81 12.69V14.89C10.81 15.06 10.88 15.13 11.06 15.13H13.53C13.71 15.13 13.77 15.05 13.77 14.89V12.68C13.77 12.5 13.7 12.43 13.52 12.43H11.09Z" fill="black"/>
</svg>
