<svg width="32" height="32" viewBox="0 0 32 32" fill="none" xmlns="http://www.w3.org/2000/svg">
<path d="M30.66 16.62H22.26C22.1168 16.6206 21.9774 16.5739 21.8635 16.4871C21.7495 16.4003 21.6675 16.2783 21.63 16.14V16.14C21.3282 15.2161 20.8065 14.3794 20.1097 13.7018C19.4129 13.0242 18.5619 12.526 17.63 12.25H17.58C17.0837 12.0975 16.569 12.0134 16.05 12C14.9442 12.0011 13.863 12.3267 12.9404 12.9364C12.0179 13.5461 11.2945 14.4131 10.86 15.43V15.43C10.7459 15.7863 10.5218 16.0972 10.22 16.3182C9.91816 16.5392 9.55408 16.6588 9.18 16.66C9.07693 16.6704 8.97308 16.6704 8.87 16.66V16.66C6.62 16.57 4.35 16.66 2.09 16.66H1.33C1.4902 14.7345 2.0495 12.8635 2.9723 11.1659C3.8951 9.46838 5.1612 7.98154 6.69 6.80003V6.80003C11.74 2.91003 17.3 2.66003 23 5.17003C27.29 7.09003 30.82 12.58 30.69 16.66L30.66 16.62ZM26.78 19H22.33C22.173 18.9998 22.0209 19.0548 21.9002 19.1553C21.7796 19.2558 21.6981 19.3955 21.67 19.55C21.303 20.7387 20.5654 21.7787 19.565 22.5182C18.5647 23.2577 17.354 23.6578 16.11 23.66C15.3555 23.6635 14.6077 23.5173 13.91 23.23V23.23C13.0811 22.9214 12.3358 22.4235 11.7334 21.7759C11.1309 21.1283 10.688 20.349 10.44 19.5V19.5C10.34 19.19 10.24 19.06 9.9 19.06H5.19L4.84 19.13C4.81167 19.228 4.81167 19.332 4.84 19.43C4.88452 19.6051 4.94477 19.7758 5.02 19.94V19.94C6.2338 22.6991 8.18976 25.067 10.67 26.78V26.78C11.9375 27.6801 13.408 28.2525 14.9505 28.4462C16.4929 28.6399 18.0593 28.4488 19.51 27.89H19.44C22.3283 26.8558 24.7464 24.8141 26.25 22.14V22.07C26.8285 21.1471 27.1719 20.0965 27.25 19.01V19.01L26.78 19ZM12.3 18C12.3497 18.9624 12.767 19.869 13.4657 20.5326C14.1645 21.1962 15.0913 21.5662 16.055 21.5662C17.0187 21.5662 17.9455 21.1962 18.6443 20.5326C19.343 19.869 19.7603 18.9624 19.81 18V18C19.7603 17.0376 19.343 16.1311 18.6443 15.4675C17.9455 14.8039 17.0187 14.4339 16.055 14.4339C15.0913 14.4339 14.1645 14.8039 13.4657 15.4675C12.767 16.1311 12.3497 17.0376 12.3 18V18Z" fill="black"/>
</svg>
