<svg width="32" height="32" viewBox="0 0 32 32" fill="none" xmlns="http://www.w3.org/2000/svg">
<path d="M27.5 4.50001C25.6 2.60001 22.4 2.60001 20.5 4.50001L19.5 5.50001C18.1 6.90001 17.7 8.90001 18.3 10.7L3.6 25.4C2.8 26.2 2.8 27.6 3.6 28.4C4.4 29.2 5.8 29.2 6.6 28.4L21.3 13.7C23 14.3 25.1 13.9 26.5 12.5L27.5 11.5C29.4 9.60001 29.4 6.40001 27.5 4.50001Z" stroke="black" stroke-width="2" stroke-miterlimit="10" stroke-linecap="round"/>
<path d="M16 19L25.4 28.4C26.2 29.2 27.6 29.2 28.4 28.4C29.2 27.6 29.2 26.2 28.4 25.4L19 16" stroke="black" stroke-width="2" stroke-miterlimit="10" stroke-linecap="round"/>
<path d="M10 10L6 6" stroke="black" stroke-width="2" stroke-miterlimit="10" stroke-linecap="round"/>
<path d="M16 13L13.5 10.5C14.3 9.7 14.3 8.5 13.5 7.7L9 3" stroke="black" stroke-width="2" stroke-miterlimit="10" stroke-linecap="round" stroke-linejoin="round"/>
<path d="M3 9L7.7 13.5C8.5 14.3 9.7 14.3 10.5 13.5L13 16" stroke="black" stroke-width="2" stroke-miterlimit="10" stroke-linecap="round" stroke-linejoin="round"/>
</svg>
