<svg width="32" height="32" viewBox="0 0 32 32" fill="none" xmlns="http://www.w3.org/2000/svg">
<path d="M8 29C9.65685 29 11 27.6569 11 26C11 24.3431 9.65685 23 8 23C6.34315 23 5 24.3431 5 26C5 27.6569 6.34315 29 8 29Z" stroke="black" stroke-width="2" stroke-miterlimit="10" stroke-linecap="round" stroke-linejoin="round"/>
<path d="M24 29C25.6569 29 27 27.6569 27 26C27 24.3431 25.6569 23 24 23C22.3431 23 21 24.3431 21 26C21 27.6569 22.3431 29 24 29Z" stroke="black" stroke-width="2" stroke-miterlimit="10" stroke-linecap="round" stroke-linejoin="round"/>
<path d="M5 26C5 26 3 26 3 23C3 20 9 13 21 13" stroke="black" stroke-width="2" stroke-miterlimit="10" stroke-linecap="round" stroke-linejoin="round"/>
<path d="M11 26H21" stroke="black" stroke-width="2" stroke-miterlimit="10" stroke-linecap="round" stroke-linejoin="round"/>
<path d="M12 19H25" stroke="black" stroke-width="2" stroke-miterlimit="10" stroke-linecap="round" stroke-linejoin="round"/>
<path d="M20 19V17" stroke="black" stroke-width="2" stroke-miterlimit="10" stroke-linecap="round" stroke-linejoin="round"/>
<path d="M24 10.3L21.7 8.40001L25.5 3.70001L27.8 5.60001C29.1 6.60001 29.3 8.50001 28.2 9.80001C27.2 11.2 25.3 11.4 24 10.3Z" stroke="black" stroke-width="2" stroke-miterlimit="10" stroke-linecap="round" stroke-linejoin="round"/>
<path d="M24.8 4.60001L22.5 2.70001" stroke="black" stroke-width="2" stroke-miterlimit="10" stroke-linecap="round" stroke-linejoin="round"/>
<path d="M22.3 7.69999L20 5.79999" stroke="black" stroke-width="2" stroke-miterlimit="10" stroke-linecap="round" stroke-linejoin="round"/>
<path d="M21 13C23.2 13 25 14.8 25 17V19" stroke="black" stroke-width="2" stroke-miterlimit="10" stroke-linecap="round" stroke-linejoin="round"/>
<path d="M28 10.1C29.2 12.1 30 14.5 30 17C30 20.2 28.8 23.1 26.9 25.4" stroke="black" stroke-width="2" stroke-miterlimit="10" stroke-linecap="round" stroke-linejoin="round"/>
</svg>
