<svg width="32" height="32" viewBox="0 0 32 32" fill="none" xmlns="http://www.w3.org/2000/svg">
<path d="M26 29H6C4.3 29 3 27.7 3 26V6C3 4.3 4.3 3 6 3H26C27.7 3 29 4.3 29 6V26C29 27.7 27.7 29 26 29Z" stroke="black" stroke-width="2" stroke-miterlimit="10" stroke-linecap="round"/>
<path d="M9 17.5C9.82843 17.5 10.5 16.8284 10.5 16C10.5 15.1716 9.82843 14.5 9 14.5C8.17157 14.5 7.5 15.1716 7.5 16C7.5 16.8284 8.17157 17.5 9 17.5Z" fill="black"/>
<path d="M16 17.5C16.8284 17.5 17.5 16.8284 17.5 16C17.5 15.1716 16.8284 14.5 16 14.5C15.1716 14.5 14.5 15.1716 14.5 16C14.5 16.8284 15.1716 17.5 16 17.5Z" fill="black"/>
<path d="M23 17.5C23.8284 17.5 24.5 16.8284 24.5 16C24.5 15.1716 23.8284 14.5 23 14.5C22.1716 14.5 21.5 15.1716 21.5 16C21.5 16.8284 22.1716 17.5 23 17.5Z" fill="black"/>
</svg>
