<svg width="32" height="32" viewBox="0 0 32 32" fill="none" xmlns="http://www.w3.org/2000/svg">
<path d="M3 12H20C22.2 12 24 10.2 24 8C24 5.8 22.2 4 20 4C17.8 4 16 5.8 16 8" stroke="black" stroke-width="2" stroke-miterlimit="10" stroke-linecap="round" stroke-linejoin="round"/>
<path d="M19 22C19 24.8 21.2 27 24 27C26.8 27 29 24.8 29 22C29 19.2 26.8 17 24 17H3" stroke="black" stroke-width="2" stroke-miterlimit="10" stroke-linecap="round" stroke-linejoin="round"/>
<path d="M9 25C9 26.7 10.3 28 12 28C13.7 28 15 26.7 15 25C15 23.3 13.7 22 12 22H3" stroke="black" stroke-width="2" stroke-miterlimit="10" stroke-linecap="round" stroke-linejoin="round"/>
</svg>
