<svg width="32" height="32" viewBox="0 0 32 32" fill="none" xmlns="http://www.w3.org/2000/svg">
<path fill-rule="evenodd" clip-rule="evenodd" d="M15.29 27.61L13.69 27.84L14.85 29L14.57 30.58L16 29.8L17.43 30.55L17.15 29L18.31 27.87L16.71 27.64L16 26.16L15.29 27.61ZM9.11 26L7.51 26.24L8.67 27.36L8.39 28.9L9.82 28.15L11.25 28.9L11 27.31L12.16 26.19L10.53 26L9.82 24.56L9.11 26ZM21.47 26L19.87 26.24L21 27.31L20.72 28.9L22.15 28.15L23.58 28.9L23.3 27.31L24.46 26.19L22.89 26L22.18 24.56L21.47 26ZM4.58 21.43L3 21.66L4.15 22.79L3.88 24.37L5.31 23.62L6.73 24.37L6.46 22.79L7.6 21.66L6 21.43L5.3 20L4.58 21.43ZM25.99 21.43L24.4 21.66L25.55 22.79L25.28 24.37L26.7 23.62L28.13 24.37L27.86 22.79L29 21.66L27.41 21.43L26.7 20L25.99 21.43ZM2.93 15.25L1.33 15.48L2.49 16.61L2.21 18.19L3.64 17.44L5.07 18.19L4.79 16.61L6 15.48L4.4 15.25L3.69 13.81L2.93 15.25ZM27.65 15.25L26.05 15.48L27.21 16.61L26.93 18.19L28.36 17.44L29.79 18.19L29.51 16.61L30.67 15.48L29.07 15.25L28.36 13.81L27.65 15.25ZM4.58 9.07001L3 9.30001L4.15 10.43L3.87 12L5.3 11.25L6.72 12L6.45 10.42L7.6 9.30001L6 9.07001L5.3 7.63001L4.58 9.07001ZM26 9.07001L24.4 9.30001L25.55 10.43L25.28 12L26.7 11.25L28.13 12L27.86 10.42L29 9.30001L27.41 9.07001L26.7 7.63001L26 9.07001ZM9.11 4.55001L7.51 4.78001L8.67 5.90001L8.39 7.49001L9.82 6.74001L11.25 7.49001L11 5.90001L12.16 4.78001L10.56 4.55001L9.82 3.10001L9.11 4.55001ZM21.47 4.55001L19.87 4.78001L21 5.90001L20.72 7.49001L22.15 6.74001L23.58 7.49001L23.33 5.90001L24.49 4.78001L22.89 4.55001L22.18 3.10001L21.47 4.55001ZM16 1.45001L15.29 2.89001L13.69 3.12001L14.85 4.25001L14.57 5.84001L16 5.09001L17.43 5.84001L17.15 4.25001L18.31 3.12001L16.71 2.89001L16 1.45001Z" fill="black"/>
</svg>
