<svg width="32" height="32" viewBox="0 0 32 32" fill="none" xmlns="http://www.w3.org/2000/svg">
<path fill-rule="evenodd" clip-rule="evenodd" d="M20.1 6.43998L18.57 6.65998L19.68 7.73998L19.42 9.26998L20.79 8.54998L22.16 9.26998L21.9 7.73998L23 6.65998L21.46 6.43998L20.78 5.04998L20.1 6.43998ZM10.21 6.43998L8.67 6.65998L9.78 7.73998L9.52 9.26998L10.89 8.54998L12.26 9.26998L12 7.73998L13.11 6.65998L11.58 6.43998L10.89 5.04998L10.21 6.43998ZM15.84 3.72998L15.15 5.11998L13.62 5.33998L14.73 6.41998L14.47 7.93998L15.84 7.21998L17.21 7.93998L17 6.41998L18.11 5.33998L16.58 5.11998L15.84 3.72998ZM23.73 10.06L22.19 10.29L23.3 11.37L23 12.89L24.37 12.17L25.74 12.89L25.48 11.37L26.59 10.29L25.06 10.06L24.37 8.67998L23.73 10.06ZM25.05 15L23.52 15.23L24.63 16.31L24.37 17.83L25.74 17.11L27.11 17.83L26.85 16.31L28 15.24L26.42 15L25.74 13.61L25.05 15ZM23.73 20L22.19 20.22L23.3 21.3L23 22.79L24.37 22.07L25.74 22.79L25.48 21.26L26.59 20.18L25.1 20L24.41 18.61L23.73 20ZM20.1 23.58L18.57 23.81L19.68 24.89L19.42 26.41L20.79 25.69L22.16 26.41L21.9 24.89L23 23.81L21.46 23.58L20.78 22.2L20.1 23.58ZM15.1 24.91L13.57 25.13L14.68 26.21L14.42 27.74L15.84 27L17.21 27.72L17 26.21L18.11 25.13L16.57 24.91L15.89 23.52L15.1 24.91ZM10.16 23.58L8.62 23.81L9.73 24.89L9.47 26.41L10.84 25.69L12.21 26.41L12 24.89L13.11 23.81L11.58 23.58L10.89 22.2L10.16 23.58ZM6.58 20L5.05 20.22L6.16 21.3L5.9 22.79L7.27 22.07L8.64 22.79L8.38 21.26L9.49 20.18L8 20L7.32 18.61L6.58 20ZM5.26 15L3.72 15.23L4.83 16.31L4.57 17.83L5.94 17.11L7.31 17.83L7.05 16.31L8.16 15.23L6.63 15L5.94 13.61L5.26 15ZM7.26 8.66998L6.57 10.05L5.04 10.28L6.15 11.36L5.9 12.89L7.27 12.17L8.64 12.89L8.38 11.37L9.49 10.29L8 10.06L7.26 8.66998ZM2.36 0.999976H29.63C29.8094 0.998656 29.9874 1.03286 30.1535 1.10062C30.3197 1.16837 30.4708 1.26834 30.5981 1.39476C30.7255 1.52118 30.8266 1.67155 30.8955 1.83721C30.9645 2.00286 31 2.18053 31 2.35998V29.64C31 29.8194 30.9645 29.9971 30.8955 30.1627C30.8266 30.3284 30.7255 30.4788 30.5981 30.6052C30.4708 30.7316 30.3197 30.8316 30.1535 30.8993C29.9874 30.9671 29.8094 31.0013 29.63 31H2.36C1.99931 31 1.65338 30.8567 1.39833 30.6016C1.14329 30.3466 1 30.0007 1 29.64V2.35998C1 1.99928 1.14329 1.65336 1.39833 1.39831C1.65338 1.14326 1.99931 0.999976 2.36 0.999976V0.999976Z" fill="black"/>
</svg>
