<svg width="32" height="32" viewBox="0 0 32 32" fill="none" xmlns="http://www.w3.org/2000/svg">
<path d="M4 4L28 28" stroke="black" stroke-width="2" stroke-miterlimit="10" stroke-linecap="round" stroke-linejoin="round"/>
<path d="M15 11.1C15.3 11 15.7 11 16 11" stroke="black" stroke-width="2" stroke-miterlimit="10" stroke-linecap="round" stroke-linejoin="round"/>
<path d="M19.5 19.5C18.6 20.4 17.4 21 16 21C13.2 21 11 18.8 11 16C11 14.6 11.6 13.4 12.5 12.5" stroke="black" stroke-width="2" stroke-miterlimit="10" stroke-linecap="round" stroke-linejoin="round"/>
<path d="M20.5 13.8C20.8 14.5 21 15.2 21 16C21 16.3 21 16.6 20.9 16.9" stroke="black" stroke-width="2" stroke-miterlimit="10" stroke-linecap="round" stroke-linejoin="round"/>
<path d="M16 17.1C15.4 17.1 14.9 16.6 14.9 16C14.9 15.7 15 15.4 15.2 15.2" stroke="black" stroke-width="2" stroke-miterlimit="10" stroke-linecap="round" stroke-linejoin="round"/>
<path d="M16.8 16.8C16.6 17 16.3 17.1 16 17.1" stroke="black" stroke-width="2" stroke-miterlimit="10" stroke-linecap="round" stroke-linejoin="round"/>
<path d="M16 16V17.1" stroke="black" stroke-width="2" stroke-miterlimit="10" stroke-linecap="round" stroke-linejoin="round"/>
<path d="M14.9 16H16" stroke="black" stroke-width="2" stroke-miterlimit="10" stroke-linecap="round" stroke-linejoin="round"/>
<path d="M24.8 20.8C26.4 19.5 27.8 17.9 29 16C25.9 11.1 21.2 8 16 8C14.8 8 13.6 8.2 12.5 8.5" stroke="black" stroke-width="2" stroke-miterlimit="10" stroke-linecap="round" stroke-linejoin="round"/>
<path d="M9.6 9.59998C7 11 4.8 13.2 3 16C6.1 20.9 10.8 24 16 24C18.3 24 20.4 23.4 22.4 22.4" stroke="black" stroke-width="2" stroke-miterlimit="10" stroke-linecap="round" stroke-linejoin="round"/>
</svg>
