<svg width="32" height="32" viewBox="0 0 32 32" fill="none" xmlns="http://www.w3.org/2000/svg">
<path d="M20.5 13.8C20.8 14.5 21 15.2 21 16C21 18.8 18.8 21 16 21C13.2 21 11 18.8 11 16C11 13.2 13.2 11 16 11" stroke="black" stroke-width="2" stroke-miterlimit="10" stroke-linecap="round" stroke-linejoin="round"/>
<path d="M16 17.1C15.4 17.1 14.9 16.6 14.9 16C14.9 15.4 15.4 14.9 16 14.9" stroke="black" stroke-width="2" stroke-miterlimit="10" stroke-linecap="round" stroke-linejoin="round"/>
<path d="M16 14.9C16.6 14.9 17.1 15.4 17.1 16C17.1 16.6 16.6 17.1 16 17.1" stroke="black" stroke-width="2" stroke-miterlimit="10" stroke-linecap="round" stroke-linejoin="round"/>
<path d="M16 14.9V17.1" stroke="black" stroke-width="2" stroke-miterlimit="10" stroke-linecap="round" stroke-linejoin="round"/>
<path d="M14.9 16H17.1" stroke="black" stroke-width="2" stroke-miterlimit="10" stroke-linecap="round" stroke-linejoin="round"/>
<path d="M16 24C23.1797 24 29 20.4183 29 16C29 11.5817 23.1797 8 16 8C8.8203 8 3 11.5817 3 16C3 20.4183 8.8203 24 16 24Z" stroke="black" stroke-width="2" stroke-miterlimit="10" stroke-linecap="round" stroke-linejoin="round"/>
</svg>
