<svg width="32" height="32" viewBox="0 0 32 32" fill="none" xmlns="http://www.w3.org/2000/svg">
<path d="M12.88 30.67V17.27H8.39001V12.06H12.88V8.22002C12.8143 7.28309 12.9468 6.34283 13.269 5.4606C13.5912 4.57837 14.0959 3.77401 14.75 3.10002C16.0683 1.89063 17.8127 1.254 19.6 1.33002C20.6 1.33002 21.41 1.33002 22.15 1.40002C22.6388 1.42067 23.1262 1.46741 23.61 1.54002V6.20002H20.87C19.77 6.20002 19.06 6.43002 18.74 6.90002C18.3973 7.45054 18.2299 8.09221 18.26 8.74002V12.06H23.44L22.75 17.3H18.26V30.67H12.88Z" fill="black"/>
</svg>
