<svg width="32" height="32" viewBox="0 0 32 32" fill="none" xmlns="http://www.w3.org/2000/svg">
<path d="M26 10V26C26 27.7 24.7 29 23 29H9C7.3 29 6 27.7 6 26V6C6 4.3 7.3 3 9 3H19L26 10Z" stroke="black" stroke-width="2" stroke-miterlimit="10"/>
<path d="M19 3V10H26" stroke="black" stroke-width="2" stroke-miterlimit="10"/>
<path d="M10 19H10.5C11.3 19 12 18.3 12 17.5V14.5C12 13.7 12.7 13 13.5 13H14H15" stroke="black" stroke-width="2" stroke-miterlimit="10"/>
<path d="M9 19H10.5C11.3 19 12 19.7 12 20.5V23.5C12 24.3 12.7 25 13.5 25H14H15" stroke="black" stroke-width="2" stroke-miterlimit="10"/>
<path d="M22 19H21.5C20.7 19 20 18.3 20 17.5V14.5C20 13.7 19.3 13 18.5 13H18H17" stroke="black" stroke-width="2" stroke-miterlimit="10"/>
<path d="M23 19H21.5C20.7 19 20 19.7 20 20.5V23.5C20 24.3 19.3 25 18.5 25H18H17" stroke="black" stroke-width="2" stroke-miterlimit="10"/>
</svg>
