<svg width="32" height="32" viewBox="0 0 32 32" fill="none" xmlns="http://www.w3.org/2000/svg">
<path d="M24.4 15.4C23 14 21.8 11.2 21.8 8.5C21.8 8.3 21.8 8 21.8 7.8C20.1 9.3 19 11.4 18.6 13.7C18.1 12.5 17.8 11.1 17.8 9.7C17.8 7.1 18.7 4.8 20.3 3C20.1 3 19.8 3 19.6 3C13.7 3 9.09999 7.7 9.09999 13.4C9.09999 15.6 9.79999 17.6 11 19.3C9.09999 18.3 7.49999 16.8 6.49999 14.9C6.09999 16 5.79999 17.3 5.79999 18.6C5.79999 24.3 10.5 29 16.2 29C21 29 25 25.8 26.2 21.5C26.4 20.6 26.7 17.8 24.4 15.4Z" stroke="black" stroke-width="2" stroke-miterlimit="10" stroke-linecap="round" stroke-linejoin="round"/>
</svg>
