<svg width="32" height="32" viewBox="0 0 32 32" fill="none" xmlns="http://www.w3.org/2000/svg">
<path d="M1.44001 11.94C1.80032 9.03689 3.04293 6.31431 5.00001 4.13999V4.13999C5.11635 3.98604 5.26781 3.86215 5.44177 3.77865C5.61573 3.69515 5.80713 3.65447 6.00001 3.65999V3.65999C7.82001 3.65999 9.65001 3.74999 11.47 3.65999C11.6964 3.64418 11.9236 3.64418 12.15 3.65999C13.4015 3.66917 14.604 4.14732 15.52 4.99999V4.99999C15.6293 5.10786 15.7764 5.16885 15.93 5.16999C16.0832 5.16682 16.2295 5.10613 16.34 4.99999C16.74 4.68999 17.17 4.41999 17.56 4.10999C17.896 3.87107 18.2977 3.74184 18.71 3.73999H18.95H26C26.1839 3.7396 26.3654 3.78184 26.5302 3.86338C26.6951 3.94493 26.8387 4.06357 26.95 4.20999V4.20999C29.329 6.83703 30.6445 10.2558 30.64 13.8C30.64 14.25 30.64 14.68 30.58 15.11V15C30.2633 18.5145 28.6905 21.797 26.1498 24.2459C23.6091 26.6947 20.2709 28.1457 16.7471 28.3328C13.2234 28.5199 9.75027 27.4306 6.96453 25.2647C4.17879 23.0987 2.26713 20.0012 1.58001 16.54V16.45C1.40714 15.5368 1.3201 14.6094 1.32001 13.68C1.31953 13.0647 1.35962 12.45 1.44001 11.84V11.91V11.94ZM25.37 4.99999C25.2699 4.95093 25.1555 4.93908 25.0474 4.96656C24.9394 4.99404 24.8446 5.05906 24.78 5.14999C22.1133 7.06999 19.4467 9.00332 16.78 10.95C16.08 11.45 15.99 11.45 15.3 10.95L7.34001 5.20999C7.17001 5.06999 7.00001 4.82999 6.64001 4.99999C7.22001 5.57999 7.76001 6.10999 8.34001 6.66999C8.92001 7.22999 8.88001 7.21999 8.40001 7.84999C7.03681 9.52129 6.29473 11.6133 6.30001 13.77C6.29894 14.3812 6.35925 14.9909 6.48001 15.59V15.53C6.83109 17.4592 7.75977 19.2362 9.14312 20.6259C10.5265 22.0157 12.2993 22.9525 14.2268 23.3124C16.1543 23.6723 18.1457 23.4384 19.9374 22.6415C21.729 21.8447 23.2364 20.5225 24.26 18.85C25.2763 17.158 25.7458 15.1937 25.6044 13.2251C25.463 11.2564 24.7176 9.37936 23.47 7.84999V7.84999C23.12 7.41999 23.15 7.13999 23.54 6.84999C24.16 6.27999 24.73 5.67999 25.33 5.08999L25.37 4.99999Z" fill="black"/>
</svg>
