<svg width="32" height="32" viewBox="0 0 32 32" fill="none" xmlns="http://www.w3.org/2000/svg">
<path d="M16 18C17.1046 18 18 17.1046 18 16C18 14.8954 17.1046 14 16 14C14.8954 14 14 14.8954 14 16C14 17.1046 14.8954 18 16 18Z" stroke="black" stroke-width="2" stroke-miterlimit="10"/>
<path d="M18 14L22.5 9.5" stroke="black" stroke-width="2" stroke-miterlimit="10" stroke-linecap="round"/>
<path d="M25 16C25 18.3 24.1 20.6 22.4 22.4" stroke="black" stroke-width="2" stroke-miterlimit="10" stroke-linecap="round"/>
<path d="M16 7C16.5 7 17 7 17.6 7.1" stroke="black" stroke-width="2" stroke-miterlimit="10" stroke-linecap="round"/>
<path d="M9.60001 9.59998C10 9.19998 10.4 8.89998 10.8 8.59998" stroke="black" stroke-width="2" stroke-miterlimit="10" stroke-linecap="round"/>
<path d="M7 16C7 15.5 7 15 7.1 14.4" stroke="black" stroke-width="2" stroke-miterlimit="10" stroke-linecap="round"/>
<path d="M9.60001 22.4C9.20001 22 8.90001 21.6 8.60001 21.2" stroke="black" stroke-width="2" stroke-miterlimit="10" stroke-linecap="round"/>
<path d="M14.5 3.1C8.7 3.7 4 8.3 3.1 14.1C2.3 19.7 5.1 24.7 9.5 27.3C10.2 27.7 11 27.2 11 26.4V26C11 25.4 11.4 25 12 25H20C20.6 25 21 25.4 21 26V26.4C21 27.2 21.8 27.7 22.5 27.3C26.4 25 29 20.8 29 16C29 8.3 22.4 2.2 14.5 3.1Z" stroke="black" stroke-width="2" stroke-miterlimit="10"/>
</svg>
