<svg width="32" height="32" viewBox="0 0 32 32" fill="none" xmlns="http://www.w3.org/2000/svg">
<path d="M23.8 10.2C24.3523 10.2 24.8 9.7523 24.8 9.20001C24.8 8.64773 24.3523 8.20001 23.8 8.20001C23.2477 8.20001 22.8 8.64773 22.8 9.20001C22.8 9.7523 23.2477 10.2 23.8 10.2Z" fill="black"/>
<path d="M15.3 26.1C15.3 26.1 17.1 27.2 17.4 27.2C17.6 27.2 17.8 27 18.4 26.4C19 25.8 19.2 25.5 19.2 25.4C19.2 25.1 18.1 23.3 18.1 23.3L18.6 22C18.6 22 20.7 21.5 20.9 21.3C21 21.2 21 20.9 21 20C21 19.1 21 18.8 20.9 18.7C20.7 18.5 18.6 18 18.6 18L18.1 16.7C18.1 16.7 19.2 14.9 19.2 14.6C19.2 14.4 19 14.2 18.4 13.6C17.8 13 17.5 12.8 17.4 12.8C17.1 12.8 15.3 13.9 15.3 13.9L14 13.4C14 13.4 13.5 11.3 13.3 11.1C13.2 11 12.9 11 12 11C11.1 11 10.8 11 10.7 11.1C10.5 11.3 10 13.4 10 13.4L8.7 13.9C8.7 13.9 6.9 12.8 6.6 12.8C6.4 12.8 6.2 13 5.6 13.6C5 14.2 4.8 14.5 4.8 14.6C4.8 14.9 5.9 16.7 5.9 16.7L5.4 18C5.4 18 3.3 18.5 3.1 18.7C3 18.8 3 19.1 3 20C3 20.9 3 21.2 3.1 21.3C3.3 21.5 5.4 22 5.4 22L5.9 23.3C5.9 23.3 4.8 25.1 4.8 25.4C4.8 25.6 5 25.8 5.6 26.4C6.2 27 6.5 27.2 6.6 27.2C6.9 27.2 8.7 26.1 8.7 26.1L10 26.6C10 26.6 10.5 28.7 10.7 28.9C10.8 29 11.1 29 12 29C12.9 29 13.2 29 13.3 28.9C13.5 28.7 14 26.6 14 26.6L15.3 26.1Z" stroke="black" stroke-width="2" stroke-miterlimit="10" stroke-linecap="round"/>
<path d="M12 23C13.6569 23 15 21.6569 15 20C15 18.3431 13.6569 17 12 17C10.3431 17 9 18.3431 9 20C9 21.6569 10.3431 23 12 23Z" stroke="black" stroke-width="2" stroke-miterlimit="10" stroke-linecap="round"/>
<path d="M26.2 11.9L28.2 12.7C28.4 12.8 28.6 12.7 28.8 12.5C29.1 12.1 29.3 11.7 29.5 11.2C29.6 11 29.5 10.8 29.3 10.6L27.5 9.39998C27.4 9.29998 27.3 9.19998 27.3 8.99998C27.3 8.69998 27.3 8.39999 27.2 8.09999C27.2 7.89999 27.2 7.79998 27.3 7.69998L28.7 6.09998C28.8 5.89998 28.9 5.69998 28.7 5.49998C28.4 5.09998 28.1 4.79998 27.7 4.49998C27.5 4.39998 27.3 4.39998 27.1 4.49998L25.4 5.79999C25.3 5.89999 25.1 5.99999 25 5.89999C24.7 5.79999 24.4 5.79998 24.2 5.69998C24 5.69998 23.9 5.59998 23.8 5.49998L22.7 3.69998C22.6 3.49998 22.4 3.39998 22.2 3.49998C21.7 3.69998 21.3 3.89998 20.9 4.09998C20.7 4.19998 20.6 4.39998 20.7 4.69998L21.5 6.99998C21.4 7.19998 21.2 7.39998 21.1 7.59998C21 7.79998 20.9 7.99998 20.8 8.19998L18.5 8.79998C18.2 8.69998 18 8.89999 18 9.09999C18 9.59999 18.1 10.1 18.2 10.5C18.3 10.7 18.5 10.9 18.7 10.9H20.9C21.1 10.9 21.2 11 21.3 11.1C21.5 11.3 21.7 11.5 21.9 11.7C22 11.8 22.1 11.9 22.1 12.1L21.9 14.3C21.9 14.5 22 14.7 22.2 14.8C22.7 14.9 23.1 15 23.6 15.1C23.8 15.1 24 15 24.1 14.8L24.7 12.7C24.7 12.6 24.9 12.4 25 12.4C25.3 12.3 25.5 12.2 25.8 12C25.9 11.9 26 11.8 26.2 11.9Z" stroke="black" stroke-width="2" stroke-miterlimit="10" stroke-linecap="round"/>
</svg>
