<svg width="32" height="32" viewBox="0 0 32 32" fill="none" xmlns="http://www.w3.org/2000/svg">
<path d="M26 12C27.6569 12 29 10.6569 29 9C29 7.34315 27.6569 6 26 6C24.3431 6 23 7.34315 23 9C23 10.6569 24.3431 12 26 12Z" stroke="black" stroke-width="2" stroke-miterlimit="10"/>
<path d="M26 26C27.6569 26 29 24.6569 29 23C29 21.3431 27.6569 20 26 20C24.3431 20 23 21.3431 23 23C23 24.6569 24.3431 26 26 26Z" stroke="black" stroke-width="2" stroke-miterlimit="10"/>
<path d="M6 19C7.65685 19 9 17.6569 9 16C9 14.3431 7.65685 13 6 13C4.34315 13 3 14.3431 3 16C3 17.6569 4.34315 19 6 19Z" stroke="black" stroke-width="2" stroke-miterlimit="10"/>
<path d="M9 16H13C14.7 16 16 14.7 16 13V12C16 10.3 17.3 9 19 9H23" stroke="black" stroke-width="2" stroke-miterlimit="10"/>
<path d="M9 16H13C14.7 16 16 17.3 16 19V20C16 21.7 17.3 23 19 23H23" stroke="black" stroke-width="2" stroke-miterlimit="10"/>
</svg>
