<svg width="32" height="32" viewBox="0 0 32 32" fill="none" xmlns="http://www.w3.org/2000/svg">
<path d="M7 10C8.65685 10 10 8.65685 10 7C10 5.34315 8.65685 4 7 4C5.34315 4 4 5.34315 4 7C4 8.65685 5.34315 10 7 10Z" stroke="black" stroke-width="2" stroke-miterlimit="10"/>
<path d="M7 28C8.65685 28 10 26.6569 10 25C10 23.3431 8.65685 22 7 22C5.34315 22 4 23.3431 4 25C4 26.6569 5.34315 28 7 28Z" stroke="black" stroke-width="2" stroke-miterlimit="10"/>
<path d="M7 22V10" stroke="black" stroke-width="2" stroke-miterlimit="10"/>
<path d="M25 10C26.6569 10 28 8.65685 28 7C28 5.34315 26.6569 4 25 4C23.3431 4 22 5.34315 22 7C22 8.65685 23.3431 10 25 10Z" stroke="black" stroke-width="2" stroke-miterlimit="10"/>
<path d="M25 28C26.6569 28 28 26.6569 28 25C28 23.3431 26.6569 22 25 22C23.3431 22 22 23.3431 22 25C22 26.6569 23.3431 28 25 28Z" stroke="black" stroke-width="2" stroke-miterlimit="10"/>
<path d="M25 22V10" stroke="black" stroke-width="2" stroke-miterlimit="10"/>
<path d="M16 19L19 16L16 13" stroke="black" stroke-width="2" stroke-miterlimit="10" stroke-linecap="round"/>
<path d="M13 16H18.9" stroke="black" stroke-width="2" stroke-miterlimit="10" stroke-linecap="round"/>
</svg>
