<svg width="32" height="32" viewBox="0 0 32 32" fill="none" xmlns="http://www.w3.org/2000/svg">
<path d="M26 14C27.6569 14 29 12.6569 29 11C29 9.34315 27.6569 8 26 8C24.3431 8 23 9.34315 23 11C23 12.6569 24.3431 14 26 14Z" stroke="black" stroke-width="2" stroke-miterlimit="10"/>
<path d="M6 14C7.65685 14 9 12.6569 9 11C9 9.34315 7.65685 8 6 8C4.34315 8 3 9.34315 3 11C3 12.6569 4.34315 14 6 14Z" stroke="black" stroke-width="2" stroke-miterlimit="10"/>
<path d="M9 11H23" stroke="black" stroke-width="2" stroke-miterlimit="10"/>
<path d="M26 24C27.6569 24 29 22.6569 29 21C29 19.3431 27.6569 18 26 18C24.3431 18 23 19.3431 23 21C23 22.6569 24.3431 24 26 24Z" stroke="black" stroke-width="2" stroke-miterlimit="10"/>
<path d="M6 24C7.65685 24 9 22.6569 9 21C9 19.3431 7.65685 18 6 18C4.34315 18 3 19.3431 3 21C3 22.6569 4.34315 24 6 24Z" stroke="black" stroke-width="2" stroke-miterlimit="10"/>
<path d="M9 21H23" stroke="black" stroke-width="2" stroke-miterlimit="10"/>
</svg>
