<svg width="32" height="32" viewBox="0 0 32 32" fill="none" xmlns="http://www.w3.org/2000/svg">
<path d="M30.11 14.69L17.31 1.88998C16.954 1.5358 16.4722 1.33698 15.97 1.33698C15.4678 1.33698 14.986 1.5358 14.63 1.88998L12 4.54998L15.37 7.91998C15.7678 7.78367 16.196 7.76209 16.6055 7.85771C17.015 7.95333 17.3893 8.16229 17.6856 8.46068C17.9819 8.75907 18.1882 9.13484 18.2809 9.545C18.3737 9.95515 18.3491 10.3831 18.21 10.78L21.44 14C21.82 13.8681 22.2284 13.8405 22.6227 13.9201C23.017 13.9997 23.3828 14.1835 23.6819 14.4524C23.981 14.7214 24.2026 15.0656 24.3235 15.4492C24.4445 15.8328 24.4603 16.2419 24.3695 16.6337C24.2787 17.0256 24.0844 17.3859 23.8071 17.6772C23.5297 17.9685 23.1793 18.1801 22.7923 18.29C22.4054 18.3999 21.9961 18.4041 21.607 18.3021C21.2179 18.2001 20.8633 17.9956 20.58 17.71C20.2668 17.3969 20.0538 16.9976 19.9683 16.5631C19.8828 16.1285 19.9287 15.6784 20.1 15.27L17.1 12.27V20.27C17.3242 20.3719 17.5276 20.5142 17.7 20.69C18.015 21.0045 18.2295 21.4054 18.3166 21.842C18.4036 22.2785 18.3592 22.7311 18.189 23.1423C18.0188 23.5536 17.7304 23.9052 17.3603 24.1526C16.9903 24.3999 16.5551 24.532 16.11 24.532C15.6649 24.532 15.2298 24.3999 14.8597 24.1526C14.4896 23.9052 14.2012 23.5536 14.031 23.1423C13.8608 22.7311 13.8164 22.2785 13.9034 21.842C13.9905 21.4054 14.2051 21.0045 14.52 20.69C14.7295 20.4765 14.9817 20.3095 15.26 20.2V12.2C14.9829 12.0881 14.7312 11.9215 14.52 11.71C14.184 11.3927 13.9539 10.9797 13.8608 10.527C13.7678 10.0744 13.8164 9.60405 14 9.17998L10.67 5.84998L1.89001 14.63C1.53583 14.986 1.33701 15.4678 1.33701 15.97C1.33701 16.4722 1.53583 16.9539 1.89001 17.31L14.69 30.11C15.046 30.4642 15.5278 30.663 16.03 30.663C16.5322 30.663 17.014 30.4642 17.37 30.11L30.11 17.37C30.4642 17.0139 30.663 16.5322 30.663 16.03C30.663 15.5278 30.4642 15.046 30.11 14.69V14.69Z" fill="black"/>
</svg>
