<svg width="32" height="32" viewBox="0 0 32 32" fill="none" xmlns="http://www.w3.org/2000/svg">
<path d="M23.36 25.07H14.55C14.0745 24.9839 13.6278 24.7812 13.25 24.48V24.48C11.754 23.3079 10.5635 21.7915 9.77999 20.06V19.98C9.74312 19.8735 9.67444 19.7809 9.58322 19.7147C9.492 19.6485 9.38266 19.612 9.26999 19.61H9.19999C8.04185 19.5845 6.89475 19.3787 5.79999 19H5.86999C4.64169 18.6161 3.55876 17.8686 2.76424 16.8562C1.96973 15.8439 1.501 14.6143 1.41999 13.33C1.40475 13.1049 1.37469 12.8811 1.32999 12.66V12.15C1.34309 11.8398 1.38663 11.5317 1.45999 11.23C1.61491 10.1963 2.08987 9.23718 2.81812 8.48741C3.54636 7.73764 4.49126 7.23495 5.51999 7.04999V7.04999L6.29999 6.92999H6.87999L8.35999 6.99999L11.27 7.15999C12.62 7.22999 13.96 7.30999 15.27 7.35999C16.37 7.35999 17.47 7.35999 18.57 7.42999H18.72V12.36C18.72 12.44 18.72 12.55 18.77 12.57C18.98 12.69 19.23 12.82 19.48 12.94V7.43999H19.71C20.36 7.43999 21.01 7.43999 21.66 7.38999C23.03 7.38999 24.4 7.28999 25.75 7.22999L27.55 7.13999L29.49 7.04999H29.54C29.6369 7.05038 29.7325 7.07314 29.8192 7.1165C29.906 7.15986 29.9815 7.22266 30.04 7.29999V7.29999C30.1609 7.44032 30.2588 7.59896 30.33 7.76999V7.76999C30.5014 8.23423 30.5894 8.72512 30.59 9.21999V9.32999C30.5811 10.4833 30.4538 11.6327 30.21 12.76V12.65C29.816 15.0333 29.1448 17.3625 28.21 19.59L28.28 19.39C27.749 20.7634 27.0287 22.0559 26.14 23.23V23.23C25.6221 23.9339 24.9339 24.4948 24.14 24.86V24.86C23.8904 24.9585 23.6328 25.0355 23.37 25.09L23.36 25.07ZM8.82999 17.07C8.82293 16.9829 8.79916 16.8981 8.75999 16.82C8.47999 16 8.19999 15.18 7.99999 14.35C7.53886 12.8015 7.23729 11.2099 7.09999 9.59999V9.49999C7.09999 9.37999 7.09999 9.32999 6.92999 9.33999C6.59335 9.34459 6.25815 9.38482 5.92999 9.45999C5.44411 9.5425 4.99403 9.76847 4.63762 10.1088C4.28121 10.4492 4.03477 10.8884 3.92999 11.37V11.37C3.85657 11.661 3.81962 11.9599 3.81999 12.26C3.82025 12.5699 3.85717 12.8787 3.92999 13.18V13.18C4.02486 13.871 4.29529 14.5261 4.71546 15.0828C5.13562 15.6396 5.69149 16.0793 6.32999 16.36C6.78952 16.5609 7.26436 16.7247 7.74999 16.85H7.82999C8.17724 16.9478 8.53168 17.018 8.88999 17.06L8.82999 17.07ZM17.83 12.53C17.6395 12.4167 17.4216 12.3579 17.2 12.36C16.9448 12.3605 16.6952 12.4355 16.482 12.5758C16.2688 12.7162 16.1013 12.9157 16 13.15V13.15C15.2 14.79 14.41 16.42 13.62 18.06C13.5067 18.2505 13.4479 18.4684 13.45 18.69C13.4497 18.9416 13.5235 19.1877 13.6622 19.3975C13.8009 19.6074 13.9984 19.7717 14.23 19.87V19.87L15.33 20.4L19.14 22.25C19.3324 22.3585 19.5491 22.4169 19.77 22.42C20.0283 22.4285 20.2833 22.3597 20.5024 22.2226C20.7215 22.0854 20.8947 21.8861 21 21.65V21.65C21.09 21.45 21.19 21.24 21.3 21.04C21.99 19.61 22.68 18.19 23.3 16.76C23.4131 16.5621 23.4717 16.3379 23.47 16.11C23.4749 16.0601 23.4749 16.0099 23.47 15.96V15.96C23.4354 15.7423 23.3467 15.5367 23.2122 15.362C23.0777 15.1873 22.9016 15.0491 22.7 14.96V14.96L20.22 13.75L17.83 12.53Z" fill="black"/>
</svg>
