<svg width="32" height="32" viewBox="0 0 32 32" fill="none" xmlns="http://www.w3.org/2000/svg">
<path fill-rule="evenodd" clip-rule="evenodd" d="M28.87 22.7L24.23 5.70001C24.0134 4.91093 23.544 4.21466 22.8937 3.71794C22.2435 3.22121 21.4483 2.95145 20.63 2.95001H9.33C9.04622 2.95001 8.77406 3.06274 8.5734 3.26341C8.37273 3.46407 8.26 3.73623 8.26 4.02001C8.26 4.30379 8.37273 4.57595 8.5734 4.77662C8.77406 4.97728 9.04622 5.09001 9.33 5.09001H20.63C20.9805 5.08973 21.3215 5.20384 21.6013 5.415C21.881 5.62617 22.0842 5.92286 22.18 6.26001L25.74 19.26C25.1843 19.0474 24.595 18.9356 24 18.93H8C7.40835 18.9368 6.8226 19.0485 6.27 19.26L8.75 10.26C8.8436 9.91997 9.04562 9.61977 9.32537 9.40499C9.60512 9.19022 9.94732 9.0726 10.3 9.07001H18.67C18.9538 9.07001 19.2259 8.95728 19.4266 8.75662C19.6273 8.55595 19.74 8.28379 19.74 8.00001C19.74 7.71623 19.6273 7.44407 19.4266 7.24341C19.2259 7.04274 18.9538 6.93001 18.67 6.93001H10.3C9.48303 6.93085 8.68881 7.19917 8.03872 7.69396C7.38864 8.18875 6.91844 8.88279 6.7 9.67001C6.91 9.67001 3.11 22.76 3.11 22.76C2.90719 23.5068 2.88048 24.2905 3.03198 25.0493C3.18349 25.8082 3.50906 26.5215 3.98307 27.1332C4.45709 27.7449 5.06661 28.2381 5.76365 28.5742C6.46069 28.9103 7.22623 29.08 8 29.07H24C25.3438 29.0674 26.6319 28.5324 27.5821 27.5821C28.5323 26.6319 29.0674 25.3438 29.07 24C29.0646 23.5594 28.9973 23.1218 28.87 22.7ZM24 26.93H8C7.22292 26.93 6.47766 26.6213 5.92818 26.0718C5.3787 25.5224 5.07 24.7771 5.07 24C5.07 23.2229 5.3787 22.4777 5.92818 21.9282C6.47766 21.3787 7.22292 21.07 8 21.07H24C24.7771 21.07 25.5223 21.3787 26.0718 21.9282C26.6213 22.4777 26.93 23.2229 26.93 24C26.93 24.7771 26.6213 25.5224 26.0718 26.0718C25.5223 26.6213 24.7771 26.93 24 26.93" fill="black"/>
</svg>
