<svg width="32" height="32" viewBox="0 0 32 32" fill="none" xmlns="http://www.w3.org/2000/svg">
<path d="M16 1.33002C18.0113 1.31779 20.0033 1.723 21.85 2.52002C23.6339 3.28105 25.2614 4.36603 26.65 5.72002C28.0238 7.07778 29.1237 8.68698 29.89 10.46C30.6807 12.2887 31.0956 14.2577 31.11 16.25C31.1009 17.8645 30.8377 19.4674 30.33 21C29.846 22.472 29.134 23.8588 28.22 25.11C27.3092 26.3518 26.2248 27.4564 25 28.39C23.7516 29.33 22.356 30.0565 20.87 30.54C20.732 30.5764 20.5873 30.579 20.448 30.5476C20.3088 30.5163 20.1791 30.452 20.07 30.36C19.9278 30.2228 19.8421 30.0373 19.83 29.84V25.65C19.8462 25.0633 19.7477 24.479 19.54 23.93C19.3793 23.5488 19.1369 23.2074 18.83 22.93C20.4858 22.7362 22.0758 22.1686 23.48 21.27C24.92 20.36 25.64 18.44 25.64 15.53C25.647 14.7567 25.5043 13.9892 25.22 13.27C24.956 12.6152 24.5729 12.0151 24.09 11.5C24.14 11.3 24.23 10.84 24.35 10.13C24.4476 9.24255 24.2952 8.34547 23.91 7.54002C22.4115 7.66967 20.9766 8.20556 19.76 9.09002C19.1518 8.93705 18.5336 8.82678 17.91 8.76002C17.2761 8.68224 16.6385 8.63884 16 8.63002C15.3333 8.63002 14.6933 8.66002 14.08 8.72002C13.4538 8.77877 12.8344 8.89594 12.23 9.07002C10.9899 8.17325 9.52594 7.63683 8 7.52002C7.61461 8.32598 7.44902 9.21947 7.52 10.11C7.5623 10.5774 7.66309 11.0377 7.82 11.48C7.30991 12.0006 6.90577 12.6153 6.63 13.29C6.35147 13.9967 6.21225 14.7505 6.22 15.51C6.22 18.42 6.95 20.35 8.39 21.3C9.7965 22.2523 11.4193 22.8368 13.11 23C12.8918 23.2382 12.7007 23.4998 12.54 23.78C12.343 24.1592 12.224 24.5741 12.19 25C11.5447 25.2166 10.8705 25.3346 10.19 25.35C9.29667 25.41 8.50667 24.86 7.82 23.7C7.55334 23.2974 7.20902 22.9521 6.80721 22.6842C6.40541 22.4163 5.9542 22.2313 5.48 22.14C4.74 22.29 4.72 22.6 5.41 23.07C6.17332 23.6292 6.75432 24.4016 7.08 25.29C7.59937 26.1225 8.37237 26.7662 9.28513 27.1262C10.1979 27.4863 11.2022 27.5437 12.15 27.29V29.88C12.1363 30.0827 12.0513 30.274 11.91 30.42C11.8036 30.5169 11.6748 30.5859 11.5352 30.6208C11.3956 30.6557 11.2495 30.6554 11.11 30.62C9.65355 30.1018 8.28197 29.3705 7.04 28.45C5.79259 27.5409 4.69298 26.4446 3.78 25.2C2.87995 23.9469 2.17526 22.5645 1.69 21.1C1.18213 19.5715 0.925471 17.9707 0.930001 16.36C0.919798 14.3489 1.32492 12.3573 2.12 10.51C3.65003 6.90796 6.51795 4.04005 10.12 2.51002C11.9773 1.71431 13.9795 1.31251 16 1.33002V1.33002Z" fill="black"/>
</svg>
