<svg width="32" height="32" viewBox="0 0 32 32" fill="none" xmlns="http://www.w3.org/2000/svg">
<path d="M8.6 13.77C8.40465 13.7602 8.21645 13.6934 8.05871 13.5777C7.90097 13.4621 7.78061 13.3027 7.71253 13.1193C7.64445 12.936 7.63164 12.7366 7.67569 12.5461C7.71974 12.3555 7.81871 12.182 7.96035 12.0471C8.10199 11.9122 8.28008 11.8218 8.47257 11.7871C8.66507 11.7524 8.86352 11.7749 9.04335 11.8519C9.22318 11.9288 9.3765 12.0568 9.48433 12.22C9.59216 12.3832 9.64976 12.5744 9.65 12.77C9.65017 12.9057 9.62275 13.0399 9.56939 13.1646C9.51604 13.2893 9.43788 13.4019 9.33966 13.4954C9.24144 13.5889 9.12521 13.6615 8.99806 13.7087C8.8709 13.756 8.73547 13.7768 8.6 13.77ZM23.27 22.15C23.4777 22.15 23.6807 22.2116 23.8534 22.327C24.026 22.4424 24.1606 22.6063 24.2401 22.7982C24.3195 22.9901 24.3403 23.2012 24.2998 23.4049C24.2593 23.6085 24.1593 23.7956 24.0125 23.9425C23.8656 24.0893 23.6785 24.1893 23.4748 24.2298C23.2712 24.2704 23.06 24.2496 22.8682 24.1701C22.6763 24.0906 22.5123 23.956 22.397 23.7834C22.2816 23.6107 22.22 23.4077 22.22 23.2C22.2128 23.0602 22.2351 22.9205 22.2853 22.7899C22.3355 22.6592 22.4126 22.5406 22.5116 22.4416C22.6105 22.3426 22.7292 22.2655 22.8598 22.2153C22.9905 22.1651 23.1302 22.1428 23.27 22.15V22.15ZM8.6 24.25C8.39233 24.25 8.18932 24.1884 8.01665 24.0731C7.84398 23.9577 7.7094 23.7937 7.62993 23.6018C7.55046 23.41 7.52966 23.1989 7.57018 22.9952C7.61069 22.7915 7.71069 22.6044 7.85754 22.4576C8.00438 22.3107 8.19148 22.2107 8.39516 22.1702C8.59884 22.1297 8.80996 22.1505 9.00182 22.2299C9.19368 22.3094 9.35767 22.444 9.47305 22.6167C9.58842 22.7893 9.65 22.9923 9.65 23.2C9.65718 23.3398 9.63494 23.4795 9.58472 23.6102C9.53449 23.7408 9.4574 23.8595 9.35843 23.9584C9.25945 24.0574 9.14081 24.1345 9.01016 24.1847C8.87952 24.235 8.73979 24.2572 8.6 24.25V24.25ZM8.6 20.06C8.02321 20.0649 7.45884 20.2281 6.96843 20.5317C6.47801 20.8354 6.08039 21.2678 5.81891 21.782C5.55744 22.2961 5.44216 22.8722 5.48564 23.4473C5.52912 24.0225 5.72969 24.5747 6.06548 25.0437C6.40128 25.5127 6.85939 25.8805 7.38988 26.1069C7.92037 26.3334 8.50286 26.4099 9.07383 26.328C9.6448 26.2461 10.1823 26.009 10.6278 25.6426C11.0732 25.2762 11.4095 24.7945 11.6 24.25H20.3C20.5415 24.9454 21.019 25.5343 21.6495 25.9143C22.2799 26.2943 23.0236 26.4415 23.7513 26.3304C24.479 26.2192 25.1448 25.8567 25.6331 25.3057C26.1213 24.7548 26.4012 24.0503 26.4241 23.3145C26.447 22.5787 26.2115 21.8581 25.7584 21.2779C25.3053 20.6976 24.6634 20.2944 23.944 20.1382C23.2246 19.982 22.4732 20.0827 21.8203 20.4228C21.1674 20.7629 20.6543 21.321 20.37 22C19.67 21.64 19.37 20.67 18.84 18.85C18.4967 17.1622 17.7979 15.5668 16.79 14.17C16.144 13.4174 15.3455 12.8107 14.4473 12.39C13.5491 11.9694 12.5717 11.7444 11.58 11.73C11.3323 11.0294 10.8449 10.439 10.204 10.063C9.56307 9.68702 8.80985 9.54973 8.07748 9.67538C7.34511 9.80104 6.68074 10.1816 6.20179 10.7497C5.72284 11.3178 5.46015 12.0369 5.46015 12.78C5.46015 13.5231 5.72284 14.2422 6.20179 14.8104C6.68074 15.3785 7.34511 15.759 8.07748 15.8847C8.80985 16.0103 9.56307 15.873 10.204 15.497C10.8449 15.121 11.3323 14.5306 11.58 13.83C15.41 14.15 16.11 16.71 16.85 19.4C17.0839 20.3563 17.4192 21.2848 17.85 22.17H11.56C11.3476 21.554 10.9483 21.0195 10.4177 20.6413C9.88708 20.263 9.25164 20.0598 8.6 20.06V20.06ZM27.52 1.33002H2.38C2.10285 1.33002 1.83705 1.44012 1.64108 1.63609C1.4451 1.83207 1.335 2.09787 1.335 2.37502C1.335 2.65217 1.4451 2.91797 1.64108 3.11394C1.83705 3.30992 2.10285 3.42002 2.38 3.42002H27.52C27.6598 3.41283 27.7995 3.43508 27.9302 3.4853C28.0608 3.53553 28.1795 3.61262 28.2784 3.71159C28.3774 3.81056 28.4545 3.92921 28.5047 4.05986C28.5549 4.1905 28.5772 4.33023 28.57 4.47002V27.47C28.5772 27.6098 28.5549 27.7495 28.5047 27.8802C28.4545 28.0108 28.3774 28.1295 28.2784 28.2284C28.1795 28.3274 28.0608 28.4045 27.9302 28.4547C27.7995 28.505 27.6598 28.5272 27.52 28.52H4.52C4.38022 28.5272 4.24049 28.505 4.10984 28.4547C3.9792 28.4045 3.86055 28.3274 3.76158 28.2284C3.66261 28.1295 3.58551 28.0108 3.53529 27.8802C3.48506 27.7495 3.46282 27.6098 3.47 27.47V8.67002C3.46983 8.53438 3.49726 8.40013 3.55061 8.27542C3.60396 8.15072 3.68213 8.03817 3.78035 7.94463C3.87857 7.85109 3.99479 7.7785 4.12195 7.73129C4.2491 7.68408 4.38453 7.66324 4.52 7.67002H13.9C14.1785 7.67002 14.4456 7.55939 14.6425 7.36248C14.8394 7.16557 14.95 6.89849 14.95 6.62002C14.95 6.34154 14.8394 6.07447 14.6425 5.87755C14.4456 5.68064 14.1785 5.57002 13.9 5.57002H4.48C3.65316 5.56991 2.85943 5.89491 2.27011 6.47488C1.68079 7.05485 1.34313 7.84328 1.33 8.67002V27.52C1.33 28.3554 1.66188 29.1567 2.25262 29.7474C2.84335 30.3381 3.64457 30.67 4.48 30.67H27.48C28.3154 30.67 29.1166 30.3381 29.7074 29.7474C30.2981 29.1567 30.63 28.3554 30.63 27.52V4.52002C30.63 3.68459 30.2981 2.88337 29.7074 2.29263C29.1166 1.70189 28.3154 1.37002 27.48 1.37002L27.52 1.33002Z" fill="black"/>
</svg>
