<svg width="32" height="32" viewBox="0 0 32 32" fill="none" xmlns="http://www.w3.org/2000/svg">
<path d="M11.37 13.09C11.2787 12.61 11.0715 12.1597 10.7665 11.778C10.4616 11.3963 10.068 11.0949 9.62 10.9V10.9C9.07391 10.649 8.48099 10.5161 7.88 10.51H7.79C7.21417 10.5048 6.64473 10.6308 6.1249 10.8786C5.60508 11.1264 5.14856 11.4894 4.79 11.94V11.94C4.00893 13.0343 3.58938 14.3455 3.59 15.69C3.59 15.87 3.59 16.04 3.59 16.21C3.57949 16.3932 3.57949 16.5768 3.59 16.76C3.58965 18.0436 4.05513 19.2837 4.9 20.25V20.25C5.69025 21.0056 6.74678 21.4189 7.84 21.4H8C8.91391 21.401 9.79641 21.0665 10.48 20.46C11.1831 19.815 11.6393 18.9451 11.77 18V18H8.21V15.43H14.57V23.7H12.45L12.13 21.77C11.6765 22.3718 11.1375 22.9041 10.53 23.35V23.35C9.64658 23.875 8.63766 24.1514 7.61 24.15H7.21C6.30971 24.1483 5.42 23.9559 4.59951 23.5853C3.77903 23.2147 3.04643 22.6744 2.45001 22V22C1.11838 20.5124 0.381455 18.5865 0.380005 16.59C0.380005 16.43 0.380005 16.28 0.380005 16.14C0.380005 16.02 0.380005 15.88 0.380005 15.74C0.379711 13.6775 1.10546 11.6808 2.43001 10.1V10.1C3.07861 9.38702 3.8692 8.81764 4.75096 8.42842C5.63272 8.0392 6.58616 7.83876 7.55 7.83997H8.12C9.71803 7.83875 11.2666 8.39384 12.5 9.40997V9.40997C13.6221 10.3366 14.3394 11.6636 14.5 13.11V13.11L11.37 13.09ZM24 7.84997H27.66V13.85H31.6V17.41H27.68V23.41H24V17.41H20.07V13.88H24V7.84997ZM16 23.47V7.84997H19.4V23.47H16Z" fill="black"/>
</svg>
