<svg width="32" height="32" viewBox="0 0 32 32" fill="none" xmlns="http://www.w3.org/2000/svg">
<path d="M8 15.5H3V26.5H8V15.5Z" stroke="black" stroke-width="2" stroke-miterlimit="10" stroke-linecap="round" stroke-linejoin="round"/>
<path d="M8 26.5L13.1 28.4C15 29.1 17 29.2 18.9 28.6L26.9 26.1C28.1 25.7 28.9 24.6 28.9 23.4C28.9 21.8 27.6 20.5 26 20.5H20" stroke="black" stroke-width="2" stroke-miterlimit="10" stroke-linecap="round" stroke-linejoin="round"/>
<path d="M8 15.5L12 17.5H16C17.7 17.5 19 18.8 19 20.5C19 22.2 17.7 23.5 16 23.5H13" stroke="black" stroke-width="2" stroke-miterlimit="10" stroke-linecap="round" stroke-linejoin="round"/>
<path d="M24 5.79999C27 8.19999 29 11.9 29 16C29 16.7 28.9 17.5 28.8 18.2" stroke="black" stroke-width="2" stroke-miterlimit="10" stroke-linecap="round" stroke-linejoin="round"/>
<path d="M3.5 12.5C4.4 9.4 6.4 6.7 9.1 5" stroke="black" stroke-width="2" stroke-miterlimit="10" stroke-linecap="round" stroke-linejoin="round"/>
<path d="M18.4 6.09999C18.4 5.09999 17.3 4.29999 16 4.29999C14.7 4.29999 13.6 4.99999 13.6 6.09999C13.6 8.49999 18.5 8.49999 18.5 11C18.5 12 17.4 12.8 16.1 12.8C14.8 12.8 13.7 12 13.7 11" stroke="black" stroke-width="2" stroke-miterlimit="10" stroke-linecap="round"/>
<path d="M16 4.2V3" stroke="black" stroke-width="2" stroke-miterlimit="10" stroke-linecap="round"/>
<path d="M16 12.8V14" stroke="black" stroke-width="2" stroke-miterlimit="10" stroke-linecap="round"/>
</svg>
