<svg width="32" height="32" viewBox="0 0 32 32" fill="none" xmlns="http://www.w3.org/2000/svg">
<path d="M8 25C10.7614 25 13 22.7614 13 20C13 17.2386 10.7614 15 8 15C5.23858 15 3 17.2386 3 20C3 22.7614 5.23858 25 8 25Z" stroke="black" stroke-width="2" stroke-miterlimit="10" stroke-linecap="round" stroke-linejoin="round"/>
<path d="M24 25C26.7614 25 29 22.7614 29 20C29 17.2386 26.7614 15 24 15C21.2386 15 19 17.2386 19 20C19 22.7614 21.2386 25 24 25Z" stroke="black" stroke-width="2" stroke-miterlimit="10" stroke-linecap="round" stroke-linejoin="round"/>
<path d="M13 20C13 18.3 14.3 17 16 17C17.7 17 19 18.3 19 20" stroke="black" stroke-width="2" stroke-miterlimit="10" stroke-linecap="round" stroke-linejoin="round"/>
<path d="M29 20L24.7 8.9C24.3 7.8 23.2 7 21.9 7H19" stroke="black" stroke-width="2" stroke-miterlimit="10" stroke-linecap="round" stroke-linejoin="round"/>
<path d="M13 7H10.1C8.8 7 7.7 7.8 7.3 8.9L3 20" stroke="black" stroke-width="2" stroke-miterlimit="10" stroke-linecap="round" stroke-linejoin="round"/>
</svg>
