<svg width="32" height="32" viewBox="0 0 32 32" fill="none" xmlns="http://www.w3.org/2000/svg">
<path d="M16.35 7.38002C16.5264 7.41935 16.6888 7.50575 16.82 7.63002V7.63002C16.8785 7.67173 16.9257 7.72745 16.9571 7.79209C16.9886 7.85673 17.0033 7.92821 17 8.00002C17.0004 8.08226 16.9782 8.16302 16.9359 8.23354C16.8936 8.30406 16.8327 8.36164 16.76 8.40002V8.40002C16.4622 8.5253 16.1544 8.62564 15.84 8.70002V8.70002C15.6141 8.68123 15.39 8.64445 15.17 8.59002V8.59002C15.0499 8.57304 14.94 8.51295 14.8609 8.42096C14.7818 8.32897 14.7388 8.21134 14.74 8.09002C14.7348 7.99651 14.7566 7.90349 14.8027 7.82197C14.8488 7.74044 14.9172 7.67383 15 7.63002C15.257 7.41177 15.5828 7.29135 15.92 7.29002C16.0677 7.29307 16.2135 7.32359 16.35 7.38002ZM11.17 6.25002L11.37 6.04002L11.14 5.86002C11.14 5.93002 11.01 6.00002 11.01 6.06002C11.01 6.12002 11.11 6.19002 11.17 6.25002ZM18.11 6.00002C18.06 6.00002 18 5.91002 18 5.83002C18 5.75002 18.06 5.70002 18.14 5.56002C18.22 5.70002 18.29 5.77002 18.29 5.83002C18.29 5.89002 18.11 6.00002 18.11 6.00002ZM10.77 5.00002C10.9964 5.01514 11.2088 5.11524 11.3645 5.28027C11.5203 5.44531 11.608 5.66309 11.61 5.89002C11.61 6.11015 11.5225 6.32126 11.3669 6.47692C11.2112 6.63257 11.0001 6.72002 10.78 6.72002C10.5599 6.72002 10.3488 6.63257 10.1931 6.47692C10.0374 6.32126 9.94999 6.11015 9.94999 5.89002V5.89002C9.9493 5.66562 10.0334 5.44924 10.1855 5.2842C10.3375 5.11917 10.5463 5.01767 10.77 5.00002ZM17.68 4.78002C17.4643 4.80468 17.2654 4.90817 17.1214 5.07061C16.9775 5.23304 16.8986 5.44296 16.9 5.66002V5.72002C16.8997 5.93604 16.9827 6.14385 17.1317 6.30028C17.2807 6.45671 17.4842 6.54973 17.7 6.56002V6.56002C17.9176 6.54736 18.1223 6.45255 18.2726 6.29476C18.423 6.13697 18.5078 5.92797 18.51 5.71002C18.51 5.71002 18.51 5.71002 18.51 5.65002C18.5127 5.42796 18.4285 5.21365 18.2752 5.05293C18.122 4.8922 17.9119 4.79784 17.69 4.79002L17.68 4.78002ZM21.75 6.21002C21.6038 6.69388 21.3143 7.12205 20.9197 7.43804C20.5252 7.75403 20.0441 7.943 19.54 7.98002V7.98002C19.3802 7.99091 19.2198 7.99091 19.06 7.98002C18.76 7.97861 18.4613 7.94168 18.17 7.87002V7.87002C17.7041 7.77588 17.2781 7.54149 16.9492 7.1983C16.6203 6.85511 16.4042 6.41953 16.33 5.95002C16.3192 5.80355 16.3192 5.65649 16.33 5.51002C16.3346 5.13541 16.4276 4.76719 16.6013 4.43529C16.7751 4.1034 17.0247 3.81721 17.33 3.60002V3.60002C17.8624 3.15475 18.536 2.91368 19.23 2.92002H19.38C19.7118 2.9187 20.0405 2.98291 20.3474 3.10896C20.6543 3.23502 20.9333 3.42043 21.1684 3.65456C21.4034 3.8887 21.59 4.16695 21.7172 4.47334C21.8445 4.77973 21.91 5.10824 21.91 5.44002C21.9092 5.69398 21.8721 5.94652 21.8 6.19002V6.19002L21.75 6.21002ZM18 9.73002C17.9418 9.82681 17.8598 9.90706 17.7617 9.96308C17.6637 10.0191 17.5529 10.049 17.44 10.05C17.3771 10.0605 17.3129 10.0605 17.25 10.05C17.04 9.99002 16.84 9.90002 16.63 9.82002C16.4318 9.73077 16.2174 9.68313 16 9.68002C15.795 9.67976 15.5916 9.71704 15.4 9.79002V9.79002C15.1805 9.87168 14.9568 9.94178 14.73 10H14.68C14.2 10.09 13.89 9.82002 13.89 9.27002C13.9063 9.10741 13.9623 8.95129 14.0529 8.81531C14.1436 8.67933 14.2662 8.56764 14.41 8.49002C14.49 8.49002 14.6 8.32002 14.58 8.25002C14.5 7.89002 14.75 7.69002 14.97 7.51002C15.2633 7.30698 15.6134 7.20197 15.97 7.21002C16.2557 7.20754 16.5375 7.27628 16.79 7.41002V7.41002C16.9143 7.46375 17.0197 7.55336 17.0928 7.66739C17.1658 7.78141 17.2031 7.91464 17.2 8.05002C17.205 8.09655 17.205 8.14348 17.2 8.19002C17.2 8.35002 17.2 8.43002 17.34 8.51002C17.5577 8.65807 17.7588 8.82905 17.94 9.02002C17.9897 9.0718 18.0285 9.13296 18.0542 9.19992C18.08 9.26688 18.0922 9.33831 18.09 9.41002C18.0937 9.52491 18.0584 9.63767 17.99 9.73002H18ZM16.78 11.55C16.7039 11.5941 16.6179 11.6182 16.53 11.62C16.4186 11.6197 16.3107 11.5806 16.225 11.5094C16.1392 11.4383 16.0809 11.3395 16.06 11.23V11.23C16.0495 11.0235 16.0495 10.8166 16.06 10.61C16.06 10.39 16.06 10.17 16.06 9.96002C16.06 9.96002 16.18 9.83002 16.22 9.84002C16.4529 9.897 16.6804 9.97395 16.9 10.07C16.96 10.07 16.99 10.19 17 10.25C17.0017 10.4543 17.0184 10.6582 17.05 10.86C17.0847 10.9869 17.076 11.1218 17.0253 11.2432C16.9745 11.3646 16.8847 11.4655 16.77 11.53L16.78 11.55ZM15.78 10.26V11.09C15.78 11.37 15.58 11.49 15.36 11.57C15.3206 11.5798 15.2794 11.5798 15.24 11.57C15.1625 11.5704 15.0871 11.5451 15.0256 11.498C14.9641 11.451 14.9199 11.3849 14.9 11.31V11.31C14.8223 10.9979 14.7688 10.6803 14.74 10.36V10.36C14.74 10.3 14.85 10.19 14.93 10.14C15.01 10.09 15.27 10.04 15.44 9.98002C15.8 9.86002 15.83 9.88002 15.78 10.27V10.26ZM9.56999 5.26002C9.67735 4.70221 9.99172 4.20565 10.45 3.87002C10.9843 3.46203 11.6377 3.24071 12.31 3.24002C12.7229 3.23987 13.1315 3.32498 13.51 3.49002V3.49002C13.9119 3.63446 14.265 3.88938 14.5286 4.22548C14.7921 4.56158 14.9555 4.96522 15 5.39002C15.0102 5.50646 15.0102 5.62357 15 5.74002C15.0002 6.11831 14.9095 6.49111 14.7354 6.827C14.5614 7.16289 14.3092 7.45202 14 7.67002V7.67002C13.4987 8.04185 12.894 8.24809 12.27 8.26002H12C11.6617 8.26137 11.3266 8.19541 11.0141 8.06598C10.7016 7.93655 10.4179 7.74624 10.1797 7.50613C9.94144 7.26602 9.75335 6.98091 9.62635 6.6674C9.49936 6.35389 9.43601 6.01825 9.43999 5.68002C9.42514 5.52036 9.42514 5.35967 9.43999 5.20002L9.56999 5.26002ZM26.71 16.48C26.553 16.2754 26.3558 16.1051 26.1305 15.9795C25.9052 15.854 25.6566 15.7759 25.4 15.75V15.75C24.99 15.68 24.97 15.69 24.95 15.28V12.13C24.9553 12.0301 24.9553 11.9299 24.95 11.83C24.95 10.2323 24.7959 8.63822 24.49 7.07002V7.23002C24.49 7.00002 24.32 6.74002 24.39 6.56002C24.46 6.38002 24.74 6.31002 24.92 6.18002C25.1732 6.02468 25.3823 5.80712 25.5276 5.54805C25.6729 5.28899 25.7495 4.99704 25.75 4.70002C25.7518 4.48417 25.7111 4.27007 25.63 4.07002V4.07002C25.5389 3.77368 25.383 3.50131 25.1737 3.27266C24.9643 3.04401 24.7067 2.86479 24.4195 2.748C24.1324 2.63122 23.8228 2.57978 23.5133 2.59743C23.2038 2.61507 22.902 2.70135 22.63 2.85002V2.85002C22.5419 2.91074 22.437 2.94223 22.33 2.94002C22.2064 2.92799 22.0903 2.87522 22 2.79002C20.9642 2.05158 19.7551 1.59343 18.49 1.46002V1.46002C18.02 1.38559 17.5457 1.34217 17.07 1.33002H15.34C14.65 1.44002 13.96 1.52002 13.25 1.65002C11.8568 1.85074 10.5382 2.40503 9.41999 3.26002V3.26002C9.25999 3.39002 9.14999 3.26002 9.01999 3.26002C8.7071 3.08938 8.35639 2.99998 7.99999 3.00002C7.61351 2.99358 7.23288 3.09496 6.9008 3.2928C6.56872 3.49063 6.29834 3.77708 6.11999 4.12002V4.12002C5.96534 4.3877 5.88266 4.69088 5.87999 5.00002C5.87847 5.33007 5.97194 5.6536 6.14926 5.93198C6.32657 6.21037 6.58024 6.43186 6.87999 6.57002C7.25999 6.77002 7.25999 6.77002 7.16999 7.19002C6.99194 8.13956 6.90488 9.10393 6.90999 10.07C6.91424 10.5779 6.94428 11.0852 6.99999 11.59V11.53C7.09999 12.85 7.18999 14.17 7.29999 15.53C7.29999 15.74 7.22999 15.82 7.01999 15.82H6.99999C6.55446 15.8172 6.11857 15.9497 5.74999 16.2C5.58067 16.3338 5.43236 16.4922 5.30999 16.67V16.67C5.08999 17.04 5.45999 17.28 5.57999 17.57C5.69999 17.86 5.93999 17.77 6.13999 17.7C6.33999 17.63 6.58999 17.5 6.78999 17.4L7.29999 17.17V18C7.21999 19.3 7.10999 20.61 7.05999 21.91C7.05999 22.05 7.05999 22.23 7.05999 22.4C7.06113 23.4991 7.22973 24.5917 7.55999 25.64V25.57C7.83393 26.4856 8.32839 27.32 8.99999 28V28L9.15999 28.18C8.86999 28.38 8.61999 28.58 8.36999 28.79C8.1766 28.9363 8.0107 29.1158 7.87999 29.32V29.32C7.82342 29.4032 7.7844 29.4971 7.76532 29.5958C7.74624 29.6946 7.7475 29.7962 7.76903 29.8945C7.79055 29.9928 7.83189 30.0856 7.89052 30.1674C7.94914 30.2492 8.02382 30.3181 8.10999 30.37V30.37C8.23999 30.47 8.34999 30.59 8.47999 30.7H8.86999C9.23999 30.42 9.59999 30.13 9.97999 29.88C10.2673 29.6915 10.5681 29.5244 10.88 29.38V29.38H11.01C11.0527 29.3698 11.0973 29.3698 11.14 29.38V29.38C12.6324 29.9571 14.2199 30.2489 15.82 30.24C16.33 30.24 16.82 30.24 17.35 30.16H17.3C18.7258 30.043 20.1151 29.649 21.39 29H21.32C21.3798 28.9736 21.4446 28.9599 21.51 28.9599C21.5754 28.9599 21.6401 28.9736 21.7 29V29C21.8525 29.1046 21.9904 29.229 22.11 29.37V29.37C22.3 29.56 22.46 29.77 22.64 29.96C23.19 30.5 23.52 30.42 24.03 29.96C24.0921 29.9004 24.1418 29.8291 24.1762 29.7501C24.2105 29.6711 24.2288 29.5861 24.23 29.5C24.23 29.3779 24.1915 29.2589 24.12 29.16V29.16C23.8897 28.8072 23.6322 28.4729 23.35 28.16C23.24 28.06 23.13 27.96 23.01 27.87C23.035 27.8089 23.0687 27.7516 23.11 27.7V27.7C24.1139 26.5812 24.7614 25.1886 24.97 23.7V23.7C25.1638 22.5401 25.2608 21.366 25.26 20.19C25.26 19.5234 25.23 18.8567 25.17 18.19V18.28C25.1785 17.9293 25.1618 17.5784 25.12 17.23V17.14L25.37 17.26C25.5406 17.3598 25.7217 17.4402 25.91 17.5V17.5C26.0403 17.5401 26.1797 17.5401 26.31 17.5V17.5C26.4347 17.4089 26.5366 17.2902 26.6077 17.1531C26.6789 17.0161 26.7173 16.8644 26.72 16.71C26.7353 16.614 26.7353 16.5161 26.72 16.42V16.42L26.71 16.48Z" fill="black"/>
</svg>
