<svg width="32" height="32" viewBox="0 0 32 32" fill="none" xmlns="http://www.w3.org/2000/svg">
<path d="M31 17.22H27.83V20.42H25.36V17.28H22.23V14.78H25.23V11.65H27.73V14.72H30.9L31 17.22ZM11 14.14H20.35C20.4299 14.469 20.4867 14.8031 20.52 15.14C20.5568 15.4988 20.5735 15.8594 20.57 16.22C20.5858 17.5582 20.3518 18.8876 19.88 20.14C19.4486 21.2845 18.7885 22.3291 17.94 23.21C17.0927 24.0814 16.0702 24.7631 14.94 25.21C13.6908 25.728 12.3523 25.9963 11 26C9.66587 26.0086 8.34455 25.7395 7.11999 25.21C5.91684 24.7099 4.82301 23.9796 3.89999 23.06C2.97304 22.134 2.23934 21.033 1.7415 19.821C1.24366 18.609 0.991612 17.3102 0.999989 16C0.990762 14.0373 1.56338 12.1159 2.64552 10.4784C3.72766 8.84099 5.27078 7.56096 7.07999 6.8C8.82726 6.04708 10.7569 5.82293 12.6303 6.1553C14.5036 6.48766 16.2384 7.36195 17.62 8.67L14.83 11.42C14.3213 10.9291 13.7195 10.5448 13.06 10.29C12.3919 10.024 11.6791 9.88824 10.96 9.89C10.1585 9.88319 9.3638 10.037 8.62277 10.3424C7.88173 10.6478 7.2094 11.0986 6.64545 11.6681C6.08151 12.2377 5.63739 12.9144 5.33932 13.6584C5.04125 14.4024 4.89527 15.1986 4.90999 16C4.89834 16.7948 5.04934 17.5836 5.35373 18.3179C5.65811 19.0522 6.10945 19.7165 6.67999 20.27C7.24232 20.84 7.91623 21.2879 8.65956 21.5856C9.40289 21.8832 10.1996 22.0243 11 22C12.3123 22.0572 13.6044 21.6618 14.66 20.88C15.5679 20.1657 16.1775 19.1391 16.37 18H11V14.14Z" fill="black"/>
</svg>
