<svg width="32" height="32" viewBox="0 0 32 32" fill="none" xmlns="http://www.w3.org/2000/svg">
<path d="M27.27 12.6C26.6682 10.3939 25.4383 8.41013 23.73 6.89002V6.89002C22.5757 5.86486 21.2306 5.07743 19.7717 4.57278C18.3127 4.06813 16.7686 3.85618 15.2276 3.94907C13.6866 4.04195 12.1791 4.43785 10.7913 5.11409C9.40353 5.79033 8.16275 6.73364 7.14 7.89002C5.939 9.272 5.07016 10.9105 4.6 12.68V12.68C3.51219 13.444 2.61946 14.4532 1.994 15.6261C1.36854 16.799 1.02792 18.1027 0.999683 19.4316C0.971449 20.7606 1.2564 22.0775 1.83147 23.2759C2.40655 24.4743 3.25562 25.5206 4.31 26.33V26.33C5.77854 27.4495 7.57339 28.0572 9.42 28.06H22.42C24.2417 28.0887 26.0239 27.5279 27.5009 26.4611C28.9778 25.3944 30.0705 23.8788 30.6158 22.1404C31.1612 20.402 31.1301 18.5339 30.5271 16.8146C29.9242 15.0954 28.7817 13.617 27.27 12.6ZM22.46 22.84H9.46C9.00106 22.8392 8.5476 22.7404 8.13 22.55C7.37017 22.1772 6.78513 21.5235 6.49857 20.7271C6.21201 19.9307 6.24641 19.0541 6.59448 18.2826C6.94255 17.5112 7.57702 16.9053 8.36372 16.5932C9.15042 16.281 10.0277 16.2871 10.81 16.61C11.5311 16.9405 12.1095 17.5189 12.44 18.24L16.22 14.46C14.9707 12.8316 13.1726 11.7123 11.16 11.31V11.31C12.2755 10.0774 13.8186 9.31588 15.4756 9.18028C17.1325 9.04467 18.7789 9.54517 20.08 10.58V10.58C20.8434 11.2028 21.4552 11.9909 21.8692 12.8848C22.2833 13.7787 22.4887 14.755 22.47 15.74V16.39C23.3346 16.39 24.1638 16.7335 24.7752 17.3448C25.3865 17.9562 25.73 18.7854 25.73 19.65C25.7248 20.0742 25.6361 20.4932 25.4689 20.8831C25.3017 21.273 25.0594 21.6261 24.7557 21.9223C24.4521 22.2186 24.0931 22.4521 23.6991 22.6095C23.3052 22.767 22.8842 22.8453 22.46 22.84V22.84Z" fill="black"/>
</svg>
