<svg width="32" height="32" viewBox="0 0 32 32" fill="none" xmlns="http://www.w3.org/2000/svg">
<path d="M20.89 11.52C22.4024 11.6586 23.8182 12.3239 24.89 13.4C25.6857 14.0998 26.323 14.9613 26.7593 15.927C27.1956 16.8927 27.4208 17.9403 27.42 19V19.1C27.42 19.16 27.42 19.23 27.42 19.29C27.4171 19.5597 27.4687 19.8271 27.5718 20.0763C27.675 20.3255 27.8274 20.5513 28.02 20.74C28.5622 21.3097 28.9059 22.0392 29 22.82V22.82C28.9996 22.8956 28.9834 22.9702 28.9524 23.0391C28.9214 23.108 28.8763 23.1696 28.82 23.22C28.1317 23.7598 27.2936 24.0741 26.42 24.12V24.12C26.2363 24.1448 26.0686 24.2375 25.95 24.38V24.38C25.3324 25.2615 24.5877 26.0467 23.74 26.71V26.71C23.6097 26.8146 23.524 26.9647 23.5 27.13V27.13C23.4191 28.0608 23.0949 28.954 22.56 29.72V29.72L22.34 30.02C22.15 30.24 21.97 30.62 21.77 30.63C21.3695 30.6025 20.9801 30.4864 20.63 30.29V30.29C19.8542 29.9231 19.1707 29.3865 18.63 28.72V28.72C18.56 28.63 18.34 28.61 18.19 28.61H18.03C16.8636 28.612 15.7037 28.4366 14.59 28.09H14.67C14.5904 28.0788 14.5096 28.0788 14.43 28.09C14.2742 28.0922 14.1233 28.1448 14 28.24V28.24C12.8142 29.0258 11.4225 29.4434 10 29.44H9.85C9.73508 29.4409 9.6238 29.3997 9.53719 29.3242C9.45059 29.2487 9.39467 29.144 9.38 29.03V29.03C9.16102 28.386 9.04954 27.7103 9.05 27.03C9.04769 26.4482 9.12851 25.869 9.29 25.31V25.31C9.30048 25.2438 9.30048 25.1763 9.29 25.11C9.28956 25.0223 9.27165 24.9356 9.23731 24.8549C9.20297 24.7742 9.15289 24.7011 9.09 24.64C8.63 24.07 8.22 23.44 7.75 22.85C7.62018 22.6769 7.43771 22.5506 7.23 22.49V22.49C5.4684 22.0633 3.87811 21.1112 2.67 19.76V19.76C2.63679 19.6879 2.6196 19.6094 2.6196 19.53C2.6196 19.4506 2.63679 19.3721 2.67 19.3V19.3C3.24884 17.7651 4.32647 16.4692 5.73 15.62V15.62C5.85764 15.5654 5.96995 15.4803 6.05711 15.3722C6.14428 15.2641 6.20363 15.1363 6.23 15C6.39 14.12 6.62 13.26 6.82 12.39V12.34C6.8071 12.2189 6.766 12.1024 6.7 12V12C5.80302 10.6009 5.33064 8.97191 5.34 7.31001C5.34 7.16001 5.34 7.01001 5.34 6.87001C5.34069 6.75793 5.37829 6.64919 5.44698 6.56062C5.51566 6.47205 5.61162 6.40858 5.72 6.38001C6.61459 6.01269 7.57295 5.82578 8.54 5.83001C9.35242 5.83109 10.1594 5.96277 10.93 6.22001V6.22001C11.0113 6.2576 11.1006 6.27476 11.19 6.27001C11.3481 6.27291 11.5027 6.22371 11.63 6.13001V6.13001C12.4339 5.58194 13.3042 5.13838 14.22 4.81001H14.3C14.3673 4.78053 14.4273 4.73657 14.4757 4.68126C14.5241 4.62595 14.5597 4.56065 14.58 4.49001V4.49001C15.0062 3.28101 15.7955 2.23323 16.84 1.49001V1.49001C16.9267 1.4172 17.0368 1.37814 17.15 1.38001C17.2599 1.37965 17.3664 1.41867 17.45 1.49001C18.3989 2.08768 19.1395 2.9645 19.57 4.00001C19.6091 4.11051 19.6786 4.20768 19.7707 4.28024C19.8627 4.35281 19.9734 4.3978 20.09 4.41001C20.83 4.59001 21.57 4.82001 22.32 5.02001C22.4194 5.03607 22.5206 5.03607 22.62 5.02001C22.7194 5.03509 22.8206 5.03509 22.92 5.02001V5.02001C23.6328 4.62854 24.4273 4.40936 25.24 4.38001H25.32C25.4195 4.37862 25.5167 4.41025 25.5963 4.46996C25.6759 4.52967 25.7335 4.61409 25.76 4.71001C26.0444 5.338 26.1877 6.02067 26.18 6.71001C26.1902 6.90654 26.1902 7.10347 26.18 7.30001V7.30001C26.1745 7.34316 26.1745 7.38685 26.18 7.43001C26.1817 7.51069 26.1993 7.59024 26.2319 7.66405C26.2645 7.73786 26.3115 7.80446 26.37 7.86001C28.2405 9.7767 29.3128 12.3325 29.37 15.01V15.01V15.21C29.3132 15.3448 29.2463 15.4752 29.17 15.6C29.06 15.5 28.92 15.41 28.87 15.29C28.66 14.72 28.52 14.14 28.28 13.59C27.5309 11.8139 26.281 10.2942 24.6829 9.21629C23.0847 8.13844 21.2074 7.54904 19.28 7.52001H19C17.3265 7.52034 15.6821 7.95815 14.23 8.79001H14.28C12.4522 9.91509 11.1354 11.709 10.61 13.79V13.85C10.3064 14.8003 10.1545 15.7924 10.16 16.79C10.16 17.09 10.16 17.39 10.16 17.69C10.2886 18.9404 10.7099 20.1429 11.39 21.2V21.2C12.083 22.3802 13.0721 23.3589 14.2595 24.0394C15.4469 24.72 16.7914 25.0786 18.16 25.08H18.47C19.4156 25.081 20.3465 24.8455 21.1778 24.3949C22.0092 23.9443 22.7147 23.2929 23.23 22.5V22.5C23.7129 21.8304 24.0512 21.0676 24.2234 20.2602C24.3956 19.4528 24.3978 18.6184 24.23 17.81C24.0223 16.7427 23.4517 15.7802 22.615 15.0858C21.7784 14.3913 20.7273 14.0077 19.64 14C19.3038 14.0025 18.9687 14.0393 18.64 14.11V14.11C18.1301 14.2465 17.6551 14.4902 17.2469 14.8248C16.8387 15.1595 16.5066 15.5774 16.2728 16.0507C16.039 16.524 15.9089 17.0417 15.8912 17.5693C15.8735 18.0968 15.9685 18.6221 16.17 19.11V19.11C16.4254 19.6264 16.8202 20.0612 17.3097 20.3651C17.7991 20.669 18.3638 20.8301 18.94 20.83C19.3478 20.8311 19.752 20.753 20.13 20.6V20.6C20.292 20.5614 20.4625 20.5827 20.61 20.66C20.55 20.81 20.53 21.05 20.4 21.14C19.7505 21.55 18.9908 21.7507 18.2235 21.7149C17.4563 21.6792 16.7185 21.4087 16.11 20.94V20.94C15.2478 20.2961 14.6338 19.3747 14.3715 18.331C14.1092 17.2873 14.2146 16.1851 14.67 15.21V15.21C15.58 12.88 17.62 11.52 20.94 11.53L20.89 11.52Z" fill="black"/>
</svg>
