<svg width="32" height="32" viewBox="0 0 32 32" fill="none" xmlns="http://www.w3.org/2000/svg">
<path fill-rule="evenodd" clip-rule="evenodd" d="M14.7 17.42L16.12 16.56C15.89 15.91 16.67 15.56 16.67 15.56L16.45 14.56C15.55 14.43 15.64 13.94 15.64 13.94L14.23 13.64C14.09 13.7493 13.9287 13.828 13.7565 13.871C13.5842 13.9141 13.4049 13.9205 13.23 13.89C12.74 13.89 12.39 13.58 12.51 13.19C12.5692 13.0641 12.654 12.9519 12.7591 12.8606C12.8641 12.7694 12.987 12.701 13.12 12.66L13.05 11.89C12.37 11.89 12.43 11.39 12.43 11.39L11.22 11.16C10.9717 11.2611 10.7078 11.3186 10.44 11.33C10.06 11.33 9.63999 11.17 9.73999 10.85C9.83999 10.53 10.36 10.37 10.36 10.37V9.75C10.36 9.75 10.01 9.75 9.91999 9.58C9.82999 9.41 9.91999 9.23 10.16 9.08C10.505 8.92637 10.8847 8.86768 11.26 8.91L12.26 8.52C12.26 8.52 12.26 8.23 12.74 8.09V7.62C12.74 7.62 12.4 7.62 12.27 7.42C12.14 7.22 12.27 7.08 12.68 6.98C12.9208 6.93014 13.1692 6.93014 13.41 6.98L14.31 6.67C14.3061 6.60075 14.3272 6.53241 14.3694 6.47737C14.4116 6.42233 14.4721 6.38424 14.54 6.37C14.7824 6.27904 15.044 6.25151 15.3 6.29C15.74 6.29 15.74 6.57 15.74 6.57L16.67 6.7C16.9502 6.56638 17.2673 6.53115 17.57 6.6L18.34 6.3C18.34 6.3 18.25 6.12 18.52 6.01C18.7433 5.92613 18.9845 5.902 19.22 5.94C19.62 6 19.7 6.19 19.7 6.19L20.7 6.32C20.9506 6.1834 21.2439 6.14763 21.52 6.22L22.16 5.95C22.1411 5.92376 22.1288 5.89333 22.1242 5.86131C22.1197 5.8293 22.1229 5.79665 22.1337 5.76617C22.1446 5.73569 22.1626 5.70829 22.1863 5.68632C22.2101 5.66434 22.2388 5.64845 22.27 5.64C22.5183 5.56832 22.7817 5.56832 23.03 5.64C23.39 5.69 23.45 5.84 23.45 5.84L24.45 5.97C24.6121 5.90467 24.7852 5.87073 24.96 5.87C25.2011 5.86303 25.4397 5.9218 25.65 6.04C25.94 6.25 25.59 6.42 25.59 6.42L25.97 6.81C25.97 6.81 26.5 6.81 26.71 7.07L27.82 7.22C28.0212 7.07615 28.2626 6.99919 28.51 7C28.7662 7.01089 29.0134 7.09793 29.22 7.25C29.2552 7.27141 29.2842 7.30152 29.3044 7.33742C29.3246 7.37332 29.3352 7.41382 29.3352 7.455C29.3352 7.49618 29.3246 7.53667 29.3044 7.57257C29.2842 7.60848 29.2552 7.63858 29.22 7.66L29.76 8.15C30.07 8.15565 30.3692 8.26476 30.61 8.46C30.81 8.67 30.73 8.9 30.33 8.96C30.0573 8.98606 29.7827 8.98606 29.51 8.96L28.9 9.35C28.9435 9.3756 28.9796 9.41214 29.0047 9.45599C29.0298 9.49984 29.043 9.54948 29.043 9.6C29.043 9.65052 29.0298 9.70016 29.0047 9.74401C28.9796 9.78786 28.9435 9.8244 28.9 9.85C28.7674 9.93349 28.6196 9.98975 28.4651 10.0155C28.3106 10.0413 28.1525 10.036 28 10C27.7317 9.95235 27.4861 9.81902 27.3 9.62L26 9.43C26 9.43 25.78 9.62 25 9.54L24.22 9.95C24.22 9.95 24.5 10.25 24.07 10.49L24.54 11.18C24.8206 11.1756 25.0936 11.2713 25.31 11.45C25.67 11.75 25.56 12.09 25.18 12.24C24.8769 12.3535 24.543 12.3535 24.24 12.24L23.33 12.8C23.3728 12.8603 23.4009 12.9298 23.4118 13.0029C23.4227 13.0761 23.4162 13.1508 23.3928 13.2209C23.3694 13.2911 23.3298 13.3547 23.2772 13.4067C23.2246 13.4587 23.1604 13.4975 23.09 13.52L23.61 14.52C23.9556 14.5582 24.279 14.7093 24.53 14.95C24.605 15.0221 24.6616 15.1112 24.695 15.2098C24.7285 15.3084 24.7377 15.4136 24.722 15.5165C24.7064 15.6194 24.6662 15.717 24.6049 15.8011C24.5437 15.8853 24.4631 15.9535 24.37 16C24.1959 16.0799 24.0066 16.1213 23.815 16.1213C23.6234 16.1213 23.4341 16.0799 23.26 16L22.13 16.81C22.2228 16.995 22.2403 17.2089 22.1788 17.4066C22.1172 17.6042 21.9815 17.7704 21.8 17.87L22.35 19.25C22.5822 19.2809 22.8053 19.3601 23.005 19.4824C23.2048 19.6046 23.3768 19.7673 23.51 19.96C23.6004 20.1009 23.654 20.2624 23.6659 20.4294C23.6777 20.5965 23.6474 20.7638 23.5777 20.9161C23.508 21.0684 23.4012 21.2008 23.2671 21.301C23.133 21.4013 22.9758 21.4663 22.81 21.49C22.4747 21.5522 22.1288 21.5211 21.81 21.4L20.33 22.65C20.4227 22.8701 20.4558 23.1108 20.426 23.3478C20.3961 23.5848 20.3044 23.8097 20.16 24C19.9094 24.2858 19.5697 24.4787 19.196 24.5477C18.8222 24.6166 18.4361 24.5575 18.1 24.38C17.8957 24.2691 17.7242 24.1062 17.6031 23.9078C17.4819 23.7093 17.4153 23.4824 17.41 23.25L15.36 22.64C15.1157 22.8593 14.8172 23.0093 14.4954 23.0743C14.1736 23.1394 13.8403 23.1172 13.53 23.01L11.59 24.4C11.6215 24.6822 11.5844 24.9678 11.4816 25.2324C11.3789 25.4971 11.2136 25.733 11 25.92C10.7301 26.1929 10.382 26.3752 10.004 26.4415C9.62593 26.5078 9.23662 26.4548 8.88999 26.29C8.67934 26.1559 8.51533 25.96 8.42044 25.729C8.32555 25.4981 8.30444 25.2434 8.35999 25L6.41999 24.34C6.01266 24.6575 5.51605 24.8394 4.99999 24.86C4.82703 24.8748 4.6532 24.8443 4.4956 24.7715C4.33801 24.6987 4.20208 24.5861 4.10118 24.4449C4.00028 24.3036 3.93789 24.1385 3.92015 23.9658C3.90241 23.7931 3.92992 23.6188 3.99999 23.46C4.25619 22.9216 4.68584 22.4849 5.21999 22.22L5.56999 20.53C5.45572 20.5194 5.34532 20.4831 5.24709 20.4238C5.14886 20.3644 5.06534 20.2836 5.0028 20.1874C4.94025 20.0912 4.90031 19.9821 4.88597 19.8682C4.87163 19.7544 4.88326 19.6387 4.91999 19.53L3.39999 19.05C3.02425 19.2783 2.59877 19.4121 2.15999 19.44C1.47999 19.44 1.15999 18.97 1.44999 18.44C1.72076 18.0332 2.11257 17.7219 2.56999 17.55L2.99999 16.34C2.99999 16.34 2.57999 16.34 2.47999 15.99C2.37999 15.64 2.62999 15.29 3.27999 14.99C3.48978 14.8722 3.72231 14.8006 3.96203 14.7799C4.20174 14.7592 4.44311 14.7899 4.66999 14.87L6.26999 14.16C6.26999 14.16 6.26999 13.5 7.43999 13.3C8.60999 13.1 8.51999 13.86 8.51999 13.86L9.85999 14.18C10.1374 14.0115 10.4554 13.9217 10.78 13.92C11.13 13.92 11.59 14.24 11.59 14.56C11.5608 14.7543 11.4751 14.9356 11.3435 15.0814C11.2119 15.2273 11.0402 15.3311 10.85 15.38V16.47C10.85 16.47 11.63 16.59 11.58 17.29L13.17 17.69C13.3844 17.5251 13.6355 17.4145 13.9019 17.3675C14.1683 17.3205 14.4421 17.3385 14.7 17.42ZM4.09999 18.31L5.65999 18.76C5.90373 18.5959 6.18062 18.4876 6.47099 18.4426C6.76135 18.3977 7.05805 18.4173 7.33999 18.5L9.11999 17.5C9.11999 17.5 9.05999 16.84 9.96999 16.5L9.99999 15.35C9.12999 15.27 9.35999 14.67 9.35999 14.67L7.99999 14.34C6.92999 14.8 6.56999 14.52 6.56999 14.52L4.99999 15.25C4.99999 15.25 4.99999 15.82 3.99999 16.19L3.60999 17.44C3.60999 17.44 4.42999 17.52 4.09999 18.31V18.31ZM7.20999 23.31L9.09999 23.93C9.36422 23.6855 9.69184 23.5203 10.0455 23.4531C10.3991 23.3859 10.7645 23.4195 11.1 23.55L13 22.22C12.9408 21.9137 12.993 21.5963 13.1469 21.325C13.3009 21.0537 13.5467 20.8463 13.84 20.74L13.71 19.16C13.71 19.16 12.66 18.98 12.81 18.22L11.16 17.79C10.9373 17.9657 10.673 18.081 10.3928 18.1248C10.1125 18.1686 9.82568 18.1394 9.55999 18.04L7.75999 19.04C7.75999 19.81 6.75999 20.32 6.75999 20.32L6.41999 22C6.41999 22 7.43999 22.06 7.20999 23.3V23.31ZM14.69 19L14.86 20.57C14.86 20.57 15.96 20.77 15.91 21.68L17.91 22.25C18.1371 22.0192 18.4297 21.8638 18.748 21.8048C19.0664 21.7458 19.3952 21.786 19.69 21.92L21.18 20.72C21.0661 20.4883 21.0461 20.2215 21.1244 19.9755C21.2027 19.7295 21.3731 19.5232 21.6 19.4L21.06 18C21.06 18 20.06 17.83 19.96 17.13L18.27 16.74C18.0605 16.8955 17.8168 16.9985 17.5592 17.0403C17.3017 17.082 17.0379 17.0614 16.79 16.98L15.35 17.87C15.35 17.87 15.68 18.45 14.69 19ZM18.54 16.11L20.21 16.49C20.4076 16.3339 20.6428 16.2323 20.892 16.1954C21.1411 16.1586 21.3956 16.1878 21.63 16.28L22.78 15.47C22.78 15.47 22.35 14.92 23.07 14.58L22.56 13.58C22.56 13.58 21.72 13.49 21.63 13L20.17 12.72C20.17 12.72 19.92 13.1 18.95 12.88L17.8 13.5C17.8 13.5 18.12 13.94 17.35 14.32L17.62 15.38C17.8307 15.3891 18.0332 15.4646 18.1984 15.5957C18.3637 15.7268 18.4832 15.9068 18.54 16.11V16.11ZM19.21 11L19.52 11.77C19.52 11.77 20.21 11.77 20.37 12.27L21.79 12.53C21.79 12.53 22.13 12.15 22.98 12.38L23.92 11.82C23.8771 11.7707 23.847 11.7116 23.8323 11.648C23.8175 11.5844 23.8185 11.5181 23.8353 11.4549C23.8521 11.3918 23.8841 11.3337 23.9285 11.2858C23.9729 11.2379 24.0283 11.2015 24.09 11.18L23.62 10.45C23.62 10.45 22.96 10.45 22.77 10.02L21.51 9.82C21.3612 9.90936 21.1956 9.96703 21.0236 9.9894C20.8515 10.0118 20.6766 9.99836 20.51 9.95L19.57 10.41C19.57 10.41 19.84 10.77 19.21 11ZM17.78 10.62L16.54 10.4C16.2029 10.5817 15.8083 10.6248 15.44 10.52L14.33 11.03C14.33 11.03 14.55 11.37 13.81 11.64L13.91 12.47C13.91 12.47 14.63 12.47 14.64 13.02L16.04 13.31C16.222 13.1845 16.4319 13.1052 16.6514 13.079C16.871 13.0529 17.0936 13.0807 17.3 13.16L18.43 12.54C18.43 12.54 18.12 12.15 18.82 11.84L18.53 11.06C18.53 11.06 17.87 11.11 17.78 10.65V10.62ZM15.48 9.7L15.34 9.08C15.34 9.08 14.76 9.08 14.76 8.72L13.68 8.54C13.3647 8.6738 13.018 8.71541 12.68 8.66L11.68 9.04C11.68 9.04 11.83 9.36 11.13 9.57V10.22C11.13 10.22 11.73 10.17 11.71 10.65L12.86 10.83C13.03 10.729 13.2196 10.6653 13.4161 10.6428C13.6126 10.6204 13.8116 10.6399 14 10.7L15.1 10.22C15.1 10.22 14.87 9.91 15.48 9.73V9.7ZM14 8.28L15 8.46C15.3095 8.30641 15.6615 8.26066 16 8.33L16.93 8C16.93 8 16.72 7.76 17.26 7.57L17.09 7.1C17.09 7.1 16.55 7.1 16.54 6.82L15.54 6.68C15.2599 6.80136 14.95 6.83618 14.65 6.78L13.77 7.1C13.77 7.1 13.89 7.34 13.34 7.47L13.4 7.97C13.4 7.97 14 8 14 8.28ZM16.85 10.08L18.05 10.29C18.212 10.1918 18.3934 10.1302 18.5817 10.1094C18.77 10.0887 18.9605 10.1094 19.14 10.17L20.04 9.73C20.04 9.73 19.83 9.38 20.32 9.2L20 8.66C20 8.66 19.43 8.66 19.34 8.3L18.24 8.13C17.9346 8.2975 17.5763 8.34049 17.24 8.25L16.3 8.63C16.3 8.63 16.44 8.94 15.92 9.1L16.06 9.66C16.06 9.66 16.78 9.65 16.81 10.08H16.85ZM17.85 7.53C17.85 7.53 18.35 7.53 18.48 7.84L19.55 8C19.55 8 19.76 7.78 20.48 7.87L21.27 7.53C21.27 7.53 21.01 7.27 21.49 7.11L21.19 6.66C21.19 6.66 20.68 6.66 20.57 6.39L19.57 6.27C19.3052 6.39535 19.0066 6.43048 18.72 6.37L17.93 6.67C17.93 6.67 18.12 6.86 17.62 7.04L17.85 7.53ZM22 7.13C22.1289 7.12371 22.2574 7.14755 22.3754 7.19963C22.4935 7.25171 22.5978 7.33058 22.68 7.43L23.77 7.58C23.77 7.58 23.93 7.41 24.66 7.48L25.35 7.15C25.35 7.15 25.06 6.93 25.46 6.78L25.06 6.34C24.48 6.34 24.38 6.08 24.38 6.08L23.4 6C23.1421 6.09853 22.8632 6.12951 22.59 6.09L21.9 6.36C21.9 6.36 22.14 6.56 21.71 6.73L22 7.13ZM21 9.14C21.1438 9.13518 21.2864 9.16877 21.4129 9.23732C21.5394 9.30586 21.6454 9.40689 21.72 9.53L22.96 9.73C23.1099 9.64341 23.2758 9.58813 23.4477 9.56751C23.6196 9.54688 23.7939 9.56134 23.96 9.61L24.75 9.19C24.75 9.19 24.41 8.93 24.94 8.68L24.48 8.11C24.3345 8.11667 24.1893 8.09149 24.0546 8.03622C23.9199 7.98094 23.7989 7.89691 23.7 7.79L22.58 7.63C22.58 7.63 22.38 7.83 21.68 7.76L20.91 8.11C20.91 8.11 21.19 8.35 20.66 8.56L21 9.14ZM25.06 8.14L25.51 8.68C25.662 8.67803 25.8128 8.70819 25.9524 8.7685C26.0919 8.82882 26.2172 8.91792 26.32 9.03L27.57 9.22C27.57 9.22 27.77 8.97 28.57 9.11L29.22 8.71C29.22 8.71 28.75 8.41 29.22 8.23L28.67 7.71C28.5241 7.71493 28.3788 7.68998 28.2429 7.63667C28.1071 7.58336 27.9836 7.50282 27.88 7.4L26.76 7.25C26.76 7.25 26.63 7.4 25.91 7.35L25.23 7.69C25.42 8 25 8.12 25 8.12L25.06 8.14Z" fill="black"/>
</svg>
