<svg width="32" height="32" viewBox="0 0 32 32" fill="none" xmlns="http://www.w3.org/2000/svg">
<path d="M14.21 18.52V18.77C14.2127 19.1111 14.2736 19.4493 14.39 19.77V19.77L15.51 23.32C15.58 23.53 15.63 23.75 15.68 23.97C15.6856 24.0031 15.6856 24.0369 15.68 24.07C15.6847 24.1065 15.6847 24.1435 15.68 24.18V24.18C15.51 24.67 15.36 25.18 15.17 25.66C14.98 26.14 14.87 26.28 14.41 26.21H13.72C13.49 26.21 13.45 26.05 13.52 25.84C13.59 25.63 13.73 25.14 13.82 24.74V24.66C13.8618 24.4933 13.882 24.3219 13.88 24.15C13.8773 23.6123 13.6942 23.0912 13.36 22.67V22.67C12.9286 22.1559 12.5902 21.5704 12.36 20.94V20.94C12.187 20.4576 12.0663 19.9581 12 19.45V19.45C11.94 18.97 11.62 18.86 11.23 19.01C10.5451 19.2831 9.87727 19.597 9.22999 19.95L9.31999 19.9C9.04326 20.0886 8.83708 20.3639 8.7339 20.6825C8.63071 21.0011 8.63637 21.345 8.74999 21.66C8.81606 21.9049 8.91353 22.1402 9.03999 22.36C9.14304 22.4936 9.26817 22.6086 9.40999 22.7V22.7L10.03 23.22C10.0356 23.2564 10.0356 23.2935 10.03 23.33C10.0347 23.3665 10.0347 23.4035 10.03 23.44C9.89208 23.8959 9.61604 24.2977 9.23999 24.59V24.59C9.18717 24.6005 9.1328 24.6005 9.07999 24.59C9.02379 24.6003 8.96618 24.6003 8.90999 24.59V24.59C8.61815 24.4045 8.3407 24.1972 8.07999 23.97V23.97C7.81999 23.74 7.58999 23.49 7.33999 23.26C7.06732 22.9946 6.9003 22.6393 6.86999 22.26V22.26C6.80565 21.8433 6.78221 21.4213 6.79999 21C6.79602 20.5841 6.83286 20.1687 6.90999 19.76V19.76C7.10994 19.0867 7.48627 18.479 7.99999 18V18C8.45999 17.53 8.94999 17.11 9.41999 16.66C9.64999 16.45 9.86999 16.26 10.09 16.04C10.1413 15.9851 10.1729 15.9148 10.18 15.84V15.84V13.63C10.1475 13.1171 10.0874 12.6064 9.99999 12.1V12.18C9.96228 11.974 9.88128 11.7783 9.76233 11.6059C9.64338 11.4335 9.48921 11.2884 9.30999 11.18C9.23659 11.1125 9.13962 11.0766 9.03999 11.08C8.96148 11.079 8.88426 11.1 8.81709 11.1407C8.74993 11.1813 8.6955 11.24 8.65999 11.31V11.31C8.48999 11.58 8.37999 11.87 8.21999 12.16C8.13088 12.3703 8.02729 12.5741 7.90999 12.77V12.77C7.82878 12.8734 7.72569 12.9575 7.60812 13.0163C7.49054 13.075 7.36141 13.1071 7.22999 13.11C7.14767 13.0865 7.06991 13.0494 6.99999 13V13C6.8199 12.9459 6.6587 12.8422 6.53488 12.7007C6.41107 12.5592 6.32966 12.3857 6.29999 12.2C6.29999 11.53 6.22999 10.88 6.20999 10.2C6.21338 9.79909 6.23674 9.39859 6.27999 9V9.06C6.27999 9.06 6.27999 9 6.27999 8.96C6.27896 8.8409 6.24472 8.72445 6.18112 8.62376C6.11752 8.52306 6.02709 8.4421 5.91999 8.39V8.39C5.23999 8 4.54999 7.62 3.84999 7.25C3.42999 7 2.99999 6.81 2.59999 6.57C2.15714 6.32814 1.73266 6.05407 1.32999 5.75V5.75C1.75999 5.87 2.09999 5.99 2.43999 6.12H2.36999C3.60999 6.64 4.89999 7.02 6.17999 7.44C6.59999 7.57 6.64999 7.44 6.66999 7.06C6.68999 6.68 6.66999 6.31 6.66999 5.93H6.73999C7.50913 6.25288 8.33584 6.41618 9.16999 6.41H9.44999C10.2106 6.48853 10.9655 6.61546 11.71 6.79H11.58C12.1142 6.96625 12.5726 7.31888 12.88 7.79V7.79C13.22 8.25 13.53 8.72 13.83 9.19C14.13 9.66 14.42 10.19 14.74 10.69C14.9503 11.0584 15.2546 11.3645 15.6217 11.577C15.9888 11.7896 16.4058 11.901 16.83 11.9C17.0051 11.9004 17.1796 11.8803 17.35 11.84V11.84C18.53 11.68 19.69 11.44 20.87 11.26C21.336 11.1819 21.8075 11.1417 22.28 11.14C22.7728 11.1422 23.2645 11.1857 23.75 11.27H23.7C24.1718 11.3799 24.6238 11.562 25.04 11.81C25.8679 12.2567 26.6232 12.8265 27.28 13.5V13.5C27.6454 13.9331 27.9607 14.4061 28.22 14.91V14.91C28.4462 15.3017 28.6434 15.7095 28.81 16.13V16.2C29.22 17.2 29.59 18.27 29.98 19.37L30.45 20.51C30.72 21.12 30.72 21.17 30.07 21.15C29.8384 21.147 29.6075 21.1236 29.38 21.08V21.08C29.0852 20.9989 28.8129 20.8512 28.584 20.6484C28.3552 20.4456 28.1759 20.193 28.06 19.91C27.77 19.24 27.57 18.54 27.29 17.83C27.09 17.36 26.84 16.9 26.6 16.45C26.546 16.3886 26.4712 16.3494 26.39 16.34V16.34C26.3401 16.3829 26.3022 16.438 26.28 16.5C26.17 16.85 26.07 17.21 25.98 17.5C25.9641 17.6094 25.9641 17.7206 25.98 17.83C25.9799 18.0792 26.0454 18.3241 26.17 18.54V18.54C26.43 19.03 26.69 19.54 26.96 20C27.4493 20.8985 27.7872 21.8716 27.96 22.88V23C28.0346 23.4663 28.0713 23.9378 28.07 24.41C28.0818 24.8977 28.0584 25.3857 28 25.87V25.82C28 25.87 27.91 25.95 27.86 25.95H26.86C26.61 25.95 26.51 25.81 26.5 25.49C26.5101 24.916 26.4901 24.3419 26.44 23.77C26.4449 23.7368 26.4449 23.7032 26.44 23.67C26.4405 23.3828 26.3832 23.0985 26.2716 22.8339C26.1599 22.5693 25.9961 22.3299 25.79 22.13C25.5964 21.9467 25.4128 21.753 25.24 21.55V21.55L23.85 19.84C23.67 19.61 23.48 19.39 23.28 19.16C23.08 18.93 23 19.02 22.95 19.24C22.88 19.63 22.83 20.05 22.79 20.45C22.7645 20.6927 22.7645 20.9373 22.79 21.18C22.7949 21.4252 22.7094 21.6637 22.55 21.85V21.85C22.0524 22.5082 21.7105 23.2707 21.55 24.08V24.08C21.45 24.51 21.37 24.93 21.3 25.35C21.23 25.77 21.19 25.77 20.87 25.81C20.4836 25.83 20.0964 25.83 19.71 25.81C19.54 25.81 19.54 25.69 19.55 25.57C19.61 25.06 19.66 24.57 19.72 24.03C19.9779 22.7998 20.1119 21.5469 20.12 20.29V20.29C20.0823 19.856 20.0155 19.425 19.92 19C19.86 18.56 19.75 18.61 19.4 18.6H16C15.492 18.6138 14.9837 18.587 14.48 18.52H14.17H14.21Z" fill="black"/>
</svg>
