<svg width="32" height="32" viewBox="0 0 32 32" fill="none" xmlns="http://www.w3.org/2000/svg">
<path fill-rule="evenodd" clip-rule="evenodd" d="M22.46 23.68C23.0724 24.0289 23.5986 24.5107 24 25.09C24.85 26.23 25.18 27.43 24.72 27.77C24.26 28.11 23.2 27.46 22.35 26.32C21.9016 25.767 21.5898 25.1161 21.44 24.42C20.0143 25.3704 18.3684 25.9386 16.66 26.07C16.9299 26.7016 17.0628 27.3833 17.05 28.07C17.05 29.49 16.58 30.65 16.05 30.65C15.52 30.65 15.05 29.49 15.05 28.07C15.0325 27.3839 15.1621 26.7019 15.43 26.07C13.6964 25.9923 12.0122 25.4688 10.54 24.55C10.3706 25.1878 10.071 25.7837 9.66 26.3C8.81 27.44 7.75 28.09 7.29 27.75C6.83 27.41 7.16 26.21 8.01 25.07C8.38716 24.5376 8.86646 24.0855 9.42 23.74C8.68725 23.1575 8.04081 22.4741 7.5 21.71L8.65 21C9.4601 22.1675 10.5409 23.1215 11.8 23.7803C13.0591 24.4392 14.459 24.7833 15.88 24.7833C17.301 24.7833 18.7009 24.4392 19.96 23.7803C21.2191 23.1215 22.2999 22.1675 23.11 21L24.25 21.78C23.735 22.4856 23.1337 23.1239 22.46 23.68V23.68ZM9.26 8.16002C8.76882 7.82182 8.3421 7.39849 8 6.91002C7.15 5.77002 6.82 4.57002 7.28 4.23002C7.74 3.89002 8.8 4.54002 9.65 5.68002C10.0276 6.15615 10.3125 6.69886 10.49 7.28002C11.9257 6.37481 13.566 5.84524 15.26 5.74002C15.0434 5.15471 14.9382 4.53402 14.95 3.91002C14.95 2.49002 15.42 1.33002 15.95 1.33002C16.48 1.33002 16.95 2.49002 16.95 3.91002C16.963 4.53737 16.8579 5.16157 16.64 5.75002C18.3763 5.88102 20.0499 6.45608 21.5 7.42002C21.6763 6.78789 21.9753 6.19665 22.38 5.68002C23.23 4.54002 24.29 3.89002 24.75 4.23002C25.21 4.57002 24.88 5.77002 24.03 6.91002C23.6457 7.44961 23.1558 7.9055 22.59 8.25002C23.3774 8.96396 24.0518 9.79343 24.59 10.71L23.43 11.46C22.6749 10.1669 21.6022 9.08794 20.3137 8.32515C19.0251 7.56235 17.5632 7.14099 16.0663 7.10094C14.5694 7.06089 13.087 7.40348 11.7595 8.09628C10.432 8.78908 9.30321 9.80917 8.48 11.06L7.34 10.28C7.8808 9.48947 8.52673 8.77625 9.26 8.16002V8.16002ZM27.49 12.29H29.81V19.78H28.26V14.47L26.43 19.78H25.14L23.3 14.53V19.78H21.74V12.29H24.05L25.81 17.44L27.49 12.29ZM17.58 12.29V18.4H21.23V19.78H15.93V12.29H17.58ZM15.16 12.29V13.68H11.16V15.28H14.79V16.56H11.2V18.4H15.2V19.78H9.55V12.29H15.16ZM6.88 12.29H8.52V19.78H6.88V16.55H3.88V19.78H2.19V12.29H3.84V15.17H6.84L6.88 12.29Z" fill="black"/>
</svg>
