<svg width="32" height="32" viewBox="0 0 32 32" fill="none" xmlns="http://www.w3.org/2000/svg">
<path d="M16 23C19.866 23 23 19.866 23 16C23 12.134 19.866 9 16 9C12.134 9 9 12.134 9 16C9 19.866 12.134 23 16 23Z" stroke="black" stroke-width="2" stroke-miterlimit="10"/>
<path d="M16 29C23.1797 29 29 23.1797 29 16C29 8.8203 23.1797 3 16 3C8.8203 3 3 8.8203 3 16C3 23.1797 8.8203 29 16 29Z" stroke="black" stroke-width="2" stroke-miterlimit="10"/>
<path d="M20.9 20.9L25.2 25.2" stroke="black" stroke-width="2" stroke-miterlimit="10"/>
<path d="M6.8 6.79999L11.1 11.1" stroke="black" stroke-width="2" stroke-miterlimit="10"/>
<path d="M11.1 20.9L6.8 25.2" stroke="black" stroke-width="2" stroke-miterlimit="10"/>
<path d="M25.2 6.79999L20.9 11.1" stroke="black" stroke-width="2" stroke-miterlimit="10"/>
</svg>
