<svg width="32" height="32" viewBox="0 0 32 32" fill="none" xmlns="http://www.w3.org/2000/svg">
<path fill-rule="evenodd" clip-rule="evenodd" d="M29.12 2.56999H26.05C25.6407 2.57263 25.249 2.7371 24.9604 3.02749C24.6719 3.31789 24.51 3.71063 24.51 4.11999V12.93H7.51V4.08999C7.51008 3.6867 7.35195 3.29947 7.0696 3.01151C6.78725 2.72356 6.40321 2.55784 6 2.54999H2.88C2.47064 2.54998 2.0779 2.71191 1.78751 3.00043C1.49711 3.28895 1.33264 3.68064 1.33 4.08999V27.91C1.33264 28.3193 1.49711 28.711 1.78751 28.9995C2.0779 29.2881 2.47064 29.45 2.88 29.45H6C6.40844 29.45 6.80014 29.2877 7.08895 28.9989C7.37775 28.7101 7.54 28.3184 7.54 27.91V19H24.54V27.94C24.54 28.3484 24.7023 28.7401 24.9911 29.0289C25.2799 29.3177 25.6716 29.48 26.08 29.48H29.15C29.5603 29.4774 29.953 29.3132 30.2431 29.0231C30.5332 28.733 30.6974 28.3403 30.7 27.93V4.11999C30.6974 3.70971 30.5332 3.31698 30.2431 3.02687C29.953 2.73675 29.5603 2.57261 29.15 2.56999" fill="black"/>
</svg>
