<svg width="32" height="32" viewBox="0 0 32 32" fill="none" xmlns="http://www.w3.org/2000/svg">
<path d="M8 25C9.10457 25 10 24.1046 10 23C10 21.8954 9.10457 21 8 21C6.89543 21 6 21.8954 6 23C6 24.1046 6.89543 25 8 25Z" stroke="black" stroke-width="2" stroke-miterlimit="10" stroke-linecap="round"/>
<path d="M16 25C17.1046 25 18 24.1046 18 23C18 21.8954 17.1046 21 16 21C14.8954 21 14 21.8954 14 23C14 24.1046 14.8954 25 16 25Z" stroke="black" stroke-width="2" stroke-miterlimit="10" stroke-linecap="round"/>
<path d="M24 25C25.1046 25 26 24.1046 26 23C26 21.8954 25.1046 21 24 21C22.8954 21 22 21.8954 22 23C22 24.1046 22.8954 25 24 25Z" stroke="black" stroke-width="2" stroke-miterlimit="10" stroke-linecap="round"/>
<path d="M3 23H6" stroke="black" stroke-width="2" stroke-miterlimit="10" stroke-linecap="round"/>
<path d="M10 23H14" stroke="black" stroke-width="2" stroke-miterlimit="10" stroke-linecap="round"/>
<path d="M18 23H22" stroke="black" stroke-width="2" stroke-miterlimit="10" stroke-linecap="round"/>
<path d="M26 23H29" stroke="black" stroke-width="2" stroke-miterlimit="10" stroke-linecap="round"/>
<path d="M22 16L27 11L22 6" stroke="black" stroke-width="2" stroke-miterlimit="10" stroke-linecap="round"/>
<path d="M15 11H27" stroke="black" stroke-width="2" stroke-miterlimit="10" stroke-linecap="round"/>
<path d="M11 11H9" stroke="black" stroke-width="2" stroke-miterlimit="10" stroke-linecap="round"/>
<path d="M5 11H4" stroke="black" stroke-width="2" stroke-miterlimit="10" stroke-linecap="round"/>
</svg>
