<svg width="32" height="32" viewBox="0 0 32 32" fill="none" xmlns="http://www.w3.org/2000/svg">
<path fill-rule="evenodd" clip-rule="evenodd" d="M10 23.84V8.15997H13.28V13.87H18.71V8.15997H22V23.84H18.71V16.98H13.28V23.84H10Z" fill="black"/>
<path d="M16 30.42C15.1685 30.4211 14.3512 30.2038 13.63 29.79L5.25 25C4.52937 24.5828 3.93108 23.9835 3.51512 23.2621C3.09915 22.5408 2.88013 21.7227 2.88 20.89V11.16C2.88013 10.3273 3.09915 9.5093 3.51512 8.78794C3.93108 8.06658 4.52937 7.46725 5.25 7.05002L13.63 2.21002C14.3516 1.79692 15.1686 1.57959 16 1.57959C16.8314 1.57959 17.6484 1.79692 18.37 2.21002L26.75 7.05002C27.4706 7.46725 28.0689 8.06658 28.4849 8.78794C28.9008 9.5093 29.1199 10.3273 29.12 11.16V20.84C29.1287 21.6812 28.9139 22.5096 28.4975 23.2405C28.081 23.9714 27.478 24.5786 26.75 25L18.37 29.84C17.644 30.2364 16.827 30.4364 16 30.42V30.42ZM16 3.58002C15.5138 3.59358 15.0403 3.73873 14.63 4.00002L6.25 8.79002C5.83252 9.0287 5.48578 9.37378 5.24512 9.79012C5.00445 10.2064 4.87847 10.6791 4.88 11.16V20.84C4.87847 21.3209 5.00445 21.7936 5.24512 22.2099C5.48578 22.6263 5.83252 22.9714 6.25 23.21L14.63 28.05C15.0465 28.2905 15.519 28.4171 16 28.4171C16.481 28.4171 16.9535 28.2905 17.37 28.05L25.75 23.21C26.1675 22.9714 26.5142 22.6263 26.7549 22.2099C26.9955 21.7936 27.1215 21.3209 27.12 20.84V11.16C27.1215 10.6791 26.9955 10.2064 26.7549 9.79012C26.5142 9.37378 26.1675 9.0287 25.75 8.79002L17.37 4.00002C16.9597 3.73873 16.4862 3.59358 16 3.58002V3.58002Z" fill="black"/>
</svg>
