<svg width="32" height="32" viewBox="0 0 32 32" fill="none" xmlns="http://www.w3.org/2000/svg">
<path d="M13.36 21.41C13.6869 21.404 14.0074 21.3178 14.2933 21.1592C14.5792 21.0005 14.8218 20.7742 15 20.5L19.42 13.59C19.6199 13.2613 19.727 12.8847 19.73 12.5C19.7344 12.1665 19.6552 11.8371 19.4998 11.5419C19.3443 11.2467 19.1175 10.9951 18.84 10.81C18.5391 10.6233 18.194 10.5197 17.84 10.51C17.5123 10.5134 17.1904 10.5972 16.9027 10.7541C16.615 10.9111 16.3702 11.1363 16.19 11.41L11.76 18.31C11.483 18.7588 11.3877 19.2964 11.4936 19.8131C11.5996 20.3297 11.8987 20.7865 12.33 21.09V21.09C12.6375 21.289 12.9938 21.3997 13.36 21.41V21.41ZM16 30.67C13.0985 30.67 10.2622 29.8096 7.84978 28.1977C5.43731 26.5857 3.55702 24.2946 2.44668 21.614C1.33634 18.9334 1.04583 15.9838 1.61187 13.138C2.17792 10.2923 3.5751 7.6784 5.62674 5.62677C7.67837 3.57513 10.2923 2.17795 13.138 1.6119C15.9837 1.04586 18.9334 1.33637 21.614 2.44671C24.2946 3.55705 26.5857 5.43734 28.1977 7.84981C29.8096 10.2623 30.67 13.0986 30.67 16C30.6542 19.8831 29.1025 23.6022 26.3539 26.3452C23.6054 29.0881 19.8831 30.6321 16 30.64V30.64V30.67ZM16 4.67002C13.7567 4.67002 11.5639 5.33536 9.69879 6.58186C7.83372 7.82835 6.38025 9.60001 5.52225 11.6727C4.66424 13.7454 4.44026 16.026 4.87863 18.226C5.31699 20.426 6.39802 22.4466 7.98494 24.0322C9.57187 25.6177 11.5934 26.6969 13.7938 27.1333C15.9942 27.5698 18.2746 27.3438 20.3466 26.4839C22.4185 25.6241 24.1889 24.1691 25.4337 22.3029C26.6786 20.4367 27.342 18.2433 27.34 16C27.3439 14.5083 27.0535 13.0305 26.4854 11.6512C25.9173 10.2719 25.0826 9.01823 24.0292 7.96203C22.9758 6.90584 21.7244 6.06785 20.3466 5.49609C18.9688 4.92433 17.4917 4.63002 16 4.63002V4.67002Z" fill="black"/>
</svg>
