<svg width="32" height="32" viewBox="0 0 32 32" fill="none" xmlns="http://www.w3.org/2000/svg">
<path d="M10.76 24.38C10.7668 24.2445 10.7459 24.1091 10.6987 23.9819C10.6515 23.8548 10.5789 23.7386 10.4854 23.6403C10.3918 23.5421 10.2793 23.464 10.1546 23.4106C10.0299 23.3573 9.89564 23.3298 9.76 23.33H8.76C8.48152 23.33 8.21445 23.4406 8.01754 23.6375C7.82063 23.8344 7.71 24.1015 7.71 24.38C7.71 24.6585 7.82063 24.9255 8.01754 25.1225C8.21445 25.3194 8.48152 25.43 8.76 25.43H9.76C9.89564 25.4302 10.0299 25.4027 10.1546 25.3494C10.2793 25.296 10.3918 25.2179 10.4854 25.1196C10.5789 25.0214 10.6515 24.9052 10.6987 24.778C10.7459 24.6509 10.7668 24.5155 10.76 24.38ZM10.76 20.19C10.7668 20.0545 10.7459 19.9191 10.6987 19.7919C10.6515 19.6648 10.5789 19.5486 10.4854 19.4503C10.3918 19.3521 10.2793 19.274 10.1546 19.2206C10.0299 19.1672 9.89564 19.1398 9.76 19.14H8.76C8.48152 19.14 8.21445 19.2506 8.01754 19.4475C7.82063 19.6444 7.71 19.9115 7.71 20.19C7.71 20.4685 7.82063 20.7355 8.01754 20.9325C8.21445 21.1294 8.48152 21.24 8.76 21.24H9.76C9.89564 21.2402 10.0299 21.2127 10.1546 21.1594C10.2793 21.106 10.3918 21.0279 10.4854 20.9296C10.5789 20.8314 10.6515 20.7152 10.6987 20.5881C10.7459 20.4609 10.7668 20.3255 10.76 20.19V20.19ZM10.76 16C10.7668 15.8645 10.7459 15.7291 10.6987 15.6019C10.6515 15.4748 10.5789 15.3586 10.4854 15.2603C10.3918 15.1621 10.2793 15.084 10.1546 15.0306C10.0299 14.9773 9.89564 14.9498 9.76 14.95H8.76C8.48152 14.95 8.21445 15.0606 8.01754 15.2575C7.82063 15.4544 7.71 15.7215 7.71 16C7.71 16.2785 7.82063 16.5455 8.01754 16.7425C8.21445 16.9394 8.48152 17.05 8.76 17.05H9.76C9.89564 17.0502 10.0299 17.0227 10.1546 16.9694C10.2793 16.916 10.3918 16.8379 10.4854 16.7397C10.5789 16.6414 10.6515 16.5252 10.6987 16.3981C10.7459 16.2709 10.7668 16.1355 10.76 16V16ZM9.76 12.86H8.76C8.48152 12.86 8.21445 12.7494 8.01754 12.5525C7.82063 12.3555 7.71 12.0885 7.71 11.81C7.71 11.5315 7.82063 11.2644 8.01754 11.0675C8.21445 10.8706 8.48152 10.76 8.76 10.76H9.76C10.0385 10.76 10.3056 10.8706 10.5025 11.0675C10.6994 11.2644 10.81 11.5315 10.81 11.81C10.81 12.0885 10.6994 12.3555 10.5025 12.5525C10.3056 12.7494 10.0385 12.86 9.76 12.86V12.86ZM20.19 24.38C20.1972 24.2402 20.1749 24.1005 20.1247 23.9698C20.0745 23.8392 19.9974 23.7205 19.8984 23.6216C19.7995 23.5226 19.6808 23.4455 19.5502 23.3953C19.4195 23.3451 19.2798 23.3228 19.14 23.33H12.86C12.5815 23.33 12.3145 23.4406 12.1175 23.6375C11.9206 23.8344 11.81 24.1015 11.81 24.38C11.81 24.6585 11.9206 24.9255 12.1175 25.1225C12.3145 25.3194 12.5815 25.43 12.86 25.43H19.14C19.2798 25.4372 19.4195 25.4149 19.5502 25.3647C19.6808 25.3145 19.7995 25.2374 19.8984 25.1384C19.9974 25.0394 20.0745 24.9208 20.1247 24.7902C20.1749 24.6595 20.1972 24.5198 20.19 24.38ZM24.38 11.81C24.3872 11.6702 24.3649 11.5305 24.3147 11.3998C24.2645 11.2692 24.1874 11.1505 24.0884 11.0516C23.9895 10.9526 23.8708 10.8755 23.7402 10.8253C23.6095 10.7751 23.4698 10.7528 23.33 10.76H12.86C12.5815 10.76 12.3145 10.8706 12.1175 11.0675C11.9206 11.2644 11.81 11.5315 11.81 11.81C11.81 12.0885 11.9206 12.3555 12.1175 12.5525C12.3145 12.7494 12.5815 12.86 12.86 12.86H23.33C23.4698 12.8672 23.6095 12.8449 23.7402 12.7947C23.8708 12.7445 23.9895 12.6674 24.0884 12.5684C24.1874 12.4694 24.2645 12.3508 24.3147 12.2202C24.3649 12.0895 24.3872 11.9498 24.38 11.81V11.81ZM22.29 16C22.2902 15.8644 22.2627 15.7301 22.2094 15.6054C22.156 15.4807 22.0779 15.3681 21.9797 15.2746C21.8814 15.1811 21.7652 15.1085 21.6381 15.0613C21.5109 15.0141 21.3755 14.9932 21.24 15H12.86C12.5815 15 12.3145 15.1106 12.1175 15.3075C11.9206 15.5044 11.81 15.7715 11.81 16.05C11.81 16.3285 11.9206 16.5955 12.1175 16.7925C12.3145 16.9894 12.5815 17.1 12.86 17.1H21.24C21.3843 17.108 21.5286 17.0846 21.663 17.0314C21.7974 16.9782 21.9187 16.8965 22.0185 16.792C22.1183 16.6874 22.1943 16.5625 22.2411 16.4258C22.288 16.289 22.3047 16.1438 22.29 16V16ZM24.38 20.19C24.3872 20.0502 24.3649 19.9105 24.3147 19.7798C24.2645 19.6492 24.1874 19.5305 24.0884 19.4316C23.9895 19.3326 23.8708 19.2555 23.7402 19.2053C23.6095 19.1551 23.4698 19.1328 23.33 19.14H12.86C12.5815 19.14 12.3145 19.2506 12.1175 19.4475C11.9206 19.6444 11.81 19.9115 11.81 20.19C11.81 20.4685 11.9206 20.7355 12.1175 20.9325C12.3145 21.1294 12.5815 21.24 12.86 21.24H23.33C23.4698 21.2472 23.6095 21.2249 23.7402 21.1747C23.8708 21.1245 23.9895 21.0474 24.0884 20.9484C24.1874 20.8494 24.2645 20.7308 24.3147 20.6002C24.3649 20.4695 24.3872 20.3298 24.38 20.19ZM30.67 4.48V27.48C30.67 28.3154 30.3381 29.1166 29.7474 29.7074C29.1566 30.2981 28.3554 30.63 27.52 30.63H4.52C3.68457 30.63 2.88336 30.2981 2.29262 29.7074C1.70188 29.1166 1.37 28.3154 1.37 27.48V8.67C1.36993 7.84145 1.69631 7.04624 2.27843 6.45663C2.86054 5.86703 3.65152 5.53052 4.48 5.52H13.9C14.1785 5.52 14.4456 5.63062 14.6425 5.82753C14.8394 6.02445 14.95 6.29152 14.95 6.57C14.95 6.84847 14.8394 7.11554 14.6425 7.31246C14.4456 7.50937 14.1785 7.62 13.9 7.62H4.48C4.34453 7.61321 4.2091 7.63406 4.08195 7.68127C3.95479 7.72848 3.83857 7.80106 3.74035 7.89461C3.64213 7.98815 3.56396 8.1007 3.51061 8.2254C3.45726 8.3501 3.42983 8.48436 3.43 8.62V27.52C3.42282 27.6598 3.44506 27.7995 3.49529 27.9302C3.54551 28.0608 3.62261 28.1794 3.72158 28.2784C3.82055 28.3774 3.9392 28.4545 4.06984 28.5047C4.20049 28.5549 4.34022 28.5772 4.48 28.57H27.48C27.6198 28.5772 27.7595 28.5549 27.8902 28.5047C28.0208 28.4545 28.1395 28.3774 28.2384 28.2784C28.3374 28.1794 28.4145 28.0608 28.4647 27.9302C28.5149 27.7995 28.5372 27.6598 28.53 27.52V4.52C28.5372 4.38021 28.5149 4.24048 28.4647 4.10983C28.4145 3.97919 28.3374 3.86054 28.2384 3.76157C28.1395 3.6626 28.0208 3.58551 27.8902 3.53528C27.7595 3.48505 27.6198 3.46281 27.48 3.47H2.38C2.10152 3.47 1.83445 3.35937 1.63754 3.16246C1.44063 2.96554 1.33 2.69847 1.33 2.42C1.33 2.14152 1.44063 1.87445 1.63754 1.67753C1.83445 1.48062 2.10152 1.37 2.38 1.37H27.52C28.3554 1.37 29.1566 1.70187 29.7474 2.29261C30.3381 2.88335 30.67 3.68456 30.67 4.52V4.48Z" fill="black"/>
</svg>
