<svg width="32" height="32" viewBox="0 0 32 32" fill="none" xmlns="http://www.w3.org/2000/svg">
<path d="M16 29C23.1797 29 29 23.1797 29 16C29 8.8203 23.1797 3 16 3C8.8203 3 3 8.8203 3 16C3 23.1797 8.8203 29 16 29Z" stroke="black" stroke-width="2" stroke-miterlimit="10" stroke-linecap="round"/>
<path d="M13 24H19" stroke="black" stroke-width="2" stroke-miterlimit="10" stroke-linecap="round"/>
<path d="M16 24V14H13" stroke="black" stroke-width="2" stroke-miterlimit="10" stroke-linecap="round"/>
<path d="M16 10.5C16.8284 10.5 17.5 9.82843 17.5 9C17.5 8.17157 16.8284 7.5 16 7.5C15.1716 7.5 14.5 8.17157 14.5 9C14.5 9.82843 15.1716 10.5 16 10.5Z" fill="black"/>
</svg>
