<svg width="32" height="32" viewBox="0 0 32 32" fill="none" xmlns="http://www.w3.org/2000/svg">
<path d="M27.77 7.90003C27.7773 7.99822 27.7635 8.09684 27.7296 8.18927C27.6956 8.28169 27.6423 8.36578 27.5731 8.43587C27.504 8.50597 27.4206 8.56046 27.3287 8.59567C27.2367 8.63088 27.1383 8.64601 27.04 8.64003H24.1C24.0009 8.64751 23.9014 8.6335 23.8082 8.59896C23.715 8.56442 23.6304 8.51016 23.5601 8.43989C23.4899 8.36962 23.4356 8.28501 23.4011 8.19183C23.3665 8.09865 23.3525 7.99912 23.36 7.90003V5.00003C23.3542 4.90133 23.3693 4.80252 23.4045 4.7101C23.4396 4.61768 23.4939 4.53375 23.5638 4.46384C23.6337 4.39393 23.7177 4.33962 23.8101 4.30449C23.9025 4.26936 24.0013 4.25421 24.1 4.26003H27C27.0979 4.25566 27.1956 4.27189 27.2868 4.30767C27.378 4.34345 27.4607 4.39798 27.5295 4.46774C27.5983 4.53749 27.6517 4.62091 27.6863 4.7126C27.7208 4.80429 27.7357 4.90221 27.73 5.00003L27.77 7.90003ZM5 27.77C4.8954 27.7827 4.7893 27.7715 4.6896 27.7375C4.5899 27.7034 4.49918 27.6473 4.42419 27.5732C4.34921 27.4992 4.29191 27.4092 4.25655 27.31C4.2212 27.2107 4.2087 27.1048 4.22 27V14.53H7.31C7.19418 15.011 7.14705 15.5059 7.17 16C7.17 18.3419 8.1003 20.5878 9.75625 22.2438C11.4122 23.8997 13.6581 24.83 16 24.83C18.3419 24.83 20.5878 23.8997 22.2438 22.2438C23.8997 20.5878 24.83 18.3419 24.83 16C24.8546 15.5053 24.804 15.0096 24.68 14.53H27.77V27C27.7758 27.0974 27.7609 27.1949 27.7263 27.2861C27.6917 27.3773 27.6381 27.4602 27.5691 27.5292C27.5002 27.5981 27.4173 27.6517 27.3261 27.6863C27.2349 27.721 27.1374 27.7359 27.04 27.73L5 27.77ZM16 10.11C17.1649 10.11 18.3037 10.4555 19.2723 11.1027C20.2409 11.7499 20.9959 12.6698 21.4417 13.746C21.8875 14.8223 22.0041 16.0066 21.7768 17.1491C21.5496 18.2917 20.9886 19.3412 20.1649 20.1649C19.3411 20.9886 18.2916 21.5496 17.1491 21.7769C16.0065 22.0041 14.8223 21.8875 13.746 21.4417C12.6697 20.9959 11.7498 20.2409 11.1026 19.2723C10.4554 18.3037 10.11 17.165 10.11 16C10.1153 14.4395 10.7375 12.9444 11.841 11.841C12.9444 10.7375 14.4395 10.1153 16 10.11ZM27.52 1.33003H4.52C4.10298 1.32473 3.68907 1.4023 3.30226 1.55823C2.91546 1.71416 2.56347 1.94534 2.26671 2.23838C1.96996 2.53141 1.73435 2.88046 1.57355 3.26526C1.41275 3.65007 1.32997 4.06298 1.33 4.48003V27.48C1.33 28.3155 1.66188 29.1167 2.25262 29.7074C2.84335 30.2982 3.64457 30.63 4.48 30.63H27.48C28.3154 30.63 29.1166 30.2982 29.7074 29.7074C30.2981 29.1167 30.63 28.3155 30.63 27.48V4.48003C30.6301 3.65148 30.3037 2.85627 29.7216 2.26666C29.1395 1.67706 28.3485 1.34055 27.52 1.33003V1.33003Z" fill="black"/>
</svg>
