<svg width="32" height="32" viewBox="0 0 32 32" fill="none" xmlns="http://www.w3.org/2000/svg">
<path d="M16 25C20.9706 25 25 20.9706 25 16C25 11.0294 20.9706 7 16 7C11.0294 7 7 11.0294 7 16C7 20.9706 11.0294 25 16 25Z" stroke="black" stroke-width="2" stroke-miterlimit="10"/>
<path d="M8.39999 20C10.8 19.2 13.4 18.8 16 18.8C18.7 18.8 21.2 19.2 23.6 20" stroke="black" stroke-width="2" stroke-miterlimit="10"/>
<path d="M23.6 12C21.2 12.8 18.6 13.2 16 13.2C13.3 13.2 10.8 12.8 8.39999 12" stroke="black" stroke-width="2" stroke-miterlimit="10"/>
<path d="M16 25C17.6569 25 19 20.9706 19 16C19 11.0294 17.6569 7 16 7C14.3431 7 13 11.0294 13 16C13 20.9706 14.3431 25 16 25Z" stroke="black" stroke-width="2" stroke-miterlimit="10"/>
<path d="M16 29L26.9 25.4C28.1 25 29 23.8 29 22.6V9.6C29 8.3 28.2 7.2 26.9 6.8L16 3L5.1 6.6C3.8 7.1 3 8.2 3 9.5V22.5C3 23.8 3.8 24.9 5.1 25.3L16 29Z" stroke="black" stroke-width="2" stroke-miterlimit="10"/>
</svg>
