<svg width="32" height="32" viewBox="0 0 32 32" fill="none" xmlns="http://www.w3.org/2000/svg">
<path d="M23.8 28.4H23.47C22.5109 28.4005 21.5697 28.1402 20.7471 27.647C19.9245 27.1538 19.2515 26.4462 18.8 25.6V25.6L21 24.24C21.2465 24.7385 21.6268 25.1586 22.0982 25.4535C22.5697 25.7484 23.1139 25.9065 23.67 25.91V25.91C24.82 25.91 25.54 25.34 25.54 24.56C25.54 23.78 24.8 23.27 23.54 22.72L22.86 22.42C20.86 21.59 19.62 20.56 19.62 18.29C19.6187 17.8081 19.7123 17.3306 19.8955 16.8848C20.0787 16.439 20.348 16.0337 20.6878 15.692C21.0277 15.3503 21.4315 15.0789 21.8763 14.8932C22.3211 14.7076 22.798 14.6113 23.28 14.61H23.65H24C24.7445 14.61 25.4747 14.8141 26.1112 15.2003C26.7477 15.5864 27.2661 16.1397 27.61 16.8V16.8L25.41 18.21C25.2752 17.8528 25.0344 17.5453 24.7197 17.329C24.4051 17.1127 24.0318 16.9979 23.65 17H23.54C23.2164 17 22.9061 17.1286 22.6773 17.3573C22.4485 17.5861 22.32 17.8965 22.32 18.22V18.22C22.32 19.05 22.83 19.38 24.01 19.9L24.69 20.19C27.02 21.19 28.36 22.19 28.36 24.52C28.36 26.85 26.36 28.36 23.8 28.36V28.4ZM17.31 24.24C17.31 24.37 17.31 24.51 17.31 24.66C17.3113 25.1525 17.2156 25.6404 17.0284 26.0958C16.8411 26.5513 16.566 26.9655 16.2187 27.3146C15.8714 27.6637 15.4588 27.9411 15.0043 28.1307C14.5498 28.3204 14.0625 28.4187 13.57 28.42H13.17H13C12.18 28.4208 11.3771 28.1855 10.6873 27.7422C9.99748 27.2988 9.4499 26.6662 9.11 25.92V25.92L11.35 24.56C11.78 25.33 12.17 25.98 13.11 25.98C14.05 25.98 14.59 25.63 14.59 24.25V14.8H17.34L17.31 24.24ZM26.31 1.33002H5.67C5.09875 1.33133 4.53335 1.44514 4.00608 1.66496C3.47882 1.88479 3.00002 2.20631 2.59701 2.61117C2.194 3.01603 1.87469 3.49631 1.65729 4.02458C1.4399 4.55285 1.32868 5.11877 1.33 5.69002V5.69002V26.31C1.32868 26.8813 1.4399 27.4472 1.65729 27.9755C1.87469 28.5037 2.194 28.984 2.59701 29.3889C3.00002 29.7937 3.47882 30.1152 4.00608 30.3351C4.53335 30.5549 5.09875 30.6687 5.67 30.67H26.33C26.9012 30.6687 27.4666 30.5549 27.9939 30.3351C28.5212 30.1152 29 29.7937 29.403 29.3889C29.806 28.984 30.1253 28.5037 30.3427 27.9755C30.5601 27.4472 30.6713 26.8813 30.67 26.31V5.69002C30.6713 5.11877 30.5601 4.55285 30.3427 4.02458C30.1253 3.49631 29.806 3.01603 29.403 2.61117C29 2.20631 28.5212 1.88479 27.9939 1.66496C27.4666 1.44514 26.9012 1.33133 26.33 1.33002H26.27H26.31Z" fill="black"/>
</svg>
