<svg width="32" height="32" viewBox="0 0 32 32" fill="none" xmlns="http://www.w3.org/2000/svg">
<path d="M14.6 11.4C13.8 11.1 12.9 11 12 11C7 11 3 15 3 20C3 25 7 29 12 29C17 29 21 25 21 20C21 18.9 20.8 17.9 20.5 17H22V13H26V9H29V3H23L14.6 11.4Z" stroke="black" stroke-width="2" stroke-miterlimit="10" stroke-linecap="round"/>
<path d="M10 25C11.6569 25 13 23.6569 13 22C13 20.3431 11.6569 19 10 19C8.34315 19 7 20.3431 7 22C7 23.6569 8.34315 25 10 25Z" stroke="black" stroke-width="2" stroke-miterlimit="10" stroke-linecap="round"/>
</svg>
