<svg width="32" height="32" viewBox="0 0 32 32" fill="none" xmlns="http://www.w3.org/2000/svg">
<path d="M11 11H7C4.8 11 3 9.2 3 7C3 4.8 4.8 3 7 3C9.2 3 11 4.8 11 7V11Z" stroke="black" stroke-width="2" stroke-miterlimit="10" stroke-linecap="round"/>
<path d="M21 11H25C27.2 11 29 9.2 29 7C29 4.8 27.2 3 25 3C22.8 3 21 4.8 21 7V11Z" stroke="black" stroke-width="2" stroke-miterlimit="10" stroke-linecap="round"/>
<path d="M11 21H7C4.8 21 3 22.8 3 25C3 27.2 4.8 29 7 29C9.2 29 11 27.2 11 25V21Z" stroke="black" stroke-width="2" stroke-miterlimit="10" stroke-linecap="round"/>
<path d="M21 21H25C27.2 21 29 22.8 29 25C29 27.2 27.2 29 25 29C22.8 29 21 27.2 21 25V21Z" stroke="black" stroke-width="2" stroke-miterlimit="10" stroke-linecap="round"/>
<path d="M21 11H11V21H21V11Z" stroke="black" stroke-width="2" stroke-miterlimit="10" stroke-linecap="round"/>
</svg>
