<svg width="32" height="32" viewBox="0 0 32 32" fill="none" xmlns="http://www.w3.org/2000/svg">
<path d="M9 24.5C9.82843 24.5 10.5 23.8284 10.5 23C10.5 22.1716 9.82843 21.5 9 21.5C8.17157 21.5 7.5 22.1716 7.5 23C7.5 23.8284 8.17157 24.5 9 24.5Z" fill="black"/>
<path d="M25 4L15 14C13.8 13.3 12.5 13 11 13C6.6 13 3 16.6 3 21C3 25.4 6.6 29 11 29C15.4 29 19 25.4 19 21C19 19.8 18.7 18.7 18.3 17.7L21 15H22V13H24V11H26V9H27L28 8V4H25Z" stroke="black" stroke-width="2" stroke-miterlimit="10" stroke-linecap="round"/>
</svg>
