<svg width="32" height="32" viewBox="0 0 32 32" fill="none" xmlns="http://www.w3.org/2000/svg">
<path d="M18.44 18.6C18.341 18.6403 18.2565 18.7097 18.1976 18.7989C18.1387 18.8881 18.1081 18.9931 18.11 19.1C18.1058 19.1466 18.1058 19.1934 18.11 19.24L19.42 22.39C20.2273 21.8806 20.9106 21.1973 21.42 20.39C21.6614 20.0165 21.853 19.6131 21.99 19.19V19.19L18.65 18.62C18.5423 18.6252 18.4368 18.6525 18.34 18.7L18.44 18.6ZM21.44 13.46L19 15.74C18.936 15.803 18.891 15.8827 18.87 15.97V15.97C18.8644 16.0165 18.8644 16.0635 18.87 16.11C18.8727 16.2321 18.9151 16.3499 18.991 16.4456C19.0668 16.5412 19.1718 16.6095 19.29 16.64V16.64L22.48 17.54C22.5492 16.82 22.4985 16.0935 22.33 15.39V15.39C22.1724 14.6816 21.8951 14.0052 21.51 13.39V13.39L21.44 13.46ZM16.12 20C16.0423 19.9513 15.9517 19.9269 15.86 19.93C15.7811 19.9307 15.7033 19.949 15.6324 19.9836C15.5614 20.0182 15.4991 20.0683 15.45 20.13V20.13L13.81 23.13C14.4577 23.3355 15.1308 23.4499 15.81 23.47V23.47C16.3123 23.4635 16.8122 23.3998 17.3 23.28H17.25L17.85 23.15L16.24 20.23C16.1781 20.1463 16.1077 20.0692 16.03 20H16.12ZM14.35 14.27H14.41C14.5541 14.27 14.6925 14.2135 14.7954 14.1125C14.8983 14.0115 14.9574 13.8741 14.96 13.73V13.73L15.13 10.37L14.46 10.51C13.2942 10.7897 12.2261 11.3807 11.37 12.22V12.22L14.15 14.22C14.2086 14.2568 14.2728 14.2838 14.34 14.3L14.35 14.27ZM17 14C17.0518 14.0678 17.1183 14.1228 17.1945 14.1609C17.2708 14.199 17.3547 14.2193 17.44 14.22C17.5435 14.2195 17.6444 14.1882 17.73 14.13V14.13L20.48 12.19C19.4689 11.1726 18.1368 10.5366 16.71 10.39V10.39L16.91 13.77C16.9056 13.8127 16.9115 13.8559 16.9272 13.8959C16.9428 13.9359 16.9678 13.9716 17 14V14ZM15 17.59L15.9 18.03L16.8 17.59L17.04 16.59L16.4 15.78H15.4L14.76 16.59L15 17.59ZM13.05 18.52L9.72999 19.06C10.211 20.3933 11.1042 21.5386 12.28 22.33V22.33L13.55 19.24C13.5831 19.1895 13.6008 19.1304 13.6008 19.07C13.6008 19.0096 13.5831 18.9505 13.55 18.9V18.9C13.5227 18.7828 13.4564 18.6783 13.3619 18.6038C13.2674 18.5293 13.1503 18.4892 13.03 18.49L13.05 18.52ZM12.88 16.41C12.9535 16.323 12.9957 16.2138 13 16.1C12.9994 16.0196 12.9811 15.9404 12.9466 15.8678C12.912 15.7953 12.862 15.7312 12.8 15.68V15.68L10.32 13.46C9.6649 14.5502 9.31919 15.7982 9.31999 17.07C9.31999 17.25 9.31999 17.43 9.31999 17.61L12.57 16.67C12.628 16.6578 12.6825 16.6326 12.7292 16.5962C12.776 16.5598 12.8139 16.5132 12.84 16.46L12.88 16.41ZM26.42 19.8H26.06C25.929 19.7617 25.8044 19.7044 25.69 19.63V19.63C25.6162 19.6204 25.5449 19.5966 25.48 19.56C25.1554 19.433 24.8209 19.3327 24.48 19.26H24.43C24.3815 19.2599 24.3334 19.2696 24.2888 19.2885C24.2441 19.3074 24.2037 19.3351 24.17 19.37H23.9C23.2926 21.2652 22.0213 22.8774 20.32 23.91V23.91L20.43 24.18C20.4197 24.2362 20.4197 24.2938 20.43 24.35C20.4197 24.4029 20.4197 24.4572 20.43 24.51C20.5587 24.8686 20.7408 25.2057 20.97 25.51V25.51V25.57C21.0274 25.6208 21.0749 25.6819 21.11 25.75V25.75C21.2032 25.8437 21.2809 25.9518 21.34 26.07V26.07C21.34 26.07 21.42 26.14 21.42 26.17C21.4305 26.253 21.4305 26.337 21.42 26.42C21.4351 26.506 21.4351 26.594 21.42 26.68V26.68C21.3974 26.7587 21.3591 26.8319 21.3076 26.8955C21.2561 26.9591 21.1923 27.0116 21.12 27.05V27.05C21.033 27.0816 20.9422 27.1018 20.85 27.11C20.7177 27.1049 20.5891 27.0652 20.4768 26.9951C20.3646 26.9249 20.2726 26.8266 20.21 26.71V26.71C20.2102 26.6869 20.2037 26.6642 20.1912 26.6447C20.1788 26.6252 20.161 26.6097 20.14 26.6C20.0739 26.4895 20.0297 26.3673 20.01 26.24V26.24L19.94 26.05C19.8303 25.6809 19.6794 25.3253 19.49 24.99C19.4306 24.8917 19.3386 24.8174 19.23 24.78L19.1 24.54C18.7743 24.6614 18.4401 24.7583 18.1 24.83H18.04C17.4739 24.9901 16.8883 25.0709 16.3 25.07H16.16C15.1632 25.0698 14.1756 24.8797 13.25 24.51H13.31L13.17 24.78C13.0614 24.8174 12.9694 24.8917 12.91 24.99V24.99C12.7292 25.3073 12.5818 25.6424 12.47 25.99V25.99L12.41 26.18C12.41 26.32 12.31 26.42 12.28 26.55C12.25 26.68 12.21 26.63 12.21 26.66C12.1459 26.7754 12.0535 26.8726 11.9416 26.9426C11.8297 27.0125 11.7018 27.0529 11.57 27.06V27.06C11.4907 27.052 11.4131 27.0318 11.34 27V27C11.2346 26.9415 11.1466 26.8561 11.0851 26.7524C11.0236 26.6487 10.9908 26.5306 10.99 26.41C10.9891 26.2983 11.0167 26.1882 11.07 26.09V26.09C11.0707 26.0696 11.0765 26.0497 11.087 26.0322C11.0975 26.0147 11.1123 26.0002 11.13 25.99C11.2 25.99 11.31 25.72 11.37 25.65C11.4266 25.609 11.4714 25.5538 11.5 25.49V25.49C11.7185 25.1806 11.8966 24.8445 12.03 24.49V24.49C12.0414 24.4373 12.0414 24.3827 12.03 24.33C12.0403 24.2738 12.0403 24.2162 12.03 24.16V24.16L12.2 23.93C11.8703 23.7598 11.5615 23.5518 11.28 23.31V23.31C10.0045 22.3232 9.05079 20.9797 8.54 19.45V19.39H8.24C8.16811 19.3266 8.07584 19.2911 7.98 19.29H8C7.60985 19.3516 7.22759 19.4555 6.86 19.6V19.6C6.7846 19.602 6.7115 19.6264 6.65 19.67V19.67L6.28 19.8H6.18H6.09H6.01H5.94C5.80326 19.8002 5.67028 19.7552 5.56177 19.6721C5.45325 19.5889 5.37528 19.4721 5.34 19.34V19.34C5.33466 19.2968 5.33466 19.2532 5.34 19.21C5.34014 19.0568 5.3944 18.9086 5.49321 18.7915C5.59201 18.6744 5.72899 18.5959 5.88 18.57H6.69C7.09227 18.5312 7.49042 18.4576 7.88 18.35C7.87476 18.2626 7.84835 18.1778 7.80306 18.1029C7.75777 18.028 7.69494 17.9652 7.62 17.92V17.92L7.84 18C7.7744 17.6 7.74096 17.1954 7.74 16.79C7.7321 15.2552 8.1698 13.751 9 12.46V12.46C9 12.39 9.06 12.36 9.09 12.3L8.89999 12.09C8.90118 12.0443 8.89188 11.9989 8.87282 11.9573C8.85375 11.9157 8.82542 11.879 8.79 11.85C8.51244 11.5965 8.20717 11.3751 7.88 11.19L7.67 11.08C7.55499 11.0182 7.44469 10.948 7.34 10.87V10.87L7.24 10.79C7.15761 10.7187 7.09301 10.6291 7.05134 10.5284C7.00967 10.4277 6.99209 10.3187 7 10.21C6.99938 10.0691 7.03743 9.93077 7.11 9.81001C7.15487 9.7363 7.21805 9.67546 7.2934 9.63341C7.36875 9.59135 7.4537 9.56951 7.54 9.57001C7.7075 9.58431 7.86727 9.64683 8 9.75001C8.0214 9.75167 8.04197 9.75904 8.05956 9.77135C8.07715 9.78366 8.09111 9.80047 8.1 9.82001L8.37 10.12C8.42099 10.1549 8.46507 10.199 8.5 10.25C8.75092 10.5265 9.02528 10.7808 9.31999 11.01V11.01C9.37841 11.0523 9.44793 11.0767 9.52 11.08H9.66L9.85 11.22C10.9636 10.0366 12.4111 9.22044 14 8.88001V8.88001C14.4 8.81001 14.77 8.74001 15.13 8.71001V8.33001C15.2102 8.26307 15.2664 8.17178 15.29 8.07001V8.07001C15.2958 8.00347 15.2958 7.93655 15.29 7.87001C15.2906 7.53506 15.2639 7.20061 15.21 6.87001V6.87001C15.2154 6.8369 15.2154 6.80313 15.21 6.77001C15.2144 6.73683 15.2144 6.7032 15.21 6.67001C15.1795 6.53509 15.1595 6.39802 15.15 6.26001V6.26001V6.12001C15.1652 6.03448 15.1979 5.95302 15.2461 5.88074C15.2943 5.80847 15.3569 5.74693 15.43 5.70001V5.70001C15.4938 5.60917 15.5795 5.53589 15.6791 5.48695C15.7787 5.43801 15.8891 5.41499 16 5.42001V5.42001C16.159 5.4419 16.3046 5.52098 16.4095 5.64246C16.5144 5.76395 16.5715 5.9195 16.57 6.08001V6.08001V6.28001C16.581 6.42037 16.5569 6.56125 16.5 6.69001C16.43 6.82001 16.5 6.82001 16.5 6.88001C16.4477 7.21068 16.4243 7.54528 16.43 7.88001V8.06001C16.4557 8.16616 16.5154 8.26099 16.6 8.33001V8.60001C18.2029 8.75425 19.729 9.3612 21 10.35V10.35L21.84 11.16L22.11 10.99H22.24C22.3094 10.9808 22.3769 10.9605 22.44 10.93V10.93C22.7447 10.7129 23.0262 10.465 23.28 10.19C23.3309 10.151 23.3748 10.1037 23.41 10.05C23.4858 9.94107 23.5729 9.8405 23.67 9.75001V9.75001C23.6914 9.74836 23.712 9.74099 23.7296 9.72868C23.7471 9.71637 23.7611 9.69956 23.77 9.68001C23.8997 9.57411 24.0626 9.51744 24.23 9.52001V9.52001C24.3936 9.53009 24.5474 9.60164 24.6606 9.72033C24.7737 9.83901 24.8378 9.99607 24.84 10.16C24.8396 10.2633 24.815 10.3651 24.7681 10.4572C24.7212 10.5492 24.6533 10.629 24.57 10.69V10.75C24.57 10.81 24.5 10.75 24.47 10.82L23.9 11.12C23.5457 11.3142 23.2108 11.5419 22.9 11.8C22.8393 11.8881 22.8078 11.993 22.81 12.1V12.1L22.6 12.3C23.1414 13.1278 23.5403 14.0404 23.78 15V15.07C23.9698 15.781 24.0639 16.5141 24.06 17.25C24.06 17.55 24.06 17.85 24.06 18.15L24.33 18.22C24.3773 18.3271 24.4629 18.4127 24.57 18.46V18.46C24.9354 18.5477 25.3062 18.6112 25.68 18.65H26.11C26.1796 18.6402 26.2503 18.6402 26.32 18.65H26.52C26.6804 18.6916 26.8236 18.7825 26.9295 18.9099C27.0354 19.0373 27.0985 19.1948 27.11 19.36V19.36C27.0797 19.508 27.0016 19.642 26.8878 19.7413C26.774 19.8407 26.6307 19.8999 26.48 19.91V19.91L26.42 19.8ZM30.62 19.06L28.07 8.06001C27.9087 7.53339 27.5505 7.08926 27.07 6.82001V6.82001L16.79 2.00001C16.5416 1.88824 16.2724 1.8303 16 1.83001H15.84C15.5982 1.82752 15.3568 1.85099 15.12 1.90001V1.90001L4.89 6.83001C4.63989 6.94155 4.41926 7.10991 4.24566 7.3217C4.07206 7.5335 3.95027 7.78288 3.89 8.05001V8.05001L1.39 19.05C1.37977 19.1665 1.37977 19.2836 1.39 19.4C1.38638 19.8564 1.53017 20.3019 1.8 20.67V20.67L8.8 29.42C9.21284 29.8245 9.75401 30.0721 10.33 30.12H21.85C22.1159 30.1207 22.3779 30.0564 22.6132 29.9327C22.8485 29.8089 23.0499 29.6295 23.2 29.41V29.41L30.28 20.66C30.5246 20.285 30.6565 19.8477 30.66 19.4C30.6753 19.2772 30.6753 19.1529 30.66 19.03L30.62 19.06Z" fill="black"/>
</svg>
