<svg width="32" height="32" viewBox="0 0 32 32" fill="none" xmlns="http://www.w3.org/2000/svg">
<path d="M16 11C16.5523 11 17 10.5523 17 10C17 9.44772 16.5523 9 16 9C15.4477 9 15 9.44772 15 10C15 10.5523 15.4477 11 16 11Z" fill="black"/>
<path d="M26 21V10C26 8.3 24.7 7 23 7H9C7.3 7 6 8.3 6 10V21" stroke="black" stroke-width="2" stroke-miterlimit="10" stroke-linecap="round"/>
<path d="M19 21C19 21.6 18.6 22 18 22H14C13.4 22 13 21.6 13 21H3V23C3 24.1 3.9 25 5 25H27C28.1 25 29 24.1 29 23V21H19Z" stroke="black" stroke-width="2" stroke-miterlimit="10" stroke-linecap="round"/>
</svg>
