<svg width="32" height="32" viewBox="0 0 32 32" fill="none" xmlns="http://www.w3.org/2000/svg">
<path d="M7 23L9 25L6 26L7 23Z" stroke="black" stroke-width="2" stroke-miterlimit="10" stroke-linecap="round"/>
<path d="M8 24L6 26" stroke="black" stroke-width="2" stroke-miterlimit="10" stroke-linecap="round"/>
<path d="M24 9.5C24.8284 9.5 25.5 8.82843 25.5 8C25.5 7.17157 24.8284 6.5 24 6.5C23.1716 6.5 22.5 7.17157 22.5 8C22.5 8.82843 23.1716 9.5 24 9.5Z" fill="black"/>
<path d="M10.3 13.3C9.59999 13.1 8.79999 13 7.99999 13C6.49999 13 5.09999 13.3 3.79999 13.8L18.2 28.2C18.7 26.9 19 25.5 19 24C19 23.2 18.9 22.5 18.8 21.8" stroke="black" stroke-width="2" stroke-miterlimit="10" stroke-linecap="round"/>
<path d="M14 24C14 24 24.2 20 27.3 13.9C30.4 7.79996 29 2.99996 29 2.99996C29 2.99996 24.2 1.69996 18.1 4.69996C12 7.69996 8 18 8 18" stroke="black" stroke-width="2" stroke-miterlimit="10" stroke-linecap="round"/>
</svg>
