<svg width="32" height="32" viewBox="0 0 32 32" fill="none" xmlns="http://www.w3.org/2000/svg">
<path fill-rule="evenodd" clip-rule="evenodd" d="M15.61 10.63L2.75 13.52C2.57629 13.5561 2.39666 13.5526 2.22449 13.5097C2.05233 13.4668 1.89205 13.3857 1.75558 13.2723C1.61912 13.1589 1.50999 13.0162 1.4363 12.8547C1.36262 12.6933 1.32628 12.5174 1.33 12.34V11.93C1.33052 11.7056 1.39347 11.4857 1.51179 11.2949C1.63011 11.1042 1.79915 10.9502 2 10.85L14.85 4.37C15.0312 4.28211 15.232 4.24248 15.4331 4.25495C15.6341 4.26742 15.8285 4.33157 15.9974 4.44119C16.1664 4.55081 16.3042 4.70219 16.3975 4.88067C16.4908 5.05916 16.5364 5.2587 16.53 5.46V9.46C16.5325 9.73056 16.4427 9.99389 16.2755 10.2066C16.1082 10.4193 15.8735 10.5686 15.61 10.63V10.63ZM16.53 18.07V13.93C16.5326 13.7604 16.4989 13.5922 16.4312 13.4366C16.3635 13.2811 16.2633 13.1418 16.1373 13.0282C16.0114 12.9145 15.8626 12.8291 15.7009 12.7777C15.5392 12.7263 15.3685 12.71 15.2 12.73L2.34 14.58C2.0584 14.6296 1.80348 14.7774 1.62042 14.997C1.43737 15.2167 1.33803 15.4941 1.34 15.78V16.33C1.336 16.6165 1.43461 16.8949 1.61802 17.115C1.80142 17.3351 2.05752 17.4823 2.34 17.53L15.2 19.26C15.3682 19.2833 15.5395 19.2697 15.7019 19.2201C15.8643 19.1705 16.014 19.0862 16.1406 18.973C16.2671 18.8597 16.3675 18.7203 16.4348 18.5644C16.502 18.4085 16.5345 18.2398 16.53 18.07V18.07ZM16.53 22.54C16.5343 22.2664 16.4442 21.9996 16.2748 21.7847C16.1054 21.5697 15.8671 21.4198 15.6 21.36L2.74 18.58C2.56723 18.5475 2.3894 18.5537 2.2193 18.5981C2.0492 18.6425 1.89105 18.7241 1.75623 18.8369C1.62141 18.9497 1.51326 19.091 1.43956 19.2506C1.36586 19.4102 1.32845 19.5842 1.33 19.76V20.19C1.32937 20.4147 1.39183 20.635 1.51028 20.826C1.62873 21.0169 1.79841 21.1708 2 21.27L14.85 27.63C15.0315 27.7149 15.2316 27.7522 15.4314 27.7385C15.6313 27.7247 15.8244 27.6602 15.9924 27.5512C16.1605 27.4421 16.2981 27.2921 16.3921 27.1152C16.4862 26.9383 16.5336 26.7403 16.53 26.54V22.54ZM19.12 10.54L29.32 12.09C29.4894 12.1147 29.6622 12.1022 29.8264 12.0534C29.9905 12.0047 30.142 11.9208 30.2705 11.8075C30.3989 11.6943 30.5012 11.5545 30.5702 11.3978C30.6392 11.241 30.6732 11.0712 30.67 10.9V8.76C30.6718 8.51038 30.5957 8.26641 30.4523 8.06207C30.3089 7.85773 30.1054 7.7032 29.87 7.62L19.67 4.06C19.4903 4.0006 19.299 3.98529 19.1122 4.01535C18.9254 4.04541 18.7485 4.11996 18.5965 4.23271C18.4446 4.34546 18.3219 4.49311 18.239 4.6632C18.1561 4.83329 18.1153 5.02083 18.12 5.21V9.39C18.1184 9.67475 18.2181 9.95079 18.4013 10.1688C18.5845 10.3868 18.8392 10.5325 19.12 10.58V10.54ZM29.61 18.28C29.9034 18.2455 30.1738 18.1041 30.3694 17.8826C30.565 17.6612 30.672 17.3754 30.67 17.08V15C30.6702 14.7067 30.5638 14.4233 30.3706 14.2026C30.1775 13.9818 29.9107 13.8388 29.62 13.8L19.42 12.69C19.2542 12.6761 19.0874 12.6969 18.93 12.751C18.7727 12.805 18.6283 12.8912 18.5061 13.0041C18.3838 13.1169 18.2864 13.2539 18.2199 13.4064C18.1534 13.559 18.1194 13.7236 18.12 13.89V18.13C18.118 18.2959 18.1507 18.4604 18.2161 18.6129C18.2814 18.7654 18.3779 18.9025 18.4994 19.0155C18.6209 19.1285 18.7646 19.2149 18.9215 19.269C19.0783 19.3232 19.2447 19.344 19.41 19.33L29.61 18.28ZM29.86 24.45C30.0972 24.3685 30.3029 24.2147 30.4482 24.0102C30.5935 23.8057 30.6711 23.5608 30.67 23.31V21.16C30.6685 20.9933 30.6317 20.8287 30.562 20.6772C30.4923 20.5257 30.3913 20.3907 30.2657 20.2811C30.14 20.1715 29.9925 20.0898 29.833 20.0413C29.6734 19.9929 29.5054 19.9788 29.34 20L19.13 21.42C18.8492 21.4675 18.5945 21.6132 18.4113 21.8312C18.2281 22.0492 18.1284 22.3252 18.13 22.61V26.79C18.1258 26.978 18.1666 27.1643 18.249 27.3333C18.3314 27.5024 18.453 27.6493 18.6037 27.7618C18.7544 27.8743 18.9297 27.9492 19.1152 27.9802C19.3007 28.0112 19.4909 27.9974 19.67 27.94L29.86 24.45Z" fill="black"/>
</svg>
