<svg width="32" height="32" viewBox="0 0 32 32" fill="none" xmlns="http://www.w3.org/2000/svg">
<path d="M16 28V20.2C16 17.5 17.1 15 19 13.1L22 10.1" stroke="black" stroke-width="2" stroke-miterlimit="10" stroke-linecap="round"/>
<path d="M8 16L14.5 22.5C15.5 23.5 16 24.8 16 26.2V30" stroke="black" stroke-width="2" stroke-miterlimit="10" stroke-linecap="round"/>
<path d="M29 10C29 13.9 25.9 17 22 17C18.1 17 15 13.9 15 10C15 6.1 18.1 3 22 3H29V10Z" stroke="black" stroke-width="2" stroke-miterlimit="10" stroke-linecap="round"/>
<path d="M3 16C3 18.8 5.2 21 8 21C10.8 21 13 18.8 13 16C13 13.2 10.8 11 8 11H3V16Z" stroke="black" stroke-width="2" stroke-miterlimit="10" stroke-linecap="round"/>
</svg>
