<svg width="32" height="32" viewBox="0 0 32 32" fill="none" xmlns="http://www.w3.org/2000/svg">
<path d="M28.8 13.29H29C29.2652 13.29 29.5196 13.3954 29.7071 13.5829C29.8946 13.7704 30 14.0248 30 14.29V14.36C30 14.6252 29.8946 14.8796 29.7071 15.0671C29.5196 15.2546 29.2652 15.36 29 15.36H25.12C24.8548 15.36 24.6004 15.2546 24.4129 15.0671C24.2254 14.8796 24.12 14.6252 24.12 14.36V14.3C24.1425 14.0285 24.2658 13.7753 24.4657 13.5902C24.6656 13.4051 24.9276 13.3016 25.2 13.3H28.8V13.29ZM6.4 7.55L5.82 7.06C5.69594 6.96221 5.59554 6.83769 5.52628 6.69571C5.45703 6.55373 5.4207 6.39796 5.42 6.24C5.41541 5.99005 5.5046 5.74745 5.67 5.56C5.76521 5.43947 5.8869 5.3425 6.02564 5.2766C6.16437 5.2107 6.31643 5.17764 6.47 5.18C6.70834 5.17998 6.93886 5.26509 7.12 5.42C8.12 6.22 9.12 7.04 10.12 7.89C10.3039 8.10527 10.4463 8.35279 10.54 8.62H10.45C10.4549 8.64644 10.4549 8.67355 10.45 8.7C10.4674 8.90988 10.418 9.1199 10.309 9.30009C10.2 9.48028 10.0368 9.62145 9.84287 9.70348C9.6489 9.7855 9.43398 9.80419 9.22875 9.75688C9.02353 9.70956 8.83849 9.59867 8.7 9.43999C7.92 8.76999 7.17 8.18 6.4 7.55ZM7.87 14.36C7.87 14.6252 7.76464 14.8796 7.57711 15.0671C7.38957 15.2546 7.13522 15.36 6.87 15.36H3C2.73478 15.36 2.48043 15.2546 2.29289 15.0671C2.10536 14.8796 2 14.6252 2 14.36V14.36C2 14.0948 2.10536 13.8404 2.29289 13.6529C2.48043 13.4654 2.73478 13.36 3 13.36H6.8C7.06522 13.36 7.31957 13.4654 7.50711 13.6529C7.69464 13.8404 7.8 14.0948 7.8 14.36H7.87ZM16 7.13C15.7348 7.13 15.4804 7.02464 15.2929 6.8371C15.1054 6.64957 15 6.39521 15 6.13V2.46V2.36999C15 2.10478 15.1054 1.85042 15.2929 1.66289C15.4804 1.47535 15.7348 1.37 16 1.37H16.07C16.3352 1.37 16.5896 1.47535 16.7771 1.66289C16.9646 1.85042 17.07 2.10478 17.07 2.36999V6.1C17.07 6.36521 16.9646 6.61957 16.7771 6.8071C16.5896 6.99464 16.3352 7.1 16.07 7.1L16 7.13ZM22.1 9.55C21.9267 9.4675 21.7809 9.3369 21.6798 9.17377C21.5787 9.01064 21.5267 8.82187 21.53 8.63C21.5348 8.47377 21.5719 8.32024 21.639 8.1791C21.7061 8.03796 21.8018 7.91227 21.92 7.81C22.92 7.02 23.85 6.21 24.83 5.43C24.9328 5.33115 25.0555 5.25544 25.19 5.20792C25.3244 5.16041 25.4674 5.1422 25.6095 5.15451C25.7516 5.16682 25.8894 5.20937 26.0136 5.27931C26.1379 5.34924 26.2458 5.44495 26.33 5.56V5.56C26.4978 5.75 26.5871 5.99662 26.58 6.25C26.582 6.40947 26.5458 6.5671 26.4745 6.70975C26.4032 6.85239 26.2988 6.97591 26.17 7.07C25.17 7.88 24.17 8.68 23.23 9.47C23.0501 9.61908 22.8237 9.70045 22.59 9.7C22.4062 9.69874 22.2263 9.64684 22.07 9.55H22.1ZM13.37 17.11V15.24C13.3881 14.5907 13.6468 13.9713 14.0958 13.502C14.5448 13.0327 15.1522 12.7468 15.8 12.7H16C16.635 12.7012 17.2472 12.9364 17.7195 13.3608C18.1918 13.7852 18.4911 14.3688 18.56 15V15V17L13.37 17.11ZM17 24.33C16.9301 24.3843 16.8739 24.4542 16.8357 24.534C16.7975 24.6139 16.7784 24.7015 16.78 24.79C16.78 24.98 16.78 25.21 16.78 25.44C16.78 25.67 16.78 25.9 16.78 26.13C16.7604 26.313 16.6741 26.4824 16.5377 26.606C16.4012 26.7295 16.2241 26.7986 16.04 26.8V26.8C15.8486 26.7879 15.6684 26.7058 15.5338 26.5693C15.3991 26.4328 15.3195 26.2515 15.31 26.06V26.06V24.89C15.3153 24.8468 15.3153 24.8032 15.31 24.76C15.3091 24.6548 15.281 24.5516 15.2284 24.4605C15.1758 24.3694 15.1006 24.2934 15.01 24.24C14.766 24.0443 14.5908 23.7758 14.5099 23.4737C14.429 23.1715 14.4465 22.8515 14.56 22.56C14.6758 22.2666 14.8767 22.0146 15.1369 21.8364C15.3971 21.6582 15.7046 21.5619 16.02 21.56V21.56C16.3363 21.5578 16.6458 21.6524 16.9067 21.8312C17.1677 22.0099 17.3678 22.2642 17.48 22.56V22.56C17.5537 22.7444 17.5911 22.9414 17.59 23.14C17.5836 23.3635 17.5273 23.5828 17.4252 23.7818C17.3231 23.9808 17.1779 24.1544 17 24.29V24.29V24.33ZM23.59 17.11H22.18V15.47C22.1806 14.3787 21.8958 13.3061 21.354 12.3588C20.8122 11.4115 20.0321 10.6222 19.0912 10.0694C18.1502 9.51653 17.0811 9.21928 15.9898 9.20711C14.8985 9.19494 13.823 9.46827 12.87 10C12.0867 10.402 11.4079 10.9809 10.8871 11.6908C10.3664 12.4007 10.0182 13.2221 9.87 14.09V14.09C9.76265 14.9793 9.70922 15.8743 9.71 16.77C9.71 16.87 9.71 16.98 9.71 17.09H8.35C8.19551 17.0887 8.0423 17.118 7.89919 17.1762C7.75608 17.2344 7.62592 17.3203 7.51621 17.4291C7.40651 17.5379 7.31943 17.6673 7.26001 17.8099C7.20059 17.9525 7.16999 18.1055 7.17 18.26C7.16504 18.3032 7.16504 18.3468 7.17 18.39V18.39V29.24C7.1647 29.2965 7.1647 29.3535 7.17 29.41C7.16517 29.4666 7.16517 29.5234 7.17 29.58C7.17524 29.8736 7.29555 30.1533 7.50503 30.3591C7.7145 30.5648 7.99639 30.68 8.29 30.68H23.64C23.9459 30.6774 24.2384 30.554 24.4538 30.3367C24.6692 30.1195 24.79 29.8259 24.79 29.52V29.52V18.28C24.7913 18.1268 24.7623 17.9749 24.7046 17.833C24.6469 17.6911 24.5616 17.5621 24.4538 17.4533C24.346 17.3445 24.2176 17.2582 24.0762 17.1992C23.9348 17.1403 23.7832 17.11 23.63 17.11H23.59Z" fill="black"/>
</svg>
