<svg width="32" height="32" viewBox="0 0 32 32" fill="none" xmlns="http://www.w3.org/2000/svg">
<path d="M3 3L11.1 11.1L20.9 20.9L29 29" stroke="black" stroke-width="2" stroke-miterlimit="10" stroke-linecap="round"/>
<path d="M11.1 11.1C9.8 12.3 9 14.1 9 16C9 18.8 10.6 21.2 13 22.3V26C13 27.7 14.3 29 16 29C17.7 29 19 27.7 19 26V22.3C19.7 22 20.4 21.5 20.9 20.9" stroke="black" stroke-width="2" stroke-miterlimit="10" stroke-linecap="round"/>
<path d="M22.8 17.8C22.9 17.2 23 16.6 23 16C23 12.1 19.9 9 16 9C15.4 9 14.8 9.1 14.2 9.2" stroke="black" stroke-width="2" stroke-miterlimit="10" stroke-linecap="round"/>
<path d="M13 24H19" stroke="black" stroke-width="2" stroke-miterlimit="10" stroke-linecap="round"/>
</svg>
