<svg width="32" height="32" viewBox="0 0 32 32" fill="none" xmlns="http://www.w3.org/2000/svg">
<path d="M30.67 19.16C30.67 16.2533 29.98 14.11 28.6 12.73C27.9281 12.0521 27.1246 11.5187 26.2389 11.1628C25.3533 10.8068 24.4042 10.6357 23.45 10.66C22.1034 10.561 20.7649 10.9398 19.67 11.73C18.9473 12.3057 18.3079 12.9788 17.77 13.73V13.81C17.7645 13.7974 17.7617 13.7838 17.7617 13.77C17.7617 13.7562 17.7645 13.7426 17.77 13.73V11.11H11.49C11.49 11.54 11.49 12.76 11.49 14.8C11.49 16.84 11.49 18.97 11.49 21.23C11.49 23.49 11.49 26.42 11.49 30.03H17.77V19.46C17.7551 19.1835 17.7551 18.9065 17.77 18.63C17.7837 18.3871 17.8343 18.1477 17.92 17.92C18.1761 17.3199 18.5661 16.7863 19.06 16.36C19.6366 15.8555 20.3844 15.5907 21.15 15.62C21.6292 15.5784 22.1108 15.667 22.5438 15.8764C22.9768 16.0859 23.3452 16.4085 23.61 16.81C24.1408 17.7542 24.3971 18.8279 24.35 19.91V30H30.63L30.67 19.16ZM1.71 30V11.11H8V30H1.71ZM7.43 2.91C8.05846 3.52379 8.41805 4.36162 8.43 5.24C8.43185 5.67469 8.344 6.10509 8.17193 6.50429C7.99987 6.90348 7.74729 7.26287 7.43 7.56C7.08664 7.89656 6.6778 8.15898 6.22883 8.331C5.77986 8.50302 5.30034 8.58096 4.82 8.56V8.56C4.35368 8.57629 3.88904 8.49584 3.45534 8.32374C3.02164 8.15164 2.62827 7.8916 2.3 7.56C1.99637 7.25563 1.75677 6.89354 1.59533 6.49509C1.43389 6.09663 1.35387 5.66988 1.36 5.24C1.35616 4.80354 1.44307 4.37104 1.61521 3.96995C1.78736 3.56885 2.04098 3.2079 2.36 2.91C3.04693 2.29254 3.94696 1.96624 4.87 2C5.33588 1.97282 5.80247 2.03936 6.24219 2.19566C6.6819 2.35197 7.0858 2.59487 7.43 2.91Z" fill="black"/>
</svg>
