<svg width="32" height="32" viewBox="0 0 32 32" fill="none" xmlns="http://www.w3.org/2000/svg">
<path d="M16.7 19.5C17.9 20.7 17.9 22.6 16.7 23.7L14.6 25.8C12.3 28.1 8.5 28.1 6.1 25.8C3.8 23.5 3.8 19.7 6.1 17.3L8.2 15.2C9.4 14 11.3 14 12.4 15.2" stroke="black" stroke-width="2" stroke-miterlimit="10" stroke-linecap="round"/>
<path d="M15.3 12.5C14.1 11.3 14.1 9.39998 15.3 8.29998L17.4 6.19998C19.7 3.89998 23.5 3.89998 25.9 6.19998C28.2 8.49998 28.2 12.3 25.9 14.7L23.8 16.8C22.6 18 20.7 18 19.6 16.8" stroke="black" stroke-width="2" stroke-miterlimit="10" stroke-linecap="round"/>
<path d="M12 20L20 12" stroke="black" stroke-width="2" stroke-miterlimit="10" stroke-linecap="round"/>
</svg>
