<svg width="32" height="32" viewBox="0 0 32 32" fill="none" xmlns="http://www.w3.org/2000/svg">
<path d="M23.91 15.85C24.7205 17.0142 25.2643 18.3427 25.5029 19.741C25.7414 21.1393 25.6687 22.573 25.29 23.94V23.94C24.2053 23.2998 23.3672 22.3137 22.91 21.14C22.5181 19.9661 22.2074 18.7666 21.98 17.55C21.9373 17.3574 21.8593 17.1743 21.75 17.01C20.6989 15.3442 19.7795 13.5989 19 11.79C18.9512 11.6834 18.9111 11.5731 18.88 11.46L18.23 9.36003C18.1809 9.27033 18.1086 9.19549 18.0206 9.14335C17.9326 9.09122 17.8323 9.06371 17.73 9.06371C17.6277 9.06371 17.5274 9.09122 17.4394 9.14335C17.3514 9.19549 17.2791 9.27033 17.23 9.36003C17 9.70003 16.53 10.5 16 10.5C15.47 10.5 15 9.75003 14.82 9.31003C14.7836 9.20648 14.7159 9.11679 14.6264 9.05334C14.5368 8.98989 14.4298 8.95581 14.32 8.95581C14.2102 8.95581 14.1032 8.98989 14.0136 9.05334C13.9241 9.11679 13.8564 9.20648 13.82 9.31003C13.82 9.31003 13.82 9.31003 13.82 9.31003L13.17 11.41C13.17 11.52 13.09 11.63 13.04 11.74C12.2818 13.5608 11.3823 15.3195 10.35 17C10.2448 17.1665 10.1671 17.3488 10.12 17.54C9.88966 18.7109 9.555 19.8588 9.12 20.97C8.67826 22.2017 7.84599 23.2552 6.75 23.97V23.97C6.35485 22.5409 6.29363 21.0401 6.57106 19.5836C6.8485 18.127 7.45716 16.7538 8.35 15.57C9.89294 13.3327 10.7163 10.6778 10.71 7.96003C10.71 7.55003 10.71 6.75003 10.71 6.75003C10.71 6.75003 10.71 6.51003 10.71 6.39003C10.71 5.68614 10.8486 4.98915 11.118 4.33885C11.3874 3.68854 11.7822 3.09766 12.2799 2.59994C12.7776 2.10221 13.3685 1.7074 14.0188 1.43804C14.6691 1.16867 15.3661 1.03003 16.07 1.03003C16.7739 1.03003 17.4709 1.16867 18.1212 1.43804C18.7715 1.7074 19.3624 2.10221 19.8601 2.59994C20.3578 3.09766 20.7526 3.68854 21.022 4.33885C21.2914 4.98915 21.43 5.68614 21.43 6.39003C21.43 6.51003 21.43 7.55003 21.43 7.96003C21.4232 10.8061 22.3234 13.5802 24 15.88L23.91 15.85ZM17.34 23.85L17.4 23.65C17.4365 23.4775 17.5073 23.314 17.6081 23.1692C17.7088 23.0245 17.8376 22.9014 17.9868 22.8072C18.1359 22.7131 18.3024 22.6498 18.4765 22.6211C18.6505 22.5923 18.8285 22.5988 19 22.64C19.263 22.7149 19.4968 22.8684 19.67 23.08C19.6943 23.1038 19.7242 23.1211 19.7569 23.1301C19.7897 23.1391 19.8242 23.1397 19.8572 23.1317C19.8902 23.1237 19.9207 23.1074 19.9457 23.0843C19.9706 23.0613 19.9893 23.0323 20 23V23C20.1276 22.6959 20.3652 22.4511 20.6653 22.3145C20.9655 22.1779 21.3061 22.1596 21.6192 22.2631C21.9323 22.3666 22.1949 22.5844 22.3544 22.873C22.514 23.1616 22.5588 23.4998 22.48 23.82V23.82C22.476 23.8418 22.478 23.8643 22.486 23.885C22.494 23.9057 22.5075 23.9237 22.5251 23.9372C22.5427 23.9507 22.5637 23.959 22.5857 23.9613C22.6078 23.9635 22.63 23.9596 22.65 23.95C22.9379 23.8049 23.2696 23.7728 23.58 23.86C23.9153 23.9492 24.2015 24.1677 24.3759 24.4677C24.5502 24.7677 24.5985 25.1245 24.51 25.46C24.5057 25.4999 24.5057 25.5401 24.51 25.58V25.68C23.93 27.86 20.96 31.39 19.29 30.94C17.62 30.49 16.76 26 17.34 23.8V23.85ZM14.68 23.65C14.68 23.7 14.68 23.77 14.74 23.84C15.32 26.01 14.51 30.55 12.84 31C11.17 31.45 8.2 27.88 7.62 25.7C7.61535 25.6669 7.61535 25.6332 7.62 25.6C7.6157 25.5601 7.6157 25.5199 7.62 25.48C7.57015 25.2459 7.58541 25.0025 7.66413 24.7764C7.74285 24.5504 7.88203 24.3502 8.06653 24.1976C8.25103 24.0451 8.47381 23.946 8.71067 23.9112C8.94752 23.8763 9.18939 23.9071 9.41 24C9.42998 24.0096 9.45222 24.0135 9.47426 24.0113C9.49631 24.009 9.5173 24.0007 9.5349 23.9872C9.55251 23.9737 9.56604 23.9557 9.574 23.935C9.58196 23.9143 9.58404 23.8918 9.58 23.87V23.87C9.5336 23.7019 9.52151 23.5261 9.54445 23.3532C9.56739 23.1803 9.62489 23.0138 9.71354 22.8635C9.80218 22.7133 9.92015 22.5825 10.0604 22.4788C10.2007 22.3751 10.3604 22.3007 10.53 22.26C10.8373 22.1889 11.1598 22.2293 11.4401 22.374C11.7204 22.5187 11.9401 22.7583 12.06 23.05V23.05C12.0779 23.079 12.103 23.1029 12.1327 23.1194C12.1625 23.136 12.196 23.1447 12.23 23.1447C12.2641 23.1447 12.2975 23.136 12.3273 23.1194C12.357 23.1029 12.3821 23.079 12.4 23.05C12.5543 22.8666 12.7557 22.7287 12.9825 22.651C13.2093 22.5734 13.453 22.559 13.6874 22.6094C13.9217 22.6597 14.138 22.773 14.3128 22.9369C14.4877 23.1009 14.6146 23.3094 14.68 23.54V23.65Z" fill="black"/>
</svg>
