<svg width="32" height="32" viewBox="0 0 32 32" fill="none" xmlns="http://www.w3.org/2000/svg">
<path d="M14 8H26" stroke="black" stroke-width="2" stroke-miterlimit="10" stroke-linecap="round" stroke-linejoin="round"/>
<path d="M14 16H26" stroke="black" stroke-width="2" stroke-miterlimit="10" stroke-linecap="round" stroke-linejoin="round"/>
<path d="M14 24H26" stroke="black" stroke-width="2" stroke-miterlimit="10" stroke-linecap="round" stroke-linejoin="round"/>
<path d="M8 9.5C8.82843 9.5 9.5 8.82843 9.5 8C9.5 7.17157 8.82843 6.5 8 6.5C7.17157 6.5 6.5 7.17157 6.5 8C6.5 8.82843 7.17157 9.5 8 9.5Z" fill="black"/>
<path d="M8 17.5C8.82843 17.5 9.5 16.8284 9.5 16C9.5 15.1716 8.82843 14.5 8 14.5C7.17157 14.5 6.5 15.1716 6.5 16C6.5 16.8284 7.17157 17.5 8 17.5Z" fill="black"/>
<path d="M8 25.5C8.82843 25.5 9.5 24.8284 9.5 24C9.5 23.1716 8.82843 22.5 8 22.5C7.17157 22.5 6.5 23.1716 6.5 24C6.5 24.8284 7.17157 25.5 8 25.5Z" fill="black"/>
</svg>
