<svg width="32" height="32" viewBox="0 0 32 32" fill="none" xmlns="http://www.w3.org/2000/svg">
<path d="M23.3 10.3C23.3 15.9 16 24 16 24C16 24 8.7 15.9 8.7 10.3C8.7 6.3 12 3 16 3C20 3 23.3 6.3 23.3 10.3Z" stroke="black" stroke-width="2" stroke-miterlimit="10" stroke-linecap="round"/>
<path d="M16 13C17.6569 13 19 11.6569 19 10C19 8.34315 17.6569 7 16 7C14.3431 7 13 8.34315 13 10C13 11.6569 14.3431 13 16 13Z" stroke="black" stroke-width="2" stroke-miterlimit="10" stroke-linecap="round"/>
<path d="M8 19H6L3 29H29L26 19H24" stroke="black" stroke-width="2" stroke-miterlimit="10" stroke-linecap="round"/>
</svg>
