<svg width="32" height="32" viewBox="0 0 32 32" fill="none" xmlns="http://www.w3.org/2000/svg">
<path d="M1.39999 14.74C1.52999 14.07 1.64999 13.4 1.80999 12.74C2.59137 9.23968 4.63634 6.15051 7.55338 4.06394C10.4704 1.97737 14.0546 1.04001 17.6197 1.43131C21.1847 1.82262 24.4802 3.51509 26.8752 6.18472C29.2703 8.85434 30.5965 12.3135 30.6 15.9C30.6 16.18 30.6 16.45 30.6 16.72C30.5769 17.8792 30.2455 19.0113 29.64 20V20C29.166 20.7619 28.4568 21.3488 27.6196 21.6717C26.7825 21.9947 25.8629 22.0362 25 21.79V21.79C24.3509 21.513 23.7367 21.1606 23.17 20.74V20.74L22.82 21.19C21.6185 22.7799 19.9038 23.9049 17.967 24.3742C16.0303 24.8434 13.9908 24.6279 12.1949 23.7643C10.3989 22.9006 8.95724 21.442 8.11455 19.6362C7.27185 17.8303 7.08009 15.7885 7.57183 13.8573C8.06356 11.9261 9.20848 10.2246 10.8122 9.04172C12.4159 7.8588 14.3796 7.26735 16.3699 7.36778C18.3602 7.46821 20.2543 8.25434 21.7308 9.59269C23.2073 10.931 24.1752 12.7391 24.47 14.71V14.71C24.47 15.03 24.47 15.4 24.47 15.77C24.47 16.14 24.47 16.52 24.47 16.89C24.47 16.89 24.47 16.96 24.47 17C24.4693 17.3386 24.5904 17.6661 24.8112 17.9228C25.0321 18.1794 25.3379 18.348 25.6728 18.3978C26.0077 18.4475 26.3493 18.3751 26.6353 18.1937C26.9212 18.0124 27.1323 17.7342 27.23 17.41V17.41C27.4081 16.7585 27.4956 16.0855 27.49 15.41C27.4896 14.5526 27.3477 13.7012 27.07 12.89V12.95C26.5059 10.8838 25.3789 9.01494 23.8147 7.55186C22.2505 6.08878 20.3106 5.08904 18.2114 4.66415C16.1121 4.23925 13.9361 4.40592 11.9261 5.14555C9.916 5.88518 8.15095 7.1687 6.8278 8.85292C5.50464 10.5372 4.67541 12.5559 4.4326 14.6839C4.18979 16.8119 4.54294 18.9655 5.45267 20.9045C6.36241 22.8435 7.79294 24.4916 9.5847 25.6651C11.3765 26.8385 13.459 27.4911 15.6 27.55H16.03C18.9968 27.5953 21.8614 26.4668 24 24.41V24.41C24.19 24.24 24.36 24.07 24.58 23.86L26.87 25.78C26.71 25.96 26.57 26.14 26.42 26.29C22.14 30.35 17.17 31.67 11.52 29.86C5.86999 28.05 2.62999 24.05 1.59999 18.27C1.54999 17.95 1.48999 17.65 1.42999 17.35L1.39999 14.74ZM16 21.62C17.1027 21.6239 18.1819 21.301 19.1013 20.692C20.0207 20.0831 20.739 19.2153 21.1655 18.1984C21.5921 17.1815 21.7077 16.061 21.4979 14.9784C21.2881 13.8957 20.7622 12.8996 19.9866 12.1156C19.2111 11.3317 18.2206 10.7951 17.1403 10.5737C16.06 10.3523 14.9383 10.4559 13.9168 10.8715C12.8954 11.2871 12.02 11.9961 11.4012 12.9088C10.7824 13.8216 10.4479 14.8973 10.44 16V16C10.428 16.7363 10.5632 17.4676 10.8376 18.1509C11.112 18.8342 11.5201 19.4559 12.038 19.9794C12.5559 20.5028 13.1732 20.9176 13.8535 21.1994C14.5339 21.4811 15.2636 21.6241 16 21.62V21.62ZM18.52 16.07C18.518 15.5744 18.3694 15.0905 18.0928 14.6793C17.8163 14.2681 17.4242 13.9479 16.9659 13.7592C16.5077 13.5704 16.0038 13.5216 15.5179 13.6188C15.0319 13.7159 14.5856 13.9548 14.2352 14.3052C13.8847 14.6556 13.6459 15.1019 13.5487 15.5879C13.4516 16.0739 13.5004 16.5777 13.6892 17.0359C13.8779 17.4942 14.1981 17.8863 14.6093 18.1628C15.0205 18.4394 15.5044 18.588 16 18.59C16.6577 18.59 17.2885 18.3287 17.7536 17.8636C18.2187 17.3985 18.48 16.7678 18.48 16.11L18.52 16.07Z" fill="black"/>
</svg>
