<svg width="32" height="32" viewBox="0 0 32 32" fill="none" xmlns="http://www.w3.org/2000/svg">
<path d="M11.74 14.78H15.85V15.78C16.0323 15.588 16.2296 15.4108 16.44 15.25V15.25C17.2202 14.7253 18.1398 14.4466 19.08 14.45H19.28C19.6149 14.451 19.9492 14.4777 20.28 14.53V4.84H11.74V14.78ZM22.94 16.24C23.3284 15.744 23.8197 15.338 24.38 15.05V15.05C25.1507 14.6798 25.995 14.4884 26.85 14.49H27C27.6449 14.4889 28.2836 14.6146 28.88 14.86V14.86C29.5431 15.1172 30.1311 15.5367 30.59 16.08L30.75 16.27V12.86C30.75 10.7383 29.9071 8.70343 28.4069 7.20314C26.9066 5.70285 24.8717 4.86 22.75 4.86H22.27V15.38C22.552 15.6277 22.7978 15.9138 23 16.23H23.06L22.94 16.24ZM1.33 27.16H9.8V4.84H9C6.97375 4.84 5.03048 5.64492 3.59771 7.0777C2.16493 8.51048 1.36 10.4537 1.36 12.48L1.33 27.16ZM23.66 27.16H27.08V19.55C27.0812 19.2453 27.0128 18.9443 26.88 18.67V18.67C26.7592 18.4648 26.5866 18.2949 26.3795 18.1773C26.1725 18.0597 25.9381 17.9986 25.7 18H25.35C25.0498 18.0004 24.7555 18.0838 24.4997 18.2408C24.2438 18.3978 24.0363 18.6225 23.9 18.89V18.89C23.7411 19.2631 23.6594 19.6645 23.66 20.07V20.14V27.16ZM19.19 18.73C19.0797 18.5092 18.9097 18.3238 18.6994 18.1948C18.4891 18.0658 18.2468 17.9983 18 18H17.81C17.4981 17.9527 17.1793 17.992 16.8883 18.1137C16.5973 18.2354 16.3453 18.4347 16.16 18.69C16.0222 19.0707 15.9676 19.4765 16 19.88V20.09V27.17H19.4V20C19.4027 19.5678 19.3317 19.1383 19.19 18.73Z" fill="black"/>
</svg>
