<svg width="32" height="32" viewBox="0 0 32 32" fill="none" xmlns="http://www.w3.org/2000/svg">
<path d="M26 29C27.6569 29 29 27.6569 29 26C29 24.3431 27.6569 23 26 23C24.3431 23 23 24.3431 23 26C23 27.6569 24.3431 29 26 29Z" stroke="black" stroke-width="2" stroke-miterlimit="10" stroke-linecap="round" stroke-linejoin="round"/>
<path d="M6 27C7.65685 27 9 25.6569 9 24C9 22.3431 7.65685 21 6 21C4.34315 21 3 22.3431 3 24C3 25.6569 4.34315 27 6 27Z" stroke="black" stroke-width="2" stroke-miterlimit="10" stroke-linecap="round" stroke-linejoin="round"/>
<path d="M8 9C9.10457 9 10 8.10457 10 7C10 5.89543 9.10457 5 8 5C6.89543 5 6 5.89543 6 7C6 8.10457 6.89543 9 8 9Z" stroke="black" stroke-width="2" stroke-miterlimit="10" stroke-linecap="round" stroke-linejoin="round"/>
<path d="M21 7C22.1046 7 23 6.10457 23 5C23 3.89543 22.1046 3 21 3C19.8954 3 19 3.89543 19 5C19 6.10457 19.8954 7 21 7Z" stroke="black" stroke-width="2" stroke-miterlimit="10" stroke-linecap="round" stroke-linejoin="round"/>
<path d="M27 13C28.1046 13 29 12.1046 29 11C29 9.89543 28.1046 9 27 9C25.8954 9 25 9.89543 25 11C25 12.1046 25.8954 13 27 13Z" stroke="black" stroke-width="2" stroke-miterlimit="10" stroke-linecap="round" stroke-linejoin="round"/>
<path d="M10 6.70005L19 5.30005" stroke="black" stroke-width="2" stroke-miterlimit="10" stroke-linecap="round" stroke-linejoin="round"/>
<path d="M6.4 21L7.8 9" stroke="black" stroke-width="2" stroke-miterlimit="10" stroke-linecap="round" stroke-linejoin="round"/>
<path d="M23 25.7001L9 24.3" stroke="black" stroke-width="2" stroke-miterlimit="10" stroke-linecap="round" stroke-linejoin="round"/>
<path d="M26.9 13L26.2 23" stroke="black" stroke-width="2" stroke-miterlimit="10" stroke-linecap="round" stroke-linejoin="round"/>
<path d="M7.9 21.6L19.8 6.59998" stroke="black" stroke-width="2" stroke-miterlimit="10" stroke-linecap="round" stroke-linejoin="round"/>
<path d="M25.3 12.1L8.5 22.4" stroke="black" stroke-width="2" stroke-miterlimit="10" stroke-linecap="round" stroke-linejoin="round"/>
<path d="M23.9 23.8L9.4 8.5" stroke="black" stroke-width="2" stroke-miterlimit="10" stroke-linecap="round" stroke-linejoin="round"/>
<path d="M21.5 6.90002L25.3 23.1" stroke="black" stroke-width="2" stroke-miterlimit="10" stroke-linecap="round" stroke-linejoin="round"/>
</svg>
