<svg width="32" height="32" viewBox="0 0 32 32" fill="none" xmlns="http://www.w3.org/2000/svg">
<path d="M16 29C23.1797 29 29 23.1797 29 16C29 8.8203 23.1797 3 16 3C8.8203 3 3 8.8203 3 16C3 23.1797 8.8203 29 16 29Z" stroke="black" stroke-width="2" stroke-miterlimit="10" stroke-linecap="round"/>
<path d="M7.60001 25.9C11.6 20.4 18 16.9 25.3 16.9C26.5 16.9 27.8 17 29 17.2" stroke="black" stroke-width="2" stroke-miterlimit="10" stroke-linecap="round"/>
<path d="M7.3 25.7C8.4 16.1 15.6 8.39998 25 6.59998" stroke="black" stroke-width="2" stroke-miterlimit="10" stroke-linecap="round"/>
<path d="M10.9 16.9C10.4 16.9 10 16.5 10 16C10 15.5 10.4 15.1 10.9 15.1" stroke="black" stroke-width="2" stroke-miterlimit="10" stroke-linecap="round"/>
<path d="M10.9 15.1C11.4 15.1 11.8 15.5 11.8 16C11.8 16.5 11.4 16.9 10.9 16.9" stroke="black" stroke-width="2" stroke-miterlimit="10" stroke-linecap="round"/>
<path d="M25.7 24.7C16.1 23.6 8.40001 16.4 6.60001 7" stroke="black" stroke-width="2" stroke-miterlimit="10" stroke-linecap="round"/>
<path d="M9.60001 4.69995C18.6 7.09995 25.2 15.1 25.7 24.7" stroke="black" stroke-width="2" stroke-miterlimit="10" stroke-linecap="round"/>
<path d="M18.3 9.99995C17.8 9.99995 17.4 9.59995 17.4 9.09995C17.4 8.59995 17.8 8.19995 18.3 8.19995" stroke="black" stroke-width="2" stroke-miterlimit="10" stroke-linecap="round"/>
<path d="M18.3 8.09998C18.8 8.09998 19.2 8.49998 19.2 8.99998C19.2 9.49998 18.8 9.89997 18.3 9.89997" stroke="black" stroke-width="2" stroke-miterlimit="10" stroke-linecap="round"/>
<path d="M14.6 20.6C14.1 20.6 13.7 20.2001 13.7 19.7001C13.7 19.2001 14.1 18.8 14.6 18.8" stroke="black" stroke-width="2" stroke-miterlimit="10" stroke-linecap="round"/>
<path d="M14.6 18.8C15.1 18.8 15.5 19.2001 15.5 19.7001C15.5 20.2001 15.1 20.6 14.6 20.6" stroke="black" stroke-width="2" stroke-miterlimit="10" stroke-linecap="round"/>
<path d="M23.9 17.9C23.4 17.9 23 17.5 23 17C23 16.5 23.4 16.1 23.9 16.1" stroke="black" stroke-width="2" stroke-miterlimit="10" stroke-linecap="round"/>
<path d="M23.9 16C24.4 16 24.8 16.4 24.8 16.9C24.8 17.4 24.4 17.8 23.9 17.8" stroke="black" stroke-width="2" stroke-miterlimit="10" stroke-linecap="round"/>
</svg>
