<svg width="32" height="32" viewBox="0 0 32 32" fill="none" xmlns="http://www.w3.org/2000/svg">
<path d="M19.06 20.18H24.38C24.5198 20.1872 24.6595 20.1649 24.7902 20.1147C24.9208 20.0645 25.0395 19.9874 25.1384 19.8884C25.2374 19.7894 25.3145 19.6708 25.3647 19.5401C25.4149 19.4095 25.4372 19.2698 25.43 19.13V10.75C25.4372 10.6102 25.4149 10.4705 25.3647 10.3398C25.3145 10.2092 25.2374 10.0905 25.1384 9.99155C25.0395 9.89258 24.9208 9.81548 24.7902 9.76526C24.6595 9.71503 24.5198 9.69279 24.38 9.69997H19.06C18.7815 9.69997 18.5145 9.8106 18.3175 10.0075C18.1206 10.2044 18.01 10.4715 18.01 10.75C18.01 11.0285 18.1206 11.2955 18.3175 11.4924C18.5145 11.6893 18.7815 11.8 19.06 11.8H23.33V18.08H19.06C18.7815 18.08 18.5145 18.1906 18.3175 18.3875C18.1206 18.5844 18.01 18.8515 18.01 19.13C18.01 19.4084 18.1206 19.6755 18.3175 19.8724C18.5145 20.0693 18.7815 20.18 19.06 20.18V20.18ZM15 24.37H8.66V11.8H15V24.37ZM16 9.69997H7.62C7.48436 9.6998 7.35011 9.72723 7.22541 9.78058C7.1007 9.83393 6.98816 9.9121 6.89461 10.0103C6.80107 10.1085 6.72849 10.2248 6.68128 10.3519C6.63407 10.4791 6.61322 10.6145 6.62 10.75V25.42C6.62 25.6852 6.72536 25.9395 6.9129 26.1271C7.10043 26.3146 7.35479 26.42 7.62 26.42H16C16.1355 26.4268 16.2709 26.4059 16.3981 26.3587C16.5252 26.3115 16.6414 26.2389 16.7397 26.1454C16.8379 26.0518 16.916 25.9393 16.9694 25.8146C17.0227 25.6899 17.0502 25.5556 17.05 25.42V10.75C17.0572 10.6102 17.0349 10.4705 16.9847 10.3398C16.9345 10.2092 16.8574 10.0905 16.7584 9.99155C16.6595 9.89258 16.5408 9.81548 16.4102 9.76526C16.2795 9.71503 16.1398 9.69279 16 9.69997V9.69997ZM30.66 4.45997V27.51C30.6613 27.9227 30.581 28.3316 30.4237 28.7132C30.2663 29.0947 30.0351 29.4414 29.7433 29.7332C29.4514 30.0251 29.1047 30.2563 28.7232 30.4136C28.3416 30.571 27.9327 30.6513 27.52 30.65H4.52C3.68722 30.65 2.88855 30.3192 2.29969 29.7303C1.71082 29.1414 1.38 28.3428 1.38 27.51V8.65997C1.37985 7.83483 1.70348 7.04258 2.2813 6.45353C2.85913 5.86449 3.64501 5.52569 4.47 5.50997H13.9C14.1785 5.50997 14.4456 5.6206 14.6425 5.81751C14.8394 6.01442 14.95 6.2815 14.95 6.55997C14.95 6.83845 14.8394 7.10552 14.6425 7.30244C14.4456 7.49935 14.1785 7.60997 13.9 7.60997H4.47C4.20479 7.60997 3.95043 7.71533 3.7629 7.90287C3.57536 8.0904 3.47 8.34476 3.47 8.60997V27.51C3.47 27.7752 3.57536 28.0295 3.7629 28.2171C3.95043 28.4046 4.20479 28.51 4.47 28.51H27.52C27.6555 28.5168 27.7909 28.4959 27.9181 28.4487C28.0452 28.4015 28.1614 28.3289 28.2597 28.2354C28.3579 28.1418 28.436 28.0293 28.4894 27.9046C28.5427 27.7799 28.5702 27.6456 28.57 27.51V4.50997C28.5702 4.37434 28.5427 4.24008 28.4894 4.11538C28.436 3.99067 28.3579 3.87813 28.2597 3.78458C28.1614 3.69104 28.0452 3.61846 27.9181 3.57125C27.7909 3.52404 27.6555 3.50319 27.52 3.50997H2.38C2.10152 3.50997 1.83445 3.39935 1.63754 3.20244C1.44063 3.00552 1.33 2.73845 1.33 2.45997C1.33 2.1815 1.44063 1.91442 1.63754 1.71751C1.83445 1.5206 2.10152 1.40997 2.38 1.40997H27.52C27.9332 1.40997 28.3423 1.49152 28.7239 1.64994C29.1056 1.80837 29.4522 2.04055 29.7439 2.33319C30.0356 2.62583 30.2667 2.97316 30.4239 3.35528C30.5811 3.73739 30.6613 4.14678 30.66 4.55997V4.45997Z" fill="black"/>
</svg>
