<svg width="32" height="32" viewBox="0 0 32 32" fill="none" xmlns="http://www.w3.org/2000/svg">
<path d="M11.67 25.89C9.77777 25.7794 7.90157 25.4779 6.06999 24.99C4.37999 24.5 3.99999 24 3.89999 24V20.32C4.07999 20.41 4.27999 20.49 4.48999 20.57C6.19967 21.1682 7.97627 21.5544 9.77999 21.72H9.89999C10.1652 21.7346 10.4254 21.6432 10.6232 21.466C10.8211 21.2888 10.9404 21.0402 10.955 20.775C10.9696 20.5098 10.8782 20.2496 10.701 20.0518C10.5238 19.8539 10.2752 19.7346 10.01 19.72C8.49953 19.5747 7.00821 19.2731 5.55999 18.82C4.94371 18.6988 4.37078 18.4158 3.89999 18V14.32C4.28947 14.5023 4.6903 14.6593 5.09999 14.79C7.24301 15.4117 9.45131 15.7808 11.68 15.89H11.75C12.0152 15.898 12.2727 15.8002 12.4659 15.6183C12.6591 15.4364 12.772 15.1852 12.78 14.92C12.788 14.6548 12.6902 14.3973 12.5083 14.2041C12.3264 14.011 12.0752 13.898 11.81 13.89C9.88804 13.7872 7.98155 13.489 6.11999 13C4.38999 12.51 3.99999 12 3.89999 12V8.32001C4.62906 8.6518 5.38952 8.90975 6.16999 9.09001C9.03417 9.73504 11.9644 10.0405 14.9 10C17.8323 10.04 20.7591 9.73453 23.62 9.09001C24.4033 8.90824 25.1669 8.65035 25.9 8.32001V11.78C25.9 12.0452 26.0054 12.2996 26.1929 12.4871C26.3804 12.6747 26.6348 12.78 26.9 12.78C27.1652 12.78 27.4196 12.6747 27.6071 12.4871C27.7946 12.2996 27.9 12.0452 27.9 11.78V6.00001C27.8601 5.56853 27.7055 5.15557 27.4523 4.80392C27.1992 4.45226 26.8565 4.17471 26.46 4.00001C25.5668 3.51731 24.611 3.16059 23.62 2.94001C20.7603 2.2854 17.8335 1.96989 14.9 2.00001C11.9644 1.95955 9.03417 2.26498 6.16999 2.91001C5.17809 3.14226 4.22258 3.50898 3.32999 4.00001C2.9347 4.17523 2.59357 4.45315 2.34209 4.80488C2.0906 5.15661 1.93794 5.56929 1.89999 6.00001V24C1.89999 25.16 2.95999 26.09 5.05999 26.77C7.16471 27.3965 9.3368 27.7692 11.53 27.88H11.6C11.8652 27.8893 12.1233 27.7928 12.3174 27.6119C12.5115 27.4309 12.6257 27.1802 12.635 26.915C12.6443 26.6498 12.5478 26.3918 12.3668 26.1977C12.1859 26.0036 11.9352 25.8893 11.67 25.88V25.89ZM7.11999 4.74001C9.67993 4.21939 12.2878 3.97134 14.9 4.00001C17.5089 3.97152 20.1134 4.21957 22.67 4.74001C24.97 5.25001 25.67 5.81001 25.85 6.00001C25.67 6.19001 24.97 6.75001 22.67 7.26001C20.1134 7.78045 17.5089 8.0285 14.9 8.00001C12.2878 8.02869 9.67993 7.78064 7.11999 7.26001C4.81999 6.75001 4.11999 6.19001 3.93999 6.00001C4.12999 5.81001 4.81999 5.25001 7.11999 4.74001Z" fill="black"/>
<path d="M30.08 23.07L28.45 16C28.4169 15.8534 28.3511 15.7161 28.2576 15.5983C28.1641 15.4806 28.0453 15.3855 27.91 15.32L21.33 12.1C21.1943 12.0345 21.0456 12.0004 20.895 12.0004C20.7443 12.0004 20.5956 12.0345 20.46 12.1L13.88 15.27C13.7446 15.3355 13.6258 15.4306 13.5323 15.5483C13.4388 15.6661 13.3731 15.8034 13.34 15.95L11.72 23.07C11.6871 23.2153 11.687 23.3662 11.7199 23.5115C11.7528 23.6568 11.8177 23.793 11.91 23.91L16.46 29.62C16.5542 29.7392 16.6742 29.8353 16.8111 29.9012C16.948 29.967 17.0981 30.0008 17.25 30H24.55C24.7002 29.9993 24.8483 29.9648 24.9833 29.899C25.1184 29.8332 25.2369 29.7379 25.33 29.62L29.88 23.91C29.974 23.7938 30.0407 23.6581 30.0753 23.5127C30.1099 23.3673 30.1115 23.2161 30.08 23.07ZM24.08 28H17.73L13.73 23L15.14 16.82L20.86 14.07L26.57 16.82L28 23L24.08 28Z" fill="black"/>
<path d="M25.61 21.4L24.34 21.13C24.3084 20.7869 24.2276 20.4501 24.1 20.13L25.1 19.29C25.2908 19.1185 25.4084 18.8801 25.4284 18.6243C25.4483 18.3685 25.3692 18.1147 25.2074 17.9156C25.0455 17.7165 24.8133 17.5872 24.5588 17.5545C24.3043 17.5219 24.0469 17.5883 23.84 17.74L22.84 18.58C22.5506 18.3845 22.2338 18.2328 21.9 18.13V16.74C21.9 16.4748 21.7946 16.2205 21.6071 16.0329C21.4196 15.8454 21.1652 15.74 20.9 15.74C20.6348 15.74 20.3804 15.8454 20.1929 16.0329C20.0054 16.2205 19.9 16.4748 19.9 16.74V18.09C19.5654 18.1908 19.2483 18.3426 18.96 18.54L17.96 17.7C17.8577 17.617 17.74 17.5549 17.6137 17.5175C17.4873 17.4801 17.3548 17.468 17.2238 17.4819C17.0928 17.4958 16.9658 17.5355 16.8502 17.5987C16.7345 17.6619 16.6325 17.7473 16.55 17.85C16.3854 18.056 16.3088 18.3187 16.3368 18.5809C16.3649 18.8431 16.4955 19.0836 16.7 19.25L17.7 20.09C17.5691 20.4096 17.4849 20.7464 17.45 21.09L16.18 21.36C15.9148 21.3892 15.672 21.5225 15.5051 21.7307C15.3382 21.9389 15.2608 22.2048 15.29 22.47C15.3192 22.7352 15.4525 22.978 15.6607 23.1449C15.8688 23.3118 16.1348 23.3892 16.4 23.36H16.61L17.88 23.08C18.0546 23.3986 18.281 23.6859 18.55 23.93L18 25.07C17.942 25.1882 17.9078 25.3166 17.8996 25.448C17.8913 25.5793 17.909 25.711 17.9518 25.8355C17.9945 25.96 18.0614 26.0749 18.1486 26.1734C18.2358 26.272 18.3416 26.3524 18.46 26.41C18.5941 26.475 18.741 26.5091 18.89 26.51C19.0774 26.5104 19.2612 26.4581 19.4203 26.3591C19.5794 26.2601 19.7075 26.1183 19.79 25.95L20.35 24.81C20.5316 24.842 20.7156 24.8587 20.9 24.86C21.0844 24.8583 21.2683 24.8415 21.45 24.81L22 26C22.0825 26.1683 22.2106 26.3101 22.3697 26.4091C22.5288 26.5081 22.7126 26.5604 22.9 26.56C23.0524 26.5606 23.2029 26.5264 23.34 26.46C23.4584 26.4024 23.5642 26.322 23.6514 26.2234C23.7386 26.1249 23.8055 26.01 23.8482 25.8855C23.891 25.761 23.9087 25.6293 23.9004 25.498C23.8922 25.3666 23.858 25.2382 23.8 25.12L23.24 23.98C23.512 23.7362 23.7418 23.4489 23.92 23.13L25.18 23.41H25.4C25.6652 23.4379 25.9306 23.3592 26.1379 23.1914C26.3451 23.0235 26.4772 22.7802 26.505 22.515C26.5328 22.2498 26.4542 21.9844 26.2864 21.7772C26.1185 21.5699 25.8752 21.4379 25.61 21.41V21.4ZM19.44 21.4C19.44 21.1113 19.5256 20.829 19.6861 20.5889C19.8465 20.3488 20.0745 20.1617 20.3413 20.0512C20.6081 19.9407 20.9016 19.9117 21.1848 19.9681C21.468 20.0244 21.7282 20.1635 21.9324 20.3676C22.1366 20.5718 22.2756 20.832 22.3319 21.1152C22.3883 21.3984 22.3594 21.692 22.2489 21.9587C22.1384 22.2255 21.9512 22.4535 21.7111 22.614C21.471 22.7744 21.1888 22.86 20.9 22.86C20.5128 22.86 20.1414 22.7062 19.8676 22.4324C19.5938 22.1586 19.44 21.7872 19.44 21.4V21.4Z" fill="black"/>
</svg>
