<svg width="32" height="32" viewBox="0 0 32 32" fill="none" xmlns="http://www.w3.org/2000/svg">
<path fill-rule="evenodd" clip-rule="evenodd" d="M29.81 12.85C30.2879 14.9267 30.2906 17.0844 29.8179 19.1623C29.3452 21.2402 28.4093 23.1844 27.08 24.85V24.85C25.7516 26.5123 24.0656 27.8538 22.1473 28.7748C20.2291 29.6959 18.1279 30.1727 16 30.17V30.17C13.8705 30.1703 11.7683 29.6904 9.84992 28.7658C7.93157 27.8413 6.24644 26.4959 4.92 24.83V24.83C3.59074 23.1644 2.65482 21.2202 2.18211 19.1423C1.70939 17.0644 1.71209 14.9067 2.19 12.83V12.83C2.66619 10.7582 3.60176 8.81996 4.9276 7.15833C6.25344 5.49671 7.93567 4.15419 9.85 3.22998V3.22998C11.7689 2.30716 13.8708 1.828 16 1.828C18.1292 1.828 20.2311 2.30716 22.15 3.22998V3.22998C24.0666 4.15624 25.7502 5.50184 27.0762 7.1671C28.4022 8.83236 29.3365 10.7746 29.81 12.85V12.85ZM16 6.38998C18.4076 6.38657 20.7282 7.28983 22.5 8.91998C22.2788 8.90318 22.0565 8.93287 21.8474 9.00712C21.6384 9.08138 21.4472 9.19857 21.2861 9.35115C21.1251 9.50373 20.9977 9.68833 20.9123 9.89307C20.8268 10.0978 20.7852 10.3182 20.79 10.54C20.72 12.85 23.55 13.34 22.02 17.98L20.76 21.82L17.33 11.7C17.33 11.55 17.33 11.46 17.53 11.46H18.53C18.5548 11.4575 18.5777 11.4459 18.5943 11.4274C18.611 11.4089 18.6201 11.3849 18.62 11.36V10.79C18.6214 10.7773 18.6201 10.7646 18.6162 10.7525C18.6124 10.7404 18.606 10.7292 18.5975 10.7198C18.589 10.7103 18.5785 10.7028 18.5669 10.6976C18.5553 10.6925 18.5427 10.6899 18.53 10.69C16.69 10.77 14.86 10.77 13.05 10.69C13.0235 10.69 12.998 10.7005 12.9793 10.7193C12.9605 10.738 12.95 10.7635 12.95 10.79V11.36C12.9523 11.3857 12.9635 11.4099 12.9818 11.4282C13.0001 11.4465 13.0242 11.4577 13.05 11.46H14.05C14.27 11.46 14.33 11.53 14.38 11.67L15.79 15.53L13.67 21.94L10.12 11.66C10.12 11.53 10.12 11.46 10.25 11.46H11.37C11.3948 11.4575 11.4177 11.4459 11.4343 11.4274C11.451 11.4089 11.4601 11.3849 11.46 11.36V10.79C11.4614 10.7773 11.4601 10.7646 11.4562 10.7525C11.4524 10.7404 11.446 10.7292 11.4375 10.7198C11.429 10.7103 11.4185 10.7028 11.4069 10.6976C11.3953 10.6925 11.3827 10.6899 11.37 10.69C10.2 10.75 9.03 10.76 7.93 10.78C8.80232 9.43328 9.99763 8.32617 11.4071 7.55942C12.8166 6.79268 14.3955 6.39067 16 6.38998V6.38998ZM24.45 11.39C25.6579 13.6245 25.9321 16.2463 25.2125 18.6824C24.4929 21.1184 22.8382 23.1705 20.61 24.39L23.61 15.9C24.1452 14.4521 24.4293 12.9235 24.45 11.38V11.39ZM19.22 25.06C17.2851 25.7398 15.1845 25.7888 13.22 25.2L16.22 16.71L19.22 25.06V25.06ZM11.89 24.69C9.60399 23.6091 7.83547 21.6716 6.96711 19.2967C6.09875 16.9218 6.20038 14.3005 7.25 12L11.89 24.67V24.69ZM16 4.99998C18.1756 4.99998 20.3023 5.64512 22.1113 6.85381C23.9202 8.06251 25.3301 9.78047 26.1627 11.7905C26.9952 13.8004 27.2131 16.0122 26.7886 18.146C26.3642 20.2798 25.3166 22.2398 23.7782 23.7782C22.2398 25.3165 20.2798 26.3642 18.146 26.7886C16.0122 27.2131 13.8005 26.9952 11.7905 26.1627C9.7805 25.3301 8.06253 23.9202 6.85383 22.1112C5.64514 20.3023 5 18.1756 5 16C5 13.0826 6.15893 10.2847 8.22183 8.2218C10.2847 6.1589 13.0826 4.99998 16 4.99998V4.99998Z" fill="black"/>
</svg>
