<svg width="32" height="32" viewBox="0 0 32 32" fill="none" xmlns="http://www.w3.org/2000/svg">
<path d="M28.81 9.09999C28.8112 8.95858 28.7724 8.8197 28.6981 8.69938C28.6238 8.57906 28.517 8.48221 28.39 8.41999L16.45 1.46999C16.3183 1.37744 16.1609 1.32848 16 1.32999C15.8421 1.32853 15.688 1.37759 15.56 1.46999C11.5867 3.76999 7.61665 6.06332 3.64999 8.34999C3.51238 8.40768 3.3951 8.5051 3.31316 8.62979C3.23122 8.75449 3.18833 8.90079 3.18999 9.04999V16C3.18999 18.3067 3.18999 20.6133 3.18999 22.92V23C3.18876 23.1414 3.22755 23.2803 3.30186 23.4006C3.37617 23.5209 3.48299 23.6178 3.60999 23.68L15.5 30.51C15.6493 30.6149 15.8275 30.6708 16.01 30.67C16.1953 30.6691 16.3762 30.6134 16.53 30.51L28.38 23.64C28.5062 23.5795 28.6126 23.4844 28.687 23.3658C28.7613 23.2472 28.8005 23.11 28.8 22.97V9.09999H28.81ZM15.81 19.83C15.8148 19.8598 15.8148 19.8902 15.81 19.92C15.81 20.2515 15.6783 20.5695 15.4439 20.8039C15.2095 21.0383 14.8915 21.17 14.56 21.17H14.38C14.0786 21.1752 13.78 21.1123 13.5064 20.9859C13.2328 20.8595 12.9913 20.6729 12.8 20.44L7.79999 14.44C7.73278 14.3729 7.67248 14.2992 7.61999 14.22V20C7.61999 20.3156 7.49461 20.6183 7.27144 20.8414C7.04828 21.0646 6.74559 21.19 6.42999 21.19C6.17032 21.1876 5.91832 21.1017 5.71123 20.945C5.50414 20.7883 5.35294 20.5692 5.27999 20.32V20.32C5.23907 20.1838 5.21884 20.0422 5.21999 19.9V19.9V12C5.22263 11.6516 5.36286 11.3185 5.61012 11.0731C5.85739 10.8277 6.19163 10.69 6.53999 10.69H6.73999C7.03889 10.715 7.32958 10.8006 7.59433 10.9416C7.85909 11.0826 8.09238 11.276 8.27999 11.51L13.28 17.51L13.47 17.73V11.94C13.4687 11.7842 13.4982 11.6297 13.5569 11.4854C13.6156 11.341 13.7023 11.2098 13.812 11.0991C13.9218 10.9885 14.0523 10.9007 14.1961 10.8408C14.3399 10.7808 14.4942 10.75 14.65 10.75C14.8042 10.7529 14.9566 10.7833 15.1 10.84V10.84C15.3061 10.9158 15.4848 11.0515 15.6132 11.2297C15.7415 11.4079 15.8135 11.6205 15.82 11.84V11.84C15.8249 11.8899 15.8249 11.9401 15.82 11.99C15.8257 12.0398 15.8257 12.0902 15.82 12.14V18.14C15.8 18.69 15.77 19.26 15.8 19.83H15.81ZM26.81 16C26.81 16.1313 26.7841 16.2613 26.7339 16.3827C26.6836 16.504 26.61 16.6142 26.5171 16.7071C26.4242 16.8 26.314 16.8736 26.1927 16.9239C26.0713 16.9741 25.9413 17 25.81 17H22.81V20C22.81 20.2652 22.7046 20.5196 22.5171 20.7071C22.3296 20.8946 22.0752 21 21.81 21C21.5448 21 21.2904 20.8946 21.1029 20.7071C20.9153 20.5196 20.81 20.2652 20.81 20V17H17.81C17.5448 17 17.2904 16.8946 17.1029 16.7071C16.9153 16.5196 16.81 16.2652 16.81 16C16.81 15.7348 16.9153 15.4804 17.1029 15.2929C17.2904 15.1053 17.5448 15 17.81 15H20.81V12C20.81 11.7348 20.9153 11.4804 21.1029 11.2929C21.2904 11.1053 21.5448 11 21.81 11C22.0752 11 22.3296 11.1053 22.5171 11.2929C22.7046 11.4804 22.81 11.7348 22.81 12V15H25.81C26.0752 15 26.3296 15.1053 26.5171 15.2929C26.7046 15.4804 26.81 15.7348 26.81 16V16Z" fill="black"/>
</svg>
