<svg width="32" height="32" viewBox="0 0 32 32" fill="none" xmlns="http://www.w3.org/2000/svg">
<path d="M3.18999 16V9.05999C3.18833 8.91079 3.23122 8.76449 3.31316 8.63979C3.3951 8.5151 3.51238 8.41767 3.64999 8.35999V8.35999C7.64999 6.07999 11.6233 3.78666 15.57 1.47999C15.694 1.38603 15.8444 1.33355 16 1.32999C16.1609 1.32848 16.3183 1.37744 16.45 1.46999V1.46999L28.39 8.37999C28.517 8.44221 28.6238 8.53906 28.6981 8.65938C28.7724 8.7797 28.8112 8.91858 28.81 9.05999V23C28.8105 23.14 28.7713 23.2772 28.697 23.3958C28.6226 23.5144 28.5162 23.6095 28.39 23.67V23.67L16.53 30.51C16.3811 30.6064 16.2074 30.6577 16.03 30.6577C15.8526 30.6577 15.6789 30.6064 15.53 30.51V30.51L3.64999 23.66C3.52603 23.5993 3.42122 23.5055 3.34712 23.3891C3.27301 23.2726 3.23248 23.138 3.22999 23V22.94C3.22999 20.64 3.22999 18.3333 3.22999 16.02L3.18999 16ZM20 18.49L19.74 18.18C17.38 15.36 15.03 12.57 12.68 9.74999C12.4178 9.41743 12.0897 9.14271 11.7163 8.94308C11.3428 8.74345 10.9321 8.62323 10.51 8.58999V8.58999H10.23C9.73668 8.58999 9.26359 8.78595 8.91477 9.13477C8.56595 9.48359 8.36999 9.95669 8.36999 10.45V10.52V21.57C8.37069 21.766 8.3976 21.9611 8.44999 22.15C8.56437 22.5345 8.81254 22.8653 9.14963 23.0827C9.48672 23.3002 9.89048 23.3898 10.2879 23.3354C10.6853 23.2811 11.0502 23.0863 11.3165 22.7864C11.5828 22.4864 11.7331 22.1011 11.74 21.7V13.44L12 13.75L19.11 22.26C19.3878 22.5774 19.7309 22.831 20.1157 23.0036C20.5006 23.1762 20.9182 23.2636 21.34 23.26H21.59C22.0594 23.26 22.5096 23.0735 22.8416 22.7416C23.1735 22.4096 23.36 21.9594 23.36 21.49C23.3649 21.4501 23.3649 21.4098 23.36 21.37C23.31 20.56 23.36 19.76 23.36 18.95V10.51C23.3655 10.4401 23.3655 10.3699 23.36 10.3C23.365 10.2301 23.365 10.1599 23.36 10.09V10.09C23.3457 9.78636 23.2437 9.4934 23.0662 9.24666C22.8887 8.99992 22.6433 8.81001 22.36 8.69999V8.69999C22.1588 8.61018 21.9403 8.56579 21.72 8.56999C21.4957 8.56327 21.2723 8.60183 21.0632 8.68336C20.8541 8.7649 20.6636 8.88775 20.5031 9.04456C20.3425 9.20138 20.2152 9.38894 20.1288 9.59605C20.0423 9.80316 19.9985 10.0256 20 10.25V18.46V18.49Z" fill="black"/>
</svg>
