<svg width="32" height="32" viewBox="0 0 32 32" fill="none" xmlns="http://www.w3.org/2000/svg">
<path d="M20 29H6C4.3 29 3 27.7 3 26V3H20V29Z" stroke="black" stroke-width="2" stroke-miterlimit="10" stroke-linecap="round"/>
<path d="M29 10H20V29H26C27.7 29 29 27.7 29 26V10Z" stroke="black" stroke-width="2" stroke-miterlimit="10" stroke-linecap="round"/>
<path d="M15 29V22H8V29" stroke="black" stroke-width="2" stroke-miterlimit="10" stroke-linecap="round"/>
<path d="M24.5 26C25.3284 26 26 25.3284 26 24.5C26 23.6716 25.3284 23 24.5 23C23.6716 23 23 23.6716 23 24.5C23 25.3284 23.6716 26 24.5 26Z" fill="black"/>
<path d="M24.5 21C25.3284 21 26 20.3284 26 19.5C26 18.6716 25.3284 18 24.5 18C23.6716 18 23 18.6716 23 19.5C23 20.3284 23.6716 21 24.5 21Z" fill="black"/>
<path d="M24.5 16C25.3284 16 26 15.3284 26 14.5C26 13.6716 25.3284 13 24.5 13C23.6716 13 23 13.6716 23 14.5C23 15.3284 23.6716 16 24.5 16Z" fill="black"/>
<path d="M14.5 19C15.3284 19 16 18.3284 16 17.5C16 16.6716 15.3284 16 14.5 16C13.6716 16 13 16.6716 13 17.5C13 18.3284 13.6716 19 14.5 19Z" fill="black"/>
<path d="M14.5 14C15.3284 14 16 13.3284 16 12.5C16 11.6716 15.3284 11 14.5 11C13.6716 11 13 11.6716 13 12.5C13 13.3284 13.6716 14 14.5 14Z" fill="black"/>
<path d="M14.5 9C15.3284 9 16 8.32843 16 7.5C16 6.67157 15.3284 6 14.5 6C13.6716 6 13 6.67157 13 7.5C13 8.32843 13.6716 9 14.5 9Z" fill="black"/>
<path d="M8.5 19C9.32843 19 10 18.3284 10 17.5C10 16.6716 9.32843 16 8.5 16C7.67157 16 7 16.6716 7 17.5C7 18.3284 7.67157 19 8.5 19Z" fill="black"/>
<path d="M8.5 14C9.32843 14 10 13.3284 10 12.5C10 11.6716 9.32843 11 8.5 11C7.67157 11 7 11.6716 7 12.5C7 13.3284 7.67157 14 8.5 14Z" fill="black"/>
<path d="M8.5 9C9.32843 9 10 8.32843 10 7.5C10 6.67157 9.32843 6 8.5 6C7.67157 6 7 6.67157 7 7.5C7 8.32843 7.67157 9 8.5 9Z" fill="black"/>
</svg>
