<svg width="32" height="32" viewBox="0 0 32 32" fill="none" xmlns="http://www.w3.org/2000/svg">
<path d="M15.97 15.98C19.8305 15.98 22.96 12.8505 22.96 8.99C22.96 5.12953 19.8305 2 15.97 2C12.1095 2 8.98 5.12953 8.98 8.99C8.98 12.8505 12.1095 15.98 15.97 15.98Z" fill="black"/>
<path d="M27.33 17.2L22 14.58C21.8231 14.5016 21.6235 14.4909 21.4391 14.5499C21.2548 14.6088 21.0985 14.7334 21 14.9C19.6511 17.1743 17.9653 19.231 16 21C14.0352 19.2419 12.3493 17.1952 11 14.93C10.9031 14.7618 10.7468 14.6357 10.5619 14.5766C10.377 14.5174 10.1766 14.5293 10 14.61L4.71 17.21C4.53182 17.3129 4.40078 17.4811 4.34476 17.6791C4.28873 17.8771 4.31214 18.0891 4.41 18.27C7.08829 22.9429 10.8464 26.9067 15.37 29.83C15.5479 29.943 15.7543 30.003 15.965 30.003C16.1757 30.003 16.3821 29.943 16.56 29.83C21.1265 26.9194 24.9238 22.9505 27.63 18.26C27.7279 18.0791 27.7513 17.8671 27.6952 17.6691C27.6392 17.4711 27.5082 17.3029 27.33 17.2V17.2Z" fill="black"/>
</svg>
