<svg width="32" height="32" viewBox="0 0 32 32" fill="none" xmlns="http://www.w3.org/2000/svg">
<path d="M27.09 17.57C27.092 20.1179 26.3383 22.6091 24.9242 24.7285C23.5101 26.8479 21.4992 28.5003 19.1459 29.4767C16.7926 30.4531 14.2025 30.7096 11.7034 30.2137C9.20424 29.7179 6.90831 28.492 5.10601 26.6911C3.30371 24.8902 2.07601 22.5952 1.57822 20.0965C1.08043 17.5977 1.33492 15.0075 2.30948 12.6534C3.28404 10.2993 4.9349 8.28709 7.05322 6.87138C9.17154 5.45566 11.6622 4.70001 14.21 4.70001C17.626 4.70001 20.9021 6.057 23.3175 8.47247C25.733 10.8879 27.09 14.164 27.09 17.58V17.57ZM14.21 10.42C12.7959 10.42 11.4135 10.8393 10.2377 11.625C9.06186 12.4107 8.14543 13.5273 7.60426 14.8338C7.06309 16.1403 6.9215 17.5779 7.19739 18.9649C7.47327 20.3519 8.15424 21.6259 9.15419 22.6258C10.1541 23.6258 11.4281 24.3067 12.8151 24.5826C14.2021 24.8585 15.6397 24.7169 16.9462 24.1757C18.2527 23.6346 19.3694 22.7181 20.155 21.5423C20.9407 20.3665 21.36 18.9841 21.36 17.57C21.36 15.6737 20.6067 13.8551 19.2658 12.5142C17.9249 11.1733 16.1063 10.42 14.21 10.42V10.42ZM27.27 1.54001C26.6 1.54199 25.9455 1.74248 25.3893 2.11618C24.8332 2.48988 24.4002 3.02001 24.1452 3.63963C23.8901 4.25924 23.8244 4.94054 23.9564 5.59747C24.0883 6.25441 24.4119 6.85751 24.8864 7.33061C25.3609 7.80371 25.965 8.12559 26.6223 8.25558C27.2796 8.38558 27.9607 8.31786 28.5796 8.06099C29.1985 7.80412 29.7273 7.36961 30.0994 6.81235C30.4714 6.25508 30.67 5.60006 30.67 4.93001V4.93001C30.67 4.03092 30.3128 3.16866 29.6771 2.53292C29.0413 1.89717 28.1791 1.54001 27.28 1.54001H27.27Z" fill="black"/>
</svg>
