<svg width="32" height="32" viewBox="0 0 32 32" fill="none" xmlns="http://www.w3.org/2000/svg">
<path d="M23 19.9999H25.9C27.4 19.9999 28.7 18.7999 28.9 17.2999C29 16.2999 29 15.2999 28.8 14.1999C28.1 8.39994 23.3 3.69994 17.5 3.09994C9.1 2.09994 2.1 9.09994 3.1 17.4999C3.8 23.2999 8.4 28.0999 14.2 28.8999C15.3 28.9999 16.3 29.0999 17.3 28.9999C18.8 28.7999 20 27.5999 20 25.9999V22.9999C20 21.2999 21.3 19.9999 23 19.9999Z" stroke="black" stroke-width="2" stroke-miterlimit="10" stroke-linecap="round"/>
<path d="M13 24C14.6569 24 16 22.6569 16 21C16 19.3431 14.6569 18 13 18C11.3431 18 10 19.3431 10 21C10 22.6569 11.3431 24 13 24Z" stroke="black" stroke-width="2" stroke-miterlimit="10" stroke-linecap="round"/>
<path d="M16 9.5C16.8284 9.5 17.5 8.82843 17.5 8C17.5 7.17157 16.8284 6.5 16 6.5C15.1716 6.5 14.5 7.17157 14.5 8C14.5 8.82843 15.1716 9.5 16 9.5Z" fill="black"/>
<path d="M10 12.5C10.8284 12.5 11.5 11.8284 11.5 11C11.5 10.1716 10.8284 9.5 10 9.5C9.17157 9.5 8.5 10.1716 8.5 11C8.5 11.8284 9.17157 12.5 10 12.5Z" fill="black"/>
<path d="M22 12.5C22.8284 12.5 23.5 11.8284 23.5 11C23.5 10.1716 22.8284 9.5 22 9.5C21.1716 9.5 20.5 10.1716 20.5 11C20.5 11.8284 21.1716 12.5 22 12.5Z" fill="black"/>
</svg>
