<svg width="32" height="32" viewBox="0 0 32 32" fill="none" xmlns="http://www.w3.org/2000/svg">
<path d="M1.33 11.9C5.04112 9.23263 9.27888 7.3882 13.76 6.49001H13.96C15.9471 6.07573 17.9702 5.85802 20 5.84001V5.84001L17.87 7.84001H18.67C20.6897 7.68531 22.6952 7.38114 24.67 6.93001H24.4C26.055 6.6649 27.6417 6.0771 29.07 5.20001H29.02C29.38 4.94001 29.69 4.63001 30.02 4.32001C29.9999 4.46384 29.963 4.60481 29.91 4.74001C29.34 6.59477 28.3077 8.27408 26.91 9.62001V9.62001C25.9088 10.5195 24.8004 11.292 23.61 11.92H23.53C21.3285 13.1108 19.0137 14.0789 16.62 14.81L16.34 14.88C14.72 15.39 13.06 15.79 11.42 16.22H11.4C11.3015 16.2171 11.2066 16.182 11.13 16.12V16.12C9.88436 14.9996 8.47046 14.0817 6.94 13.4H6.84C5.1248 12.6222 3.28745 12.1485 1.41 12H1.34L1.33 11.9ZM13.26 18.42C12.9523 17.9866 12.6184 17.5725 12.26 17.18C17.2567 15.6516 22.4548 14.8831 27.68 14.9C28.68 14.9 29.68 14.9 30.68 14.98H30.54C30.38 14.9645 30.2191 14.9995 30.08 15.08C28.82 15.49 27.52 15.85 26.28 16.33C22.6869 17.7809 19.2015 19.4851 15.85 21.43L16.26 21.21C16.05 21.32 15.83 21.41 15.63 21.53C15.43 21.65 15.31 21.64 15.15 21.41C14.55 20.41 13.92 19.41 13.27 18.46L13.26 18.42ZM17.18 27.65H17.09C16.9193 26.0336 16.5151 24.4504 15.89 22.95V23.06L25.5 19C25.501 19.0178 25.5072 19.0349 25.5179 19.0491C25.5285 19.0633 25.5432 19.0741 25.56 19.08C22.78 21.9 20 24.77 17.18 27.65V27.65Z" fill="black"/>
</svg>
