<svg width="32" height="32" viewBox="0 0 32 32" fill="none" xmlns="http://www.w3.org/2000/svg">
<path d="M3 3L29 29" stroke="black" stroke-width="2" stroke-miterlimit="10" stroke-linecap="round"/>
<path d="M9 4H25C26.7 4 28 5.3 28 7V23" stroke="black" stroke-width="2" stroke-miterlimit="10" stroke-linecap="round"/>
<path d="M27.1 27.1C26.6 27.7 25.8 28 25 28H7C5.3 28 4 26.7 4 25V7.00002C4 6.20002 4.3 5.40002 4.9 4.90002" stroke="black" stroke-width="2" stroke-miterlimit="10" stroke-linecap="round"/>
<path d="M17.7 17.7C17.2 17.9 16.6 18 16 18H11" stroke="black" stroke-width="2" stroke-miterlimit="10" stroke-linecap="round"/>
<path d="M13 8H16C18.8 8 21 10.2 21 13C21 13.9 20.8 14.7 20.4 15.4" stroke="black" stroke-width="2" stroke-miterlimit="10" stroke-linecap="round"/>
<path d="M11 24V11" stroke="black" stroke-width="2" stroke-miterlimit="10" stroke-linecap="round"/>
</svg>
