<svg width="32" height="32" viewBox="0 0 32 32" fill="none" xmlns="http://www.w3.org/2000/svg">
<path fill-rule="evenodd" clip-rule="evenodd" d="M16.05 13.55C16.7414 13.5526 17.4037 13.8284 17.8926 14.3173C18.3815 14.8062 18.6574 15.4686 18.66 16.16V16.16C18.6619 16.6769 18.5109 17.1828 18.2259 17.614C17.941 18.0453 17.5348 18.3826 17.0586 18.5836C16.5824 18.7845 16.0573 18.8401 15.5496 18.7434C15.0418 18.6466 14.574 18.4018 14.2051 18.0398C13.8361 17.6778 13.5825 17.2147 13.4761 16.7089C13.3697 16.2031 13.4153 15.6771 13.6072 15.1971C13.7991 14.7171 14.1287 14.3047 14.5544 14.0116C14.9802 13.7185 15.4832 13.5579 16 13.55H16.05ZM16 9.59999C15.8022 9.59999 15.6089 9.65864 15.4444 9.76852C15.28 9.8784 15.1518 10.0346 15.0761 10.2173C15.0004 10.4 14.9806 10.6011 15.0192 10.7951C15.0578 10.9891 15.153 11.1672 15.2929 11.3071C15.4327 11.4469 15.6109 11.5422 15.8049 11.5808C15.9989 11.6194 16.2 11.5996 16.3827 11.5239C16.5654 11.4482 16.7216 11.32 16.8315 11.1556C16.9414 10.9911 17 10.7978 17 10.6C17 10.3348 16.8946 10.0804 16.7071 9.89288C16.5196 9.70535 16.2652 9.59999 16 9.59999ZM13 9.71999C12.8022 9.71999 12.6089 9.77864 12.4444 9.88852C12.28 9.9984 12.1518 10.1546 12.0761 10.3373C12.0004 10.52 11.9806 10.7211 12.0192 10.9151C12.0578 11.1091 12.153 11.2872 12.2929 11.4271C12.4327 11.5669 12.6109 11.6622 12.8049 11.7008C12.9989 11.7394 13.2 11.7196 13.3827 11.6439C13.5654 11.5682 13.7216 11.44 13.8315 11.2756C13.9414 11.1111 14 10.9178 14 10.72C14 10.4548 13.8946 10.2004 13.7071 10.0129C13.5196 9.82535 13.2652 9.71999 13 9.71999ZM9.6 10.33C9.41762 10.33 9.23936 10.3842 9.08785 10.4858C8.93635 10.5873 8.81845 10.7316 8.74912 10.9003C8.67979 11.069 8.66216 11.2545 8.69848 11.4332C8.7348 11.6119 8.82342 11.7758 8.95308 11.9041C9.08275 12.0323 9.24761 12.1192 9.42673 12.1535C9.60584 12.1879 9.79113 12.1682 9.95906 12.0971C10.127 12.0259 10.27 11.9064 10.3698 11.7538C10.4697 11.6012 10.522 11.4224 10.52 11.24C10.52 11.1188 10.4958 10.9988 10.4489 10.8871C10.4019 10.7753 10.3331 10.6741 10.2464 10.5893C10.1598 10.5046 10.0571 10.438 9.94439 10.3934C9.83167 10.3489 9.71118 10.3273 9.59 10.33H9.6ZM6.48 11.33C6.31189 11.33 6.14755 11.3798 6.00777 11.4732C5.86799 11.5666 5.75904 11.6994 5.69471 11.8547C5.63037 12.01 5.61354 12.1809 5.64634 12.3458C5.67913 12.5107 5.76009 12.6622 5.87896 12.781C5.99784 12.8999 6.14929 12.9809 6.31418 13.0137C6.47906 13.0465 6.64997 13.0296 6.80528 12.9653C6.9606 12.901 7.09335 12.792 7.18675 12.6522C7.28015 12.5124 7.33 12.3481 7.33 12.18C7.33403 12.0646 7.31477 11.9495 7.27336 11.8417C7.23194 11.7338 7.16924 11.6355 7.08897 11.5524C7.00871 11.4693 6.91254 11.4033 6.80619 11.3582C6.69985 11.3131 6.58551 11.2899 6.47 11.29L6.48 11.33ZM3.63 12.76C3.52805 12.7587 3.42684 12.7776 3.33227 12.8157C3.23769 12.8538 3.15162 12.9103 3.07906 12.9819C3.00649 13.0536 2.94888 13.1389 2.90956 13.233C2.87024 13.3271 2.84999 13.428 2.85 13.53C2.85 13.7369 2.93218 13.9353 3.07846 14.0815C3.22474 14.2278 3.42313 14.31 3.63 14.31C3.83687 14.31 4.03527 14.2278 4.18155 14.0815C4.32783 13.9353 4.41 13.7369 4.41 13.53C4.41001 13.428 4.38977 13.3271 4.35045 13.233C4.31113 13.1389 4.25352 13.0536 4.18095 12.9819C4.10839 12.9103 4.02232 12.8538 3.92774 12.8157C3.83316 12.7776 3.73196 12.7587 3.63 12.76V12.76ZM2 15.44C1.86002 15.442 1.72375 15.4853 1.60831 15.5645C1.49287 15.6437 1.40343 15.7552 1.35122 15.8851C1.29901 16.015 1.28637 16.1575 1.31489 16.2945C1.3434 16.4316 1.4118 16.5572 1.51148 16.6555C1.61116 16.7538 1.73768 16.8204 1.87513 16.847C2.01257 16.8736 2.15481 16.859 2.28397 16.8049C2.41312 16.7509 2.52342 16.6599 2.60101 16.5434C2.67859 16.4269 2.71999 16.29 2.72 16.15C2.72001 16.0559 2.70132 15.9628 2.66502 15.876C2.62871 15.7892 2.57552 15.7104 2.50853 15.6444C2.44153 15.5783 2.36208 15.5262 2.27478 15.4911C2.18748 15.456 2.09408 15.4387 2 15.44V15.44ZM3.65 18.17C3.52387 18.172 3.40113 18.2112 3.2972 18.2827C3.19328 18.3542 3.11281 18.4548 3.0659 18.5719C3.01899 18.689 3.00773 18.8174 3.03354 18.9409C3.05936 19.0643 3.12109 19.1774 3.21098 19.266C3.30087 19.3545 3.41491 19.4144 3.53878 19.4383C3.66265 19.4622 3.79081 19.449 3.90717 19.4003C4.02354 19.3515 4.12291 19.2695 4.1928 19.1645C4.26269 19.0595 4.29999 18.9361 4.3 18.81C4.30018 18.6453 4.23689 18.4869 4.12328 18.3677C4.00967 18.2485 3.85449 18.1777 3.69 18.17H3.65ZM6.48 19.67C6.39813 19.6592 6.31489 19.666 6.23585 19.6899C6.15682 19.7138 6.0838 19.7544 6.0217 19.8088C5.95959 19.8633 5.90983 19.9303 5.87574 20.0056C5.84165 20.0808 5.82401 20.1624 5.82401 20.245C5.82401 20.3276 5.84165 20.4092 5.87574 20.4844C5.90983 20.5596 5.95959 20.6267 6.0217 20.6812C6.0838 20.7356 6.15682 20.7761 6.23585 20.8001C6.31489 20.824 6.39813 20.8308 6.48 20.82C6.61945 20.8016 6.74745 20.7331 6.84017 20.6273C6.93289 20.5215 6.98401 20.3857 6.98401 20.245C6.98401 20.1043 6.93289 19.9685 6.84017 19.8627C6.74745 19.7569 6.61945 19.6884 6.48 19.67V19.67ZM9.59 20.57C9.48913 20.57 9.39053 20.5999 9.30666 20.6559C9.22279 20.712 9.15743 20.7916 9.11882 20.8848C9.08022 20.978 9.07012 21.0806 9.0898 21.1795C9.10948 21.2784 9.15805 21.3693 9.22938 21.4406C9.3007 21.5119 9.39158 21.5605 9.49051 21.5802C9.58944 21.5999 9.69198 21.5898 9.78517 21.5512C9.87836 21.5126 9.95801 21.4472 10.0141 21.3633C10.0701 21.2795 10.1 21.1809 10.1 21.08C10.1004 20.9514 10.0522 20.8274 9.96504 20.7328C9.87788 20.6382 9.75821 20.5801 9.63 20.57H9.59ZM13.18 21.36C13.1218 21.3586 13.064 21.3691 13.01 21.3907C12.956 21.4123 12.907 21.4447 12.8658 21.4858C12.8247 21.5269 12.7923 21.576 12.7707 21.63C12.7491 21.684 12.7386 21.7418 12.74 21.8C12.74 21.9167 12.7864 22.0286 12.8689 22.1111C12.9514 22.1936 13.0633 22.24 13.18 22.24C13.2967 22.24 13.4086 22.1936 13.4911 22.1111C13.5736 22.0286 13.62 21.9167 13.62 21.8C13.6205 21.6899 13.5796 21.5836 13.5056 21.5022C13.4315 21.4207 13.3296 21.37 13.22 21.36H13.18ZM16 21.28C15.9181 21.278 15.8375 21.3006 15.7685 21.3449C15.6996 21.3892 15.6455 21.4531 15.6132 21.5284C15.581 21.6037 15.572 21.687 15.5875 21.7674C15.603 21.8479 15.6423 21.9218 15.7002 21.9798C15.7581 22.0377 15.8321 22.077 15.9126 22.0925C15.993 22.108 16.0763 22.099 16.1516 22.0667C16.2269 22.0345 16.2908 21.9804 16.3351 21.9115C16.3794 21.8425 16.402 21.7619 16.4 21.68C16.4 21.5739 16.3579 21.4722 16.2828 21.3971C16.2078 21.3221 16.1061 21.28 16 21.28V21.28ZM18 10.71C18 10.9078 18.0587 11.1011 18.1685 11.2656C18.2784 11.43 18.4346 11.5582 18.6173 11.6339C18.8 11.7096 19.0011 11.7294 19.1951 11.6908C19.3891 11.6522 19.5673 11.5569 19.7071 11.4171C19.847 11.2772 19.9422 11.0991 19.9808 10.9051C20.0194 10.7111 19.9996 10.51 19.9239 10.3273C19.8482 10.1446 19.72 9.9884 19.5556 9.87852C19.3911 9.76864 19.1978 9.70999 19 9.70999C18.7348 9.70999 18.4804 9.81535 18.2929 10.0029C18.1054 10.1904 18 10.4448 18 10.71ZM21.46 11.24C21.458 11.4224 21.5103 11.6012 21.6102 11.7538C21.71 11.9064 21.853 12.0259 22.021 12.0971C22.1889 12.1682 22.3742 12.1879 22.5533 12.1535C22.7324 12.1192 22.8973 12.0323 23.0269 11.9041C23.1566 11.7758 23.2452 11.6119 23.2815 11.4332C23.3178 11.2545 23.3002 11.069 23.2309 10.9003C23.1616 10.7316 23.0437 10.5873 22.8922 10.4858C22.7407 10.3842 22.5624 10.33 22.38 10.33C22.143 10.3377 21.9181 10.4367 21.7522 10.6062C21.5864 10.7758 21.4925 11.0028 21.49 11.24H21.46ZM24.65 12.14C24.65 12.3081 24.6999 12.4724 24.7933 12.6122C24.8867 12.752 25.0194 12.861 25.1747 12.9253C25.33 12.9896 25.5009 13.0065 25.6658 12.9737C25.8307 12.9409 25.9822 12.8599 26.101 12.741C26.2199 12.6222 26.3009 12.4707 26.3337 12.3058C26.3665 12.1409 26.3496 11.97 26.2853 11.8147C26.221 11.6594 26.112 11.5266 25.9722 11.4332C25.8325 11.3398 25.6681 11.29 25.5 11.29C25.2798 11.2978 25.0712 11.3907 24.9183 11.5493C24.7653 11.7079 24.6799 11.9197 24.68 12.14H24.65ZM27.56 13.53C27.56 13.7369 27.6422 13.9353 27.7885 14.0815C27.9347 14.2278 28.1331 14.31 28.34 14.31C28.5469 14.31 28.7453 14.2278 28.8915 14.0815C29.0378 13.9353 29.12 13.7369 29.12 13.53C29.12 13.3231 29.0378 13.1247 28.8915 12.9784C28.7453 12.8322 28.5469 12.75 28.34 12.75C28.1331 12.75 27.9347 12.8322 27.7885 12.9784C27.6422 13.1247 27.56 13.3231 27.56 13.53V13.53ZM29.21 16.15C29.208 16.2928 29.2486 16.433 29.3265 16.5527C29.4044 16.6724 29.5161 16.7662 29.6475 16.8223C29.7788 16.8783 29.9239 16.894 30.0642 16.8674C30.2046 16.8407 30.3338 16.7729 30.4355 16.6727C30.5372 16.5724 30.6067 16.4441 30.6353 16.3042C30.664 16.1642 30.6503 16.019 30.5961 15.8868C30.5419 15.7547 30.4496 15.6416 30.331 15.5621C30.2124 15.4825 30.0728 15.44 29.93 15.44C29.7452 15.4452 29.5697 15.5223 29.4408 15.6549C29.312 15.7875 29.2399 15.9651 29.24 16.15H29.21ZM27.63 18.81C27.628 18.939 27.6644 19.0656 27.7347 19.1738C27.8049 19.282 27.9057 19.3669 28.0243 19.4176C28.1428 19.4683 28.2738 19.4826 28.4006 19.4587C28.5273 19.4348 28.6441 19.3737 28.736 19.2832C28.8279 19.1927 28.8908 19.0769 28.9167 18.9505C28.9426 18.8242 28.9303 18.693 28.8814 18.5736C28.8325 18.4543 28.7492 18.3521 28.6421 18.2803C28.535 18.2084 28.409 18.17 28.28 18.17C28.1138 18.1752 27.9561 18.2449 27.8403 18.3644C27.7246 18.4838 27.6599 18.6437 27.66 18.81H27.63ZM24.88 20.25C24.88 20.3248 24.8947 20.399 24.9234 20.4681C24.952 20.5373 24.994 20.6001 25.047 20.653C25.0999 20.706 25.1627 20.748 25.2319 20.7766C25.301 20.8052 25.3752 20.82 25.45 20.82C25.5319 20.8308 25.6151 20.824 25.6942 20.8001C25.7732 20.7761 25.8462 20.7356 25.9083 20.6812C25.9704 20.6267 26.0202 20.5596 26.0543 20.4844C26.0884 20.4092 26.106 20.3276 26.106 20.245C26.106 20.1624 26.0884 20.0808 26.0543 20.0056C26.0202 19.9303 25.9704 19.8633 25.9083 19.8088C25.8462 19.7544 25.7732 19.7138 25.6942 19.6899C25.6151 19.666 25.5319 19.6592 25.45 19.67C25.3023 19.6777 25.1635 19.7426 25.0627 19.8508C24.962 19.959 24.9072 20.1022 24.91 20.25H24.88ZM21.83 21.08C21.83 21.1809 21.8599 21.2795 21.916 21.3633C21.972 21.4472 22.0516 21.5126 22.1448 21.5512C22.238 21.5898 22.3406 21.5999 22.4395 21.5802C22.5384 21.5605 22.6293 21.5119 22.7006 21.4406C22.772 21.3693 22.8205 21.2784 22.8402 21.1795C22.8599 21.0806 22.8498 20.978 22.8112 20.8848C22.7726 20.7916 22.7072 20.712 22.6233 20.6559C22.5395 20.5999 22.4409 20.57 22.34 20.57C22.21 20.5776 22.0879 20.6347 21.9986 20.7296C21.9094 20.8244 21.8598 20.9498 21.86 21.08H21.83ZM18.52 21.68C18.52 21.7967 18.5664 21.9086 18.6489 21.9911C18.7314 22.0736 18.8433 22.12 18.96 22.12C19.0182 22.1214 19.076 22.1109 19.13 22.0893C19.184 22.0677 19.233 22.0353 19.2742 21.9942C19.3153 21.953 19.3477 21.904 19.3693 21.85C19.3909 21.796 19.4014 21.7381 19.4 21.68C19.4 21.6222 19.3886 21.565 19.3665 21.5116C19.3444 21.4582 19.312 21.4097 19.2711 21.3689C19.2303 21.328 19.1818 21.2956 19.1284 21.2735C19.075 21.2514 19.0178 21.24 18.96 21.24C18.8486 21.2476 18.7442 21.2973 18.6681 21.379C18.592 21.4607 18.5497 21.5683 18.55 21.68H18.52ZM21.45 12.82C21.3843 12.6998 21.2957 12.5938 21.189 12.5079C21.0824 12.422 20.9598 12.358 20.8285 12.3194C20.6971 12.2809 20.5594 12.2686 20.4232 12.2833C20.2871 12.298 20.1552 12.3393 20.035 12.405C19.9148 12.4706 19.8088 12.5593 19.7229 12.666C19.637 12.7726 19.573 12.8951 19.5344 13.0265C19.4959 13.1579 19.4836 13.2956 19.4983 13.4318C19.513 13.5679 19.5543 13.6998 19.62 13.82C19.7526 14.0627 19.9762 14.2427 20.2416 14.3205C20.5069 14.3984 20.7923 14.3676 21.035 14.235C21.2777 14.1024 21.4577 13.8788 21.5356 13.6134C21.6134 13.3481 21.5826 13.0627 21.45 12.82V12.82ZM17.73 7.57999C17.679 7.462 17.6039 7.35602 17.5094 7.26886C17.4149 7.18169 17.3032 7.1153 17.1815 7.07394C17.0598 7.03258 16.9308 7.01718 16.8028 7.02874C16.6748 7.04029 16.5506 7.07854 16.4383 7.14103C16.326 7.20351 16.228 7.28883 16.1507 7.3915C16.0733 7.49417 16.0184 7.6119 15.9893 7.73711C15.9603 7.86232 15.9578 7.99223 15.982 8.11845C16.0062 8.24468 16.0567 8.36444 16.13 8.46999C16.1873 8.57548 16.2652 8.66842 16.359 8.74335C16.4528 8.81829 16.5607 8.87369 16.6762 8.90631C16.7918 8.93892 16.9127 8.94809 17.0318 8.93326C17.151 8.91844 17.266 8.87992 17.37 8.81999C17.5808 8.70196 17.7367 8.50576 17.8041 8.27375C17.8714 8.04174 17.8448 7.79255 17.73 7.57999ZM15.37 5.31999C15.2927 5.17112 15.173 5.04847 15.0261 4.96747C14.8792 4.88647 14.7116 4.85075 14.5445 4.86481C14.3773 4.87887 14.218 4.94208 14.0867 5.04648C13.9554 5.15088 13.8579 5.2918 13.8066 5.45149C13.7552 5.61118 13.7522 5.7825 13.798 5.94388C13.8438 6.10526 13.9363 6.24948 14.0639 6.35838C14.1915 6.46728 14.3485 6.53599 14.5151 6.55585C14.6816 6.57571 14.8504 6.54583 15 6.46999C15.1012 6.42024 15.1913 6.35065 15.265 6.26535C15.3387 6.18005 15.3944 6.08078 15.4289 5.97348C15.4635 5.86617 15.476 5.75301 15.4659 5.64074C15.4558 5.52847 15.4232 5.41939 15.37 5.31999V5.31999ZM12.71 3.53999C12.6632 3.44511 12.5976 3.36074 12.5171 3.29202C12.4367 3.2233 12.3431 3.17166 12.2421 3.14025C12.1411 3.10883 12.0347 3.0983 11.9295 3.10929C11.8242 3.12028 11.7223 3.15256 11.63 3.20418C11.5376 3.25579 11.4567 3.32565 11.3922 3.40951C11.3277 3.49337 11.281 3.58947 11.2548 3.69198C11.2286 3.79449 11.2235 3.90125 11.2399 4.00577C11.2563 4.1103 11.2937 4.2104 11.35 4.29999C11.4564 4.4693 11.6237 4.5913 11.8174 4.64079C12.0111 4.69029 12.2165 4.6635 12.391 4.56597C12.5655 4.46843 12.6959 4.30759 12.7553 4.11666C12.8147 3.92574 12.7985 3.7193 12.71 3.53999V3.53999ZM9.6 3.45999C9.55416 3.37452 9.49153 3.2992 9.41585 3.23854C9.34018 3.17788 9.25304 3.13313 9.15965 3.10698C9.06625 3.08083 8.96854 3.07382 8.87237 3.08636C8.7762 3.09891 8.68356 3.13075 8.6 3.17999C8.5135 3.22476 8.43713 3.28684 8.37564 3.36239C8.31416 3.43794 8.26888 3.52532 8.24262 3.61912C8.21635 3.71292 8.20967 3.81111 8.22298 3.9076C8.2363 4.00409 8.26932 4.09681 8.32 4.17999C8.41548 4.34973 8.57448 4.47459 8.76201 4.5271C8.94955 4.57961 9.15026 4.55547 9.32 4.45999C9.48974 4.36451 9.6146 4.20552 9.66711 4.01798C9.71962 3.83044 9.69548 3.62973 9.6 3.45999V3.45999ZM8 6.22999C7.91636 6.08555 7.77882 5.98021 7.61758 5.93708C7.45634 5.89396 7.28458 5.91658 7.14 5.99999C7.05267 6.03173 6.9733 6.08211 6.90741 6.14762C6.84151 6.21314 6.79067 6.29221 6.75842 6.37936C6.72617 6.4665 6.71328 6.55962 6.72065 6.65225C6.72802 6.74488 6.75547 6.83479 6.8011 6.91573C6.84672 6.99668 6.90943 7.06672 6.98485 7.12099C7.06028 7.17526 7.14662 7.21246 7.23787 7.22999C7.32912 7.24752 7.42309 7.24498 7.51326 7.22253C7.60343 7.20008 7.68763 7.15826 7.76 7.09999C7.90683 7.0161 8.01449 6.87751 8.05946 6.71449C8.10442 6.55148 8.08305 6.37729 8 6.22999V6.22999ZM8.06 9.42999C8.03304 9.34942 7.98871 9.27576 7.93015 9.21421C7.87158 9.15267 7.80021 9.10474 7.72108 9.07382C7.64195 9.04289 7.55699 9.02973 7.47221 9.03527C7.38744 9.0408 7.30491 9.06489 7.23047 9.10583C7.15602 9.14677 7.09149 9.20357 7.04141 9.27221C6.99134 9.34084 6.95696 9.41964 6.9407 9.50303C6.92444 9.58641 6.9267 9.67235 6.94731 9.75477C6.96793 9.83719 7.0064 9.91408 7.06 9.97999C7.1457 10.0854 7.26566 10.1573 7.39897 10.1833C7.53228 10.2093 7.67048 10.1877 7.78949 10.1222C7.9085 10.0568 8.00076 9.95164 8.0502 9.82514C8.09963 9.69863 8.1031 9.55879 8.06 9.42999V9.42999ZM8.78 12.58C8.73162 12.4913 8.65798 12.419 8.56843 12.3722C8.47887 12.3254 8.37744 12.3062 8.27699 12.3172C8.17655 12.3282 8.08162 12.3687 8.00425 12.4337C7.92689 12.4987 7.87056 12.5852 7.84244 12.6822C7.81431 12.7793 7.81564 12.8825 7.84626 12.9788C7.87688 13.075 7.93541 13.1601 8.01443 13.223C8.09345 13.286 8.18939 13.3241 8.29008 13.3324C8.39078 13.3408 8.49168 13.3191 8.58 13.27C8.64007 13.2395 8.69335 13.1972 8.73666 13.1456C8.77996 13.094 8.81239 13.0342 8.83201 12.9697C8.85162 12.9053 8.85801 12.8375 8.85079 12.7706C8.84357 12.7036 8.8229 12.6388 8.79 12.58H8.78ZM11.27 18.58C11.2449 18.5329 11.2106 18.4913 11.1692 18.4576C11.1277 18.424 11.08 18.3989 11.0287 18.384C10.9775 18.3691 10.9238 18.3646 10.8707 18.3708C10.8177 18.377 10.7665 18.3937 10.72 18.42C10.6287 18.4744 10.5614 18.5614 10.5317 18.6635C10.502 18.7656 10.5121 18.8751 10.56 18.97C10.5801 19.0257 10.6121 19.0764 10.6536 19.1186C10.6952 19.1607 10.7454 19.1934 10.8008 19.2143C10.8562 19.2353 10.9155 19.2439 10.9746 19.2397C11.0337 19.2356 11.0911 19.2186 11.143 19.1901C11.1949 19.1616 11.2401 19.1222 11.2753 19.0746C11.3105 19.027 11.335 18.9723 11.347 18.9143C11.3591 18.8563 11.3585 18.7964 11.3452 18.7387C11.3319 18.681 11.3062 18.6268 11.27 18.58V18.58ZM21.48 15.19C21.3047 15.2844 21.1617 15.4289 21.069 15.6051C20.9764 15.7813 20.9385 15.9812 20.9601 16.1791C20.9818 16.3769 21.062 16.5639 21.1905 16.7159C21.3189 16.8679 21.4899 16.9782 21.6814 17.0325C21.8729 17.0868 22.0763 17.0827 22.2654 17.0207C22.4546 16.9588 22.621 16.8418 22.7433 16.6847C22.8656 16.5277 22.9382 16.3377 22.9519 16.1391C22.9655 15.9405 22.9196 15.7423 22.82 15.57C22.6984 15.3388 22.4912 15.1644 22.2426 15.084C21.9941 15.0037 21.7239 15.0238 21.49 15.14L21.48 15.19ZM22.7 18.47C22.5428 18.5571 22.4149 18.6889 22.3325 18.8486C22.2501 19.0083 22.2168 19.1888 22.2369 19.3674C22.2569 19.546 22.3294 19.7147 22.4452 19.8521C22.561 19.9896 22.7149 20.0897 22.8875 20.1398C23.0601 20.1899 23.2436 20.1878 23.415 20.1337C23.5864 20.0796 23.738 19.976 23.8505 19.8359C23.9631 19.6958 24.0317 19.5255 24.0476 19.3465C24.0635 19.1675 24.0261 18.9878 23.94 18.83C23.8879 18.7207 23.8143 18.6231 23.7236 18.5429C23.6329 18.4628 23.527 18.4017 23.4122 18.3634C23.2974 18.3252 23.176 18.3104 23.0553 18.3202C22.9347 18.3299 22.8172 18.3638 22.71 18.42L22.7 18.47ZM23.46 21.7C23.3622 21.7532 23.276 21.8254 23.2064 21.9123C23.1368 21.9991 23.0851 22.0989 23.0544 22.2059C23.0237 22.313 23.0146 22.425 23.0276 22.5356C23.0405 22.6461 23.0754 22.753 23.13 22.85C23.2109 22.9977 23.334 23.1181 23.4834 23.1958C23.6329 23.2734 23.8021 23.305 23.9695 23.2863C24.1369 23.2677 24.295 23.1997 24.4238 23.091C24.5525 22.9824 24.646 22.8379 24.6925 22.676C24.7389 22.5141 24.7362 22.342 24.6847 22.1816C24.6332 22.0212 24.5352 21.8798 24.4031 21.7752C24.2711 21.6706 24.1109 21.6076 23.943 21.5942C23.7751 21.5808 23.607 21.6177 23.46 21.7ZM23.65 24.91C23.4683 25.0108 23.3341 25.1796 23.2769 25.3793C23.2197 25.579 23.2442 25.7933 23.345 25.975C23.4458 26.1567 23.6146 26.2909 23.8143 26.3481C24.0141 26.4053 24.2283 26.3808 24.41 26.28C24.5917 26.1792 24.7259 26.0104 24.7831 25.8107C24.8403 25.6109 24.8158 25.3967 24.715 25.215C24.6142 25.0333 24.4454 24.8991 24.2457 24.8419C24.0459 24.7847 23.8317 24.8092 23.65 24.91V24.91ZM22.17 27.63C22.0843 27.6756 22.0089 27.7384 21.9485 27.8143C21.888 27.8903 21.8437 27.9778 21.8184 28.0715C21.7931 28.1652 21.7873 28.2631 21.8013 28.3592C21.8154 28.4553 21.8489 28.5474 21.9 28.63C21.9952 28.7872 22.1477 28.9014 22.3253 28.9485C22.503 28.9957 22.692 28.9721 22.8526 28.8827C23.0132 28.7933 23.1329 28.6451 23.1865 28.4693C23.2401 28.2935 23.2234 28.1038 23.14 27.94C23.1022 27.852 23.047 27.7725 22.9778 27.7063C22.9085 27.6402 22.8265 27.5888 22.7368 27.5551C22.6471 27.5215 22.5516 27.5064 22.4559 27.5106C22.3602 27.5149 22.2663 27.5385 22.18 27.58L22.17 27.63ZM19.08 27.54C18.9308 27.6241 18.8208 27.7638 18.774 27.9286C18.7272 28.0934 18.7473 28.27 18.83 28.42C18.8925 28.5294 18.986 28.6178 19.0986 28.6743C19.2112 28.7309 19.338 28.7529 19.463 28.7376C19.5881 28.7224 19.7059 28.6705 19.8016 28.5886C19.8974 28.5067 19.9668 28.3984 20.0012 28.2772C20.0357 28.156 20.0336 28.0274 19.9952 27.9074C19.9568 27.7874 19.8839 27.6813 19.7855 27.6026C19.6871 27.5239 19.5677 27.476 19.4422 27.4648C19.3167 27.4537 19.1907 27.4798 19.08 27.54ZM16.66 25.87C16.5932 25.9056 16.5342 25.9542 16.4863 26.0128C16.4385 26.0715 16.4028 26.1391 16.3814 26.2118C16.36 26.2844 16.3533 26.3605 16.3616 26.4358C16.37 26.511 16.3932 26.5838 16.43 26.65C16.4592 26.7285 16.505 26.7997 16.5643 26.8588C16.6236 26.9179 16.695 26.9635 16.7736 26.9924C16.8521 27.0213 16.9361 27.0328 17.0195 27.0262C17.103 27.0196 17.184 26.995 17.2571 26.9541C17.3301 26.9132 17.3935 26.8569 17.4427 26.7892C17.492 26.7215 17.526 26.6439 17.5424 26.5618C17.5589 26.4797 17.5573 26.395 17.5379 26.3136C17.5185 26.2321 17.4817 26.1559 17.43 26.09C17.3631 25.9552 17.2464 25.8516 17.1046 25.8013C16.9628 25.7509 16.807 25.7576 16.67 25.82L16.66 25.87ZM14.28 23.57C14.1913 23.6184 14.119 23.692 14.0722 23.7816C14.0254 23.8711 14.0063 23.9726 14.0172 24.073C14.0282 24.1734 14.0687 24.2684 14.1337 24.3457C14.1987 24.4231 14.2852 24.4794 14.3822 24.5076C14.4793 24.5357 14.5825 24.5344 14.6788 24.5037C14.7751 24.4731 14.8601 24.4146 14.9231 24.3356C14.986 24.2565 15.0241 24.1606 15.0325 24.0599C15.0408 23.9592 15.0191 23.8583 14.97 23.77C14.942 23.7087 14.9022 23.6536 14.8527 23.6078C14.8033 23.562 14.7453 23.5265 14.6821 23.5033C14.6189 23.48 14.5517 23.4695 14.4844 23.4724C14.4171 23.4753 14.351 23.4914 14.29 23.52L14.28 23.57ZM12.07 20.79C12.0184 20.8171 11.9728 20.8545 11.936 20.8998C11.8992 20.9451 11.8721 20.9974 11.8562 21.0535C11.8403 21.1096 11.836 21.1684 11.8435 21.2262C11.851 21.2841 11.8703 21.3398 11.9 21.39C11.9272 21.4403 11.9641 21.4847 12.0086 21.5205C12.0531 21.5564 12.1044 21.583 12.1593 21.5989C12.2142 21.6147 12.2718 21.6194 12.3286 21.6127C12.3854 21.6061 12.4402 21.5881 12.49 21.56C12.5456 21.5353 12.5954 21.4994 12.6364 21.4545C12.6773 21.4096 12.7086 21.3567 12.7281 21.2991C12.7476 21.2415 12.755 21.1805 12.7497 21.1199C12.7445 21.0594 12.7267 21.0006 12.6976 20.9472C12.6685 20.8938 12.6287 20.8471 12.5806 20.8099C12.5325 20.7727 12.4772 20.7458 12.4183 20.7311C12.3593 20.7163 12.2979 20.7139 12.238 20.7241C12.178 20.7342 12.1208 20.7566 12.07 20.79ZM10.36 13.16C10.2816 13.3374 10.2565 13.5337 10.2876 13.7251C10.3188 13.9165 10.405 14.0947 10.5356 14.238C10.6663 14.3813 10.8358 14.4836 11.0235 14.5323C11.2112 14.5809 11.409 14.574 11.5929 14.5123C11.7767 14.4506 11.9387 14.3367 12.059 14.1846C12.1793 14.0325 12.2527 13.8487 12.2704 13.6556C12.2882 13.4625 12.2493 13.2684 12.1587 13.097C12.0681 12.9255 11.9296 12.7841 11.76 12.69C11.642 12.6226 11.5115 12.5799 11.3765 12.5646C11.2415 12.5493 11.1047 12.5617 10.9747 12.601C10.8446 12.6403 10.7239 12.7057 10.6199 12.7932C10.516 12.8807 10.4309 12.9885 10.37 13.11L10.36 13.16ZM9.15 15.87C9.06511 15.988 9.00697 16.1231 8.97963 16.2659C8.95229 16.4086 8.95641 16.5557 8.99169 16.6967C9.02698 16.8377 9.09258 16.9693 9.18394 17.0824C9.2753 17.1955 9.39021 17.2873 9.52067 17.3514C9.65113 17.4155 9.794 17.4504 9.93933 17.4537C10.0847 17.457 10.229 17.4285 10.3622 17.3703C10.4954 17.3121 10.6143 17.2256 10.7106 17.1167C10.807 17.0078 10.8784 16.8793 10.92 16.74C11.0286 16.5058 11.0424 16.2386 10.9585 15.9945C10.8747 15.7503 10.6996 15.548 10.47 15.43C10.2359 15.3176 9.96728 15.3007 9.72093 15.3828C9.47458 15.4649 9.26984 15.6396 9.15 15.87ZM8.15 19.18C8.09616 19.291 8.0647 19.4114 8.05743 19.5346C8.05015 19.6577 8.06719 19.781 8.10758 19.8976C8.14798 20.0141 8.21093 20.1216 8.29285 20.2138C8.37476 20.306 8.47404 20.3811 8.585 20.435C8.69597 20.4888 8.81646 20.5203 8.93958 20.5276C9.0627 20.5348 9.18606 20.5178 9.30259 20.4774C9.41913 20.437 9.52657 20.3741 9.61878 20.2921C9.71099 20.2102 9.78616 20.111 9.84 20C9.94742 19.7825 9.96404 19.5313 9.88621 19.3015C9.80838 19.0718 9.64248 18.8824 9.425 18.775C9.20753 18.6676 8.95629 18.651 8.72655 18.7288C8.49682 18.8066 8.30742 18.9725 8.2 19.19L8.15 19.18ZM7.64 22.41C7.54271 22.6132 7.52907 22.8465 7.602 23.0597C7.67493 23.2729 7.82862 23.4489 8.03 23.55C8.23177 23.6468 8.46359 23.6602 8.67514 23.5872C8.8867 23.5142 9.06093 23.3607 9.16 23.16C9.21624 23.0626 9.25234 22.9549 9.26617 22.8432C9.27999 22.7316 9.27125 22.6183 9.24048 22.5102C9.2097 22.402 9.15751 22.3011 9.087 22.2134C9.01649 22.1258 8.92909 22.0532 8.83 22C8.72838 21.9511 8.61806 21.923 8.50546 21.9172C8.39286 21.9114 8.28024 21.9281 8.17414 21.9663C8.06805 22.0044 7.97061 22.0633 7.88749 22.1395C7.80437 22.2157 7.73724 22.3076 7.69 22.41H7.64ZM7.7 25.61C7.63325 25.7486 7.60898 25.9039 7.63024 26.0562C7.65151 26.2086 7.71736 26.3513 7.81951 26.4663C7.92167 26.5814 8.05557 26.6636 8.20436 26.7028C8.35315 26.7419 8.51019 26.7362 8.65573 26.6863C8.80126 26.6364 8.92879 26.5445 9.02227 26.4223C9.11575 26.3002 9.171 26.153 9.18108 25.9995C9.19116 25.846 9.15561 25.6929 9.0789 25.5596C9.0022 25.4262 8.88777 25.3185 8.75 25.25C8.56868 25.1725 8.36473 25.1665 8.1792 25.2333C7.99366 25.3001 7.84031 25.4347 7.75 25.61H7.7ZM9.41 28.21C9.36864 28.294 9.34423 28.3854 9.33817 28.4789C9.33212 28.5724 9.34454 28.6661 9.37472 28.7548C9.40489 28.8435 9.45225 28.9253 9.51406 28.9957C9.57588 29.0661 9.65096 29.1236 9.735 29.165C9.81905 29.2064 9.91042 29.2308 10.0039 29.2368C10.0974 29.2429 10.1911 29.2305 10.2798 29.2003C10.3685 29.1701 10.4504 29.1227 10.5207 29.0609C10.5911 28.9991 10.6486 28.924 10.69 28.84C10.7735 28.6703 10.7862 28.4743 10.7253 28.2952C10.6643 28.1161 10.5347 27.9685 10.365 27.885C10.1953 27.8014 9.99929 27.7888 9.82019 27.8497C9.6411 27.9107 9.49355 28.0402 9.41 28.21V28.21ZM12.59 27.94C12.5523 28.0155 12.53 28.0976 12.5242 28.1818C12.5184 28.2659 12.5292 28.3504 12.5562 28.4303C12.5831 28.5102 12.6256 28.584 12.6812 28.6475C12.7368 28.7109 12.8043 28.7627 12.88 28.8C13.0341 28.8726 13.2105 28.8819 13.3713 28.8258C13.5322 28.7697 13.6646 28.6527 13.74 28.5C13.7777 28.4245 13.8 28.3424 13.8058 28.2582C13.8116 28.1741 13.8008 28.0896 13.7738 28.0097C13.7469 27.9298 13.7044 27.856 13.6488 27.7925C13.5932 27.7291 13.5257 27.6772 13.45 27.64C13.3017 27.5821 13.1373 27.5807 12.988 27.636C12.8387 27.6913 12.7148 27.7995 12.64 27.94H12.59ZM15 26.07C14.951 26.1711 14.9329 26.2844 14.9481 26.3957C14.9633 26.507 15.011 26.6113 15.0853 26.6956C15.1596 26.7799 15.2571 26.8403 15.3656 26.8693C15.4741 26.8984 15.5888 26.8947 15.6952 26.8587C15.8017 26.8228 15.8951 26.7562 15.9638 26.6673C16.0325 26.5785 16.0734 26.4713 16.0814 26.3592C16.0894 26.2472 16.0641 26.1353 16.0087 26.0375C15.9533 25.9398 15.8703 25.8607 15.77 25.81C15.7025 25.7759 15.6289 25.7555 15.5534 25.7501C15.478 25.7448 15.4022 25.7545 15.3305 25.7787C15.2589 25.8029 15.1927 25.8411 15.136 25.8911C15.0792 25.9411 15.033 26.0019 15 26.07V26.07ZM17.4 23.67C17.341 23.7908 17.332 23.93 17.3751 24.0573C17.4182 24.1846 17.5098 24.2898 17.63 24.35C17.7523 24.4095 17.8929 24.4187 18.0219 24.3757C18.1509 24.3327 18.2579 24.2409 18.32 24.12C18.3783 23.998 18.3858 23.8578 18.3408 23.7303C18.2958 23.6028 18.202 23.4984 18.08 23.44C18.0209 23.411 17.9567 23.3939 17.891 23.3898C17.8253 23.3856 17.7595 23.3945 17.6972 23.4159C17.635 23.4372 17.5776 23.4707 17.5283 23.5143C17.479 23.5579 17.4388 23.6108 17.41 23.67H17.4ZM19.49 20.93C19.4415 21.0363 19.4363 21.1574 19.4755 21.2675C19.5147 21.3776 19.5952 21.4682 19.7 21.52C19.7511 21.5455 19.8068 21.5605 19.8638 21.5642C19.9208 21.5679 19.978 21.5602 20.0319 21.5416C20.0859 21.523 20.1357 21.4938 20.1783 21.4558C20.2209 21.4177 20.2554 21.3716 20.28 21.32C20.3317 21.2152 20.3397 21.0942 20.3022 20.9836C20.2647 20.8729 20.1848 20.7817 20.08 20.73C19.9752 20.6783 19.8542 20.6703 19.7436 20.7078C19.6329 20.7453 19.5417 20.8252 19.49 20.93ZM20.86 18.23C20.8364 18.2778 20.8225 18.3299 20.8193 18.3831C20.8161 18.4363 20.8236 18.4897 20.8413 18.54C20.859 18.5903 20.8865 18.6366 20.9224 18.6761C20.9582 18.7156 21.0016 18.7475 21.05 18.77C21.1214 18.8032 21.2009 18.8145 21.2788 18.8027C21.3566 18.7909 21.4291 18.7563 21.4874 18.7034C21.5457 18.6505 21.5871 18.5816 21.6064 18.5053C21.6257 18.429 21.622 18.3487 21.5959 18.2745C21.5698 18.2002 21.5223 18.1354 21.4595 18.088C21.3967 18.0405 21.3213 18.0127 21.2427 18.008C21.1642 18.0032 21.086 18.0218 21.0179 18.0612C20.9498 18.1007 20.8949 18.1594 20.86 18.23ZM14.26 8.90999C14.3677 8.96317 14.4848 8.99463 14.6046 9.00256C14.7245 9.01048 14.8447 8.99473 14.9585 8.95619C15.0722 8.91766 15.1773 8.85709 15.2676 8.77796C15.3579 8.69883 15.4318 8.60267 15.485 8.49499C15.5382 8.3873 15.5696 8.2702 15.5776 8.15036C15.5855 8.03052 15.5697 7.91029 15.5312 7.79654C15.4927 7.68279 15.4321 7.57774 15.353 7.48739C15.2738 7.39705 15.1777 7.32317 15.07 7.26999C14.8525 7.16258 14.6013 7.14595 14.3716 7.22378C14.1418 7.30161 13.9524 7.46751 13.845 7.68499C13.7376 7.90247 13.721 8.15371 13.7988 8.38344C13.8766 8.61317 14.0425 8.80258 14.26 8.90999V8.90999ZM16.48 6.43999C16.6311 6.51459 16.801 6.54259 16.968 6.52044C17.1351 6.49829 17.2918 6.42699 17.4182 6.31558C17.5447 6.20418 17.6351 6.05771 17.6781 5.89478C17.7212 5.73184 17.7148 5.5598 17.6598 5.40051C17.6048 5.24121 17.5037 5.10185 17.3694 5.00014C17.235 4.89842 17.0735 4.83893 16.9052 4.82923C16.737 4.81953 16.5697 4.86005 16.4245 4.94565C16.2794 5.03125 16.1629 5.15807 16.09 5.30999C16.0407 5.40966 16.0117 5.51813 16.0046 5.62911C15.9976 5.74009 16.0126 5.85136 16.0489 5.95648C16.0852 6.0616 16.142 6.15847 16.216 6.24147C16.29 6.32447 16.3797 6.39194 16.48 6.43999ZM19.01 4.43999C19.1957 4.53149 19.4101 4.54549 19.606 4.47892C19.802 4.41234 19.9635 4.27064 20.055 4.08499C20.1465 3.89934 20.1605 3.68494 20.0939 3.48897C20.0274 3.29299 19.8857 3.13149 19.7 3.03999C19.513 2.94716 19.2968 2.93242 19.099 2.99899C18.9011 3.06557 18.7378 3.20801 18.645 3.39499C18.5522 3.58197 18.5374 3.79816 18.604 3.99601C18.6706 4.19386 18.813 4.35716 19 4.44999L19.01 4.43999ZM22.09 4.09999C22.2529 4.17184 22.4369 4.17985 22.6055 4.12243C22.774 4.06501 22.9148 3.94636 23 3.78999C23.046 3.70307 23.074 3.60774 23.0823 3.50974C23.0905 3.41174 23.0789 3.31308 23.0481 3.21968C23.0172 3.12628 22.9679 3.04008 22.9029 2.96624C22.8379 2.8924 22.7587 2.83245 22.67 2.78999C22.4999 2.71015 22.3053 2.69998 22.1278 2.76164C21.9503 2.82329 21.804 2.9519 21.72 3.11999C21.6738 3.20834 21.6467 3.30543 21.6405 3.40494C21.6344 3.50445 21.6492 3.60415 21.6841 3.69754C21.719 3.79094 21.7732 3.87593 21.8431 3.94699C21.9131 4.01806 21.9972 4.07359 22.09 4.10999V4.09999ZM23.78 6.69999C23.9325 6.77558 24.1088 6.78749 24.2701 6.7331C24.4313 6.67871 24.5644 6.56249 24.64 6.40999C24.7156 6.25749 24.7275 6.08121 24.6731 5.91993C24.6187 5.75865 24.5025 5.62558 24.35 5.54999C24.1975 5.4744 24.0212 5.46249 23.8599 5.51688C23.6987 5.57126 23.5656 5.68749 23.49 5.83999C23.4144 5.99249 23.4025 6.16877 23.4569 6.33005C23.5113 6.49133 23.6275 6.6244 23.78 6.69999V6.69999ZM23.85 9.80999C23.9505 9.85461 24.0618 9.8692 24.1704 9.85201C24.279 9.83482 24.3803 9.78657 24.4622 9.71309C24.544 9.63961 24.6028 9.54403 24.6315 9.43787C24.6602 9.33172 24.6576 9.21952 24.624 9.11481C24.5904 9.0101 24.5272 8.91735 24.4421 8.84774C24.357 8.77814 24.2535 8.73464 24.1442 8.7225C24.0349 8.71037 23.9244 8.7301 23.8261 8.77934C23.7278 8.82858 23.6458 8.9052 23.59 8.99999C23.5508 9.06959 23.5265 9.14652 23.5184 9.22598C23.5103 9.30544 23.5188 9.3857 23.5432 9.46174C23.5676 9.53779 23.6075 9.60797 23.6602 9.66789C23.713 9.72782 23.7776 9.77619 23.85 9.80999V9.80999ZM23.26 12.91C23.3785 12.9549 23.5094 12.954 23.6273 12.9077C23.7452 12.8613 23.8416 12.7727 23.8978 12.6591C23.954 12.5456 23.9658 12.4151 23.9311 12.2933C23.8964 12.1715 23.8176 12.0669 23.71 12C23.6496 11.9624 23.582 11.9379 23.5115 11.928C23.4411 11.9181 23.3693 11.9231 23.3009 11.9426C23.2325 11.9621 23.1689 11.9957 23.1142 12.0412C23.0595 12.0867 23.015 12.1432 22.9835 12.207C22.9519 12.2708 22.9341 12.3404 22.9311 12.4115C22.9281 12.4826 22.94 12.5535 22.966 12.6197C22.9921 12.6859 23.0317 12.746 23.0823 12.796C23.1329 12.8459 23.1935 12.8848 23.26 12.91V12.91Z" fill="black"/>
</svg>
