<svg width="32" height="32" viewBox="0 0 32 32" fill="none" xmlns="http://www.w3.org/2000/svg">
<path d="M16 13.42C15.4873 13.4081 14.9828 13.5492 14.5507 13.8253C14.1186 14.1015 13.7786 14.5001 13.574 14.9704C13.3695 15.4406 13.3098 15.9612 13.4025 16.4655C13.4952 16.9699 13.736 17.4352 14.0943 17.802C14.4526 18.1689 14.9122 18.4206 15.4142 18.5252C15.9162 18.6297 16.438 18.5822 16.913 18.3888C17.3879 18.1954 17.7944 17.8649 18.0807 17.4394C18.3669 17.0139 18.5199 16.5128 18.52 16C18.5176 15.3268 18.2533 14.6809 17.7828 14.1993C17.3124 13.7177 16.673 13.4382 16 13.42V13.42ZM22.56 4.74C22.4206 4.67148 22.3024 4.56651 22.2179 4.43622C22.1334 4.30593 22.0857 4.15519 22.08 4C22.0809 3.85931 22.1188 3.72134 22.19 3.6C22.2627 3.47006 22.3685 3.36178 22.4968 3.28622C22.6251 3.21066 22.7711 3.17055 22.92 3.17C23.038 3.17027 23.1543 3.19764 23.26 3.25V3.25C23.3874 3.3247 23.4931 3.43132 23.5668 3.55932C23.6404 3.68733 23.6794 3.83232 23.68 3.98C23.6803 4.12849 23.6387 4.27406 23.56 4.4V4.4C23.4869 4.5266 23.382 4.63194 23.2558 4.7056C23.1295 4.77926 22.9862 4.81869 22.84 4.82C22.722 4.81973 22.6057 4.79236 22.5 4.74H22.55H22.56ZM19.13 4.51C19.0602 4.40129 19.0157 4.27824 19 4.15C18.9993 3.99203 19.0442 3.83722 19.1293 3.70417C19.2145 3.57112 19.3363 3.46549 19.48 3.4V3.4C19.5865 3.35109 19.7028 3.32715 19.82 3.33C19.9803 3.33027 20.1374 3.37537 20.2735 3.46018C20.4095 3.545 20.5192 3.66617 20.59 3.81V3.81C20.6354 3.9106 20.6593 4.01961 20.66 4.13C20.6591 4.29928 20.607 4.46434 20.5107 4.60353C20.4143 4.74271 20.2781 4.84954 20.12 4.91V4.91C20.0143 4.96236 19.898 4.98973 19.78 4.99V4.99C19.6305 4.97739 19.4869 4.92541 19.364 4.83935C19.241 4.75328 19.143 4.6362 19.08 4.5L19.13 4.51ZM16.51 6.44C16.3847 6.28752 16.3142 6.09733 16.31 5.9C16.3079 5.7785 16.3328 5.65805 16.383 5.54736C16.4331 5.43668 16.5073 5.33852 16.6 5.26V5.26C16.7512 5.13253 16.9422 5.0618 17.14 5.06C17.2605 5.06127 17.3793 5.08877 17.4881 5.14058C17.5969 5.19238 17.6931 5.26726 17.77 5.36V5.36C17.9099 5.50598 17.9917 5.69799 18 5.9C18.0001 6.02073 17.9732 6.13995 17.9213 6.24896C17.8694 6.35796 17.7938 6.45398 17.7 6.53V6.53C17.5488 6.65746 17.3578 6.72819 17.16 6.73V6.73C17.0402 6.73062 16.9217 6.70498 16.8128 6.65488C16.704 6.60478 16.6074 6.53143 16.53 6.44H16.51ZM23.43 6.8V6.72C23.4288 6.51461 23.5038 6.31606 23.6405 6.16276C23.7771 6.00945 23.9658 5.91226 24.17 5.89H24.26C24.4665 5.88853 24.6663 5.96317 24.8212 6.09967C24.9762 6.23617 25.0754 6.42497 25.1 6.63V6.63C25.1049 6.6598 25.1049 6.69019 25.1 6.72C25.103 6.92815 25.0257 7.12946 24.8842 7.28215C24.7427 7.43483 24.5478 7.52717 24.34 7.54H24.26C24.055 7.54176 23.8565 7.46852 23.7018 7.33406C23.5471 7.1996 23.4468 7.01321 23.42 6.81L23.43 6.8ZM14.33 8.8C14.2257 8.72032 14.1415 8.6173 14.0842 8.49921C14.0269 8.38112 13.9981 8.25124 14 8.12C13.9991 7.9199 14.0741 7.7269 14.21 7.58V7.58C14.2879 7.48986 14.3848 7.41802 14.4937 7.36962C14.6026 7.32123 14.7209 7.29745 14.84 7.3C15.0447 7.29707 15.2435 7.36808 15.4 7.5V7.5C15.4884 7.58154 15.5589 7.6805 15.6071 7.79066C15.6553 7.90081 15.6801 8.01976 15.68 8.14C15.6782 8.33778 15.6075 8.52875 15.48 8.68C15.4 8.7676 15.3027 8.8377 15.1943 8.88589C15.0859 8.93408 14.9686 8.95931 14.85 8.96C14.7506 8.96255 14.6516 8.9453 14.5589 8.90925C14.4662 8.8732 14.3816 8.81906 14.31 8.75V8.75L14.33 8.8ZM23.93 10.74C23.7367 10.7029 23.5622 10.5999 23.4364 10.4486C23.3105 10.2972 23.2411 10.1068 23.24 9.91C23.24 9.91 23.24 9.81 23.24 9.76C23.26 9.55136 23.3572 9.35772 23.5126 9.2171C23.668 9.07648 23.8704 8.99904 24.08 9C24.153 8.9896 24.227 8.9896 24.3 9C24.4915 9.03519 24.6646 9.13661 24.7889 9.28651C24.9132 9.43642 24.9809 9.62526 24.98 9.82C24.9937 9.879 25.0004 9.93942 25 10C24.9651 10.1925 24.864 10.3668 24.7143 10.4928C24.5646 10.6187 24.3756 10.6885 24.18 10.69H23.96L23.93 10.74ZM12.45 11.35C12.342 11.2724 12.254 11.1704 12.1931 11.0521C12.1323 10.9339 12.1004 10.803 12.1 10.67C12.102 10.4957 12.1541 10.3256 12.25 10.18V10.18C12.3276 10.072 12.4296 9.98397 12.5479 9.92312C12.6661 9.86227 12.797 9.83036 12.93 9.83C13.1063 9.82927 13.2781 9.88538 13.42 9.99C13.5263 10.0692 13.6131 10.1716 13.6737 10.2895C13.7344 10.4073 13.7673 10.5375 13.77 10.67C13.768 10.8443 13.7159 11.0144 13.62 11.16V11.16C13.5447 11.271 13.4434 11.3619 13.3248 11.4247C13.2063 11.4875 13.0741 11.5202 12.94 11.52V11.52C12.7657 11.518 12.5956 11.4659 12.45 11.37V11.35ZM23.06 13.73C22.8939 13.6752 22.7493 13.5693 22.6469 13.4274C22.5445 13.2855 22.4896 13.1149 22.49 12.94C22.4921 12.8512 22.509 12.7633 22.54 12.68V12.68C22.5961 12.5147 22.7024 12.3709 22.8439 12.2688C22.9855 12.1666 23.1554 12.1111 23.33 12.11C23.4189 12.1111 23.507 12.128 23.59 12.16V12.16C23.7551 12.2152 23.8984 12.3215 23.9991 12.4635C24.0997 12.6055 24.1526 12.7759 24.15 12.95C24.1597 13.0364 24.1597 13.1236 24.15 13.21V13.21C24.0952 13.3761 23.9893 13.5207 23.8474 13.6231C23.7055 13.7255 23.535 13.7804 23.36 13.78H23.24C23.1838 13.7897 23.1263 13.7897 23.07 13.78L23.06 13.73ZM10.84 14C10.7109 13.929 10.603 13.8248 10.5274 13.6983C10.4518 13.5718 10.4113 13.4274 10.41 13.28C10.4112 13.1406 10.4455 13.0035 10.51 12.88V12.88C10.5831 12.7534 10.688 12.648 10.8142 12.5744C10.9405 12.5007 11.0838 12.4613 11.23 12.46C11.378 12.4632 11.5227 12.5045 11.65 12.58V12.58C11.7772 12.6499 11.8833 12.7526 11.9572 12.8775C12.031 13.0024 12.07 13.1449 12.07 13.29C12.0672 13.4412 12.0259 13.5892 11.95 13.72V13.72C11.8802 13.8494 11.776 13.9571 11.649 14.0312C11.522 14.1053 11.377 14.1429 11.23 14.14H11.18C11.0511 14.141 10.924 14.1101 10.81 14.05V14.05L10.84 14ZM20.24 19.41C20.112 19.3385 20.0056 19.234 19.9317 19.1073C19.8578 18.9807 19.8193 18.8366 19.82 18.69C19.818 18.5413 19.8598 18.3952 19.94 18.27V18.27C20.0127 18.1401 20.1185 18.0318 20.2468 17.9562C20.3751 17.8807 20.5211 17.8406 20.67 17.84C20.817 17.841 20.9614 17.8788 21.09 17.95V17.95C21.2188 18.0231 21.3256 18.1294 21.3995 18.2578C21.4733 18.3861 21.5115 18.5319 21.51 18.68C21.5104 18.824 21.4725 18.9655 21.4 19.09V19.09C21.3253 19.2174 21.2187 19.3231 21.0907 19.3968C20.9627 19.4704 20.8177 19.5094 20.67 19.51H20.59C20.4728 19.5128 20.3565 19.4889 20.25 19.44V19.44L20.24 19.41ZM8.33 19.84C8.16575 19.7804 8.02386 19.6716 7.92365 19.5284C7.82345 19.3853 7.7698 19.2147 7.77 19.04C7.75563 18.9573 7.75563 18.8727 7.77 18.79V18.79C7.82738 18.6255 7.93394 18.4826 8.07524 18.3806C8.21655 18.2786 8.38577 18.2226 8.56 18.22C8.64895 18.2211 8.73699 18.238 8.82 18.27C8.98428 18.3265 9.12668 18.4331 9.22715 18.5749C9.32762 18.7166 9.38108 18.8863 9.38 19.06C9.39514 19.146 9.39514 19.234 9.38 19.32V19.32C9.32574 19.4845 9.22135 19.628 9.08148 19.7302C8.9416 19.8324 8.77324 19.8883 8.6 19.89H8.52H8.32L8.33 19.84ZM7.65 22.97C7.46056 22.928 7.2918 22.821 7.17305 22.6676C7.0543 22.5141 6.99307 22.3239 7 22.13C6.99638 22.0867 6.99638 22.0433 7 22V22C7.03488 21.8101 7.13484 21.6384 7.28267 21.5143C7.43051 21.3902 7.61698 21.3215 7.81 21.32H7.96C8.15703 21.3488 8.33714 21.4474 8.46748 21.598C8.59782 21.7485 8.66969 21.9409 8.67 22.14C8.67497 22.1865 8.67497 22.2335 8.67 22.28C8.63691 22.4734 8.5364 22.6488 8.38629 22.7751C8.23618 22.9014 8.04618 22.9704 7.85 22.97H7.65V22.97ZM16.43 24.54C16.337 24.4611 16.2621 24.3631 16.2103 24.2527C16.1586 24.1422 16.1312 24.022 16.13 23.9C16.1273 23.6657 16.2172 23.4397 16.38 23.2712C16.5429 23.1027 16.7657 23.0052 17 23C17.2058 23.0007 17.4045 23.0753 17.56 23.21V23.21C17.6464 23.2889 17.7158 23.3845 17.7639 23.4911C17.8121 23.5977 17.8379 23.713 17.84 23.83C17.8411 24.0361 17.7663 24.2354 17.63 24.39V24.39C17.554 24.4799 17.459 24.5517 17.3517 24.6002C17.2444 24.6486 17.1277 24.6725 17.01 24.67V24.67C16.8145 24.6721 16.6254 24.6007 16.48 24.47V24.47L16.43 24.54ZM6.8 25.41V25.32C6.80097 25.1179 6.87566 24.923 7.01006 24.7721C7.14446 24.6211 7.32934 24.5243 7.53 24.5H7.63C7.8343 24.499 8.03161 24.5743 8.18328 24.7112C8.33496 24.8481 8.43007 25.0367 8.45 25.24V25.24C8.4562 25.2697 8.4562 25.3003 8.45 25.33C8.44904 25.5321 8.37435 25.727 8.23994 25.8779C8.10554 26.0289 7.92066 26.1256 7.72 26.15H7.6C7.40134 26.1443 7.21134 26.0674 7.06454 25.9335C6.91773 25.7995 6.82386 25.6173 6.8 25.42V25.41ZM14.11 26.66C13.9825 26.5087 13.9118 26.3178 13.91 26.12C13.9113 25.9995 13.9388 25.8807 13.9906 25.7719C14.0424 25.6631 14.1173 25.5669 14.21 25.49C14.3589 25.3574 14.5506 25.2829 14.75 25.28C14.8707 25.2799 14.99 25.3068 15.099 25.3587C15.208 25.4106 15.304 25.4862 15.38 25.58V25.58C15.5237 25.7488 15.5949 25.9675 15.5781 26.1885C15.5612 26.4096 15.4577 26.615 15.29 26.76V26.76C15.1354 26.8815 14.9465 26.9515 14.75 26.96V26.96C14.6278 26.9602 14.5071 26.9334 14.3965 26.8815C14.2858 26.8297 14.188 26.754 14.11 26.66V26.66ZM11.34 28.19C11.2946 28.0824 11.2708 27.9668 11.27 27.85C11.2697 27.6895 11.317 27.5326 11.406 27.399C11.4951 27.2655 11.6217 27.1614 11.77 27.1V27.1C11.8661 27.0848 11.9639 27.0848 12.06 27.1C12.2169 27.0984 12.3709 27.1418 12.5039 27.2251C12.6368 27.3084 12.743 27.4281 12.81 27.57V27.57C12.8542 27.678 12.878 27.7933 12.88 27.91C12.8779 28.0725 12.8298 28.231 12.7413 28.3673C12.6529 28.5036 12.5276 28.612 12.38 28.68C12.2755 28.7244 12.1635 28.7482 12.05 28.75C11.8996 28.7406 11.7546 28.6898 11.6311 28.6034C11.5076 28.5169 11.4104 28.3981 11.35 28.26V28.26L11.34 28.19ZM8.64 28.73C8.50793 28.6599 8.39785 28.5545 8.32195 28.4257C8.24605 28.2969 8.20731 28.1495 8.21 28C8.21449 27.8522 8.25573 27.7079 8.33 27.58V27.58C8.39982 27.4506 8.50396 27.3429 8.63098 27.2688C8.758 27.1947 8.90298 27.1571 9.05 27.16C9.19716 27.1597 9.34188 27.1976 9.47 27.27V27.27C9.59993 27.3427 9.70822 27.4485 9.78378 27.5768C9.85933 27.7051 9.89944 27.8511 9.9 28C9.90044 28.144 9.86247 28.2855 9.79 28.41V28.41C9.71816 28.5406 9.61245 28.6495 9.484 28.7252C9.35555 28.8008 9.20908 28.8405 9.06 28.84V28.84C8.91588 28.8324 8.77551 28.7913 8.65 28.72L8.64 28.73ZM8.3 4.43C8.22079 4.30104 8.18244 4.15115 8.19 4C8.19033 3.84864 8.23254 3.70033 8.31197 3.57148C8.39139 3.44264 8.50493 3.33829 8.64 3.27V3.27C8.76834 3.18841 8.91796 3.14666 9.07 3.15C9.21408 3.15018 9.35574 3.18699 9.48169 3.25696C9.60763 3.32693 9.71373 3.42777 9.79 3.55V3.55C9.89883 3.74256 9.92731 3.97027 9.86927 4.1837C9.81123 4.39713 9.67135 4.57906 9.48 4.69C9.35554 4.76246 9.21402 4.80043 9.07 4.8H9C8.85588 4.801 8.7141 4.76353 8.5893 4.69146C8.46449 4.61939 8.36117 4.51532 8.29 4.39L8.3 4.43ZM11.77 4.9C11.6209 4.83401 11.4943 4.72608 11.4055 4.58935C11.3167 4.45262 11.2696 4.29302 11.27 4.13C11.2682 4.01291 11.2921 3.89684 11.34 3.79V3.79C11.407 3.64168 11.5152 3.51573 11.6517 3.4271C11.7882 3.33846 11.9473 3.29088 12.11 3.29C12.2265 3.29333 12.3416 3.31702 12.45 3.36C12.5938 3.42549 12.7155 3.53112 12.8007 3.66417C12.8858 3.79722 12.9307 3.95203 12.93 4.11C12.9339 4.2468 12.8992 4.38194 12.83 4.5V4.5C12.7664 4.64673 12.6618 4.77198 12.5288 4.86068C12.3957 4.94938 12.2399 4.99776 12.08 5C11.9748 4.97965 11.8735 4.94251 11.78 4.89L11.77 4.9ZM14.2 6.61C14.0346 6.46185 13.9322 6.2561 13.9136 6.03486C13.895 5.81363 13.9617 5.59366 14.1 5.42V5.42C14.178 5.32597 14.2758 5.25032 14.3865 5.19846C14.4971 5.14661 14.6178 5.11981 14.74 5.12C14.9373 5.12422 15.1275 5.19466 15.28 5.32C15.3727 5.39694 15.4476 5.49314 15.4994 5.60194C15.5512 5.71073 15.5787 5.8295 15.58 5.95C15.5809 6.1501 15.5059 6.34309 15.37 6.49V6.49C15.2955 6.58548 15.1998 6.6623 15.0904 6.71437C14.9811 6.76644 14.8611 6.79234 14.74 6.79V6.79C14.6311 6.78088 14.5253 6.74956 14.4289 6.69797C14.3326 6.64637 14.2479 6.57559 14.18 6.49V6.49L14.2 6.61ZM7.57 7.61C7.36488 7.59242 7.17387 7.49833 7.03492 7.34642C6.89597 7.1945 6.81925 6.99587 6.82 6.79V6.69C6.85336 6.49492 6.95534 6.31818 7.10753 6.19166C7.25972 6.06514 7.45211 5.99716 7.65 6H7.74C7.94513 6.0221 8.13494 6.11891 8.27326 6.27199C8.41158 6.42506 8.48873 6.62369 8.49 6.83C8.49 6.83 8.49 6.89 8.49 6.92C8.4679 7.12512 8.37108 7.31494 8.21801 7.45326C8.06493 7.59158 7.86631 7.66873 7.66 7.67H7.57V7.61ZM16.38 8.61C16.2372 8.46273 16.1582 8.26513 16.16 8.06C16.16 7.94029 16.186 7.822 16.236 7.71325C16.2861 7.60451 16.3591 7.50788 16.45 7.43V7.43C16.5315 7.35727 16.6268 7.30156 16.7301 7.26615C16.8335 7.23074 16.9428 7.21633 17.0518 7.22379C17.1608 7.23124 17.2672 7.2604 17.3648 7.30955C17.4624 7.3587 17.5491 7.42685 17.62 7.51V7.51C17.7259 7.6512 17.7822 7.82348 17.78 8C17.7808 8.11354 17.757 8.2259 17.7104 8.32944C17.6638 8.43298 17.5955 8.52526 17.51 8.6V8.6C17.3631 8.73586 17.1701 8.81091 16.97 8.81H16.89C16.6873 8.80864 16.492 8.73405 16.34 8.6V8.6L16.38 8.61ZM7 10.09C6.99471 10.0401 6.99471 9.98986 7 9.94C7.0006 9.74718 7.06752 9.56044 7.18952 9.41113C7.31152 9.26181 7.48117 9.15902 7.67 9.12H7.84C8.02563 9.11962 8.20628 9.18003 8.35435 9.29198C8.50242 9.40394 8.60977 9.56129 8.66 9.74V9.74C8.66537 9.78651 8.66537 9.83348 8.66 9.88C8.65989 10.0714 8.5944 10.2571 8.47437 10.4062C8.35434 10.5553 8.18698 10.659 8 10.7H7.8C7.60639 10.6935 7.42098 10.6202 7.27519 10.4926C7.1294 10.3651 7.03218 10.191 7 10V10V10.09ZM7.84 13.22C7.82408 13.1374 7.82408 13.0526 7.84 12.97C7.84107 12.7982 7.89421 12.6307 7.9924 12.4896C8.09058 12.3486 8.22921 12.2406 8.39 12.18V12.18C8.47257 12.1641 8.55743 12.1641 8.64 12.18C8.81408 12.1774 8.98446 12.2303 9.12649 12.3309C9.26852 12.4316 9.37482 12.5749 9.43 12.74C9.44514 12.826 9.44514 12.914 9.43 13C9.43049 13.1724 9.37664 13.3405 9.27611 13.4805C9.17558 13.6206 9.03348 13.7253 8.87 13.78H8.59C8.42443 13.78 8.26264 13.7305 8.12542 13.6378C7.98821 13.5452 7.88184 13.4136 7.82 13.26L7.84 13.22ZM19.93 13.66C19.8575 13.5355 19.8196 13.394 19.82 13.25C19.8203 13.1048 19.8582 12.9621 19.9301 12.8359C20.0019 12.7097 20.1053 12.6043 20.23 12.53V12.53C20.3571 12.4653 20.4974 12.4311 20.64 12.43C20.7856 12.4294 20.9289 12.4658 21.0566 12.5358C21.1843 12.6058 21.2921 12.707 21.37 12.83V12.83C21.4439 12.9539 21.4819 13.0958 21.48 13.24C21.4807 13.3866 21.4422 13.5307 21.3683 13.6573C21.2944 13.784 21.188 13.8885 21.06 13.96V13.96C20.9493 14.0394 20.8162 14.0815 20.68 14.08V14.08C20.5338 14.0787 20.3905 14.0393 20.2642 13.9656C20.138 13.8919 20.0331 13.7866 19.96 13.66H19.93ZM9 16.25C8.97349 16.1348 8.97349 16.0152 9 15.9C8.998 15.7418 9.04239 15.5864 9.1277 15.4531C9.213 15.3198 9.33548 15.2145 9.48 15.15V15.15C9.59153 15.1059 9.71008 15.0822 9.83 15.08C9.9894 15.0786 10.1458 15.1231 10.2806 15.2082C10.4154 15.2933 10.5228 15.4155 10.59 15.56V15.56C10.6389 15.6665 10.6629 15.7828 10.66 15.9C10.6623 16.0583 10.6193 16.214 10.536 16.3486C10.4527 16.4833 10.3327 16.5913 10.19 16.66C10.0785 16.7041 9.95992 16.7278 9.84 16.73V16.73C9.66678 16.7527 9.4909 16.718 9.33922 16.6314C9.18754 16.5447 9.0684 16.4107 9 16.25ZM21.3 16.41C21.2511 16.2964 21.2272 16.1736 21.23 16.05C21.2308 15.8936 21.2752 15.7406 21.3582 15.6081C21.4412 15.4756 21.5596 15.3689 21.7 15.3V15.3C21.8093 15.2478 21.9289 15.2205 22.05 15.22C22.2103 15.2203 22.3674 15.2654 22.5035 15.3502C22.6395 15.435 22.7492 15.5562 22.82 15.7V15.7C22.8701 15.8097 22.894 15.9295 22.89 16.05C22.8916 16.2069 22.8482 16.3609 22.7649 16.4939C22.6816 16.6268 22.5619 16.733 22.42 16.8V16.8C22.3129 16.8498 22.1978 16.8803 22.08 16.89C21.9212 16.8886 21.7662 16.8417 21.6332 16.7549C21.5003 16.668 21.395 16.5449 21.33 16.4L21.3 16.41ZM10.52 19.12C10.4108 18.9302 10.3811 18.7049 10.4373 18.4932C10.4935 18.2816 10.631 18.1007 10.82 17.99C10.9481 17.9176 11.0928 17.8797 11.24 17.88C11.3863 17.8814 11.53 17.9197 11.6576 17.9914C11.7852 18.0631 11.8926 18.1658 11.97 18.29V18.29C12.0792 18.4798 12.1089 18.7051 12.0527 18.9168C11.9965 19.1284 11.859 19.3093 11.67 19.42C11.5424 19.4937 11.3973 19.5317 11.25 19.53V19.53C11.1042 19.5259 10.9616 19.4865 10.8344 19.4151C10.7073 19.3436 10.5994 19.2424 10.52 19.12V19.12ZM22.52 19.31C22.5087 19.2237 22.5087 19.1363 22.52 19.05C22.5195 18.8776 22.5734 18.7095 22.6739 18.5695C22.7744 18.4294 22.9165 18.3247 23.08 18.27V18.27C23.1592 18.2541 23.2408 18.2541 23.32 18.27C23.4947 18.2698 23.6653 18.3234 23.8084 18.4236C23.9516 18.5239 24.0604 18.6657 24.12 18.83C24.1351 18.916 24.1351 19.004 24.12 19.09C24.1205 19.2624 24.0666 19.4305 23.9661 19.5705C23.8656 19.7106 23.7235 19.8153 23.56 19.87H23.3C23.1264 19.8698 22.9573 19.8145 22.8172 19.7121C22.677 19.6096 22.5729 19.4653 22.52 19.3V19.3V19.31ZM12.3 21.91C12.2044 21.768 12.1522 21.6012 12.15 21.43C12.1504 21.297 12.1823 21.1661 12.2431 21.0479C12.304 20.9296 12.392 20.8276 12.5 20.75V20.75C12.5889 20.6846 12.69 20.6376 12.7973 20.6117C12.9046 20.5858 13.016 20.5816 13.1249 20.5993C13.2339 20.617 13.3382 20.6562 13.4318 20.7147C13.5254 20.7732 13.6064 20.8498 13.67 20.94V20.94C13.7716 21.0753 13.8244 21.2409 13.82 21.41C13.8196 21.543 13.7877 21.6739 13.7269 21.7921C13.666 21.9104 13.578 22.0124 13.47 22.09C13.3357 22.1944 13.1702 22.2508 13 22.25C12.8648 22.2453 12.7329 22.2072 12.616 22.1392C12.4991 22.0711 12.4009 21.9752 12.33 21.86V21.86L12.3 21.91ZM23.3 22.25C23.3 22.25 23.3 22.16 23.3 22.11C23.2996 21.9112 23.3697 21.7187 23.4979 21.5667C23.626 21.4147 23.804 21.3131 24 21.28H24.14C24.3379 21.2772 24.5303 21.3451 24.6825 21.4717C24.8347 21.5982 24.9366 21.7749 24.97 21.97V21.97C24.97 22.02 24.97 22.07 24.97 22.12C24.9685 22.3156 24.8987 22.5046 24.7728 22.6543C24.6468 22.804 24.4725 22.9051 24.28 22.94H24.13C23.936 22.9398 23.7478 22.8733 23.5968 22.7514C23.4458 22.6295 23.3411 22.4596 23.3 22.27V22.27V22.25ZM14.3 24.42C14.176 24.2753 14.1085 24.0906 14.11 23.9C14.1093 23.7874 14.132 23.6759 14.1768 23.5726C14.2215 23.4693 14.2873 23.3764 14.37 23.3C14.522 23.1659 14.7173 23.0914 14.92 23.09C15.0398 23.0894 15.1583 23.115 15.2672 23.1651C15.376 23.2152 15.4726 23.2886 15.55 23.38V23.38C15.6841 23.532 15.7586 23.7273 15.76 23.93C15.7604 24.0474 15.7356 24.1634 15.6873 24.2704C15.639 24.3774 15.5683 24.4727 15.48 24.55C15.3254 24.6863 15.1261 24.7611 14.92 24.76C14.7987 24.7543 14.6801 24.7218 14.5729 24.6647C14.4657 24.6077 14.3725 24.5275 14.3 24.43V24.42ZM24.19 26.05C23.9814 26.0256 23.7889 25.9256 23.6489 25.7691C23.5089 25.6125 23.431 25.41 23.43 25.2V25.13C23.4546 24.925 23.5538 24.7362 23.7088 24.5997C23.8637 24.4632 24.0635 24.3885 24.27 24.39H24.35C24.5587 24.4074 24.7534 24.5022 24.8958 24.6558C25.0383 24.8093 25.1182 25.0106 25.12 25.22C25.12 25.22 25.12 25.28 25.12 25.3C25.0979 25.5051 25.0011 25.6949 24.848 25.8333C24.6949 25.9716 24.4963 26.0487 24.29 26.05H24.19ZM16.64 26.74C16.5452 26.6604 16.4692 26.5609 16.4173 26.4486C16.3654 26.3362 16.339 26.2138 16.34 26.09C16.3414 25.8986 16.4046 25.7127 16.52 25.56V25.56C16.6003 25.4693 16.6987 25.3966 16.809 25.3467C16.9193 25.2967 17.0389 25.2706 17.16 25.27C17.3615 25.2677 17.557 25.3388 17.71 25.47V25.47C17.7946 25.5394 17.8644 25.6251 17.9154 25.722C17.9663 25.8188 17.9974 25.9249 18.0067 26.0339C18.016 26.1429 18.0034 26.2527 17.9696 26.3568C17.9358 26.4609 17.8816 26.5572 17.81 26.64V26.64C17.7291 26.7332 17.6294 26.8082 17.5173 26.86C17.4052 26.9117 17.2834 26.939 17.16 26.94V26.94C16.967 26.9447 16.7801 26.8728 16.64 26.74V26.74ZM19.54 28.6C19.3822 28.5373 19.247 28.4283 19.1524 28.2873C19.0578 28.1462 19.0081 27.9798 19.01 27.81C19.0072 27.6928 19.0311 27.5765 19.08 27.47V27.47C19.1503 27.3315 19.2576 27.2152 19.39 27.1339C19.5224 27.0527 19.6747 27.0098 19.83 27.01C19.933 27.0097 20.035 27.0301 20.13 27.07V27.07C20.3335 27.1639 20.4922 27.3335 20.5725 27.5426C20.6529 27.7518 20.6484 27.9841 20.56 28.19C20.4918 28.3354 20.3847 28.459 20.2506 28.5472C20.1164 28.6355 19.9605 28.6849 19.8 28.69V28.69C19.6897 28.6882 19.581 28.6644 19.48 28.62H19.55L19.54 28.6ZM22.21 28.39C22.1345 28.2627 22.0932 28.118 22.09 27.97C22.0889 27.8247 22.1274 27.6818 22.2014 27.5567C22.2754 27.4316 22.3821 27.329 22.51 27.26C22.6444 27.1841 22.7956 27.1429 22.95 27.14C23.0898 27.1424 23.2267 27.1793 23.3488 27.2473C23.4709 27.3154 23.5744 27.4124 23.65 27.53V27.53C23.7359 27.6606 23.7812 27.8137 23.78 27.97C23.7803 28.1114 23.7435 28.2505 23.6733 28.3733C23.6031 28.4961 23.502 28.5984 23.38 28.67V28.67C23.2626 28.751 23.1226 28.7929 22.98 28.79H22.84C22.7001 28.7895 22.5627 28.7523 22.4416 28.6821C22.3205 28.6119 22.22 28.5112 22.15 28.39H22.21ZM15 10.56C15 10.3389 15.0871 10.1268 15.2425 9.96953C15.3979 9.81229 15.609 9.72263 15.83 9.72H16C16.2175 9.72 16.4261 9.80639 16.5798 9.96017C16.7336 10.1139 16.82 10.3225 16.82 10.54V10.54C16.8201 10.7594 16.7343 10.97 16.5811 11.127C16.4279 11.284 16.2193 11.3748 16 11.38C15.779 11.3774 15.5679 11.2877 15.4125 11.1305C15.2571 10.9732 15.17 10.7611 15.17 10.54V10.54L15 10.56ZM19 11.56C18.7931 11.5402 18.6008 11.4444 18.4605 11.2911C18.3201 11.1378 18.2415 10.9379 18.24 10.73V10.65C18.2644 10.4414 18.3644 10.2489 18.5209 10.1089C18.6775 9.96887 18.88 9.89101 19.09 9.89H19.15C19.3569 9.90979 19.5492 10.0056 19.6895 10.1589C19.8299 10.3122 19.9085 10.5121 19.91 10.72C19.9157 10.7464 19.9157 10.7736 19.91 10.8C19.8948 11.0069 19.8018 11.2004 19.6496 11.3414C19.4974 11.4824 19.2975 11.5606 19.09 11.56H19ZM22 12C21.8104 11.9589 21.6405 11.8542 21.5186 11.7032C21.3967 11.5522 21.3302 11.364 21.33 11.17C21.3251 11.1168 21.3251 11.0632 21.33 11.01V11.01C21.369 10.8212 21.4718 10.6515 21.6211 10.5295C21.7704 10.4075 21.9572 10.3406 22.15 10.34H22.32C22.508 10.3807 22.6766 10.484 22.7983 10.6329C22.92 10.7819 22.9876 10.9677 22.99 11.16C22.9949 11.2132 22.9949 11.2668 22.99 11.32V11.32C22.9492 11.5106 22.8449 11.6818 22.6941 11.8053C22.5432 11.9289 22.3549 11.9975 22.16 12H22ZM8.78 11.33C8.77447 11.2801 8.77447 11.2298 8.78 11.18C8.7792 10.9861 8.84395 10.7976 8.96376 10.6451C9.08357 10.4926 9.2514 10.3851 9.44 10.34V10.34H9.62C9.81282 10.3406 9.99956 10.4075 10.1489 10.5295C10.2982 10.6515 10.401 10.8212 10.44 11.01C10.445 11.0632 10.445 11.1168 10.44 11.17C10.4404 11.3601 10.3763 11.5446 10.2583 11.6936C10.1402 11.8425 9.97513 11.947 9.79 11.99H9.6C9.41218 11.9875 9.23035 11.9236 9.08227 11.808C8.9342 11.6925 8.82804 11.5316 8.78 11.35V11.33ZM25 12.76C24.8376 12.7018 24.6974 12.5945 24.5988 12.4529C24.5002 12.3113 24.4482 12.1425 24.45 11.97C24.4349 11.884 24.4349 11.796 24.45 11.71V11.71C24.5105 11.5519 24.6173 11.4157 24.7565 11.3193C24.8957 11.223 25.0607 11.1709 25.23 11.17C25.316 11.1549 25.404 11.1549 25.49 11.17V11.17C25.6508 11.2306 25.7894 11.3386 25.8876 11.4796C25.9858 11.6207 26.0389 11.7882 26.04 11.96C26.0504 12.0464 26.0504 12.1336 26.04 12.22V12.22C25.978 12.3827 25.8686 12.523 25.726 12.6228C25.5834 12.7227 25.4141 12.7774 25.24 12.78V12.78C25.1544 12.7708 25.0704 12.7507 24.99 12.72L25 12.76ZM5.76 12.29C5.74487 12.204 5.74487 12.116 5.76 12.03C5.76065 11.8633 5.8103 11.7005 5.90275 11.5618C5.99521 11.4231 6.1264 11.3147 6.28 11.25V11.25C6.36296 11.2387 6.44705 11.2387 6.53 11.25C6.70068 11.2503 6.86731 11.302 7.00821 11.3983C7.14911 11.4946 7.25776 11.6311 7.32 11.79V11.79C7.33601 11.8759 7.33601 11.9641 7.32 12.05C7.31986 12.2181 7.26927 12.3823 7.17479 12.5214C7.0803 12.6604 6.94626 12.768 6.79 12.83V12.83C6.71648 12.8605 6.63908 12.8807 6.56 12.89V12.89C6.38732 12.8868 6.2196 12.8316 6.07869 12.7318C5.93779 12.6319 5.83022 12.4919 5.77 12.33L5.76 12.29ZM27.61 14C27.5039 13.9214 27.4177 13.8188 27.3587 13.7007C27.2996 13.5825 27.2692 13.4521 27.27 13.32C27.2692 13.1406 27.3252 12.9656 27.43 12.82V12.82C27.4936 12.7298 27.5746 12.6532 27.6682 12.5947C27.7618 12.5362 27.8662 12.497 27.9751 12.4793C28.0841 12.4616 28.1954 12.4658 28.3027 12.4917C28.41 12.5176 28.5111 12.5646 28.6 12.63V12.63C28.7151 12.7066 28.8092 12.8108 28.8738 12.933C28.9385 13.0553 28.9715 13.1917 28.97 13.33C28.9712 13.5236 28.9039 13.7113 28.78 13.86C28.7003 13.9689 28.5966 14.058 28.477 14.1204C28.3573 14.1828 28.2249 14.2169 28.09 14.22C27.9154 14.2027 27.7491 14.1369 27.61 14.03V14.03V14ZM3.06 13.9C2.94692 13.7582 2.88681 13.5814 2.89 13.4C2.88918 13.2693 2.91961 13.1403 2.97875 13.0238C3.03789 12.9072 3.12404 12.8065 3.23 12.73V12.73C3.37561 12.6252 3.55063 12.5692 3.73 12.57C3.86069 12.5692 3.98969 12.5996 4.10623 12.6587C4.22278 12.7179 4.3235 12.804 4.4 12.91C4.50476 13.0556 4.56076 13.2306 4.56 13.41C4.56039 13.5396 4.53081 13.6675 4.47356 13.7837C4.41631 13.8999 4.33295 14.0013 4.23 14.08V14.08C4.09279 14.1874 3.92425 14.2471 3.75 14.25C3.61859 14.2489 3.48933 14.2165 3.37284 14.1557C3.25636 14.0948 3.156 14.0072 3.08 13.9V13.9H3.06ZM29 16C28.9998 15.7813 29.0838 15.571 29.2347 15.4127C29.3855 15.2544 29.5916 15.1603 29.81 15.15V15.15C30.0276 15.1525 30.2358 15.2394 30.3906 15.3924C30.5454 15.5453 30.6348 15.7524 30.64 15.97C30.6374 16.192 30.5481 16.4041 30.3911 16.5611C30.2341 16.7181 30.022 16.8074 29.8 16.81V16.81C29.5901 16.7978 29.3921 16.7083 29.2444 16.5587C29.0966 16.4091 29.0095 16.21 29 16V16ZM1.33 16C1.33 15.7799 1.41745 15.5688 1.5731 15.4131C1.72876 15.2574 1.93987 15.17 2.16 15.17V15.17C2.38106 15.17 2.59322 15.2571 2.75046 15.4125C2.90771 15.5679 2.99737 15.779 3 16C3.00002 16.2211 2.91289 16.4332 2.75752 16.5905C2.60214 16.7477 2.39105 16.8374 2.17 16.84C2.05932 16.8413 1.94949 16.8205 1.84697 16.7788C1.74445 16.737 1.65131 16.6752 1.57304 16.597C1.49477 16.5187 1.43295 16.4256 1.39121 16.323C1.34947 16.2205 1.32866 16.1107 1.33 16ZM27.43 19.06C27.3252 18.9144 27.2692 18.7394 27.27 18.56C27.2708 18.4296 27.3019 18.3012 27.3609 18.1849C27.4199 18.0686 27.5052 17.9676 27.61 17.89C27.7512 17.7841 27.9235 17.7278 28.1 17.73C28.2316 17.7303 28.3611 17.7623 28.4777 17.8232C28.5944 17.8841 28.6946 17.9722 28.77 18.08V18.08C28.8746 18.2219 28.9307 18.3937 28.93 18.57C28.9317 18.7008 28.9016 18.8301 28.8424 18.9468C28.7832 19.0635 28.6966 19.1641 28.59 19.24V19.24C28.5011 19.3054 28.4 19.3524 28.2927 19.3783C28.1854 19.4042 28.0741 19.4084 27.9651 19.3907C27.8562 19.373 27.7518 19.3338 27.6582 19.2753C27.5646 19.2168 27.4836 19.1402 27.42 19.05L27.43 19.06ZM3.26 19.24C3.15725 19.1634 3.07388 19.0638 3.01657 18.9492C2.95926 18.8346 2.92961 18.7081 2.93 18.58C2.92659 18.4016 2.98687 18.2279 3.1 18.09V18.09C3.17541 17.9822 3.27565 17.8941 3.39227 17.8332C3.50888 17.7723 3.63844 17.7403 3.77 17.74C3.94607 17.7407 4.11747 17.7966 4.26 17.9V17.9C4.38025 17.9752 4.47923 18.0799 4.5475 18.2042C4.61577 18.3285 4.65106 18.4682 4.65 18.61C4.65147 18.8006 4.58399 18.9853 4.46 19.13V19.13C4.38236 19.2355 4.28163 19.3219 4.16552 19.3826C4.0494 19.4432 3.92096 19.4765 3.79 19.48C3.59959 19.4682 3.41923 19.3904 3.28 19.26L3.26 19.24ZM24.52 20.24C24.504 20.1541 24.504 20.0659 24.52 19.98C24.5201 19.8119 24.5707 19.6477 24.6652 19.5086C24.7597 19.3695 24.8937 19.262 25.05 19.2V19.2C25.133 19.1895 25.217 19.1895 25.3 19.2C25.471 19.1989 25.6382 19.25 25.7794 19.3465C25.9206 19.443 26.0289 19.5803 26.09 19.74V19.74C26.1059 19.8226 26.1059 19.9074 26.09 19.99C26.0911 20.161 26.04 20.3282 25.9435 20.4694C25.847 20.6106 25.7097 20.7189 25.55 20.78V20.78C25.4574 20.796 25.3626 20.796 25.27 20.78C25.1074 20.7666 24.9521 20.7066 24.8227 20.6073C24.6932 20.508 24.5951 20.3736 24.54 20.22L24.52 20.24ZM6.3 20.78C6.14026 20.722 6.00249 20.6157 5.90575 20.476C5.80901 20.3363 5.75808 20.1699 5.76 20C5.74471 19.9073 5.74471 19.8127 5.76 19.72C5.81762 19.5592 5.92345 19.4201 6.06304 19.3217C6.20263 19.2232 6.3692 19.1703 6.54 19.17C6.62944 19.1558 6.72056 19.1558 6.81 19.17V19.17C7.01116 19.2487 7.17481 19.4011 7.26768 19.5961C7.36055 19.7911 7.37568 20.0142 7.31 20.22V20.22C7.24641 20.3808 7.13634 20.519 6.99385 20.617C6.85136 20.7149 6.68291 20.7682 6.51 20.77C6.43368 20.7803 6.35632 20.7803 6.28 20.77L6.3 20.78ZM21.43 21C21.4245 20.9435 21.4245 20.8865 21.43 20.83C21.431 20.6384 21.4983 20.4531 21.6204 20.3054C21.7426 20.1578 21.912 20.0569 22.1 20.02V20.02H22.26C22.451 20.0219 22.6357 20.0881 22.7845 20.2078C22.9332 20.3275 23.0373 20.4939 23.08 20.68V20.68C23.0853 20.7365 23.0853 20.7935 23.08 20.85C23.079 21.0416 23.0117 21.2269 22.8896 21.3746C22.7675 21.5222 22.598 21.6231 22.41 21.66H22.24C22.0541 21.6572 21.8747 21.5914 21.7312 21.4733C21.5877 21.3552 21.4885 21.1918 21.45 21.01L21.43 21ZM9.48 21.66C9.29015 21.6251 9.1184 21.5252 8.99429 21.3773C8.87018 21.2295 8.80148 21.043 8.8 20.85C8.79508 20.7901 8.79508 20.7299 8.8 20.67V20.67C8.83968 20.4778 8.94542 20.3055 9.09887 20.1831C9.25231 20.0607 9.44377 19.9959 9.64 20H9.8C9.98617 20.039 10.1533 20.1407 10.2735 20.2881C10.3936 20.4356 10.4595 20.6198 10.46 20.81C10.4653 20.8665 10.4653 20.9235 10.46 20.98V20.98C10.4217 21.1682 10.3207 21.3378 10.1736 21.4613C10.0265 21.5848 9.84198 21.6548 9.65 21.66H9.48ZM18.28 21.36C18.28 21.36 18.28 21.36 18.28 21.3C18.2813 21.091 18.3595 20.8899 18.4997 20.7349C18.6399 20.58 18.8322 20.4821 19.04 20.46H19.12C19.3275 20.4594 19.5274 20.5375 19.6796 20.6786C19.8318 20.8196 19.9248 21.0131 19.94 21.22V21.22C19.9457 21.2464 19.9457 21.2736 19.94 21.3C19.939 21.5048 19.8633 21.7021 19.727 21.855C19.5907 22.0078 19.4033 22.1056 19.2 22.13H19.11C18.9061 22.1242 18.711 22.0452 18.5605 21.9076C18.4099 21.7699 18.3139 21.5826 18.29 21.38V21.38L18.28 21.36ZM15.95 22.26C15.7289 22.26 15.5168 22.1729 15.3595 22.0175C15.2023 21.8621 15.1126 21.651 15.11 21.43V21.43C15.1126 21.208 15.2019 20.9959 15.3589 20.8389C15.5159 20.6819 15.728 20.5926 15.95 20.59V20.59C16.171 20.5926 16.3821 20.6823 16.5375 20.8395C16.6929 20.9968 16.78 21.2089 16.78 21.43C16.7779 21.64 16.6962 21.8414 16.5514 21.9935C16.4067 22.1457 16.2096 22.2374 16 22.25L15.95 22.26Z" fill="black"/>
</svg>
