<svg width="32" height="32" viewBox="0 0 32 32" fill="none" xmlns="http://www.w3.org/2000/svg">
<path d="M21 29H11C9.3 29 8 27.7 8 26V6C8 4.3 9.3 3 11 3H21C22.7 3 24 4.3 24 6V26C24 27.7 22.7 29 21 29Z" stroke="black" stroke-width="2" stroke-miterlimit="10" stroke-linecap="round"/>
<path d="M18 5H14C13.4 5 13 4.6 13 4V3H19V4C19 4.6 18.6 5 18 5Z" stroke="black" stroke-width="2" stroke-miterlimit="10" stroke-linecap="round" stroke-linejoin="round"/>
<path d="M16 17C14.3 17 13 15.7 13 14C13 12.3 14.3 11 16 11H19" stroke="black" stroke-width="2" stroke-miterlimit="10" stroke-linecap="round"/>
<path d="M16 17C17.7 17 19 18.3 19 20C19 21.7 17.7 23 16 23H13" stroke="black" stroke-width="2" stroke-miterlimit="10" stroke-linecap="round"/>
<path d="M16 23V25" stroke="black" stroke-width="2" stroke-miterlimit="10" stroke-linecap="round"/>
<path d="M16 11V9" stroke="black" stroke-width="2" stroke-miterlimit="10" stroke-linecap="round"/>
<path d="M13 4H19" stroke="black" stroke-width="2" stroke-miterlimit="10" stroke-linecap="round" stroke-linejoin="round"/>
</svg>
