<svg width="32" height="32" viewBox="0 0 32 32" fill="none" xmlns="http://www.w3.org/2000/svg">
<path d="M26.21 14.55C25.9644 16.448 24.9753 18.1709 23.46 19.34C21.9351 20.311 20.1455 20.7829 18.34 20.69H17.65C17.1381 20.6903 16.6429 20.8725 16.2528 21.204C15.8626 21.5355 15.603 21.9948 15.52 22.5V22.79L14.66 28.26V28.48H10.56L12 18.26C12.0072 18.215 12.0304 18.174 12.0652 18.1446C12.1001 18.1153 12.1444 18.0994 12.19 18.1H14.77C17.3105 18.2012 19.8187 17.5016 21.94 16.1C23.8232 14.7067 25.1574 12.6965 25.71 10.42C26.0687 11.0387 26.298 11.7237 26.3839 12.4337C26.4699 13.1436 26.4107 13.8636 26.21 14.55V14.55ZM27.13 8.77999C26.6895 8.29024 26.1645 7.88376 25.58 7.57999L25.2 7.37999C25.2622 6.67321 25.178 5.9612 24.9526 5.28844C24.7272 4.61569 24.3654 3.99664 23.89 3.46999C22.58 1.96999 20.22 1.32999 17.19 1.32999H8.4C8.09915 1.32926 7.80813 1.43707 7.58035 1.63361C7.35257 1.83016 7.20333 2.10227 7.16 2.39999L3.5 25.6C3.48263 25.7072 3.48874 25.8169 3.51793 25.9215C3.54712 26.0262 3.59868 26.1232 3.66905 26.2059C3.73942 26.2887 3.82692 26.3551 3.9255 26.4007C4.02408 26.4463 4.13139 26.4699 4.24 26.47H8.6L8.25 28.68C8.21109 28.9262 8.22586 29.1779 8.29328 29.4179C8.36071 29.6579 8.4792 29.8805 8.64065 30.0704C8.80209 30.2604 9.00268 30.4132 9.22867 30.5184C9.45467 30.6236 9.70073 30.6787 9.95 30.68H14.52C15.0305 30.68 15.5245 30.4993 15.9144 30.1698C16.3043 29.8403 16.5649 29.3833 16.65 28.88V28.66L17.52 23.17L17.57 22.88H18.26C20.5065 22.9777 22.7271 22.3692 24.61 21.14C25.5974 20.4092 26.4308 19.4906 27.0623 18.437C27.6938 17.3833 28.111 16.2153 28.29 15C28.8 12.32 28.42 10.24 27.13 8.77999V8.77999Z" fill="black"/>
</svg>
