<svg width="32" height="32" viewBox="0 0 32 32" fill="none" xmlns="http://www.w3.org/2000/svg">
<path d="M23.55 1.33999C24.82 1.33999 24.79 1.11999 24.78 2.56999C24.78 3.79999 25.02 3.78999 23.54 3.79999C22.06 3.80999 22.31 3.79999 22.31 2.57999C22.3 1.13999 22.18 1.33999 23.55 1.33999ZM24.75 7.43999C25.47 7.43999 25.81 7.75999 25.75 8.43999V12.56C25.75 13.32 25.47 13.56 24.75 13.56H22.57V10.4C22.57 10.4 22.57 10.35 22.57 10.32C22.5693 10.0589 22.4857 9.80488 22.3311 9.59454C22.1765 9.38421 21.9589 9.22851 21.71 9.14999H21.85C21.0813 8.97622 20.3034 8.84602 19.52 8.75999V12.88C19.5727 13.0935 19.6944 13.2837 19.8661 13.4211C20.0379 13.5585 20.2501 13.6354 20.47 13.64H22.58V23C22.58 23 22.58 23.11 22.58 23.17C22.5767 24.6021 22.1404 25.9998 21.3284 27.1794C20.5164 28.3591 19.3666 29.2656 18.03 29.78H18.13C16.4499 30.435 14.6632 30.7741 12.86 30.78C12.2616 30.7813 11.6637 30.7446 11.07 30.67V30.67C9.51861 30.5859 7.9993 30.1951 6.59999 29.52V29.52C5.45187 28.9884 4.47745 28.143 3.78916 27.0813C3.10087 26.0197 2.72675 24.7851 2.70999 23.52C2.57999 19.22 2.57999 15.1 2.57999 11C2.57999 9.53999 3.15999 8.99999 4.63999 8.99999H6.63999C8.23999 8.99999 8.80999 9.55999 8.80999 11.16V22.19V22.25C8.8055 22.6059 8.83902 22.9612 8.90999 23.31V23.31C8.98781 23.7481 9.19213 24.1539 9.49776 24.4773C9.80339 24.8007 10.197 25.0276 10.63 25.13H10.58C11.229 25.3246 11.9024 25.4257 12.58 25.43C13.2573 25.4329 13.9314 25.3351 14.58 25.14V25.14C15.1199 25.0274 15.6046 24.7323 15.9524 24.3043C16.3003 23.8763 16.4901 23.3415 16.49 22.79C16.49 22.72 16.49 22.65 16.49 22.59V11.49C16.49 9.41999 17.04 8.88999 19.1 9.00999C19.48 9.00999 19.62 8.88999 19.62 8.46999C19.6039 8.33479 19.6187 8.19771 19.6633 8.06907C19.7078 7.94042 19.781 7.82356 19.8773 7.72729C19.9736 7.63102 20.0904 7.55785 20.2191 7.51328C20.3477 7.46871 20.4848 7.45391 20.62 7.46999L24.75 7.43999ZM29.39 4.15999C29.3767 4.27293 29.3767 4.38704 29.39 4.49999V7.10999C29.22 7.21999 29.05 7.40999 28.89 7.40999H26.47C26.04 7.40999 25.87 7.20999 25.87 6.80999V4.41999C25.87 4.02999 26.04 3.82999 26.42 3.82999H28.93C29.08 3.82999 29.24 3.97999 29.39 4.06999V4.16999V4.15999Z" fill="black"/>
</svg>
