<svg width="32" height="32" viewBox="0 0 32 32" fill="none" xmlns="http://www.w3.org/2000/svg">
<path d="M21 16C21 16.9889 20.7068 17.9556 20.1574 18.7778C19.6079 19.6001 18.8271 20.241 17.9134 20.6194C16.9998 20.9978 15.9945 21.0968 15.0246 20.9039C14.0546 20.711 13.1637 20.2348 12.4645 19.5355C11.7652 18.8363 11.289 17.9453 11.0961 16.9754C10.9032 16.0055 11.0022 15.0002 11.3806 14.0866C11.759 13.1729 12.3999 12.392 13.2222 11.8426C14.0444 11.2932 15.0111 11 16 11C17.3261 11 18.5979 11.5268 19.5355 12.4645C20.4732 13.4021 21 14.6739 21 16ZM16 1.32999C19.8907 1.32999 23.6221 2.87558 26.3733 5.62673C29.1244 8.37789 30.67 12.1093 30.67 16C30.67 19.8907 29.1244 23.6221 26.3733 26.3732C23.6221 29.1244 19.8907 30.67 16 30.67C14.2937 30.6725 12.6006 30.3712 11 29.78V22.78C12.5416 23.9101 14.4194 24.487 16.3296 24.4173C18.2397 24.3475 20.0705 23.6352 21.5255 22.3956C22.9805 21.156 23.9747 19.4617 24.3471 17.5869C24.7195 15.7121 24.4483 13.7665 23.5774 12.0649C22.7066 10.3634 21.287 9.00547 19.5485 8.211C17.81 7.41653 15.8542 7.23198 13.9978 7.68721C12.1413 8.14244 10.4928 9.21082 9.31902 10.7194C8.14525 12.228 7.5149 14.0886 7.53 16V16V28C4.97781 26.2053 3.06429 23.6436 2.06742 20.6871C1.07055 17.7306 1.04226 14.5332 1.98666 11.5595C2.93106 8.58584 4.79896 5.9907 7.319 4.15111C9.83904 2.31151 12.88 1.32329 16 1.32999V1.32999Z" fill="black"/>
</svg>
