<svg width="32" height="32" viewBox="0 0 32 32" fill="none" xmlns="http://www.w3.org/2000/svg">
<path d="M25 23.5V26.8C25 27.4 24.7 28 24.3 28.4C23.8 28.8 23.2 29 22.6 29C19.2 28.6 15.9 27.5 13.1 25.6C10.4 23.9 8.20001 21.6 6.50001 19C4.60001 16.1 3.50001 12.8 3.10001 9.4C3.00001 8.8 3.20001 8.2 3.60001 7.7C4.00001 7.3 4.60001 7 5.30001 7H8.60001C9.70001 7 10.7 7.8 10.8 8.9C10.9 10 11.2 11 11.6 12C11.9 12.8 11.7 13.7 11.1 14.3L9.70001 15.7C11.3 18.5 13.6 20.8 16.3 22.3L17.7 20.9C18.3 20.3 19.2 20.1 20 20.4C21 20.8 22 21 23.1 21.2C24.2 21.4 25 22.4 25 23.5Z" stroke="black" stroke-width="2" stroke-miterlimit="10" stroke-linecap="round"/>
<path d="M15 8.5C18.8 10.2 21.8 13.2 23.5 17" stroke="black" stroke-width="2" stroke-miterlimit="10" stroke-linecap="round"/>
<path d="M15 4.19995C21 6.29995 25.7 11 27.8 17" stroke="black" stroke-width="2" stroke-miterlimit="10" stroke-linecap="round"/>
</svg>
