<svg width="32" height="32" viewBox="0 0 32 32" fill="none" xmlns="http://www.w3.org/2000/svg">
<path d="M29 22.5V26.4C29 27.1 28.7 27.8 28.2 28.3C27.7 28.8 26.9 29 26.2 29C22.2 28.6 18.3 27.2 14.9 25C11.7 23 9.1 20.3 7.1 17.2C4.9 13.8 3.5 9.9 3.1 5.9C3 5.1 3.2 4.4 3.7 3.9C4.2 3.3 4.9 3 5.7 3H9.6C10.9 3 12 3.9 12.2 5.2C12.4 6.5 12.7 7.7 13.1 8.9C13.5 9.9 13.2 10.9 12.5 11.7L10.8 13.4C12.7 16.7 15.4 19.4 18.6 21.2L20.3 19.5C21 18.8 22.1 18.6 23.1 18.9C24.3 19.3 25.5 19.6 26.8 19.8C28.1 20 29 21.1 29 22.5Z" stroke="black" stroke-width="2" stroke-miterlimit="10" stroke-linecap="round"/>
</svg>
