<svg width="32" height="32" viewBox="0 0 32 32" fill="none" xmlns="http://www.w3.org/2000/svg">
<path d="M16.1 29H6.10001C4.40001 29 3.10001 27.7 3.10001 26V6C3.10001 4.3 4.40001 3 6.10001 3H16.1C17.8 3 19.1 4.3 19.1 6V26C19.1 27.7 17.7 29 16.1 29Z" stroke="black" stroke-width="2" stroke-miterlimit="10" stroke-linecap="round"/>
<path d="M13.1 5H9.10001C8.50001 5 8.10001 4.6 8.10001 4V3H14.1V4C14.1 4.6 13.6 5 13.1 5Z" stroke="black" stroke-width="2" stroke-miterlimit="10" stroke-linecap="round" stroke-linejoin="round"/>
<path d="M11.2 17C9.50001 17 8.20001 15.7 8.20001 14C8.20001 12.3 9.50001 11 11.2 11H14.2" stroke="black" stroke-width="2" stroke-miterlimit="10" stroke-linecap="round"/>
<path d="M11.2 17C12.9 17 14.2 18.3 14.2 20C14.2 21.7 12.9 23 11.2 23H8.20001" stroke="black" stroke-width="2" stroke-miterlimit="10" stroke-linecap="round"/>
<path d="M11.2 23V25" stroke="black" stroke-width="2" stroke-miterlimit="10" stroke-linecap="round"/>
<path d="M11.2 11V9" stroke="black" stroke-width="2" stroke-miterlimit="10" stroke-linecap="round"/>
<path d="M25.8 5.90002C28.5 8.40002 30.1 12 30.1 16C30.1 19.9 28.5 23.4 26 25.9" stroke="black" stroke-width="2" stroke-miterlimit="10" stroke-linecap="round"/>
<path d="M22.9 8.59998C24.9 10.4 26.1 13 26.1 16C26.1 18.9 24.9 21.5 22.9 23.4" stroke="black" stroke-width="2" stroke-miterlimit="10" stroke-linecap="round"/>
<path d="M8.10001 4H14.1" stroke="black" stroke-width="2" stroke-miterlimit="10" stroke-linecap="round" stroke-linejoin="round"/>
</svg>
