<svg width="32" height="32" viewBox="0 0 32 32" fill="none" xmlns="http://www.w3.org/2000/svg">
<path d="M18.57 17.87C18.76 17.02 18.94 16.16 19.12 15.32C19.205 14.9932 19.252 14.6576 19.26 14.32V14.32V14.26C19.2585 13.9942 19.1681 13.7366 19.0032 13.5282C18.8383 13.3197 18.6083 13.1725 18.35 13.11V13.11C18.0228 13.0295 17.687 12.9893 17.35 12.99H15.59C15.76 12.16 15.93 11.35 16.1 10.54H14.49L13 17.86H14.6C14.86 16.63 15.11 15.41 15.37 14.18H16.81C16.9832 14.2002 17.1539 14.237 17.32 14.29V14.29C17.3935 14.3071 17.4595 14.3475 17.5081 14.4052C17.5568 14.4628 17.5855 14.5347 17.59 14.61V14.61C17.5954 14.6899 17.5954 14.7701 17.59 14.85C17.595 14.9366 17.595 15.0234 17.59 15.11V15.11C17.43 15.87 17.26 16.64 17.09 17.42L17 17.87H18.58H18.57ZM21.24 16.67H22.94C23.1162 16.6648 23.289 16.621 23.4463 16.5415C23.6036 16.462 23.7414 16.3488 23.85 16.21C24.0589 15.9179 24.174 15.5691 24.18 15.21C24.1847 15.1434 24.1847 15.0766 24.18 15.01V15.01C24.1711 14.9144 24.1414 14.822 24.093 14.7391C24.0446 14.6562 23.9788 14.5848 23.9 14.53C23.7324 14.4042 23.5295 14.3342 23.32 14.33H21.71C21.55 15.06 21.4 15.86 21.24 16.68V16.67ZM20.31 13H23.73C24.2044 12.9999 24.6667 13.1505 25.05 13.43C25.2702 13.5809 25.4512 13.782 25.5782 14.0168C25.7051 14.2515 25.7743 14.5132 25.78 14.78C25.78 14.84 25.78 14.9 25.78 14.97C25.7831 15.7204 25.5048 16.4447 25 17V17C24.6459 17.395 24.1714 17.6622 23.65 17.76V17.76C23.183 17.8583 22.7072 17.9085 22.23 17.91H21.03C20.92 18.53 20.81 19.13 20.71 19.74H19C19.45 17.5 19.86 15.26 20.28 13.05L20.31 13ZM8.36001 16.63H10.11C10.287 16.6167 10.4588 16.5641 10.6128 16.4758C10.7668 16.3876 10.8991 16.266 11 16.12C11.2095 15.8282 11.3247 15.4792 11.33 15.12C11.335 15.0501 11.335 14.9799 11.33 14.91V14.91C11.3216 14.8043 11.287 14.7024 11.2294 14.6134C11.1718 14.5243 11.093 14.451 11 14.4V14.4C10.8267 14.2779 10.6218 14.2084 10.41 14.2H8.82001C8.67001 15.01 8.52001 15.81 8.36001 16.63V16.63ZM8.14002 17.86L7.81001 19.7H6.19001L7.43001 13H10.81C11.1562 13.0021 11.4977 13.0806 11.81 13.23V13.23C12.118 13.3572 12.3832 13.5698 12.5745 13.8426C12.7658 14.1154 12.8753 14.4371 12.89 14.77V14.77V15C12.8831 15.7341 12.6175 16.4423 12.14 17V17C11.7798 17.3976 11.2981 17.6649 10.77 17.76V17.76C10.3038 17.863 9.82747 17.9133 9.35002 17.91H9.15001C8.83001 17.91 8.49001 17.91 8.15001 17.91L8.14002 17.86ZM16.23 9.28H16C14.5728 9.27977 13.148 9.39684 11.74 9.63H11.89C10.4357 9.85734 9.01055 10.243 7.64001 10.78H7.78001C6.70969 11.1825 5.70014 11.731 4.78001 12.41V12.41C4.06707 12.8827 3.46078 13.4993 3.00001 14.22V14.22C2.68167 14.7584 2.51896 15.3746 2.53001 16C2.52855 16.557 2.66239 17.1061 2.92001 17.6C3.28607 18.2971 3.78952 18.9128 4.40001 19.41V19.41C5.41155 20.2368 6.55389 20.889 7.78001 21.34H7.86001C8.71826 21.6738 9.60085 21.9413 10.5 22.14H10.63C11.8338 22.4125 13.0579 22.5865 14.29 22.66H14.36C14.88 22.66 15.48 22.71 16.08 22.71C16.68 22.71 17.29 22.71 17.88 22.65H17.8C18.8726 22.5965 19.9412 22.4796 21 22.3H20.83C22.1744 22.0451 23.4883 21.6496 24.75 21.12L24.62 21.17C25.5016 20.8182 26.3376 20.3616 27.11 19.81V19.81C27.8201 19.3305 28.4285 18.7154 28.9 18V18C29.2565 17.4579 29.4571 16.8284 29.48 16.18V16.18C29.4862 15.4696 29.2808 14.7734 28.89 14.18V14.18C28.4361 13.4703 27.8485 12.8555 27.16 12.37V12.37C26.1476 11.6365 25.0322 11.0569 23.85 10.65H23.76C22.2965 10.1451 20.7799 9.80954 19.24 9.65H19.15C18.2003 9.49755 17.2415 9.40736 16.28 9.38L16.23 9.28ZM16 8.06C17.0022 8.05728 18.0038 8.1107 19 8.22H18.88C20.4872 8.38755 22.0725 8.72271 23.61 9.22H23.45C24.9435 9.66943 26.3597 10.3438 27.65 11.22H27.6C28.4873 11.8059 29.2544 12.556 29.86 13.43V13.43C30.3187 14.0989 30.6007 14.8729 30.68 15.68V15.68C30.68 15.82 30.68 15.97 30.68 16.13C30.6805 16.952 30.4631 17.7594 30.05 18.47V18.47C29.6194 19.2326 29.0535 19.9103 28.38 20.47C27.3394 21.315 26.1716 21.99 24.92 22.47H24.84C23.9279 22.8445 22.9885 23.1487 22.03 23.38H21.9C21.09 23.56 20.29 23.71 19.48 23.81C18.3263 23.9623 17.1638 24.0391 16 24.04H15.39C14.3628 24.022 13.3376 23.9419 12.32 23.8H12.46C10.8167 23.596 9.20056 23.2138 7.64001 22.66H7.80001C6.72194 22.2944 5.6887 21.808 4.72001 21.21H4.79001C3.88171 20.6646 3.07339 19.9679 2.40001 19.15V19.15C1.83947 18.4498 1.47072 17.6158 1.33001 16.73V16.73C1.28924 16.4888 1.26917 16.2446 1.27001 16C1.27107 15.4026 1.39001 14.8113 1.62001 14.26V14.26C1.98961 13.3954 2.5463 12.6236 3.25001 12V12C4.14136 11.1832 5.15323 10.5086 6.25001 10H6.32001C7.68271 9.36545 9.11614 8.89548 10.59 8.6H10.72C11.6857 8.3921 12.6648 8.25176 13.65 8.18H13.73L16 8V8.06Z" fill="black"/>
</svg>
