<svg width="32" height="32" viewBox="0 0 32 32" fill="none" xmlns="http://www.w3.org/2000/svg">
<path d="M28 17H26.9C26.6 14.7 25.1 12.7 23 11.4V6C20.9 6 19.2 7.7 19 9.7C18 9.5 17 9.4 16 9.4C9.9 9.4 5 13.2 5 17.9C5 20.2 6.1 22.2 8 23.7V29H13V26.1C14 26.3 15 26.4 16 26.4C16.3 26.4 16.7 26.4 17 26.4V29H22V25C23.5 24.2 24.8 23.2 25.6 22H26C27.1 22 28 21.1 28 20V17Z" stroke="black" stroke-width="2" stroke-miterlimit="10" stroke-linecap="round" stroke-linejoin="round"/>
<path d="M22 17C22.5523 17 23 16.5523 23 16C23 15.4477 22.5523 15 22 15C21.4477 15 21 15.4477 21 16C21 16.5523 21.4477 17 22 17Z" fill="black"/>
<path d="M5 18C3.3 18 2 16.7 2 15C2 14.2 2.3 13.5 2.8 13" stroke="black" stroke-width="2" stroke-miterlimit="10" stroke-linecap="round" stroke-linejoin="round"/>
<path d="M5.2 10.6C3.9 9.9 3 8.6 3 7C3 4.8 4.8 3 7 3C9.2 3 11 4.8 11 7C11 7.1 11 7.1 11 7.2" stroke="black" stroke-width="2" stroke-miterlimit="10" stroke-linecap="round" stroke-linejoin="round"/>
</svg>
