<svg width="32" height="32" viewBox="0 0 32 32" fill="none" xmlns="http://www.w3.org/2000/svg">
<path fill-rule="evenodd" clip-rule="evenodd" d="M27.52 1.32999H2.37999C2.10284 1.32999 1.83704 1.44008 1.64106 1.63606C1.44508 1.83204 1.33499 2.09784 1.33499 2.37499C1.33499 2.65214 1.44508 2.91794 1.64106 3.11391C1.83704 3.30989 2.10284 3.41999 2.37999 3.41999H27.52C27.6598 3.4128 27.7995 3.43505 27.9301 3.48527C28.0608 3.5355 28.1794 3.61259 28.2784 3.71156C28.3774 3.81053 28.4545 3.92918 28.5047 4.05982C28.5549 4.19047 28.5772 4.3302 28.57 4.46999V27.47C28.5772 27.6098 28.5549 27.7495 28.5047 27.8801C28.4545 28.0108 28.3774 28.1294 28.2784 28.2284C28.1794 28.3274 28.0608 28.4045 27.9301 28.4547C27.7995 28.5049 27.6598 28.5272 27.52 28.52H4.51999C4.3802 28.5272 4.24047 28.5049 4.10983 28.4547C3.97918 28.4045 3.86053 28.3274 3.76156 28.2284C3.66259 28.1294 3.5855 28.0108 3.53527 27.8801C3.48504 27.7495 3.4628 27.6098 3.46999 27.47V14.47C3.4628 14.3302 3.48504 14.1905 3.53527 14.0598C3.5855 13.9292 3.66259 13.8105 3.76156 13.7116C3.86053 13.6126 3.97918 13.5355 4.10983 13.4853C4.24047 13.435 4.3802 13.4128 4.51999 13.42H15.71L10.38 18.75C10.2795 18.8491 10.2011 18.9684 10.15 19.1C10.0935 19.2275 10.0643 19.3655 10.0643 19.505C10.0643 19.6445 10.0935 19.7824 10.15 19.91C10.199 20.0426 10.2777 20.1623 10.38 20.26L15.71 25.59C15.9089 25.7902 16.1792 25.9032 16.4615 25.9042C16.7437 25.9051 17.0147 25.7939 17.215 25.595C17.4152 25.3961 17.5282 25.1258 17.5292 24.8435C17.5301 24.5613 17.4189 24.2902 17.22 24.09L13.71 20.57H24.51C24.7746 20.5443 25.0203 20.421 25.199 20.2241C25.3777 20.0273 25.4767 19.7709 25.4767 19.505C25.4767 19.2391 25.3777 18.9827 25.199 18.7858C25.0203 18.589 24.7746 18.4657 24.51 18.44H13.67L19 13.18C19.0969 13.078 19.1748 12.9594 19.23 12.83C19.2865 12.7024 19.3157 12.5645 19.3157 12.425C19.3157 12.2855 19.2865 12.1475 19.23 12.02C19.1748 11.8905 19.0969 11.772 19 11.67L13.67 6.33999C13.5721 6.23867 13.4548 6.15811 13.3251 6.10308C13.1953 6.04805 13.0559 6.0197 12.915 6.0197C12.7741 6.0197 12.6346 6.04805 12.5049 6.10308C12.3752 6.15811 12.2579 6.23867 12.16 6.33999C12.0602 6.43775 11.9809 6.55444 11.9268 6.68322C11.8727 6.81201 11.8448 6.9503 11.8448 7.08999C11.8448 7.22968 11.8727 7.36797 11.9268 7.49675C11.9809 7.62553 12.0602 7.74222 12.16 7.83999L15.67 11.36H4.47999C3.64628 11.36 2.84658 11.6905 2.25613 12.2791C1.66568 12.8676 1.33263 13.6663 1.32999 14.5V27.5C1.32999 28.3354 1.66186 29.1366 2.2526 29.7274C2.84334 30.3181 3.64455 30.65 4.47999 30.65H27.48C28.3154 30.65 29.1166 30.3181 29.7074 29.7274C30.2981 29.1366 30.63 28.3354 30.63 27.5V4.49999C30.63 3.66455 30.2981 2.86334 29.7074 2.2726C29.1166 1.68186 28.3154 1.34999 27.48 1.34999" fill="black"/>
</svg>
