<svg width="32" height="32" viewBox="0 0 32 32" fill="none" xmlns="http://www.w3.org/2000/svg">
<path d="M9 17C10.1046 17 11 16.1046 11 15C11 13.8954 10.1046 13 9 13C7.89543 13 7 13.8954 7 15C7 16.1046 7.89543 17 9 17Z" stroke="black" stroke-width="2" stroke-miterlimit="10" stroke-linecap="round"/>
<path d="M16 17C17.1046 17 18 16.1046 18 15C18 13.8954 17.1046 13 16 13C14.8954 13 14 13.8954 14 15C14 16.1046 14.8954 17 16 17Z" stroke="black" stroke-width="2" stroke-miterlimit="10" stroke-linecap="round"/>
<path d="M12 24C13.1046 24 14 23.1046 14 22C14 20.8954 13.1046 20 12 20C10.8954 20 10 20.8954 10 22C10 23.1046 10.8954 24 12 24Z" stroke="black" stroke-width="2" stroke-miterlimit="10" stroke-linecap="round"/>
<path d="M20 24C21.1046 24 22 23.1046 22 22C22 20.8954 21.1046 20 20 20C18.8954 20 18 20.8954 18 22C18 23.1046 18.8954 24 20 24Z" stroke="black" stroke-width="2" stroke-miterlimit="10" stroke-linecap="round"/>
<path d="M23 17C24.1046 17 25 16.1046 25 15C25 13.8954 24.1046 13 23 13C21.8954 13 21 13.8954 21 15C21 16.1046 21.8954 17 23 17Z" stroke="black" stroke-width="2" stroke-miterlimit="10" stroke-linecap="round"/>
<path d="M12.5 11C13.3284 11 14 10.3284 14 9.5C14 8.67157 13.3284 8 12.5 8C11.6716 8 11 8.67157 11 9.5C11 10.3284 11.6716 11 12.5 11Z" fill="black"/>
<path d="M19.5 11C20.3284 11 21 10.3284 21 9.5C21 8.67157 20.3284 8 19.5 8C18.6716 8 18 8.67157 18 9.5C18 10.3284 18.6716 11 19.5 11Z" fill="black"/>
<path d="M23.1 5H8.9C8.1 5 7.3 5.3 6.7 5.9C4.4 8.3 2.9 11.6 3 15.3C3.2 22.1 8.7 27.7 15.5 28C22.9 28.3 29 22.4 29 15C29 11.5 27.6 8.2 25.3 5.9C24.7 5.3 23.9 5 23.1 5Z" stroke="black" stroke-width="2" stroke-miterlimit="10" stroke-linecap="round"/>
</svg>
