<svg width="32" height="32" viewBox="0 0 32 32" fill="none" xmlns="http://www.w3.org/2000/svg">
<path d="M22.11 13C22.1039 12.7722 22.0303 12.5514 21.8986 12.3656C21.7668 12.1797 21.5828 12.0372 21.3699 11.956C21.157 11.8749 20.9248 11.8589 20.7028 11.9099C20.4807 11.9609 20.2789 12.0768 20.1228 12.2427C19.9667 12.4087 19.8634 12.6172 19.826 12.842C19.7886 13.0667 19.8188 13.2975 19.9128 13.505C20.0068 13.7126 20.1603 13.8875 20.3539 14.0077C20.5474 14.1279 20.7723 14.1878 21 14.18C21.3033 14.1695 21.5901 14.0396 21.798 13.8186C22.006 13.5976 22.1181 13.3033 22.11 13ZM9.4 19L17.4 11C17.5456 10.8535 17.7434 10.7708 17.95 10.77H22.55C22.7569 10.77 22.9553 10.8522 23.1015 10.9984C23.2478 11.1447 23.33 11.3431 23.33 11.55V16.15C23.3307 16.2524 23.3107 16.354 23.2712 16.4485C23.2317 16.543 23.1734 16.6285 23.1 16.7L15.1 24.7C14.9509 24.8436 14.752 24.9238 14.545 24.9238C14.338 24.9238 14.1391 24.8436 13.99 24.7L9.4 20.1C9.32657 20.0285 9.26835 19.943 9.22882 19.8485C9.1893 19.754 9.16929 19.6524 9.17 19.55C9.1719 19.3437 9.25445 19.1462 9.4 19V19ZM7.07 19.55C7.07236 19.923 7.14871 20.2918 7.29461 20.6352C7.44052 20.9785 7.65308 21.2894 7.92 21.55L12.51 26.15C13.0513 26.6868 13.7827 26.9879 14.545 26.9879C15.3073 26.9879 16.0387 26.6868 16.58 26.15L24.58 18.15C25.1127 17.6201 25.4146 16.9013 25.42 16.15V11.55C25.4174 10.7879 25.1128 10.0579 24.5729 9.51998C24.0331 8.98204 23.3021 8.67998 22.54 8.67999H18C17.2496 8.68967 16.5323 8.99092 16 9.51999L8 17.52C7.46456 18.0489 7.15915 18.7675 7.15 19.52L7.07 19.55ZM27.52 1.32999H2.38C2.10152 1.32999 1.83445 1.44061 1.63754 1.63752C1.44062 1.83444 1.33 2.10151 1.33 2.37999C1.33 2.65846 1.44062 2.92554 1.63754 3.12245C1.83445 3.31936 2.10152 3.42999 2.38 3.42999H27.52C27.6598 3.4228 27.7995 3.44504 27.9302 3.49527C28.0608 3.5455 28.1795 3.62259 28.2784 3.72156C28.3774 3.82053 28.4545 3.93918 28.5047 4.06983C28.5549 4.20047 28.5772 4.3402 28.57 4.47999V27.48C28.5772 27.6198 28.5549 27.7595 28.5047 27.8901C28.4545 28.0208 28.3774 28.1394 28.2784 28.2384C28.1795 28.3374 28.0608 28.4145 27.9302 28.4647C27.7995 28.5149 27.6598 28.5372 27.52 28.53H4.52C4.38022 28.5372 4.24048 28.5149 4.10984 28.4647C3.97919 28.4145 3.86055 28.3374 3.76158 28.2384C3.6626 28.1394 3.58551 28.0208 3.53528 27.8901C3.48506 27.7595 3.46282 27.6198 3.47 27.48V8.66999C3.46983 8.53435 3.49726 8.4001 3.55061 8.27539C3.60396 8.15069 3.68212 8.03814 3.78034 7.9446C3.87856 7.85105 3.99479 7.77847 4.12194 7.73126C4.2491 7.68405 4.38453 7.6632 4.52 7.66999H13.9C14.1785 7.66999 14.4455 7.55936 14.6425 7.36245C14.8394 7.16554 14.95 6.89846 14.95 6.61999C14.95 6.34151 14.8394 6.07444 14.6425 5.87752C14.4455 5.68061 14.1785 5.56999 13.9 5.56999H4.48C3.65316 5.56988 2.85943 5.89488 2.27011 6.47485C1.68078 7.05482 1.34312 7.84325 1.33 8.66999V27.52C1.33 28.3554 1.66187 29.1566 2.25261 29.7474C2.84335 30.3381 3.64457 30.67 4.48 30.67H27.48C28.3154 30.67 29.1166 30.3381 29.7074 29.7474C30.2981 29.1566 30.63 28.3554 30.63 27.52V4.51999C30.6353 4.10631 30.559 3.69565 30.4056 3.31145C30.2522 2.92725 30.0245 2.57704 29.7357 2.28081C29.4469 1.98459 29.1026 1.74815 28.7224 1.58501C28.3423 1.42186 27.9337 1.33521 27.52 1.32999V1.32999Z" fill="black"/>
</svg>
