<svg width="32" height="32" viewBox="0 0 32 32" fill="none" xmlns="http://www.w3.org/2000/svg">
<path d="M9.71 16V18.1C9.71265 18.9337 10.0457 19.7323 10.6361 20.3209C11.2266 20.9095 12.0263 21.24 12.86 21.24H19.14C19.9728 21.24 20.7715 20.9092 21.3603 20.3203C21.9492 19.7314 22.28 18.9328 22.28 18.1V16C22.2809 15.1752 22.1189 14.3583 21.8031 13.5964C21.4873 12.8344 21.0241 12.1424 20.44 11.56C20.249 11.369 19.9901 11.2618 19.72 11.2618C19.4499 11.2618 19.191 11.369 19 11.56C18.809 11.751 18.7018 12.0099 18.7018 12.28C18.7018 12.55 18.809 12.809 19 13C19.3954 13.3922 19.708 13.8599 19.9193 14.3752C20.1306 14.8906 20.2362 15.4431 20.23 16V18.1C20.2302 18.2356 20.2027 18.3699 20.1494 18.4946C20.096 18.6193 20.0179 18.7318 19.9197 18.8254C19.8214 18.9189 19.7052 18.9915 19.5781 19.0387C19.4509 19.0859 19.3155 19.1068 19.18 19.1H12.86C12.5948 19.1 12.3404 18.9946 12.1529 18.8071C11.9654 18.6196 11.86 18.3652 11.86 18.1V16C11.8599 14.8973 12.2945 13.8391 13.0695 13.0548C13.8445 12.2704 14.8974 11.8232 16 11.81C16.1398 11.8172 16.2795 11.7949 16.4102 11.7447C16.5408 11.6945 16.6595 11.6174 16.7584 11.5184C16.8574 11.4194 16.9345 11.3008 16.9847 11.1702C17.0349 11.0395 17.0572 10.8998 17.05 10.76V8.67C17.05 7.83456 16.7181 7.03335 16.1274 6.44261C15.5366 5.85187 14.7354 5.52 13.9 5.52H4.48C3.64457 5.52 2.84335 5.85187 2.25262 6.44261C1.66188 7.03335 1.33 7.83456 1.33 8.67V27.52C1.33 28.3554 1.66188 29.1566 2.25262 29.7474C2.84335 30.3381 3.64457 30.67 4.48 30.67H27.48C28.3154 30.67 29.1166 30.3381 29.7074 29.7474C30.2981 29.1566 30.63 28.3554 30.63 27.52V4.52C30.63 3.68456 30.2981 2.88335 29.7074 2.29261C29.1166 1.70187 28.3154 1.37 27.48 1.37H2.38C2.10152 1.37 1.83445 1.48062 1.63754 1.67753C1.44063 1.87445 1.33 2.14152 1.33 2.42C1.33 2.69847 1.44063 2.96554 1.63754 3.16246C1.83445 3.35937 2.10152 3.47 2.38 3.47H27.52C27.6598 3.46281 27.7995 3.48505 27.9302 3.53528C28.0608 3.58551 28.1795 3.6626 28.2784 3.76157C28.3774 3.86054 28.4545 3.97919 28.5047 4.10983C28.5549 4.24048 28.5772 4.38021 28.57 4.52V27.52C28.5772 27.6598 28.5549 27.7995 28.5047 27.9302C28.4545 28.0608 28.3774 28.1794 28.2784 28.2784C28.1795 28.3774 28.0608 28.4545 27.9302 28.5047C27.7995 28.5549 27.6598 28.5772 27.52 28.57H4.52C4.38022 28.5772 4.24049 28.5549 4.10984 28.5047C3.9792 28.4545 3.86055 28.3774 3.76158 28.2784C3.66261 28.1794 3.58551 28.0608 3.53529 27.9302C3.48506 27.7995 3.46282 27.6598 3.47 27.52V8.67C3.46983 8.53436 3.49726 8.4001 3.55061 8.2754C3.60396 8.1507 3.68213 8.03815 3.78035 7.94461C3.87857 7.85106 3.99479 7.77848 4.12195 7.73127C4.2491 7.68406 4.38453 7.66321 4.52 7.67H13.9C14.1652 7.67 14.4196 7.77535 14.6071 7.96289C14.7946 8.15042 14.9 8.40478 14.9 8.67V9.8C13.4451 10.0588 12.1281 10.8224 11.1806 11.9564C10.2332 13.0905 9.71598 14.5223 9.72 16H9.71ZM19.14 25.49V23.28C19.14 23.0148 19.0346 22.7604 18.8471 22.5729C18.6596 22.3854 18.4052 22.28 18.14 22.28H18C17.7348 22.28 17.4804 22.3854 17.2929 22.5729C17.1054 22.7604 17 23.0148 17 23.28V25.49C17 25.7552 17.1054 26.0096 17.2929 26.1971C17.4804 26.3846 17.7348 26.49 18 26.49H18.11C18.2438 26.494 18.3771 26.4711 18.5019 26.4227C18.6267 26.3742 18.7405 26.3012 18.8366 26.2079C18.9326 26.1147 19.009 26.0031 19.0611 25.8797C19.1132 25.7564 19.1401 25.6239 19.14 25.49V25.49ZM13.96 26.49H13.85C13.5848 26.49 13.3304 26.3846 13.1429 26.1971C12.9554 26.0096 12.85 25.7552 12.85 25.49V23.28C12.85 23.0148 12.9554 22.7604 13.1429 22.5729C13.3304 22.3854 13.5848 22.28 13.85 22.28H14C14.2652 22.28 14.5196 22.3854 14.7071 22.5729C14.8946 22.7604 15 23.0148 15 23.28V25.49C14.9974 25.7535 14.8908 26.0053 14.7036 26.1906C14.5163 26.376 14.2635 26.48 14 26.48L13.96 26.49Z" fill="black"/>
</svg>
