<svg width="32" height="32" viewBox="0 0 32 32" fill="none" xmlns="http://www.w3.org/2000/svg">
<path d="M22.2 27H27C28.1 27 29 26.1 29 25V17C29 15.9 28.1 15 27 15H22.2V27Z" stroke="black" stroke-width="2" stroke-miterlimit="10" stroke-linecap="round"/>
<path d="M22.2 15L17.9 6.4C17.4 5.5 16.6 5 15.6 5C14.2 5 13.1 6.1 13.1 7.5V12H6C4.3 12 3 13.3 3 15C3 16.7 4.3 18 6 18H12" stroke="black" stroke-width="2" stroke-miterlimit="10" stroke-linecap="round"/>
<path d="M22.2 27H12.4C11 27 9.8 26 9.5 24.7L8 18" stroke="black" stroke-width="2" stroke-miterlimit="10" stroke-linecap="round"/>
</svg>
