<svg width="32" height="32" viewBox="0 0 32 32" fill="none" xmlns="http://www.w3.org/2000/svg">
<path d="M9.8 27H5C3.9 27 3 26.1 3 25V17C3 15.9 3.9 15 5 15H9.8V27Z" stroke="black" stroke-width="2" stroke-miterlimit="10" stroke-linecap="round"/>
<path d="M9.79999 15L14.1 6.4C14.6 5.5 15.4 5 16.4 5C17.8 5 18.9 6.1 18.9 7.5V12H26C27.7 12 29 13.3 29 15C29 16.7 27.7 18 26 18H20" stroke="black" stroke-width="2" stroke-miterlimit="10" stroke-linecap="round"/>
<path d="M9.79999 27H19.6C21 27 22.2 26 22.5 24.7L24 18" stroke="black" stroke-width="2" stroke-miterlimit="10" stroke-linecap="round"/>
</svg>
