<svg width="32" height="32" viewBox="0 0 32 32" fill="none" xmlns="http://www.w3.org/2000/svg">
<path d="M11 17.5C11.8284 17.5 12.5 16.8284 12.5 16C12.5 15.1716 11.8284 14.5 11 14.5C10.1716 14.5 9.5 15.1716 9.5 16C9.5 16.8284 10.1716 17.5 11 17.5Z" fill="black"/>
<path d="M22 17.5C22.8284 17.5 23.5 16.8284 23.5 16C23.5 15.1716 22.8284 14.5 22 14.5C21.1716 14.5 20.5 15.1716 20.5 16C20.5 16.8284 21.1716 17.5 22 17.5Z" fill="black"/>
<path d="M20 3.59998V3.99998C20 5.69998 18.7 6.99998 17 6.99998H15C13.3 6.99998 12 5.69998 12 3.99998V3.59998C6.8 5.29998 3 10.2 3 16C3 21.8 6.8 26.7 12 28.4V28C12 26.3 13.3 25 15 25H17C18.7 25 20 26.3 20 28V28.4C25.2 26.7 29 21.8 29 16C29 10.2 25.2 5.29998 20 3.59998Z" stroke="black" stroke-width="2" stroke-miterlimit="10" stroke-linecap="round" stroke-linejoin="round"/>
</svg>
