<svg width="32" height="32" viewBox="0 0 32 32" fill="none" xmlns="http://www.w3.org/2000/svg">
<path d="M24.52 28.69C25.4296 28.2443 26.1249 27.4556 26.4531 26.4973C26.7812 25.5391 26.7154 24.4897 26.27 23.58V23.58L22.4 15.22C21.6339 13.5621 21.2413 11.7563 21.25 9.92999V9.74999V3.74999C21.25 3.10194 20.9933 2.48028 20.5359 2.0211C20.0786 1.56192 19.458 1.30263 18.81 1.29999H11.94C11.6912 1.33292 11.4622 1.45303 11.2937 1.63895C11.1252 1.82488 11.0281 2.06455 11.0197 2.31534C11.0113 2.56612 11.0921 2.81176 11.2478 3.00854C11.4035 3.20532 11.624 3.34049 11.87 3.38999H18.75C18.8384 3.39259 18.9224 3.42956 18.984 3.49304C19.0456 3.55652 19.08 3.64152 19.08 3.72999V9.82999C19.0799 12.0243 19.5612 14.1919 20.49 16.18V16.08L24.38 24.47C24.4847 24.6992 24.5392 24.948 24.54 25.2C24.5372 25.5278 24.4419 25.8482 24.2649 26.1242C24.088 26.4002 23.8367 26.6206 23.54 26.76V26.76C21.2051 27.9508 18.6211 28.5711 16 28.57H15.86C13.2543 28.5759 10.6854 27.9551 8.37 26.76H8.46C8.16104 26.6235 7.90773 26.4038 7.73038 26.1272C7.55303 25.8505 7.45916 25.5286 7.46 25.2C7.46203 24.945 7.5165 24.6931 7.62 24.46V24.46L9.12 21.36C9.14602 21.3066 9.18556 21.261 9.23468 21.2277C9.28381 21.1943 9.3408 21.1745 9.4 21.17H17.12C17.2514 21.1636 17.3802 21.1313 17.4991 21.0751C17.618 21.0188 17.7246 20.9396 17.8128 20.8421C17.9011 20.7446 17.9692 20.6306 18.0134 20.5067C18.0575 20.3827 18.0767 20.2513 18.07 20.12C18.0714 19.8569 17.975 19.6027 17.7994 19.4068C17.6238 19.2109 17.3817 19.0873 17.12 19.06H9.36C8.91093 19.0605 8.47072 19.185 8.08785 19.4196C7.70497 19.6543 7.39429 19.9901 7.19 20.39V20.39L5.71 23.59C5.46108 24.1005 5.3344 24.662 5.34 25.23C5.33922 25.936 5.53412 26.6284 5.90306 27.2304C6.272 27.8323 6.80053 28.3202 7.43 28.64V28.64C10.0158 29.9679 12.8832 30.6539 15.79 30.64H16C18.9871 30.6418 21.9316 29.9323 24.59 28.57H24.48L24.52 28.69ZM17.05 15C17.054 14.8591 17.0299 14.7189 16.979 14.5874C16.9282 14.456 16.8516 14.336 16.7538 14.2345C16.6561 14.1331 16.539 14.0521 16.4096 13.9963C16.2802 13.9406 16.1409 13.9113 16 13.91H10.87C10.5889 13.91 10.3193 14.0217 10.1205 14.2205C9.92168 14.4192 9.81 14.6889 9.81 14.97C9.81 15.2511 9.92168 15.5207 10.1205 15.7195C10.3193 15.9183 10.5889 16.03 10.87 16.03H16C16.2655 16.015 16.5157 15.9008 16.7009 15.71C16.8861 15.5193 16.9929 15.2658 17 15V15H17.05ZM16 10.82H11.88C11.6179 10.7944 11.3747 10.6723 11.1978 10.4772C11.0208 10.2822 10.9228 10.0283 10.9228 9.76499C10.9228 9.50166 11.0208 9.24776 11.1978 9.05274C11.3747 8.85772 11.6179 8.73553 11.88 8.70999H16C16.2621 8.73553 16.5053 8.85772 16.6822 9.05274C16.8592 9.24776 16.9572 9.50166 16.9572 9.76499C16.9572 10.0283 16.8592 10.2822 16.6822 10.4772C16.5053 10.6723 16.2621 10.7944 16 10.82V10.82Z" fill="black"/>
</svg>
