<svg width="32" height="32" viewBox="0 0 32 32" fill="none" xmlns="http://www.w3.org/2000/svg">
<path d="M6 9L9 6L6 3" stroke="black" stroke-width="2" stroke-miterlimit="10" stroke-linecap="round"/>
<path d="M26 19L23 16L26 13" stroke="black" stroke-width="2" stroke-miterlimit="10" stroke-linecap="round"/>
<path d="M17 9H15C13.9 9 13 8.1 13 7V5C13 3.9 13.9 3 15 3H17C18.1 3 19 3.9 19 5V7C19 8.1 18.1 9 17 9Z" stroke="black" stroke-width="2" stroke-miterlimit="10" stroke-linecap="round"/>
<path d="M17 19H15C13.9 19 13 18.1 13 17V15C13 13.9 13.9 13 15 13H17C18.1 13 19 13.9 19 15V17C19 18.1 18.1 19 17 19Z" stroke="black" stroke-width="2" stroke-miterlimit="10" stroke-linecap="round"/>
<path d="M17 29H15C13.9 29 13 28.1 13 27V25C13 23.9 13.9 23 15 23H17C18.1 23 19 23.9 19 25V27C19 28.1 18.1 29 17 29Z" stroke="black" stroke-width="2" stroke-miterlimit="10" stroke-linecap="round"/>
<path d="M23 6H26C27.7 6 29 7.3 29 9V13C29 14.7 27.7 16 26 16H24" stroke="black" stroke-width="2" stroke-miterlimit="10" stroke-linecap="round"/>
<path d="M9 27H6C4.3 27 3 25.7 3 24V9C3 7.3 4.3 6 6 6H8" stroke="black" stroke-width="2" stroke-miterlimit="10" stroke-linecap="round"/>
</svg>
