<svg width="32" height="32" viewBox="0 0 32 32" fill="none" xmlns="http://www.w3.org/2000/svg">
<path d="M16 1.25C13.0827 1.25 10.231 2.11507 7.80535 3.73582C5.37972 5.35657 3.48918 7.66021 2.37278 10.3554C1.25639 13.0506 0.964292 16.0164 1.53342 18.8776C2.10256 21.7388 3.50736 24.367 5.57018 26.4298C7.63301 28.4926 10.2612 29.8975 13.1224 30.4666C15.9836 31.0357 18.9494 30.7436 21.6446 29.6272C24.3398 28.5108 26.6434 26.6203 28.2642 24.1947C29.8849 21.769 30.75 18.9173 30.75 16C30.75 12.0881 29.196 8.33634 26.4298 5.57018C23.6637 2.80401 19.9119 1.25 16 1.25V1.25ZM16 28.86C13.68 28.86 11.8 27.31 11.8 25.4H20.2C20.2 27.31 18.32 28.86 16 28.86ZM22.93 24.25H9.07001V21.74H22.93V24.25ZM22.88 20.45H9.11001L9.00001 20.29C8.07524 19.2622 7.36774 18.0581 6.92001 16.75C6.92001 16.75 8.64001 17.1 9.92001 17.38C9.92001 17.38 10.55 17.52 11.47 17.69C10.555 16.6751 10.0335 15.3661 10 14C10 11 12.27 8.46 11.45 6.37C12.24 6.43 13.1 8.05 13.15 10.58C13.9446 9.18583 14.352 7.60456 14.33 6C14.33 4.64 15.23 3.07 16.12 3C15.33 4.32 16.33 5.44 17.22 8.24C17.55 9.29 17.51 11.05 17.77 12.17C17.86 9.85 18.26 6.45 19.77 5.28C19.12 6.76 19.87 8.6 20.38 9.49C21.2475 10.8318 21.6933 12.4026 21.66 14C21.6577 15.3552 21.1759 16.6659 20.3 17.7C21.3 17.52 21.94 17.35 21.94 17.35L25.11 16.74C24.6796 18.1397 23.9141 19.4132 22.88 20.45Z" fill="black"/>
</svg>
