<svg width="32" height="32" viewBox="0 0 32 32" fill="none" xmlns="http://www.w3.org/2000/svg">
<path d="M23.5 3.79998C22.7 4.39998 22.2 5.19998 22 6.09998C21.8 6.89998 20.8 7.09998 20.3 6.59998L17.3 3.59998C16.9 3.19998 16.3 3.19998 15.9 3.59998L12.9 6.59998C12.3 7.19998 11.4 6.89998 11.2 6.09998C11 5.19998 10.5 4.39998 9.69999 3.79998C7.99999 2.69998 5.99999 2.69998 4.49999 3.89998C2.59999 5.49998 2.49999 8.29998 4.19999 9.99998C4.69999 10.5 5.39999 10.9 6.09999 11.1C6.89999 11.3 7.09999 12.3 6.49999 12.8L3.49999 15.8C3.09999 16.2 3.09999 16.9 3.49999 17.3L15.8 29.7C16.2 30.1 16.8 30.1 17.2 29.7L19.9 27C20.5 26.4 20.2 25.5 19.4 25.3C18.5 25.1 17.7 24.6 17.1 23.7C16 22.2 16.1 20.1 17.2 18.7C18.8 16.7 21.6 16.6 23.3 18.3C23.8 18.8 24.2 19.5 24.4 20.2C24.6 21 25.6 21.2 26.1 20.6L29.5 17.2C29.9 16.8 29.9 16.1 29.5 15.7L26.5 12.7C26 12.1 26.2 11.2 26.9 11C27.6 10.8 28.2 10.5 28.8 9.89998C30.5 8.19998 30.4 5.29998 28.5 3.79998C27 2.69998 25 2.69998 23.5 3.79998Z" stroke="black" stroke-width="2" stroke-miterlimit="10" stroke-linecap="round" stroke-linejoin="round"/>
</svg>
