<svg width="32" height="32" viewBox="0 0 32 32" fill="none" xmlns="http://www.w3.org/2000/svg">
<path d="M27.2 3.70001C25.9 2.80001 24.3 2.80001 22.9 3.60001C22 4.20001 21.4 4.90001 21.1 5.80001C20.8 6.60001 19.8 6.80001 19.2 6.20001L16.7 3.70001C16.3 3.30001 15.7 3.30001 15.3 3.70001L12 7.00001C11.7 7.30001 11.9 7.90001 12.4 8.00001C13.6 8.10001 14.7 8.80001 15.4 10C16.2 11.3 16.2 13 15.3 14.3C13.8 16.5 10.8 16.7 9.10001 14.9C8.40001 14.2 8.00001 13.4 7.90001 12.5C7.90001 12 7.30001 11.8 6.90001 12.2L3.60001 15.5C3.20001 15.9 3.20001 16.5 3.60001 16.9L6.10001 19.4C6.70001 20 6.50001 21 5.70001 21.3C4.80001 21.6 4.00001 22.2 3.50001 23.1C2.70001 24.4 2.70001 26.1 3.60001 27.4C5.10001 29.6 8.10001 29.8 9.80001 28C10.2 27.6 10.6 27 10.8 26.5C11.1 25.7 12.1 25.4 12.7 26L15.2 28.5C15.6 28.9 16.2 28.9 16.6 28.5L19.9 25.2C20.2 24.9 20 24.3 19.5 24.2C18.3 24.1 17.2 23.4 16.5 22.2C15.7 20.9 15.7 19.2 16.6 17.9C18.1 15.7 21.1 15.5 22.8 17.3C23.5 18 23.9 18.8 24 19.7C24 20.2 24.6 20.4 25 20L28.3 16.7C28.7 16.3 28.7 15.7 28.3 15.3L25.8 12.8C25.2 12.2 25.5 11.2 26.3 10.9C26.9 10.7 27.4 10.4 27.8 9.90001C29.6 8.10001 29.4 5.20001 27.2 3.70001Z" stroke="black" stroke-width="2" stroke-miterlimit="10" stroke-linecap="round" stroke-linejoin="round"/>
</svg>
