<svg width="32" height="32" viewBox="0 0 32 32" fill="none" xmlns="http://www.w3.org/2000/svg">
<path d="M15.55 12.88H16.47C16.7591 12.88 17.0363 12.7651 17.2407 12.5607C17.4452 12.3563 17.56 12.0791 17.56 11.79V7.92999C17.5285 7.53653 17.35 7.16936 17.06 6.90161C16.7699 6.63387 16.3897 6.48519 15.995 6.48519C15.6003 6.48519 15.22 6.63387 14.93 6.90161C14.64 7.16936 14.4615 7.53653 14.43 7.92999V11.78C14.43 11.924 14.4585 12.0665 14.5139 12.1994C14.5693 12.3323 14.6505 12.4529 14.7528 12.5543C14.8551 12.6556 14.9764 12.7357 15.1098 12.7899C15.2432 12.8441 15.386 12.8713 15.53 12.87L15.55 12.88ZM16.47 19.13H15.55C15.406 19.13 15.2634 19.1585 15.1305 19.2139C14.9976 19.2693 14.877 19.3505 14.7757 19.4528C14.6743 19.555 14.5943 19.6764 14.5401 19.8098C14.4859 19.9432 14.4587 20.086 14.46 20.23V24.06C14.4915 24.4534 14.67 24.8206 14.96 25.0884C15.25 25.3561 15.6303 25.5048 16.025 25.5048C16.4197 25.5048 16.7999 25.3561 17.09 25.0884C17.38 24.8206 17.5585 24.4534 17.59 24.06V20.23C17.59 19.9382 17.4741 19.6585 17.2678 19.4522C17.0615 19.2459 16.7817 19.13 16.49 19.13H16.47ZM24.08 14.44H7.93999C7.54653 14.4715 7.17937 14.65 6.91162 14.94C6.64387 15.23 6.49519 15.6103 6.49519 16.005C6.49519 16.3997 6.64387 16.7799 6.91162 17.07C7.17937 17.36 7.54653 17.5385 7.93999 17.57H24.08C24.4735 17.5385 24.8406 17.36 25.1084 17.07C25.3761 16.7799 25.5248 16.3997 25.5248 16.005C25.5248 15.6103 25.3761 15.23 25.1084 14.94C24.8406 14.65 24.4735 14.4715 24.08 14.44V14.44ZM25.86 23.44C25.6266 23.44 25.4028 23.3473 25.2377 23.1822C25.0727 23.0172 24.98 22.7934 24.98 22.56C24.98 22.3266 25.0727 22.1028 25.2377 21.9377C25.4028 21.7727 25.6266 21.68 25.86 21.68C27.06 21.68 27.61 21.07 28.32 18.95C28.6394 17.9477 28.8013 16.9019 28.8 15.85C28.7982 14.7738 28.6295 13.7045 28.3 12.68V12.75C27.72 10.39 26.74 10.07 25.86 10.07H21.2C21.0772 10.0831 20.9531 10.0703 20.8356 10.0323C20.7181 9.99433 20.6099 9.93205 20.5181 9.84952C20.4263 9.767 20.3528 9.66607 20.3026 9.5533C20.2523 9.44054 20.2263 9.31845 20.2263 9.19499C20.2263 9.07152 20.2523 8.94944 20.3026 8.83667C20.3528 8.7239 20.4263 8.62298 20.5181 8.54045C20.6099 8.45793 20.7181 8.39565 20.8356 8.35766C20.9531 8.31968 21.0772 8.30684 21.2 8.31999H25.86C27.95 8.31999 29.34 9.66999 30 12.32C30.7399 14.6834 30.7399 17.2165 30 19.58V19.5C29.35 21.47 28.45 23.48 25.86 23.48V23.44ZM16 30.67C14.7759 30.6594 13.5598 30.4708 12.39 30.11H12.48C9.99999 29.41 8.56999 27.88 8.56999 26C8.55685 25.8772 8.56969 25.7531 8.60767 25.6356C8.64565 25.5181 8.70793 25.4099 8.79046 25.3181C8.87298 25.2263 8.97391 25.1528 9.08668 25.1026C9.19944 25.0523 9.32153 25.0263 9.44499 25.0263C9.56846 25.0263 9.69054 25.0523 9.80331 25.1026C9.91608 25.1528 10.017 25.2263 10.0995 25.3181C10.1821 25.4099 10.2443 25.5181 10.2823 25.6356C10.3203 25.7531 10.3331 25.8772 10.32 26C10.32 27.5 11.99 28.19 12.98 28.51C13.9511 28.8137 14.9625 28.9688 15.98 28.97C17.0352 28.9707 18.0841 28.8088 19.09 28.49H19.02C20.8 27.97 21.68 27.13 21.68 25.98V21.28C21.7031 21.064 21.8053 20.8643 21.9668 20.7191C22.1283 20.574 22.3378 20.4937 22.555 20.4937C22.7722 20.4937 22.9817 20.574 23.1432 20.7191C23.3047 20.8643 23.4069 21.064 23.43 21.28V26C23.43 28 22.04 29.46 19.52 30.18C18.3691 30.5313 17.1733 30.7132 15.97 30.72L16 30.67ZM9.43999 11.47C9.3249 11.47 9.21094 11.4472 9.10473 11.4028C8.99852 11.3585 8.90217 11.2935 8.82125 11.2116C8.74033 11.1298 8.67645 11.0327 8.63333 10.926C8.5902 10.8193 8.56867 10.7051 8.56999 10.59V5.89999C8.56999 3.70999 9.23999 2.19999 12.57 1.60999C13.6495 1.4197 14.7438 1.326 15.84 1.32999H16.11C17.2666 1.32795 18.4211 1.42834 19.56 1.62999H19.44C20.5048 1.75616 21.4905 2.25513 22.2227 3.03851C22.9548 3.82189 23.386 4.83911 23.44 5.90999C23.4169 6.12592 23.3147 6.32569 23.1532 6.47085C22.9917 6.61601 22.7822 6.69631 22.565 6.69631C22.3478 6.69631 22.1383 6.61601 21.9768 6.47085C21.8153 6.32569 21.7131 6.12592 21.69 5.90999C21.6319 5.25225 21.3449 4.63574 20.8789 4.16793C20.4129 3.70011 19.7975 3.41065 19.14 3.34999V3.34999C18.1191 3.17723 17.0854 3.09026 16.05 3.08999H15.8C14.7944 3.09166 13.7908 3.17864 12.8 3.34999H12.9C10.45 3.78999 10.33 4.51999 10.33 5.90999V10.6C10.3301 10.8283 10.2415 11.0477 10.0829 11.2119C9.92434 11.3761 9.70814 11.4722 9.47999 11.48L9.43999 11.47ZM10.78 23.47H6.31999C4.12999 23.47 2.58999 22.01 1.94999 19.47C1.62165 18.3153 1.45671 17.1204 1.45999 15.92C1.46953 14.6841 1.65128 13.4557 1.99999 12.27V12.37C2.23087 11.2389 2.84599 10.2226 3.74096 9.49351C4.63594 8.76441 5.75563 8.36744 6.90999 8.36999H6.98999C7.20593 8.3931 7.40569 8.49525 7.55085 8.65678C7.69601 8.81831 7.77632 9.02781 7.77632 9.24499C7.77632 9.46216 7.69601 9.67166 7.55085 9.83319C7.40569 9.99472 7.20593 10.0969 6.98999 10.12H6.87999C6.11923 10.1197 5.38204 10.3839 4.79463 10.8674C4.20722 11.3508 3.80612 12.0234 3.65999 12.77V12.77C3.37256 13.7918 3.22785 14.8485 3.22999 15.91C3.23093 17.0022 3.38235 18.0891 3.67999 19.14V19.05C4.07999 20.81 4.99999 21.7 6.29999 21.7H10.76C10.9759 21.7231 11.1757 21.8253 11.3209 21.9868C11.466 22.1483 11.5463 22.3578 11.5463 22.575C11.5463 22.7922 11.466 23.0017 11.3209 23.1632C11.1757 23.3247 10.9759 23.4269 10.76 23.45L10.78 23.47Z" fill="black"/>
</svg>
