<svg width="32" height="32" viewBox="0 0 32 32" fill="none" xmlns="http://www.w3.org/2000/svg">
<path d="M30 12.36C30.7182 14.6756 30.7182 17.1544 30 19.47C29.26 21.6 28.51 23 26.47 23H16V23.89H23V26.56C23 28.56 21.27 29.56 19.5 30.11C17.2213 30.8237 14.7788 30.8237 12.5 30.11C10.63 29.59 9.00001 28.47 9.00001 26.58V19.91C9.00504 18.9786 9.37385 18.0861 10.0277 17.4229C10.6816 16.7597 11.5688 16.3783 12.5 16.36H19.5C20.6623 16.3291 21.7674 15.8495 22.5839 15.0219C23.4004 14.1942 23.8649 13.0826 23.88 11.92V8.81H26.5C28.51 8.81 29.47 10.34 30 12.36ZM12 6.15C11.7337 6.15397 11.4723 6.07851 11.2491 5.93326C11.0259 5.78801 10.8511 5.57955 10.7469 5.33448C10.6427 5.08942 10.6139 4.81887 10.6641 4.55735C10.7143 4.29584 10.8414 4.05522 11.0289 3.86621C11.2165 3.6772 11.4562 3.54837 11.7173 3.49616C11.9784 3.44395 12.2492 3.47072 12.4951 3.57307C12.7409 3.67542 12.9507 3.84869 13.0976 4.07079C13.2445 4.29288 13.322 4.55371 13.32 4.82C13.32 5.17101 13.1813 5.5078 12.934 5.75694C12.6867 6.00607 12.351 6.14736 12 6.15V6.15ZM12.44 15.48H19.44C19.9086 15.484 20.3734 15.3947 20.8071 15.2172C21.2408 15.0397 21.6348 14.7776 21.9662 14.4462C22.2976 14.1148 22.5597 13.7208 22.7372 13.2871C22.9147 12.8533 23.004 12.3886 23 11.92V5.26C22.9411 4.33744 22.5572 3.46559 21.9164 2.79922C21.2757 2.13285 20.4196 1.71506 19.5 1.62C18.2966 1.42452 17.0792 1.32754 15.86 1.33C14.7372 1.33381 13.6167 1.43081 12.51 1.62C9.52001 2.14 9.00001 3.24 9.00001 5.26V7.92H16V8.81H6.36001C5.33222 8.79609 4.33229 9.14409 3.53521 9.79308C2.73813 10.4421 2.19469 11.3507 2.00001 12.36C1.34507 14.6848 1.34507 17.1452 2.00001 19.47C2.48001 21.55 3.67001 23 5.70001 23H8.11001V19.8C8.13573 18.6519 8.60532 17.5584 9.42017 16.7491C10.235 15.9399 11.3317 15.4778 12.48 15.46L12.44 15.48Z" fill="black"/>
</svg>
