<svg width="32" height="32" viewBox="0 0 32 32" fill="none" xmlns="http://www.w3.org/2000/svg">
<path d="M16 18.63C15.4798 18.63 14.9713 18.4758 14.5388 18.1868C14.1063 17.8978 13.7693 17.487 13.5702 17.0065C13.3711 16.5259 13.3191 15.9971 13.4205 15.4869C13.522 14.9768 13.7725 14.5081 14.1403 14.1403C14.5081 13.7725 14.9767 13.522 15.4869 13.4205C15.9971 13.3191 16.5259 13.3712 17.0065 13.5702C17.487 13.7693 17.8978 14.1064 18.1868 14.5389C18.4757 14.9714 18.63 15.4798 18.63 16C18.63 16.6975 18.3529 17.3665 17.8597 17.8597C17.3665 18.3529 16.6975 18.63 16 18.63V18.63ZM24.36 19.63C23.9695 18.3331 23.4849 17.0664 22.91 15.84L23 16C23.5146 14.8914 23.9523 13.7487 24.31 12.58L24.37 12.37C27.37 13.31 29.2 14.7 29.2 16C29.2 17.3 27.35 18.69 24.37 19.63H24.36ZM22.6 27.43C21.6 28 19.95 27.43 18.01 25.9C17.69 25.65 17.36 25.36 17.01 25.06C17.8628 24.1375 18.6609 23.1659 19.4 22.15L19.46 22.06C20.8066 21.93 22.143 21.7095 23.46 21.4H23.26C23.3533 21.8267 23.4333 22.2467 23.5 22.66C23.86 25.12 23.5 26.84 22.5 27.41L22.6 27.43ZM14.44 22.2H17.56C17.05 22.85 16.56 23.46 16 24.02C15.4477 23.4349 14.9269 22.8206 14.44 22.18V22.2ZM14 25.9C12.05 27.44 10.38 28 9.4 27.43C8.42 26.86 8.07 25.14 8.4 22.7C8.47333 22.2933 8.55333 21.8733 8.64 21.44C9.86489 21.7267 11.1077 21.9305 12.36 22.05H12.48C13.2414 23.1022 14.0698 24.1043 14.96 25.05V25.05C14.64 25.36 14.31 25.65 14 25.9ZM7.64 19.63C4.64 18.69 2.81 17.3 2.81 16C2.81 14.7 4.66 13.31 7.64 12.37C8.03065 13.6734 8.51525 14.9467 9.09 16.18L9 16C8.4888 17.1089 8.05444 18.2516 7.7 19.42L7.64 19.63ZM9.4 4.57001C9.6557 4.4239 9.9455 4.348 10.24 4.35001V4.35001C11.648 4.51693 12.9657 5.13019 14 6.10001V6.10001C14.32 6.36001 14.65 6.65001 15 6.95001C14.1424 7.86832 13.3441 8.84029 12.61 9.86001L12.55 9.95001C11.2027 10.0753 9.86607 10.2958 8.55 10.61H8.75C8.66 10.17 8.58 9.76001 8.51 9.35001C8.07 6.86001 8.42 5.14001 9.4 4.57001ZM17.56 9.81001H14.44C15 9.17001 15.47 8.56001 16 8.00001C16.5518 8.57519 17.0725 9.17938 17.56 9.81001V9.81001ZM22.18 14.25C21.95 13.79 21.7 13.34 21.44 12.89C21.18 12.44 20.91 11.99 20.63 11.55C21.46 11.67 22.26 11.81 22.99 11.99C22.73 12.73 22.47 13.48 22.18 14.25V14.25ZM21.4 19.09C21.66 18.64 21.91 18.18 22.14 17.73C22.45 18.49 22.72 19.25 22.95 19.99C22.22 20.16 21.42 20.31 20.59 20.43C20.86 20 21.15 19.56 21.4 19.09V19.09ZM10.62 16C10.99 15.21 11.41 14.41 11.88 13.62C12.35 12.83 12.82 12.06 13.31 11.34C14.17 11.27 15.06 11.24 16 11.24C16.8978 11.2219 17.796 11.2553 18.69 11.34C19.18 12.06 19.69 12.82 20.12 13.62C20.55 14.42 21 15.21 21.38 16C21.01 16.79 20.59 17.59 20.12 18.38C19.65 19.17 19.18 19.94 18.69 20.66C17.83 20.73 16.94 20.76 16 20.76C15.1022 20.7781 14.204 20.7448 13.31 20.66C12.7858 19.9309 12.3081 19.1694 11.88 18.38C11.48 17.59 11 16.79 10.62 16ZM9 12C9.73 11.82 10.53 11.68 11.36 11.56C11.08 12 10.82 12.44 10.55 12.9C10.28 13.36 10.04 13.8 9.81 14.26C9.52 13.49 9.27 12.74 9.04 12H9ZM9.81 17.76C10.05 18.21 10.29 18.67 10.55 19.12C10.81 19.57 11.08 20.02 11.36 20.46C10.53 20.34 9.73 20.19 9 20.02C9.27 19.27 9.53 18.51 9.82 17.75L9.81 17.76ZM18.06 6.09001C19.0748 5.14156 20.3622 4.53633 21.74 4.36001H21.81C22.1075 4.35903 22.4003 4.43481 22.66 4.58001V4.58001C23.66 5.15001 23.99 6.87001 23.66 9.31001C23.59 9.72001 23.51 10.13 23.42 10.57C22.1821 10.2894 20.9255 10.0989 19.66 10H19.55C18.7716 8.94701 17.9265 7.94496 17.02 7.00001C17.3354 6.69624 17.6694 6.41236 18.02 6.15001L18.06 6.09001ZM30.67 16C30.67 13.87 28.38 12.05 24.74 10.94C24.85 10.45 24.94 9.94001 25.02 9.52001C25.48 6.42001 24.88 4.20001 23.33 3.33001C21.78 2.46001 19.57 3.00001 17.14 5.00001C16.77 5.29001 16.41 5.62001 16.04 6.00001C15.67 5.66001 15.31 5.33001 14.94 5.00001C12.48 3.00001 10.26 2.45001 8.75 3.35001C7.24 4.25001 6.6 6.42001 7.06 9.52001C7.14 9.98001 7.23 10.45 7.34 10.94C3.63 12.05 1.34 13.87 1.34 16C1.34 18.13 3.63 20 7.26 21.06C7.15 21.54 7.06 22.06 6.98 22.48C6.52 25.57 7.12 27.8 8.67 28.67C9.13847 28.9394 9.66958 29.0808 10.21 29.08C11.9606 28.9255 13.6103 28.1939 14.9 27V27C15.27 26.71 15.63 26.38 16 26C16.37 26.34 16.73 26.67 17.1 27C18.374 28.1663 19.9912 28.889 21.71 29.06H21.79C22.3345 29.0577 22.8688 28.9129 23.34 28.64V28.64C24.89 27.74 25.49 25.54 25.03 22.45C24.95 21.99 24.86 21.52 24.75 21.03C28.37 20 30.67 18.13 30.67 16Z" fill="black"/>
</svg>
