<svg width="32" height="32" viewBox="0 0 32 32" fill="none" xmlns="http://www.w3.org/2000/svg">
<path d="M30.84 13.85V18C30.8357 18.0555 30.8154 18.1086 30.7818 18.1529C30.7481 18.1973 30.7023 18.231 30.65 18.25L16.3 23.93H16.07L1.71999 18.21C1.67571 18.193 1.63668 18.1646 1.60683 18.1278C1.57699 18.0909 1.55738 18.0468 1.54999 18V13.9C1.54999 13.9 1.62999 13.9 1.69999 13.9L16.05 19.62H16.27L30.62 13.9C30.62 13.9 30.83 13.81 30.84 13.85ZM1.48999 11.42V7.31999C1.49212 7.26275 1.51007 7.20721 1.54184 7.15955C1.57361 7.11189 1.61797 7.07397 1.66999 7.04999L16 1.32999H16.22L30.59 7.04999C30.6457 7.07242 30.6945 7.10923 30.7314 7.15666C30.7683 7.20408 30.792 7.26044 30.8 7.31999V11.42C30.7939 11.4774 30.7732 11.5324 30.74 11.5796C30.7067 11.6268 30.662 11.6648 30.61 11.69L16.25 17.4H16L1.66999 11.69C1.61927 11.6643 1.57605 11.6259 1.54451 11.5786C1.51297 11.5313 1.49419 11.4767 1.48999 11.42V11.42ZM18.26 9.41999L11.49 10.13L16.77 12.23L18.26 9.42999V9.41999ZM22.77 5.81999L19.15 7.31999L23.25 8.99999C23.25 8.99999 26.88 7.45999 26.87 7.44999L22.77 5.81999ZM14 4.28999L11.27 4.80999L14.44 5.16999L15.16 6.42999L16.46 5.25999L19.64 5.48999L17.41 4.48999L18.56 3.39999L15.77 3.99999L13.38 3.15999L14 4.28999ZM5.47999 7.51999C5.47999 8.27999 6.99999 8.89999 8.75999 8.89999C10.52 8.89999 12.05 8.27999 12.05 7.51999C12.05 6.75999 10.58 6.13999 8.75999 6.13999C6.93999 6.13999 5.47999 6.75999 5.47999 7.51999ZM30.62 20.61L16.27 26.32H16.05L1.69999 20.61C1.62999 20.61 1.53999 20.61 1.54999 20.61V24.71C1.55015 24.7639 1.56642 24.8165 1.59672 24.861C1.62701 24.9056 1.66995 24.94 1.71999 24.96L16.07 30.69H16.3L30.65 24.96C30.7023 24.941 30.7481 24.9073 30.7818 24.8629C30.8154 24.8186 30.8357 24.7655 30.84 24.71V20.61C30.83 20.54 30.62 20.61 30.62 20.61Z" fill="black"/>
</svg>
