<svg width="32" height="32" viewBox="0 0 32 32" fill="none" xmlns="http://www.w3.org/2000/svg">
<path d="M24.25 13.81C22.1351 12.5444 19.7147 11.8805 17.25 11.89C16.9 11.89 16.56 11.89 16.25 11.89H16.3C16.1209 11.4585 15.8012 11.1004 15.3927 10.8737C14.9842 10.647 14.5111 10.5651 14.0502 10.6413C13.5894 10.7176 13.1678 10.9475 12.8542 11.2937C12.5405 11.6399 12.3532 12.082 12.3226 12.5481C12.292 13.0143 12.42 13.477 12.6858 13.8612C12.9516 14.2454 13.3395 14.5284 13.7865 14.6642C14.2334 14.8 14.7132 14.7806 15.1477 14.6092C15.5823 14.4377 15.9461 14.1244 16.18 13.72V13.72C16.2043 13.68 16.2213 13.636 16.23 13.59V13.59C16.6086 13.5485 16.9892 13.5284 17.37 13.53C19.5313 13.5258 21.6508 14.1249 23.49 15.26H23.44C27.97 17.88 30.2 22.47 28.44 25.56C26.93 28.16 23.05 28.83 19.16 27.41C18.6864 27.8087 18.1924 28.1825 17.68 28.53H17.62C22.56 30.73 27.84 29.88 29.87 26.36C32.07 22.55 29.56 16.9 24.23 13.83L24.25 13.81ZM20.69 17.94C20.3722 18.1188 20.1076 18.3786 19.9231 18.6931C19.7387 19.0076 19.641 19.3654 19.64 19.73C19.6409 20.1028 19.741 20.4687 19.93 20.79C19.9657 20.8314 19.9991 20.8748 20.03 20.92V20.92C18.9822 23.2049 17.2299 25.0939 15.03 26.31H14.97C10.45 28.88 5.33001 28.5 3.58001 25.42C2.12001 22.88 3.39001 19.3 6.41001 16.65C6.28066 16.0364 6.19048 15.4151 6.14001 14.79V14.73C1.90001 17.92 0.140006 22.79 2.14001 26.31C4.38001 30.18 10.52 30.83 15.84 27.76C18.2431 26.4058 20.1837 24.3607 21.41 21.89V21.81H21.7C22.2447 21.8207 22.7714 21.6153 23.165 21.2386C23.5586 20.8619 23.7869 20.3446 23.8 19.8C23.7991 19.4272 23.699 19.0613 23.51 18.74V18.74C23.3388 18.4093 23.0786 18.133 22.7588 17.9422C22.439 17.7514 22.0723 17.6537 21.7 17.66C21.3492 17.6638 21.0051 17.7567 20.7 17.93L20.69 17.94ZM13.81 22.46C13.8052 22.7871 13.723 23.1084 13.57 23.3975C13.4171 23.6867 13.1978 23.9355 12.9301 24.1235C12.6624 24.3116 12.354 24.4335 12.0301 24.4793C11.7062 24.5251 11.376 24.4935 11.0667 24.387C10.7574 24.2806 10.4777 24.1024 10.2506 23.867C10.0234 23.6316 9.85533 23.3457 9.76003 23.0327C9.66472 22.7198 9.64494 22.3888 9.7023 22.0667C9.75966 21.7447 9.89252 21.4408 10.09 21.18V21.18C8.55349 18.9401 7.73395 16.2862 7.74001 13.57C7.74001 13.5 7.74001 13.42 7.74001 13.35C7.74001 7.22 11.37 2.22 15.85 2.22C19.97 2.22 23.31 6.34 23.85 11.77C23.3158 11.5144 22.7684 11.2874 22.21 11.09H22.08C21.38 6.97 18.86 3.88 15.84 3.88C12.28 3.88 9.40001 8.14 9.40001 13.35C9.39481 13.4366 9.39481 13.5234 9.40001 13.61C9.39755 16.052 10.1599 18.4334 11.58 20.42V20.42H11.75C12.2973 20.42 12.8223 20.6367 13.2102 21.0228C13.5981 21.4088 13.8174 21.9327 13.82 22.48V22.48L13.81 22.46Z" fill="black"/>
</svg>
