<svg width="32" height="32" viewBox="0 0 32 32" fill="none" xmlns="http://www.w3.org/2000/svg">
<path fill-rule="evenodd" clip-rule="evenodd" d="M5 30H27C28.7 30 30 28.7 30 27V26.2C30 26 29.7 25.8 29.5 25.7L28.6 25.2L20.5 21.4C19.9 21.1 19.8 20.3 20.3 19.9C20.9 19.4 21.4 18.9 21.8 18.2C22.2 17.5 22.6 16.8 22.8 16.1C23.1 15.4 23.2 14.7 23.4 14C23.5 13.3 23.6 12.7 23.6 12.3V7.6C23.6 7 23.4 6.4 23 5.8C22.6 5.1 22 4.5 21.3 3.9C20.6 3.3 19.8 2.9 18.9 2.5C17.9 2.2 17 2 16.1 2C15.2 2 14.3 2.2 13.4 2.5C12.5 2.9 11.6 3.3 10.9 3.9C10.2 4.5 9.6 5.1 9.2 5.8C8.8 6.4 8.6 7 8.6 7.6V12.3C8.6 12.8 8.7 13.3 8.8 14C8.9 14.7 9.1 15.4 9.4 16.1C9.7 16.8 10 17.5 10.4 18.2C10.8 18.8 11.3 19.4 11.9 19.9C12.4 20.3 12.3 21.1 11.7 21.4L3.6 25.2L2.7 25.7C2.3 25.8 2 26 2 26.2V27C2 28.6 3.4 30 5 30Z" stroke="black" stroke-width="2" stroke-miterlimit="10" stroke-linecap="round"/>
<path d="M22.3 22.2C21.1 24.4 18.7 26 16 26C13.3 26 10.9 24.5 9.8 22.2" stroke="black" stroke-width="2" stroke-miterlimit="10" stroke-linecap="round"/>
<path d="M22 27H24" stroke="black" stroke-width="2" stroke-miterlimit="10" stroke-linecap="round" stroke-linejoin="round"/>
</svg>
