<svg width="32" height="32" viewBox="0 0 32 32" fill="none" xmlns="http://www.w3.org/2000/svg">
<path d="M27.09 14L25.66 13.81V9.80999L27.09 10.32V14ZM20.68 10.66L17.76 11.15V14.35L19.23 14.45L20.68 14.37V27.05L16 29.42V2.59999L20.68 4.93999V10.66ZM14.23 12.42L6.31999 11.42V7.45999L14.23 9.31999V12.42ZM27.53 9.09999L26.11 8.57999C25.9743 8.53568 25.8327 8.51208 25.69 8.50999H25.45L22 9.05999V4.92999C22.0016 4.6922 21.937 4.45865 21.8134 4.25552C21.6897 4.0524 21.512 3.88773 21.3 3.77999V3.77999L16.58 1.46999C16.3975 1.3862 16.2006 1.33865 16 1.32999V1.32999C15.7957 1.33485 15.5947 1.38254 15.41 1.46999V1.46999L10.73 3.81999C10.507 3.92467 10.3192 4.09196 10.1896 4.30148C10.06 4.511 9.9941 4.75369 9.99999 4.99999V4.99999V6.99999L6.60999 6.19999H6.31999C6.11828 6.19993 5.91946 6.24792 5.73999 6.33999V6.33999L4.31999 7.05999C4.11134 7.16492 3.9351 7.32452 3.81005 7.52177C3.68501 7.71902 3.61586 7.94652 3.60999 8.17999V8.17999V11.75C3.62194 12.061 3.74423 12.3576 3.95495 12.5866C4.16567 12.8157 4.45106 12.9622 4.75999 13V13L10.01 13.59V27C10.0083 27.2378 10.0729 27.4713 10.1966 27.6744C10.3202 27.8776 10.498 28.0422 10.71 28.15V28.15L15.4 30.5C15.5824 30.5838 15.7794 30.6313 15.98 30.64V30.64C16.1836 30.6302 16.3837 30.5827 16.57 30.5V30.5L21.25 28.15C21.4713 28.0493 21.6594 27.8877 21.7922 27.684C21.925 27.4804 21.9971 27.2431 22 27V15.54L27.16 15.27C27.4848 15.2477 27.7897 15.1054 28.0152 14.8706C28.2408 14.6358 28.3708 14.3254 28.38 14V14V10.23C28.3715 9.97249 28.2873 9.72322 28.1379 9.51333C27.9885 9.30345 27.7805 9.14228 27.54 9.04999L27.53 9.09999Z" fill="black"/>
</svg>
