<svg width="32" height="32" viewBox="0 0 32 32" fill="none" xmlns="http://www.w3.org/2000/svg">
<path d="M18 12H14C11.8 12 10 10.2 10 8V7C10 4.8 11.8 3 14 3H18C20.2 3 22 4.8 22 7" stroke="black" stroke-width="2" stroke-miterlimit="10" stroke-linecap="round"/>
<path d="M18 12C20.2 12 22 13.8 22 16C22 18.2 20.2 20 18 20" stroke="black" stroke-width="2" stroke-miterlimit="10" stroke-linecap="round"/>
<path d="M14 20C11.8 20 10 18.2 10 16C10 13.8 11.8 12 14 12" stroke="black" stroke-width="2" stroke-miterlimit="10" stroke-linecap="round"/>
<path d="M14 20H18C20.2 20 22 21.8 22 24V25C22 27.2 20.2 29 18 29H14C11.8 29 10 27.2 10 25" stroke="black" stroke-width="2" stroke-miterlimit="10" stroke-linecap="round"/>
</svg>
