<svg width="32" height="32" viewBox="0 0 32 32" fill="none" xmlns="http://www.w3.org/2000/svg">
<path d="M20 20H12C9.8 20 8 18.2 8 16C8 13.8 9.8 12 12 12H20C22.2 12 24 13.8 24 16C24 18.2 22.2 20 20 20Z" stroke="black" stroke-width="2" stroke-miterlimit="10" stroke-linecap="round"/>
<path d="M15 12C12.8 12 11 10.2 11 8C11 5.8 12.8 4 15 4H20C22.2 4 24 5.8 24 8" stroke="black" stroke-width="2" stroke-miterlimit="10" stroke-linecap="round"/>
<path d="M17 20C19.2 20 21 21.8 21 24C21 26.2 19.2 28 17 28H12C9.8 28 8 26.2 8 24" stroke="black" stroke-width="2" stroke-miterlimit="10" stroke-linecap="round"/>
</svg>
