<svg width="32" height="32" viewBox="0 0 32 32" fill="none" xmlns="http://www.w3.org/2000/svg">
<path d="M19.68 26.17C19.02 19.23 15.39 14.25 9.68 10.49C11.09 8.15001 12.3 5.84001 13.8 3.73001C15.07 1.91001 17.48 2.22001 18.73 4.24001C19.98 6.26001 21.18 8.42001 22.38 10.52C24.01 13.42 25.63 16.35 27.27 19.24C28.18 20.87 29.19 22.46 30.03 24.13C30.4482 24.9268 30.6742 25.8103 30.69 26.71V26.71C30.685 27.407 30.4086 28.0747 29.9194 28.5713C29.4303 29.0679 28.7669 29.3544 28.07 29.37V29.37C27.31 29.45 26.53 29.43 25.76 29.44C25.4856 29.432 25.2118 29.4086 24.94 29.37V29.37V26.28C25.29 26.28 25.61 26.22 25.94 26.21C27.31 26.21 27.56 25.8 26.94 24.63L23.86 19.2C21.54 15.2 19.2633 11.2167 17.03 7.25001C16.27 5.93001 15.83 5.94001 15.09 7.25001L13.94 9.25001C13.9408 9.35307 13.9204 9.45519 13.88 9.55001C19.77 14.76 23.21 21.13 22.68 29.37H14.54C14.54 28.96 14.6 28.49 14.6 28C14.6072 25.2511 13.8338 22.5567 12.37 20.23V20.29C11.5453 19.0936 10.6573 17.9419 9.71 16.84C9.47 17.16 9.4 17.28 9.31 17.39C8.5 18.39 8.52 19.09 9.46 20.14C11.3186 22.2738 12.3385 25.0103 12.33 27.84C12.3322 28.3716 12.2988 28.9028 12.23 29.43V29.37C11.9498 29.4259 11.6655 29.4594 11.38 29.47H4.91C1.59 29.52 0.560001 26.59 1.91 24.31C2.41 23.48 2.91 22.61 3.45 21.65L5.82 23.46C5.51 24 5.25 24.46 5.02 24.89C4.6 25.71 4.84 26.19 5.75 26.22H9.18C8.93667 24.8708 8.39929 23.5917 7.60602 22.4735C6.81275 21.3553 5.78304 20.4255 4.59 19.75V19.75C5.92 17.34 7.26 15 8.66 12.59C11.1038 13.9752 13.1817 15.9236 14.7209 18.2734C16.2602 20.6231 17.2164 23.3064 17.51 26.1V26.18H18.61C18.9707 26.1865 19.3314 26.1698 19.69 26.13L19.68 26.17Z" fill="black"/>
</svg>
