<svg width="32" height="32" viewBox="0 0 32 32" fill="none" xmlns="http://www.w3.org/2000/svg">
<path d="M13.4 20.3C12 19.4 11 17.8 11 16C11 13.2 13.2 11 16 11C17.8 11 19.4 12 20.3 13.4" stroke="black" stroke-width="2" stroke-miterlimit="10" stroke-linecap="round"/>
<path d="M25.5 13.1L24.7 11.3C24.7 11.3 26.3 8.7 26.3 8.3C26.3 8.1 26 7.7 25.1 6.8C24.2 5.9 23.8 5.6 23.6 5.6C23.2 5.6 20.6 7.2 20.6 7.2L18.8 6.4C18.8 6.4 18.1 3.4 17.8 3.1C17.7 3 17.3 3 16 3C14.7 3 14.3 3 14.1 3.2C13.8 3.5 13.1 6.5 13.1 6.5L11.3 7.3C11.3 7.3 8.7 5.7 8.3 5.7C8.1 5.7 7.7 6 6.8 6.9C5.9 7.7 5.6 8.1 5.6 8.3C5.6 8.7 7.2 11.3 7.2 11.3L6.4 13.1C6.4 13.1 3.4 13.8 3.1 14.1C3 14.3 3 14.7 3 16C3 17.3 3 17.7 3.2 17.9C3.5 18.2 6.5 18.9 6.5 18.9L7.3 20.7C7.3 20.7 5.7 23.3 5.7 23.7C5.7 23.9 6 24.3 6.9 25.2C7.8 26.1 8.2 26.4 8.4 26.4C8.8 26.4 11.4 24.8 11.4 24.8L13.2 25.6" stroke="black" stroke-width="2" stroke-miterlimit="10" stroke-linecap="round"/>
<path d="M23 30C26.866 30 30 26.866 30 23C30 19.134 26.866 16 23 16C19.134 16 16 19.134 16 23C16 26.866 19.134 30 23 30Z" stroke="black" stroke-width="2" stroke-miterlimit="10"/>
<path d="M26 23L23 20L20 23" stroke="black" stroke-width="2" stroke-miterlimit="10" stroke-linecap="round"/>
<path d="M23 26V20.1" stroke="black" stroke-width="2" stroke-miterlimit="10" stroke-linecap="round"/>
</svg>
