<svg width="32" height="32" viewBox="0 0 32 32" fill="none" xmlns="http://www.w3.org/2000/svg">
<path d="M3 10L6 4H26L29 10H3Z" stroke="black" stroke-width="2" stroke-miterlimit="10" stroke-linejoin="round"/>
<path d="M13 19H9V23H13V19Z" stroke="black" stroke-width="2" stroke-miterlimit="10"/>
<path d="M29 10V11.8C29 13.4 27.8 14.8 26.3 14.9C25.2 15 24.2 14.5 23.6 13.7H23.5C22.9 14.5 22 15 21 15C20 15 19.1 14.5 18.6 13.7H18.5C17.9 14.5 17 15 16 15C15 15 14.1 14.5 13.6 13.7H13.5C12.9 14.5 12 15 11 15C10 15 9.1 14.5 8.6 13.7H8.5C7.9 14.5 6.9 15 5.8 14.9C4.2 14.8 3 13.4 3 11.8V10" stroke="black" stroke-width="2" stroke-miterlimit="10" stroke-linecap="round" stroke-linejoin="round"/>
<path d="M5 14.8V25C5 26.7 6.6 28 8.7 28H17V19H21.9V28H23.4C25.4 28 27.1 26.7 27.1 25V14.8" stroke="black" stroke-width="2" stroke-miterlimit="10"/>
</svg>
