<svg width="32" height="32" viewBox="0 0 32 32" fill="none" xmlns="http://www.w3.org/2000/svg">
<path d="M6.91 23.39C6.63152 23.39 6.36445 23.2794 6.16754 23.0824C5.97062 22.8855 5.86 22.6185 5.86 22.34C5.86 22.0615 5.97062 21.7944 6.16754 21.5975C6.36445 21.4006 6.63152 21.29 6.91 21.29H17.06C17.3385 21.29 17.6055 21.4006 17.8025 21.5975C17.9994 21.7944 18.11 22.0615 18.11 22.34C18.11 22.6185 17.9994 22.8855 17.8025 23.0824C17.6055 23.2794 17.3385 23.39 17.06 23.39H6.91ZM24.03 23.39C23.7515 23.39 23.4844 23.2794 23.2875 23.0824C23.0906 22.8855 22.98 22.6185 22.98 22.34C22.98 22.0615 23.0906 21.7944 23.2875 21.5975C23.4844 21.4006 23.7515 21.29 24.03 21.29H25.03C25.3085 21.29 25.5755 21.4006 25.7725 21.5975C25.9694 21.7944 26.08 22.0615 26.08 22.34C26.08 22.6185 25.9694 22.8855 25.7725 23.0824C25.5755 23.2794 25.3085 23.39 25.03 23.39H24.03ZM6.91 18.16C6.64791 18.1344 6.40472 18.0123 6.22778 17.8172C6.05085 17.6222 5.95283 17.3683 5.95283 17.105C5.95283 16.8417 6.05085 16.5878 6.22778 16.3927C6.40472 16.1977 6.64791 16.0755 6.91 16.05H12.84C13.1021 16.0755 13.3453 16.1977 13.5222 16.3927C13.6992 16.5878 13.7972 16.8417 13.7972 17.105C13.7972 17.3683 13.6992 17.6222 13.5222 17.8172C13.3453 18.0123 13.1021 18.1344 12.84 18.16H6.91ZM24.03 18.16C23.7679 18.1344 23.5247 18.0123 23.3478 17.8172C23.1708 17.6222 23.0728 17.3683 23.0728 17.105C23.0728 16.8417 23.1708 16.5878 23.3478 16.3927C23.5247 16.1977 23.7679 16.0755 24.03 16.05H25.03C25.2921 16.0755 25.5353 16.1977 25.7122 16.3927C25.8892 16.5878 25.9872 16.8417 25.9872 17.105C25.9872 17.3683 25.8892 17.6222 25.7122 17.8172C25.5353 18.0123 25.2921 18.1344 25.03 18.16H24.03ZM24.03 12.92C23.7515 12.92 23.4844 12.8094 23.2875 12.6124C23.0906 12.4155 22.98 12.1485 22.98 11.87C22.98 11.5915 23.0906 11.3244 23.2875 11.1275C23.4844 10.9306 23.7515 10.82 24.03 10.82H25.03C25.3085 10.82 25.5755 10.9306 25.7725 11.1275C25.9694 11.3244 26.08 11.5915 26.08 11.87C26.08 12.1485 25.9694 12.4155 25.7725 12.6124C25.5755 12.8094 25.3085 12.92 25.03 12.92H24.03ZM6.91 12.92C6.63152 12.92 6.36445 12.8094 6.16754 12.6124C5.97062 12.4155 5.86 12.1485 5.86 11.87C5.86 11.5915 5.97062 11.3244 6.16754 11.1275C6.36445 10.9306 6.63152 10.82 6.91 10.82H19.13C19.4085 10.82 19.6755 10.9306 19.8725 11.1275C20.0694 11.3244 20.18 11.5915 20.18 11.87C20.18 12.1485 20.0694 12.4155 19.8725 12.6124C19.6755 12.8094 19.4085 12.92 19.13 12.92H6.91ZM28 1.32999C28.3493 1.3313 28.695 1.4014 29.0172 1.53629C29.3394 1.67118 29.6319 1.86822 29.878 2.11615C30.1241 2.36408 30.3189 2.65805 30.4513 2.98128C30.5838 3.30451 30.6513 3.65067 30.65 3.99999V28.88C30.6498 29.1469 30.5759 29.4086 30.4365 29.6362C30.2972 29.8638 30.0976 30.0485 29.86 30.17C29.622 30.2904 29.3557 30.3437 29.0897 30.3243C28.8238 30.305 28.568 30.2136 28.35 30.06L26.97 29.06L23.88 30.52C23.6783 30.6212 23.4557 30.6738 23.23 30.6738C23.0043 30.6738 22.7817 30.6212 22.58 30.52L19.79 29L16.62 30.5C16.4165 30.6013 16.1923 30.654 15.965 30.654C15.7377 30.654 15.5135 30.6013 15.31 30.5L12.53 29L9.35 30.53C9.15591 30.621 8.94436 30.6688 8.73 30.67C8.50079 30.6668 8.27523 30.6121 8.07 30.51L5.23 29.06L3.6 30.13C3.38128 30.2755 3.12713 30.3589 2.86469 30.3713C2.60225 30.3836 2.3414 30.3244 2.11 30.2C1.88016 30.0744 1.68832 29.8893 1.55461 29.6641C1.4209 29.4389 1.35022 29.1819 1.35 28.92V8.23999C1.35261 7.53704 1.63233 6.86349 2.12845 6.3655C2.62457 5.8675 3.29707 5.58525 4 5.57999H20.54C20.8021 5.60553 21.0453 5.72772 21.2222 5.92274C21.3991 6.11776 21.4972 6.37166 21.4972 6.63499C21.4972 6.89831 21.3991 7.15221 21.2222 7.34723C21.0453 7.54226 20.8021 7.66444 20.54 7.68999H4C3.92693 7.68866 3.85434 7.7019 3.78645 7.72895C3.71856 7.75599 3.65675 7.79629 3.60461 7.8475C3.55247 7.8987 3.51106 7.95979 3.4828 8.02717C3.45454 8.09456 3.43999 8.16691 3.44 8.23999V27.71L4.38 27.1C4.59331 26.9525 4.8425 26.8653 5.10124 26.8477C5.35998 26.8301 5.61868 26.8827 5.85 27L8.74 28.47L11.92 27C12.1224 26.901 12.3447 26.8496 12.57 26.8496C12.7953 26.8496 13.0176 26.901 13.22 27L16 28.49L19.18 27C19.3824 26.901 19.6047 26.8496 19.83 26.8496C20.0553 26.8496 20.2776 26.901 20.48 27L23.27 28.47L26.41 27C26.644 26.887 26.9041 26.8395 27.1629 26.8624C27.4217 26.8853 27.6695 26.9777 27.88 27.13L28.55 27.61V3.99999C28.5513 3.92644 28.5381 3.85336 28.5112 3.78491C28.4843 3.71646 28.4442 3.65398 28.3931 3.60105C28.342 3.54812 28.281 3.50577 28.2136 3.47642C28.1461 3.44707 28.0735 3.43129 28 3.42999H2.4C2.12152 3.42999 1.85445 3.31936 1.65754 3.12245C1.46062 2.92554 1.35 2.65846 1.35 2.37999C1.35 2.10151 1.46062 1.83444 1.65754 1.63752C1.85445 1.44061 2.12152 1.32999 2.4 1.32999H28Z" fill="black"/>
</svg>
