<svg width="32" height="32" viewBox="0 0 32 32" fill="none" xmlns="http://www.w3.org/2000/svg">
<path d="M21.24 24.38H10.76V18.09H21.24V24.38ZM12.86 15C12.86 14.1672 13.1908 13.3685 13.7797 12.7797C14.3686 12.1908 15.1672 11.86 16 11.86C16.8328 11.86 17.6315 12.1908 18.2203 12.7797C18.8092 13.3685 19.14 14.1672 19.14 15V16H12.86V15ZM22.29 16H21.24V15C21.24 13.6103 20.6879 12.2774 19.7052 11.2948C18.7226 10.3121 17.3897 9.76 16 9.76C14.6103 9.76 13.2775 10.3121 12.2948 11.2948C11.3121 12.2774 10.76 13.6103 10.76 15V16H9.76C9.62022 15.9928 9.48049 16.0151 9.34984 16.0653C9.2192 16.1155 9.10055 16.1926 9.00158 16.2916C8.90261 16.3905 8.82551 16.5092 8.77529 16.6398C8.72506 16.7705 8.70282 16.9102 8.71 17.05V25.43C8.70282 25.5698 8.72506 25.7095 8.77529 25.8402C8.82551 25.9708 8.90261 26.0894 9.00158 26.1884C9.10055 26.2874 9.2192 26.3645 9.34984 26.4147C9.48049 26.4649 9.62022 26.4872 9.76 26.48H22.28C22.4156 26.4802 22.5499 26.4527 22.6746 26.3994C22.7993 26.346 22.9118 26.2679 23.0054 26.1697C23.0989 26.0714 23.1715 25.9552 23.2187 25.8281C23.2659 25.7009 23.2868 25.5655 23.28 25.43V17.05C23.2868 16.9145 23.2659 16.7791 23.2187 16.6519C23.1715 16.5248 23.0989 16.4086 23.0054 16.3103C22.9118 16.2121 22.7993 16.134 22.6746 16.0806C22.5499 16.0273 22.4156 15.9998 22.28 16H22.29ZM30.67 4.48V27.48C30.67 28.3154 30.3381 29.1166 29.7474 29.7074C29.1566 30.2981 28.3554 30.63 27.52 30.63H4.52C3.68457 30.63 2.88336 30.2981 2.29262 29.7074C1.70188 29.1166 1.37 28.3154 1.37 27.48V8.67C1.36993 7.84145 1.69631 7.04624 2.27843 6.45663C2.86054 5.86703 3.65152 5.53052 4.48 5.52H13.9C14.1785 5.52 14.4456 5.63062 14.6425 5.82753C14.8394 6.02445 14.95 6.29152 14.95 6.57C14.95 6.84847 14.8394 7.11554 14.6425 7.31246C14.4456 7.50937 14.1785 7.62 13.9 7.62H4.48C4.34453 7.61321 4.2091 7.63406 4.08195 7.68127C3.95479 7.72848 3.83857 7.80106 3.74035 7.89461C3.64213 7.98815 3.56396 8.1007 3.51061 8.2254C3.45726 8.3501 3.42983 8.48436 3.43 8.62V27.52C3.42282 27.6598 3.44506 27.7995 3.49529 27.9302C3.54551 28.0608 3.62261 28.1794 3.72158 28.2784C3.82055 28.3774 3.9392 28.4545 4.06984 28.5047C4.20049 28.5549 4.34022 28.5772 4.48 28.57H27.48C27.6198 28.5772 27.7595 28.5549 27.8902 28.5047C28.0208 28.4545 28.1395 28.3774 28.2384 28.2784C28.3374 28.1794 28.4145 28.0608 28.4647 27.9302C28.5149 27.7995 28.5372 27.6598 28.53 27.52V4.52C28.5372 4.38021 28.5149 4.24048 28.4647 4.10983C28.4145 3.97919 28.3374 3.86054 28.2384 3.76157C28.1395 3.6626 28.0208 3.58551 27.8902 3.53528C27.7595 3.48505 27.6198 3.46281 27.48 3.47H2.38C2.10152 3.47 1.83445 3.35937 1.63754 3.16246C1.44063 2.96554 1.33 2.69847 1.33 2.42C1.33 2.14152 1.44063 1.87445 1.63754 1.67753C1.83445 1.48062 2.10152 1.37 2.38 1.37H27.52C28.3554 1.37 29.1566 1.70187 29.7474 2.29261C30.3381 2.88335 30.67 3.68456 30.67 4.52V4.48Z" fill="black"/>
</svg>
