<svg width="32" height="32" viewBox="0 0 32 32" fill="none" xmlns="http://www.w3.org/2000/svg">
<path d="M7.3 20C7.3 20.623 7.11526 21.232 6.76913 21.7501C6.423 22.2681 5.93104 22.6718 5.35545 22.9102C4.77987 23.1486 4.14651 23.211 3.53547 23.0895C2.92443 22.9679 2.36315 22.6679 1.92262 22.2274C1.48208 21.7869 1.18207 21.2256 1.06053 20.6145C0.938984 20.0035 1.00136 19.3701 1.23978 18.7946C1.4782 18.219 1.88194 17.727 2.39996 17.3809C2.91797 17.0348 3.52699 16.85 4.15 16.85H7.3V20Z" fill="black"/>
<path d="M8.89 20C8.89 19.5863 8.97148 19.1767 9.12978 18.7946C9.28808 18.4124 9.52011 18.0651 9.81261 17.7726C10.1051 17.4801 10.4524 17.2481 10.8345 17.0898C11.2167 16.9315 11.6263 16.85 12.04 16.85C12.4537 16.85 12.8633 16.9315 13.2455 17.0898C13.6276 17.2481 13.9749 17.4801 14.2674 17.7726C14.5599 18.0651 14.7919 18.4124 14.9502 18.7946C15.1085 19.1767 15.19 19.5863 15.19 20V27.89C15.19 28.3037 15.1085 28.7133 14.9502 29.0955C14.7919 29.4776 14.5599 29.8249 14.2674 30.1174C13.9749 30.4099 13.6276 30.6419 13.2455 30.8002C12.8633 30.9585 12.4537 31.04 12.04 31.04C11.6263 31.04 11.2167 30.9585 10.8345 30.8002C10.4524 30.6419 10.1051 30.4099 9.81261 30.1174C9.52011 29.8249 9.28808 29.4776 9.12978 29.0955C8.97148 28.7133 8.89 28.3037 8.89 27.89V20Z" fill="black"/>
<path d="M12 7.3C11.377 7.3 10.768 7.11526 10.25 6.76913C9.73195 6.423 9.3282 5.93104 9.08979 5.35545C8.85137 4.77987 8.78899 4.14651 8.91053 3.53547C9.03208 2.92443 9.33209 2.36315 9.77262 1.92262C10.2132 1.48208 10.7744 1.18207 11.3855 1.06053C11.9965 0.938984 12.6299 1.00136 13.2055 1.23978C13.781 1.4782 14.273 1.88194 14.6191 2.39996C14.9653 2.91797 15.15 3.52699 15.15 4.15V7.3H12Z" fill="black"/>
<path d="M12 8.89001C12.4137 8.89001 12.8233 8.97149 13.2055 9.12979C13.5876 9.2881 13.9349 9.52012 14.2274 9.81263C14.5199 10.1051 14.7519 10.4524 14.9102 10.8346C15.0685 11.2167 15.15 11.6264 15.15 12.04C15.15 12.4537 15.0685 12.8633 14.9102 13.2455C14.7519 13.6276 14.5199 13.9749 14.2274 14.2674C13.9349 14.5599 13.5876 14.7919 13.2055 14.9502C12.8233 15.1085 12.4137 15.19 12 15.19H4.15C3.73634 15.19 3.32672 15.1085 2.94455 14.9502C2.56237 14.7919 2.21512 14.5599 1.92261 14.2674C1.63011 13.9749 1.39808 13.6276 1.23978 13.2455C1.08148 12.8633 1 12.4537 1 12.04C1 11.6264 1.08148 11.2167 1.23978 10.8346C1.39808 10.4524 1.63011 10.1051 1.92261 9.81263C2.21512 9.52012 2.56237 9.2881 2.94455 9.12979C3.32672 8.97149 3.73634 8.89001 4.15 8.89001H12Z" fill="black"/>
<path d="M24.7 12C24.7 11.377 24.8847 10.768 25.2309 10.25C25.577 9.73195 26.069 9.3282 26.6445 9.08979C27.2201 8.85137 27.8535 8.78899 28.4645 8.91053C29.0756 9.03208 29.6368 9.33209 30.0774 9.77262C30.5179 10.2132 30.8179 10.7744 30.9395 11.3855C31.061 11.9965 30.9986 12.6299 30.7602 13.2055C30.5218 13.781 30.1181 14.273 29.6 14.6191C29.082 14.9653 28.473 15.15 27.85 15.15H24.7V12Z" fill="black"/>
<path d="M23.11 12C23.11 12.8354 22.7781 13.6366 22.1874 14.2274C21.5966 14.8181 20.7954 15.15 19.96 15.15C19.1246 15.15 18.3234 14.8181 17.7326 14.2274C17.1419 13.6366 16.81 12.8354 16.81 12V4.15C16.81 3.73634 16.8915 3.32672 17.0498 2.94455C17.2081 2.56237 17.4401 2.21512 17.7326 1.92261C18.0251 1.63011 18.3724 1.39808 18.7545 1.23978C19.1367 1.08148 19.5463 1 19.96 1C20.3737 1 20.7833 1.08148 21.1655 1.23978C21.5476 1.39808 21.8949 1.63011 22.1874 1.92261C22.4799 2.21512 22.7119 2.56237 22.8702 2.94455C23.0285 3.32672 23.11 3.73634 23.11 4.15V12Z" fill="black"/>
<path d="M20 24.7C20.623 24.7 21.232 24.8848 21.7501 25.2309C22.2681 25.577 22.6718 26.069 22.9102 26.6446C23.1486 27.2201 23.211 27.8535 23.0895 28.4645C22.9679 29.0756 22.6679 29.6369 22.2274 30.0774C21.7869 30.5179 21.2256 30.8179 20.6145 30.9395C20.0035 31.061 19.3701 30.9986 18.7946 30.7602C18.219 30.5218 17.727 30.1181 17.3809 29.6001C17.0348 29.082 16.85 28.473 16.85 27.85V24.7H20Z" fill="black"/>
<path d="M20 23.11C19.1646 23.11 18.3634 22.7781 17.7726 22.1874C17.1819 21.5966 16.85 20.7954 16.85 19.96C16.85 19.1246 17.1819 18.3234 17.7726 17.7326C18.3634 17.1419 19.1646 16.81 20 16.81H27.89C28.7254 16.81 29.5267 17.1419 30.1174 17.7326C30.7081 18.3234 31.04 19.1246 31.04 19.96C31.04 20.7954 30.7081 21.5966 30.1174 22.1874C29.5267 22.7781 28.7254 23.11 27.89 23.11H20Z" fill="black"/>
</svg>
