<svg width="32" height="32" viewBox="0 0 32 32" fill="none" xmlns="http://www.w3.org/2000/svg">
<path d="M16 24C18.2091 24 20 22.2091 20 20C20 17.7909 18.2091 16 16 16C13.7909 16 12 17.7909 12 20C12 22.2091 13.7909 24 16 24Z" stroke="black" stroke-width="2" stroke-miterlimit="10"/>
<path d="M16 12C17.1046 12 18 11.1046 18 10C18 8.89543 17.1046 8 16 8C14.8954 8 14 8.89543 14 10C14 11.1046 14.8954 12 16 12Z" stroke="black" stroke-width="2" stroke-miterlimit="10"/>
<path d="M21 29H11C9.3 29 8 27.7 8 26V6C8 4.3 9.3 3 11 3H21C22.7 3 24 4.3 24 6V26C24 27.7 22.7 29 21 29Z" stroke="black" stroke-width="2" stroke-miterlimit="10"/>
<path d="M16 21C16.5523 21 17 20.5523 17 20C17 19.4477 16.5523 19 16 19C15.4477 19 15 19.4477 15 20C15 20.5523 15.4477 21 16 21Z" fill="black"/>
</svg>
