<svg width="32" height="32" viewBox="0 0 32 32" fill="none" xmlns="http://www.w3.org/2000/svg">
<path d="M16 1.84L2 10L16 18.16L30 10L16 1.84ZM6 10L16 4.16L26 10L16 15.84L6 10Z" fill="black"/>
<path d="M28.86 13.5C28.7264 13.273 28.5087 13.1078 28.254 13.0404C27.9994 12.973 27.7284 13.0088 27.5 13.14L16 19.84L4.5 13.14C4.39363 13.0625 4.27304 13.0067 4.14512 12.9759C4.01719 12.945 3.88444 12.9396 3.75444 12.96C3.62443 12.9805 3.49973 13.0263 3.38744 13.0949C3.27515 13.1636 3.17748 13.2536 3.1 13.36C3.02252 13.4664 2.96675 13.587 2.93587 13.7149C2.905 13.8428 2.89962 13.9756 2.92005 14.1056C2.94048 14.2356 2.98631 14.3603 3.05494 14.4726C3.12356 14.5848 3.21363 14.6825 3.32 14.76L3.5 14.86L16 22.16L28.5 14.86C28.727 14.7264 28.8922 14.5087 28.9596 14.254C29.027 13.9994 28.9912 13.7284 28.86 13.5Z" fill="black"/>
<path d="M28.86 17.5C28.7264 17.273 28.5087 17.1078 28.254 17.0404C27.9994 16.973 27.7284 17.0088 27.5 17.14L16 23.84L4.5 17.14C4.39363 17.0625 4.27304 17.0067 4.14512 16.9759C4.01719 16.945 3.88444 16.9396 3.75444 16.96C3.62443 16.9805 3.49973 17.0263 3.38744 17.0949C3.27515 17.1636 3.17748 17.2536 3.1 17.36C3.02252 17.4664 2.96675 17.587 2.93587 17.7149C2.905 17.8428 2.89962 17.9756 2.92005 18.1056C2.94048 18.2356 2.98631 18.3603 3.05494 18.4726C3.12356 18.5848 3.21363 18.6825 3.32 18.76L3.5 18.86L16 26.16L28.5 18.86C28.727 18.7264 28.8922 18.5087 28.9596 18.254C29.027 17.9994 28.9912 17.7284 28.86 17.5Z" fill="black"/>
<path d="M27.5 21.14L16 27.84L4.5 21.14C4.39363 21.0625 4.27304 21.0067 4.14512 20.9759C4.01719 20.945 3.88444 20.9396 3.75444 20.96C3.62443 20.9805 3.49973 21.0263 3.38744 21.0949C3.27515 21.1636 3.17748 21.2536 3.1 21.36C3.02252 21.4664 2.96675 21.587 2.93587 21.7149C2.905 21.8428 2.89962 21.9756 2.92005 22.1056C2.94048 22.2356 2.98631 22.3603 3.05494 22.4726C3.12356 22.5848 3.21363 22.6825 3.32 22.76L3.5 22.86L16 30.16L28.5 22.86C28.7002 22.7144 28.8393 22.4997 28.8903 22.2575C28.9414 22.0152 28.9008 21.7627 28.7763 21.5486C28.6519 21.3346 28.4525 21.1744 28.2168 21.0989C27.981 21.0234 27.7256 21.038 27.5 21.14Z" fill="black"/>
</svg>
