<svg width="32" height="32" viewBox="0 0 32 32" fill="none" xmlns="http://www.w3.org/2000/svg">
<path d="M21.57 16C21.5699 17.1136 21.239 18.2022 20.6193 19.1274C19.9995 20.0527 19.1188 20.773 18.089 21.1968C17.0591 21.6207 15.9266 21.729 14.8351 21.5081C13.7435 21.2871 12.7423 20.7469 11.9583 19.9559C11.1744 19.1649 10.6431 18.1589 10.4319 17.0654C10.2208 15.972 10.3392 14.8404 10.7723 13.8144C11.2053 12.7884 11.9334 11.9142 12.8642 11.3027C13.7949 10.6912 14.8864 10.3701 16 10.38V10.38C17.4818 10.3932 18.8985 10.9911 19.9416 12.0436C20.9848 13.0962 21.57 14.5181 21.57 16V16ZM25.1 16H30.67C30.6687 18.8957 29.8105 21.7263 28.2035 24.1351C26.5964 26.544 24.3124 28.4233 21.6392 29.5365C18.966 30.6496 16.0231 30.9467 13.1814 30.3903C10.3396 29.834 7.72607 28.449 5.66999 26.41L9.66999 22.41C10.9445 23.6506 12.5549 24.4901 14.3018 24.8245C16.0487 25.1588 17.8553 24.9734 19.4978 24.291C21.1404 23.6087 22.5466 22.4594 23.5424 20.9857C24.5382 19.512 25.0797 17.7785 25.1 16ZM6.89999 16V16.06H1.32999V16C1.33518 13.106 2.19623 10.2782 3.80479 7.87236C5.41336 5.46657 7.69756 3.59029 10.37 2.47964C13.0424 1.36898 15.9836 1.07358 18.8235 1.63059C21.6634 2.1876 24.2751 3.57214 26.33 5.60999L22.44 9.60999C21.1722 8.33329 19.554 7.46156 17.7904 7.10519C16.0268 6.74881 14.1971 6.92384 12.533 7.6081C10.869 8.29235 9.44542 9.45506 8.44264 10.949C7.43986 12.4429 6.90298 14.2007 6.89999 16V16Z" fill="black"/>
</svg>
