<svg width="32" height="32" viewBox="0 0 32 32" fill="none" xmlns="http://www.w3.org/2000/svg">
<path d="M23.47 7.87C23.47 7.78778 23.5026 7.70893 23.5608 7.65079C23.6189 7.59266 23.6978 7.56 23.78 7.56V7.56C23.8711 7.55996 23.9586 7.59546 24.024 7.65895C24.0894 7.72244 24.1274 7.80891 24.13 7.9V7.9C24.13 7.98752 24.0952 8.07145 24.0333 8.13334C23.9714 8.19523 23.8875 8.23 23.8 8.23C23.7178 8.23 23.6389 8.19734 23.5808 8.1392C23.5226 8.08106 23.49 8.00221 23.49 7.92L23.47 7.87ZM11.13 7.87C11.0319 7.87 10.9377 7.83101 10.8684 7.76163C10.799 7.69224 10.76 7.59813 10.76 7.5V7.5C10.76 7.21 10.96 7.12 11.19 7.13C11.42 7.14 11.56 7.24 11.56 7.49C11.5575 7.58733 11.5177 7.67998 11.4488 7.74883C11.38 7.81767 11.2873 7.85747 11.19 7.86L11.13 7.87ZM12.5 2.13C12.24 2.07 12.06 1.97 12.09 1.7C12.09 1.60452 12.1279 1.51295 12.1954 1.44544C12.2629 1.37792 12.3545 1.34 12.45 1.34H12.52C12.77 1.34 12.91 1.45 12.91 1.72C12.9129 1.7746 12.9042 1.82919 12.8846 1.88024C12.8651 1.93129 12.835 1.97765 12.7963 2.01631C12.7576 2.05497 12.7113 2.08507 12.6602 2.10466C12.6092 2.12424 12.5546 2.13288 12.5 2.13V2.13ZM5.86999 11.51C5.58999 11.51 5.36999 11.31 5.34999 10.91C5.34999 10.7376 5.41847 10.5723 5.54037 10.4504C5.66227 10.3285 5.8276 10.26 5.99999 10.26C6.16707 10.26 6.32732 10.3264 6.44547 10.4445C6.56361 10.5627 6.62999 10.7229 6.62999 10.89C6.56999 11.25 6.40999 11.51 5.86999 11.51ZM25.43 6.73C25.2059 6.71539 24.9952 6.61847 24.8383 6.45787C24.6814 6.29727 24.5894 6.08433 24.58 5.86V5.86C24.576 5.7485 24.5944 5.63734 24.6343 5.53315C24.6742 5.42896 24.7347 5.33388 24.8122 5.25361C24.8897 5.17333 24.9826 5.10949 25.0853 5.06592C25.188 5.02234 25.2984 4.99992 25.41 5H25.46C25.6775 5 25.886 5.08639 26.0398 5.24017C26.1936 5.39395 26.28 5.60252 26.28 5.82V5.82C26.28 6.04371 26.1918 6.25841 26.0346 6.41753C25.8773 6.57665 25.6637 6.66736 25.44 6.67L25.43 6.73ZM16 4.12C15.7715 4.11514 15.5535 4.02357 15.3901 3.86387C15.2266 3.70416 15.1301 3.48827 15.12 3.26C15.1068 3.13723 15.1197 3.01308 15.1577 2.8956C15.1956 2.77812 15.2579 2.66995 15.3405 2.57812C15.423 2.48629 15.5239 2.41285 15.6367 2.36257C15.7494 2.3123 15.8715 2.28632 15.995 2.28632C16.1185 2.28632 16.2405 2.3123 16.3533 2.36257C16.4661 2.41285 16.567 2.48629 16.6495 2.57812C16.732 2.66995 16.7943 2.77812 16.8323 2.8956C16.8703 3.01308 16.8831 3.13723 16.87 3.26V3.26C16.8556 3.48506 16.759 3.697 16.5986 3.85554C16.4382 4.01409 16.2252 4.1082 16 4.12V4.12ZM4.51999 9.71C4.30251 9.71 4.09394 9.6236 3.94016 9.46982C3.78638 9.31604 3.69999 9.10747 3.69999 8.89V8.84C3.71019 8.63052 3.79404 8.43138 3.93675 8.2777C4.07945 8.12402 4.27184 8.02567 4.47999 8C4.71255 8.00522 4.93382 8.10129 5.09642 8.26764C5.25903 8.43398 5.35005 8.65738 5.34999 8.89V8.9C5.34999 9.00637 5.32904 9.1117 5.28833 9.20997C5.24762 9.30824 5.18796 9.39754 5.11274 9.47275C5.03753 9.54797 4.94824 9.60763 4.84996 9.64834C4.75169 9.68904 4.64636 9.71 4.53999 9.71H4.51999ZM26.23 9.26C26.2867 9.06417 26.3944 8.88693 26.5421 8.74643C26.6898 8.60592 26.8722 8.50721 27.0706 8.46041C27.269 8.4136 27.4763 8.42038 27.6713 8.48005C27.8662 8.53973 28.0418 8.65014 28.18 8.8V8.8C28.3863 8.92376 28.5561 9.10004 28.6721 9.31086C28.788 9.52167 28.846 9.75947 28.84 10C28.8404 10.2149 28.7909 10.4271 28.6955 10.6197C28.6 10.8123 28.4612 10.9801 28.29 11.11L28.54 11.54C29 12.36 28.97 12.66 28.34 13.39C28.073 13.7423 27.7366 14.0361 27.3515 14.2531C26.9664 14.4702 26.5409 14.6058 26.1012 14.6518C25.6616 14.6977 25.2172 14.6529 24.7955 14.5202C24.3739 14.3874 23.984 14.1695 23.65 13.88C23.01 13.26 22.7 12.41 22.11 11.75C21.97 11.59 22.11 11.38 22.18 11.18C22.0293 11.06 21.9072 10.9081 21.8225 10.7351C21.7377 10.5622 21.6925 10.3726 21.69 10.18C21.6915 9.8452 21.8202 9.52349 22.05 9.28V9.28C22.1715 9.13392 22.3247 9.01746 22.498 8.93948C22.6713 8.86151 22.8601 8.82406 23.05 8.83C23.2396 8.82624 23.4277 8.86466 23.6006 8.94249C23.7736 9.02031 23.9271 9.13559 24.05 9.28H24.15C24.4184 9.1463 24.7047 9.052 25 9C25.4238 8.99882 25.843 9.08743 26.23 9.26V9.26ZM8.89999 7.58C8.61062 7.56497 8.33759 7.44126 8.1355 7.2336C7.93341 7.02595 7.81716 6.74967 7.80999 6.46V6.46C7.80885 6.18478 7.91092 5.91914 8.09605 5.7155C8.28117 5.51186 8.53591 5.38501 8.80999 5.36C9.11337 5.34916 9.40873 5.45872 9.63166 5.66478C9.85458 5.87085 9.98698 6.1567 9.99999 6.46V6.46C9.98591 6.7491 9.86607 7.02295 9.66325 7.22945C9.46043 7.43596 9.18879 7.56072 8.89999 7.58ZM22.29 6.2C21.63 6.2 21.29 5.68 21.29 4.92C21.29 4.16 21.65 3.73 22.23 3.73C22.595 3.76332 22.9356 3.9274 23.1892 4.192C23.4428 4.45661 23.5922 4.80393 23.61 5.17C23.59 5.78 23 6.2 22.29 6.2ZM19.69 9.81C19.4612 9.80844 19.2353 9.75904 19.0268 9.66497C18.8182 9.5709 18.6317 9.43424 18.4791 9.26377C18.3266 9.09331 18.2113 8.89281 18.1409 8.67516C18.0704 8.45752 18.0463 8.22753 18.07 8C18.07 7 18.61 6.28 19.46 6.28C19.9952 6.3112 20.5002 6.53854 20.8783 6.91856C21.2565 7.29858 21.4814 7.80463 21.51 8.34C21.52 9.21 20.79 9.81 19.69 9.81V9.81ZM11.6 11.24C11.4958 10.8484 11.442 10.4452 11.44 10.04C11.4373 9.43801 11.5599 8.84205 11.8 8.29V8.29C11.9511 7.93316 12.2026 7.62789 12.5239 7.4113C12.8452 7.19472 13.2225 7.07615 13.61 7.07H13.79C13.834 6.95545 13.9006 6.85088 13.9857 6.76244C14.0707 6.674 14.1727 6.60348 14.2854 6.55502C14.3982 6.50656 14.5195 6.48116 14.6422 6.48029C14.7649 6.47943 14.8866 6.50313 15 6.55C15.48 6.69 15.67 7.07 15.67 7.82C16.1033 8.21438 16.4447 8.69914 16.67 9.24C14.7842 9.22188 12.9655 9.93929 11.6 11.24V11.24ZM28.71 20.43C29.0103 20.8976 29.1635 21.4444 29.15 22C29.153 22.5448 29.0003 23.079 28.71 23.54V23.6C28.0199 24.888 27.1017 26.04 26 27V27C24.987 27.9842 23.8091 28.783 22.52 29.36V29.36C22.2852 29.5221 22.0198 29.6344 21.74 29.69H21.81C20.5503 30.2689 19.1939 30.608 17.81 30.69H17.87C17.45 30.69 17.03 30.76 16.61 30.76C15.9389 30.7589 15.2693 30.6953 14.61 30.57H14.56C13.2943 30.4277 12.0647 30.0585 10.93 29.48L10.73 29.37H10.67C9.57838 28.8843 8.58264 28.2069 7.72999 27.37V27.37C7.22157 26.991 6.78187 26.5276 6.42999 26V26C5.30471 24.8558 4.42356 23.495 3.83999 22V22.06C3.51934 21.3475 3.30053 20.5935 3.18999 19.82V19.9C2.93104 18.921 2.79995 17.9126 2.79999 16.9C2.82689 16.3657 2.89374 15.8343 2.99999 15.31C3.05999 14.86 3.49999 14.65 3.83999 14.39V14.31V14.2C3.83974 13.8394 3.9421 13.4862 4.13511 13.1816C4.32812 12.8771 4.60382 12.6337 4.92999 12.48V12.48C5.25035 12.3045 5.61264 12.2202 5.97755 12.236C6.34246 12.2519 6.69606 12.3674 6.99999 12.57L7.21999 12.7C7.15589 12.5591 7.12838 12.4043 7.13999 12.25V12.25C7.12072 12.0906 7.12072 11.9294 7.13999 11.77C7.13663 11.249 7.32617 10.7451 7.6721 10.3555C8.01802 9.9659 8.49587 9.71805 9.01362 9.65969C9.53137 9.60134 10.0524 9.73661 10.4764 10.0395C10.9004 10.3423 11.1973 10.7913 11.31 11.3V11.3C11.3148 11.3532 11.3148 11.4068 11.31 11.46C11.3113 11.5397 11.2949 11.6187 11.2621 11.6913C11.2292 11.7639 11.1807 11.8283 11.12 11.88C10.7012 12.3287 10.3629 12.8463 10.12 13.41V13.41C10.0601 13.5601 9.95672 13.6889 9.82306 13.7798C9.68941 13.8707 9.53162 13.9195 9.36999 13.92H9.12999C8.67429 13.8643 8.23689 13.7071 7.84999 13.46V13.46C7.85064 13.6159 7.87422 13.7709 7.91999 13.92H7.99999C8.47761 14.1393 8.90873 14.4483 9.26999 14.83V14.83C9.31389 14.8599 9.34968 14.9002 9.37412 14.9473C9.39856 14.9944 9.41088 15.0469 9.40999 15.1C9.41488 15.1264 9.41488 15.1536 9.40999 15.18C9.30579 15.7003 9.2522 16.2294 9.24999 16.76C9.24688 17.7911 9.45446 18.812 9.85999 19.76V19.82C10.2466 20.532 10.7057 21.2023 11.23 21.82V21.82C12.3038 22.9454 13.7022 23.7075 15.23 24H15.18C15.7298 24.1096 16.2893 24.1632 16.85 24.16C17.2852 24.1585 17.7197 24.125 18.15 24.06V24.06C18.2436 23.9942 18.3555 23.9592 18.47 23.96H18.56L19.06 23.83C20.7431 23.2348 22.1465 22.038 23 20.47C23.2093 20.0551 23.5065 19.6908 23.8709 19.4024C24.2353 19.114 24.6581 18.9085 25.11 18.8V18.8C25.8079 18.6551 26.5337 18.7359 27.1827 19.0307C27.8316 19.3255 28.37 19.8191 28.72 20.44L28.71 20.43Z" fill="black"/>
</svg>
