<svg width="32" height="32" viewBox="0 0 32 32" fill="none" xmlns="http://www.w3.org/2000/svg">
<path d="M16 29C22.0751 29 27 24.0751 27 18C27 11.9249 22.0751 7 16 7C9.92487 7 5 11.9249 5 18C5 24.0751 9.92487 29 16 29Z" stroke="black" stroke-width="2" stroke-miterlimit="10" stroke-linecap="round"/>
<path d="M16 7V3" stroke="black" stroke-width="2" stroke-miterlimit="10" stroke-linecap="round"/>
<path d="M13 3H19" stroke="black" stroke-width="2" stroke-miterlimit="10" stroke-linecap="round"/>
<path d="M23.8 10.2L26.6 7.40002" stroke="black" stroke-width="2" stroke-miterlimit="10" stroke-linecap="round"/>
<path d="M24.5 5.30005L28.7 9.50005" stroke="black" stroke-width="2" stroke-miterlimit="10" stroke-linecap="round"/>
<path d="M16 21C17.6569 21 19 19.6569 19 18C19 16.3431 17.6569 15 16 15C14.3431 15 13 16.3431 13 18C13 19.6569 14.3431 21 16 21Z" stroke="black" stroke-width="2" stroke-miterlimit="10" stroke-linecap="round"/>
<path d="M16 25V26" stroke="black" stroke-width="2" stroke-miterlimit="10" stroke-linecap="round"/>
<path d="M16 10V11" stroke="black" stroke-width="2" stroke-miterlimit="10" stroke-linecap="round"/>
<path d="M20.9 22.9L21.7 23.7" stroke="black" stroke-width="2" stroke-miterlimit="10" stroke-linecap="round"/>
<path d="M10.3 12.3L11.1 13.1" stroke="black" stroke-width="2" stroke-miterlimit="10" stroke-linecap="round"/>
<path d="M19 18H24" stroke="black" stroke-width="2" stroke-miterlimit="10" stroke-linecap="round"/>
<path d="M8 18H9" stroke="black" stroke-width="2" stroke-miterlimit="10" stroke-linecap="round"/>
<path d="M20.9 13.1L21.7 12.3" stroke="black" stroke-width="2" stroke-miterlimit="10" stroke-linecap="round"/>
<path d="M10.3 23.7L11.1 22.9" stroke="black" stroke-width="2" stroke-miterlimit="10" stroke-linecap="round"/>
</svg>
