<svg width="32" height="32" viewBox="0 0 32 32" fill="none" xmlns="http://www.w3.org/2000/svg">
<path d="M21.24 24.38H10.76V22.1C10.76 21.3043 11.0761 20.5413 11.6387 19.9787C12.2013 19.4161 12.9643 19.1 13.76 19.1H17.6C18.5654 19.1 19.4912 19.4835 20.1739 20.1661C20.8565 20.8488 21.24 21.7746 21.24 22.74V24.34V24.38ZM16 11.81C16.5182 11.81 17.0247 11.9637 17.4556 12.2515C17.8864 12.5394 18.2222 12.9486 18.4206 13.4274C18.6189 13.9061 18.6707 14.4329 18.5696 14.9411C18.4686 15.4494 18.219 15.9162 17.8526 16.2826C17.4862 16.649 17.0194 16.8986 16.5111 16.9997C16.0029 17.1007 15.4761 17.0489 14.9974 16.8506C14.5186 16.6523 14.1094 16.3164 13.8215 15.8856C13.5336 15.4547 13.38 14.9482 13.38 14.43C13.38 13.7351 13.656 13.0687 14.1474 12.5774C14.6387 12.086 15.3051 11.81 16 11.81V11.81ZM19.64 17.42C20.2008 16.7366 20.558 15.9091 20.6706 15.0322C20.7833 14.1554 20.6469 13.2645 20.277 12.4615C19.9071 11.6585 19.3187 10.9759 18.579 10.4916C17.8394 10.0073 16.9784 9.74098 16.0945 9.72306C15.2106 9.70515 14.3395 9.93636 13.5808 10.3903C12.8222 10.8442 12.2066 11.5024 11.8044 12.2898C11.4023 13.0771 11.2299 13.9617 11.3069 14.8424C11.384 15.7232 11.7073 16.5644 12.24 17.27C11.2063 17.5869 10.3015 18.2271 9.6589 19.0966C9.01625 19.966 8.66961 21.0188 8.66999 22.1V24.75C8.66998 25.2071 8.85087 25.6456 9.17315 25.9698C9.49543 26.2939 9.9329 26.4774 10.39 26.48H21.6C22.0588 26.48 22.4988 26.2977 22.8233 25.9733C23.1477 25.6489 23.33 25.2088 23.33 24.75V22.75C23.3283 21.5884 22.9748 20.4546 22.3162 19.4978C21.6575 18.541 20.7245 17.8061 19.64 17.39V17.42ZM30.64 4.48V27.48C30.64 28.3154 30.3081 29.1166 29.7174 29.7074C29.1266 30.2981 28.3254 30.63 27.49 30.63H4.48999C3.65455 30.63 2.85334 30.2981 2.2626 29.7074C1.67186 29.1166 1.33999 28.3154 1.33999 27.48V8.67C1.33998 7.83629 1.67048 7.03659 2.25906 6.44614C2.84764 5.85568 3.64629 5.52264 4.47999 5.52H13.9C14.1785 5.52 14.4455 5.63062 14.6424 5.82753C14.8394 6.02445 14.95 6.29152 14.95 6.57C14.95 6.84847 14.8394 7.11554 14.6424 7.31246C14.4455 7.50937 14.1785 7.62 13.9 7.62H4.47999C4.34452 7.61321 4.20909 7.63406 4.08193 7.68127C3.95477 7.72848 3.83855 7.80106 3.74033 7.89461C3.64211 7.98815 3.56395 8.1007 3.51059 8.2254C3.45724 8.3501 3.42982 8.48436 3.42999 8.62V27.52C3.4228 27.6598 3.44504 27.7995 3.49527 27.9302C3.5455 28.0608 3.62259 28.1794 3.72156 28.2784C3.82053 28.3774 3.93918 28.4545 4.06983 28.5047C4.20047 28.5549 4.3402 28.5772 4.47999 28.57H27.48C27.6198 28.5772 27.7595 28.5549 27.8901 28.5047C28.0208 28.4545 28.1394 28.3774 28.2384 28.2784C28.3374 28.1794 28.4145 28.0608 28.4647 27.9302C28.5149 27.7995 28.5372 27.6598 28.53 27.52V4.52C28.5372 4.38021 28.5149 4.24048 28.4647 4.10983C28.4145 3.97919 28.3374 3.86054 28.2384 3.76157C28.1394 3.6626 28.0208 3.58551 27.8901 3.53528C27.7595 3.48505 27.6198 3.46281 27.48 3.47H2.37999C2.10151 3.47 1.83444 3.35937 1.63752 3.16246C1.44061 2.96554 1.32999 2.69847 1.32999 2.42C1.32999 2.14152 1.44061 1.87445 1.63752 1.67753C1.83444 1.48062 2.10151 1.37 2.37999 1.37H27.52C28.3554 1.37 29.1566 1.70187 29.7474 2.29261C30.3381 2.88335 30.67 3.68456 30.67 4.52L30.64 4.48Z" fill="black"/>
</svg>
