<svg width="32" height="32" viewBox="0 0 32 32" fill="none" xmlns="http://www.w3.org/2000/svg">
<circle cx="11" cy="23" r="3" stroke="black" stroke-width="2"/>
<circle cx="5" cy="23" r="3" stroke="black" stroke-width="2"/>
<circle cx="23" cy="23" r="3" stroke="black" stroke-width="2"/>
<path d="M14 23H18M20 23H18M18 23V12C18 10.3431 19.3431 9 21 9H24.7574C25.553 9 26.3161 9.31607 26.8787 9.87868L28.1213 11.1213C28.6839 11.6839 29 12.447 29 13.2426V20C29 21.6569 27.6569 23 26 23V23" stroke="black" stroke-width="2"/>
<path d="M22 12V16H26" stroke="black" stroke-width="2" stroke-linecap="round"/>
<path d="M14 23V9C14 7.34315 12.6569 6 11 6H2" stroke="black" stroke-width="2" stroke-linecap="round"/>
</svg>
