<svg width="32" height="32" viewBox="0 0 32 32" fill="none" xmlns="http://www.w3.org/2000/svg">
<path d="M21.2 2.99996C19.3 2.59996 17.5 2.89996 16 3.59996C14.5 2.89996 12.7 2.59996 10.8 2.99996C7.6 3.69996 5.1 6.29996 4.6 9.49996C4.1 12.4 5.1 15 7 16.8C8.4 18.2 7.6 29 12.6 29C16 29 13.7 21.8 15.7 18.8C15.8 18.6 16.1 18.6 16.3 18.8C18.3 21.9 16 29 19.4 29C24.4 29 23.6 18.2 25 16.8C26.8 15 27.9 12.4 27.4 9.49996C26.9 6.29996 24.4 3.69996 21.2 2.99996Z" stroke="black" stroke-width="2" stroke-miterlimit="10" stroke-linecap="round" stroke-linejoin="round"/>
<path d="M16 3.59998C18.8 4.89998 20.7 7.69998 20.7 10.9" stroke="black" stroke-width="2" stroke-miterlimit="10" stroke-linecap="round" stroke-linejoin="round"/>
</svg>
