<svg width="32" height="32" viewBox="0 0 32 32" fill="none" xmlns="http://www.w3.org/2000/svg">
<path d="M23.68 18.59V23.68H21.68V18.59H23.68ZM21.68 16.59C21.1496 16.59 20.6409 16.8007 20.2658 17.1758C19.8907 17.5508 19.68 18.0596 19.68 18.59V23.66C19.68 24.1904 19.8907 24.6991 20.2658 25.0742C20.6409 25.4493 21.1496 25.66 21.68 25.66H23.68C24.2104 25.66 24.7191 25.4493 25.0942 25.0742C25.4693 24.6991 25.68 24.1904 25.68 23.66V18.6C25.68 18.0696 25.4693 17.5608 25.0942 17.1858C24.7191 16.8107 24.2104 16.6 23.68 16.6L21.68 16.59ZM16.6 11.51V23.71H14.6V11.48L16.6 11.51ZM14.6 9.50999C14.0696 9.50999 13.5609 9.7207 13.1858 10.0958C12.8107 10.4708 12.6 10.9796 12.6 11.51V23.67C12.6 24.2004 12.8107 24.7091 13.1858 25.0842C13.5609 25.4593 14.0696 25.67 14.6 25.67H16.6C17.1304 25.67 17.6391 25.4593 18.0142 25.0842C18.3893 24.7091 18.6 24.2004 18.6 23.67V11.49C18.6 10.9596 18.3893 10.4508 18.0142 10.0758C17.6391 9.7007 17.1304 9.48999 16.6 9.48999L14.6 9.50999ZM9.47 15.56V23.68H7.47V15.56H9.47ZM7.47 13.56C6.93957 13.56 6.43086 13.7707 6.05579 14.1458C5.68071 14.5208 5.47 15.0296 5.47 15.56V23.66C5.47 24.1904 5.68071 24.6991 6.05579 25.0742C6.43086 25.4493 6.93957 25.66 7.47 25.66H9.47C10.0004 25.66 10.5091 25.4493 10.8842 25.0742C11.2593 24.6991 11.47 24.1904 11.47 23.66V15.56C11.47 15.0296 11.2593 14.5208 10.8842 14.1458C10.5091 13.7707 10.0004 13.56 9.47 13.56H7.47ZM27.52 1.32999H2.38C2.10285 1.32999 1.83705 1.44008 1.64107 1.63606C1.4451 1.83204 1.335 2.09784 1.335 2.37499C1.335 2.65214 1.4451 2.91794 1.64107 3.11391C1.83705 3.30989 2.10285 3.41999 2.38 3.41999H27.52C27.6598 3.4128 27.7995 3.43505 27.9302 3.48527C28.0608 3.5355 28.1795 3.61259 28.2784 3.71156C28.3774 3.81053 28.4545 3.92918 28.5047 4.05982C28.5549 4.19047 28.5772 4.3302 28.57 4.46999V27.47C28.5772 27.6098 28.5549 27.7495 28.5047 27.8801C28.4545 28.0108 28.3774 28.1294 28.2784 28.2284C28.1795 28.3274 28.0608 28.4045 27.9302 28.4547C27.7995 28.5049 27.6598 28.5272 27.52 28.52H4.52C4.38022 28.5272 4.24048 28.5049 4.10984 28.4547C3.97919 28.4045 3.86055 28.3274 3.76158 28.2284C3.6626 28.1294 3.58551 28.0108 3.53528 27.8801C3.48506 27.7495 3.46282 27.6098 3.47 27.47V8.66999C3.46983 8.53435 3.49726 8.4001 3.55061 8.27539C3.60396 8.15069 3.68212 8.03814 3.78034 7.9446C3.87856 7.85105 3.99479 7.77847 4.12194 7.73126C4.2491 7.68405 4.38453 7.6632 4.52 7.66999H13.9C14.1785 7.66999 14.4455 7.55936 14.6425 7.36245C14.8394 7.16554 14.95 6.89846 14.95 6.61999C14.95 6.34151 14.8394 6.07444 14.6425 5.87752C14.4455 5.68061 14.1785 5.56999 13.9 5.56999H4.48C3.65316 5.56988 2.85943 5.89488 2.27011 6.47485C1.68078 7.05482 1.34312 7.84325 1.33 8.66999V27.52C1.33 28.3554 1.66187 29.1566 2.25261 29.7474C2.84335 30.3381 3.64457 30.67 4.48 30.67H27.48C28.3154 30.67 29.1166 30.3381 29.7074 29.7474C30.2981 29.1566 30.63 28.3554 30.63 27.52V4.51999C30.63 3.68455 30.2981 2.88334 29.7074 2.2926C29.1166 1.70186 28.3154 1.36999 27.48 1.36999L27.52 1.32999Z" fill="black"/>
</svg>
