<svg width="32" height="32" viewBox="0 0 32 32" fill="none" xmlns="http://www.w3.org/2000/svg">
<path d="M21.26 2C19.3227 3.28353 17.724 5.01598 16.6 7.05L17.35 4.05C16.2562 5.91031 15.5329 7.96477 15.22 10.1L13.73 9.1L13.46 9.31C14.8 11.73 14.1 13.01 13.46 13.47C11.9497 14.3874 10.5152 15.4241 9.17 16.57C8.32606 17.355 7.6803 18.329 7.2857 19.412C6.8911 20.4949 6.75892 21.656 6.9 22.8C7.03922 24.3336 7.63331 25.7907 8.6061 26.9844C9.5789 28.1781 10.8861 29.0541 12.36 29.5C13.6263 29.8838 14.9479 30.0528 16.27 30C18.4625 30.0712 20.6127 29.3862 22.36 28.06C23.222 27.3407 23.9165 26.4418 24.3949 25.4262C24.8734 24.4105 25.1242 23.3027 25.13 22.18C25.1399 21.0509 24.9106 19.9326 24.4573 18.8984C24.004 17.8643 23.337 16.9379 22.5 16.18C21.5294 15.36 20.4693 14.6522 19.34 14.07C18.82 13.78 17.22 12.54 17.76 10.76L16.61 10.6C18.3606 7.88568 20.4734 5.42295 22.89 3.28C20.8402 3.90262 19.0473 5.17272 17.78 6.9C18.7289 5.12657 19.8982 3.48019 21.26 2V2ZM14 9.78L15.17 10.26L15.68 10.48V21.9C15.4704 22.4551 15.1269 22.9497 14.68 23.34C14.1455 24.1444 13.9052 25.1088 14 26.07C14.0311 26.4777 14.1326 26.8769 14.3 27.25C14.4323 27.6491 14.6101 28.0316 14.83 28.39C15.0533 28.7284 15.3598 29.0039 15.72 29.19V29.19C14.9099 29.058 14.1405 28.7434 13.47 28.27C12.2955 27.2625 11.5189 25.8689 11.28 24.34C11.17 23.21 12.28 21.53 13.7 20.68C14.215 20.3865 14.6491 19.9697 14.9633 19.467C15.2774 18.9644 15.4619 18.3915 15.5 17.8C15.3945 18.3714 15.1676 18.9134 14.8347 19.3896C14.5017 19.8657 14.0705 20.2648 13.57 20.56C12.8021 20.889 12.1485 21.4376 11.6913 22.1367C11.2341 22.8359 10.9936 23.6546 11 24.49C11.0157 25.3201 11.2378 26.1332 11.6463 26.856C12.0548 27.5788 12.6369 28.1885 13.34 28.63C13.8747 28.9779 14.453 29.2536 15.06 29.45C12.8 28.92 12.58 28.68 11.93 27.91C11.93 27.91 11.76 27.76 11.76 27.72C10.7341 26.5618 9.96706 25.1981 9.51 23.72C9.33941 23.2044 9.30157 22.6541 9.4 22.12C10.09 19.68 11.58 18.73 13.07 17.72L14.14 16.97C14.97 16.33 15.14 14.61 15.36 13.66C15.01 14.84 14.66 16.29 14.02 16.76C13.6656 17.0152 13.2985 17.2522 12.92 17.47C11.37 18.47 9.84 19.47 9.13 22.04C9.011 22.6194 9.04898 23.2202 9.24 23.78C9.70143 25.3309 10.4929 26.7637 11.56 27.98C11.6115 28.0325 11.6583 28.0894 11.7 28.15C12.1185 28.5918 12.6312 28.9336 13.2 29.15C12.6839 29.0098 12.1817 28.8223 11.7 28.59C10.5837 28.0466 9.62158 27.2319 8.90179 26.2203C8.18199 25.2087 7.72751 24.0327 7.58 22.8C7.35 18.6 9.38 17.38 11.25 15.8C12.3 15 13.75 14.56 14.6 13C14.8065 12.407 14.8274 11.7652 14.66 11.16C14.4756 10.6838 14.2549 10.2225 14 9.78V9.78ZM15.76 10.52L16.33 10.77V11.27C16.2291 12.0447 16.2732 12.8314 16.46 13.59C16.69 14.48 17.85 15.76 18.32 17.23C19.1099 20.3068 19.1099 23.5332 18.32 26.61C18.1441 27.1919 17.8477 27.7302 17.45 28.19C17.609 27.9047 17.7364 27.6029 17.83 27.29C18.5323 25.3727 18.7454 23.3104 18.45 21.29C18.3563 20.603 18.1749 19.9308 17.91 19.29C17.33 17.9 16.5 16.58 16.4 16.29C16.1073 15.1115 15.9463 13.9041 15.92 12.69C15.9041 13.9911 16.0383 15.2897 16.32 16.56C16.4 16.83 17.16 18.01 17.7 19.44C17.9477 20.1435 18.1219 20.8707 18.22 21.61C18.3642 23.3085 18.2016 25.0191 17.74 26.66C17.5421 27.5784 17.0919 28.4234 16.44 29.1V29.1C16.9159 28.5756 17.2589 27.9446 17.44 27.26C17.7295 26.1536 17.8708 25.0136 17.86 23.87C17.7709 22.9581 17.545 22.0647 17.19 21.22C16.9629 20.6967 16.6954 20.1918 16.39 19.71C16.1566 19.0091 16.0252 18.2783 16 17.54C15.9299 18.3384 15.9941 19.1429 16.19 19.92C16.35 20.38 16.91 21 17.08 21.6C17.3237 22.3213 17.4749 23.0706 17.53 23.83C17.5342 24.8377 17.4336 25.8431 17.23 26.83C17.162 27.3005 17.0004 27.7526 16.7548 28.1597C16.5092 28.5667 16.1845 28.9205 15.8 29.2V29.2C16.1603 28.8293 16.4098 28.3651 16.52 27.86C16.62 27.32 16.65 26.78 16.71 26.14C16.7644 25.4706 16.7206 24.7968 16.58 24.14C16.38 23.21 16.03 22.26 15.88 21.6C15.88 22.32 16.19 23.25 16.32 24.2C16.3769 24.8655 16.3769 25.5345 16.32 26.2C16.281 27.1047 16.0812 27.9953 15.73 28.83V28.83V10.52H15.76ZM15.71 22V28.86C15.4938 28.7322 15.3119 28.5537 15.18 28.34C14.9398 27.9964 14.7449 27.6234 14.6 27.23C14.4453 26.8843 14.3312 26.5219 14.26 26.15C14.1335 25.2351 14.3665 24.3067 14.91 23.56C15.3054 23.1168 15.5808 22.5798 15.71 22V22Z" fill="black"/>
</svg>
