<svg width="32" height="32" viewBox="0 0 32 32" fill="none" xmlns="http://www.w3.org/2000/svg">
<path d="M12 17.9999H19C20.7 17.9999 22 16.6999 22 14.9999C22 13.2999 20.7 11.9999 19 11.9999H11V7.99994C11 5.89994 8.2 5.19994 7.2 7.09994L3 14.9999V25.9999H10.7C12.1 25.9999 13.3 25.0999 13.6 23.6999L15 17.9999" stroke="black" stroke-width="2" stroke-miterlimit="10" stroke-linecap="round"/>
<path d="M15 9.3C16.1 8.5 17.5 8 19 8C22.9 8 26 11.1 26 15C26 18.9 22.9 22 19 22C18.7 22 18.4 22 18.1 21.9" stroke="black" stroke-width="2" stroke-miterlimit="10" stroke-linecap="round"/>
<path d="M14.7 6C16 5.4 17.4 5 19 5C24.5 5 29 9.5 29 15C29 20.5 24.5 25 19 25C18.5 25 17.9 25 17.4 24.9" stroke="black" stroke-width="2" stroke-miterlimit="10" stroke-linecap="round"/>
</svg>
