<svg width="32" height="32" viewBox="0 0 32 32" fill="none" xmlns="http://www.w3.org/2000/svg">
<path d="M30.67 6.9C29.5717 7.39074 28.4049 7.71109 27.21 7.85C28.4668 7.09923 29.4057 5.91489 29.85 4.52C28.6593 5.22687 27.3576 5.72726 26 6C25.1775 5.12147 24.1098 4.51059 22.9356 4.2467C21.7615 3.98281 20.5351 4.07812 19.4158 4.52023C18.2965 4.96235 17.336 5.73084 16.6591 6.72589C15.9822 7.72093 15.6201 8.89654 15.62 10.1C15.6172 10.5615 15.6709 11.0216 15.78 11.47C13.3866 11.3547 11.0445 10.7347 8.90754 9.65068C6.77054 8.56667 4.88684 7.04313 3.38 5.18C2.61472 6.5 2.38107 8.06198 2.7266 9.54814C3.07214 11.0343 3.97089 12.333 5.24 13.18C4.28307 13.1437 3.34801 12.8834 2.51 12.42V12.5C2.50648 13.8908 2.98626 15.2397 3.86729 16.3159C4.74832 17.3921 5.97587 18.1288 7.34 18.4C6.82427 18.5362 6.29341 18.6067 5.76 18.61C5.3774 18.609 4.99573 18.5722 4.62 18.5C5.00275 19.6956 5.7509 20.7411 6.75909 21.4892C7.76729 22.2373 8.98474 22.6503 10.24 22.67C8.11274 24.3488 5.47989 25.2581 2.77 25.25C2.28892 25.2488 1.80825 25.2221 1.33 25.17C4.08267 26.9396 7.28759 27.8771 10.56 27.87C21.63 27.87 27.68 18.7 27.68 10.75V9.97C28.86 9.1234 29.8764 8.06965 30.68 6.86L30.67 6.9Z" fill="black"/>
</svg>
