<svg width="32" height="32" viewBox="0 0 32 32" fill="none" xmlns="http://www.w3.org/2000/svg">
<path d="M27.52 1.32999H2.38C2.10285 1.32999 1.83705 1.44008 1.64108 1.63606C1.4451 1.83204 1.335 2.09784 1.335 2.37499C1.335 2.65214 1.4451 2.91794 1.64108 3.11391C1.83705 3.30989 2.10285 3.41999 2.38 3.41999H27.52C27.6598 3.4128 27.7995 3.43505 27.9302 3.48527C28.0608 3.5355 28.1795 3.61259 28.2784 3.71156C28.3774 3.81053 28.4545 3.92918 28.5047 4.05982C28.5549 4.19047 28.5772 4.3302 28.57 4.46999V27.47C28.5772 27.6098 28.5549 27.7495 28.5047 27.8801C28.4545 28.0108 28.3774 28.1294 28.2784 28.2284C28.1795 28.3274 28.0608 28.4045 27.9302 28.4547C27.7995 28.5049 27.6598 28.5272 27.52 28.52H4.52C4.38436 28.5202 4.25011 28.4927 4.12541 28.4394C4.0007 28.386 3.88816 28.3079 3.79461 28.2096C3.70107 28.1114 3.62849 27.9952 3.58128 27.868C3.53407 27.7409 3.51322 27.6055 3.52 27.47V8.66999C3.52 8.40477 3.62536 8.15042 3.8129 7.96288C4.00043 7.77534 4.25479 7.66999 4.52 7.66999H13.9C14.1785 7.66999 14.4456 7.55936 14.6425 7.36245C14.8394 7.16554 14.95 6.89846 14.95 6.61999C14.95 6.34151 14.8394 6.07444 14.6425 5.87752C14.4456 5.68061 14.1785 5.56999 13.9 5.56999H4.47C3.64489 5.5725 2.85371 5.89866 2.26654 6.47835C1.67937 7.05804 1.3431 7.84498 1.33 8.66999V27.52C1.33 28.3537 1.6605 29.1534 2.24908 29.7438C2.83766 30.3343 3.6363 30.6673 4.47 30.67H27.52C27.9332 30.67 28.3423 30.5884 28.7239 30.43C29.1056 30.2716 29.4522 30.0394 29.7439 29.7468C30.0356 29.4541 30.2667 29.1068 30.4239 28.7247C30.5811 28.3426 30.6613 27.9332 30.66 27.52V4.51999C30.6613 4.1068 30.5811 3.69741 30.4239 3.31529C30.2667 2.93317 30.0356 2.58584 29.7439 2.2932C29.4522 2.00057 29.1056 1.76838 28.7239 1.60996C28.3423 1.45153 27.9332 1.36998 27.52 1.36999V1.32999ZM12.85 24.33C12.572 24.3287 12.3059 24.2172 12.11 24.02L7.92 19.88C7.72374 19.6837 7.61348 19.4175 7.61348 19.14C7.61348 18.8624 7.72374 18.5962 7.92 18.4C8.11626 18.2037 8.38245 18.0935 8.66 18.0935C8.93756 18.0935 9.20374 18.2037 9.4 18.4L12.85 21.85L22.59 12.12C22.7863 11.9237 23.0524 11.8135 23.33 11.8135C23.6076 11.8135 23.8737 11.9237 24.07 12.12C24.2663 12.3162 24.3765 12.5824 24.3765 12.86C24.3765 13.1375 24.2663 13.4037 24.07 13.6L13.59 24.07C13.4947 24.1699 13.3798 24.2491 13.2525 24.3025C13.1251 24.3558 12.9881 24.3822 12.85 24.38V24.33Z" fill="black"/>
</svg>
