<svg width="32" height="32" viewBox="0 0 32 32" fill="none" xmlns="http://www.w3.org/2000/svg">
<path d="M26 13H25.6L24.4 5.5C24.2 4 22.9 3 21.5 3H10.5C9.1 3 7.8 4 7.5 5.5L6.4 13H6C4.3 13 3 14.3 3 16V21C3 22.7 4.3 24 6 24V28C6 28.6 6.4 29 7 29H10C10.6 29 11 28.6 11 28V24H21V28C21 28.6 21.4 29 22 29H25C25.6 29 26 28.6 26 28V24C27.7 24 29 22.7 29 21V16C29 14.3 27.7 13 26 13Z" stroke="black" stroke-width="2" stroke-miterlimit="10" stroke-linecap="round"/>
<path d="M20 17H12V20H20V17Z" stroke="black" stroke-width="2" stroke-miterlimit="10" stroke-linecap="round" stroke-linejoin="round"/>
<path d="M24.5 20C25.3284 20 26 19.3284 26 18.5C26 17.6716 25.3284 17 24.5 17C23.6716 17 23 17.6716 23 18.5C23 19.3284 23.6716 20 24.5 20Z" fill="black"/>
<path d="M7.5 20C8.32843 20 9 19.3284 9 18.5C9 17.6716 8.32843 17 7.5 17C6.67157 17 6 17.6716 6 18.5C6 19.3284 6.67157 20 7.5 20Z" fill="black"/>
</svg>
