<svg width="32" height="32" viewBox="0 0 32 32" fill="none" xmlns="http://www.w3.org/2000/svg">
<path d="M13 14H4C3.4 14 3 13.6 3 13V4C3 3.4 3.4 3 4 3H13C13.6 3 14 3.4 14 4V13C14 13.6 13.6 14 13 14Z" stroke="black" stroke-width="2" stroke-miterlimit="10" stroke-linecap="round"/>
<path d="M18 6H28" stroke="black" stroke-width="2" stroke-miterlimit="10" stroke-linecap="round"/>
<path d="M18 11H24" stroke="black" stroke-width="2" stroke-miterlimit="10" stroke-linecap="round"/>
<path d="M13 29H4C3.4 29 3 28.6 3 28V19C3 18.4 3.4 18 4 18H13C13.6 18 14 18.4 14 19V28C14 28.6 13.6 29 13 29Z" stroke="black" stroke-width="2" stroke-miterlimit="10" stroke-linecap="round"/>
<path d="M18 21H28" stroke="black" stroke-width="2" stroke-miterlimit="10" stroke-linecap="round"/>
<path d="M18 26H24" stroke="black" stroke-width="2" stroke-miterlimit="10" stroke-linecap="round"/>
</svg>
