<svg width="32" height="32" viewBox="0 0 32 32" fill="none" xmlns="http://www.w3.org/2000/svg">
<path d="M25 16V12H22" stroke="black" stroke-width="2" stroke-miterlimit="10" stroke-linecap="round"/>
<path d="M4 9V25C4 26.7 5.3 28 7 28H22C23.7 28 25 26.7 25 25V24" stroke="black" stroke-width="2" stroke-miterlimit="10" stroke-linecap="round"/>
<path d="M27 24H23C21.3 24 20 22.7 20 21V19C20 17.3 21.3 16 23 16H27C28.7 16 30 17.3 30 19V21C30 22.7 28.7 24 27 24Z" stroke="black" stroke-width="2" stroke-miterlimit="10" stroke-linecap="round"/>
<path d="M20 4H7.5C5.6 4 4 5.6 4 7.5V8.5C4 10.4 5.6 12 7.5 12H22" stroke="black" stroke-width="2" stroke-miterlimit="10" stroke-linecap="round"/>
<path d="M24 21C24.5523 21 25 20.5523 25 20C25 19.4477 24.5523 19 24 19C23.4477 19 23 19.4477 23 20C23 20.5523 23.4477 21 24 21Z" fill="black"/>
<path d="M22 8H8" stroke="black" stroke-width="2" stroke-miterlimit="10" stroke-linecap="round"/>
</svg>
