<svg width="32" height="32" viewBox="0 0 32 32" fill="none" xmlns="http://www.w3.org/2000/svg">
<path d="M27 28H5C3.9 28 3 27.1 3 26C3 24.9 3.9 24 5 24H27C28.1 24 29 24.9 29 26C29 27.1 28.1 28 27 28Z" stroke="black" stroke-width="2" stroke-miterlimit="10" stroke-linecap="round"/>
<path d="M5.20001 24C6.10001 18.9 10.6 15 16 15C21.4 15 25.9 18.9 26.8 24" stroke="black" stroke-width="2" stroke-miterlimit="10" stroke-linecap="round"/>
<path d="M11 8C12 7 10 5 11 4" stroke="black" stroke-width="2" stroke-miterlimit="10" stroke-linecap="round"/>
<path d="M16 8C17 7 15 5 16 4" stroke="black" stroke-width="2" stroke-miterlimit="10" stroke-linecap="round"/>
<path d="M21 8C22 7 20 5 21 4" stroke="black" stroke-width="2" stroke-miterlimit="10" stroke-linecap="round"/>
<path d="M13 15.4V14C13 12.9 13.9 12 15 12H17C18.1 12 19 12.9 19 14V15.4" stroke="black" stroke-width="2" stroke-miterlimit="10" stroke-linecap="round"/>
</svg>
