<svg width="32" height="32" viewBox="0 0 32 32" fill="none" xmlns="http://www.w3.org/2000/svg">
<path d="M8.8 5.9C8.8 7.5 5.9 11 5.9 11C5.9 11 3 7.5 3 5.9C3 4.3 4.3 3 5.9 3C7.5 3 8.8 4.3 8.8 5.9Z" stroke="black" stroke-width="2" stroke-miterlimit="10" stroke-linecap="round" stroke-linejoin="round"/>
<path d="M13 6H19C21.8 6 24 8.2 24 11C24 13.8 21.8 16 19 16H12C9.2 16 7 18.2 7 21C7 23.8 9.2 26 12 26H19" stroke="black" stroke-width="2" stroke-miterlimit="10" stroke-linecap="round" stroke-linejoin="round"/>
<path d="M23 23L29 29" stroke="black" stroke-width="2" stroke-miterlimit="10" stroke-linecap="round" stroke-linejoin="round"/>
<path d="M29 23L23 29" stroke="black" stroke-width="2" stroke-miterlimit="10" stroke-linecap="round" stroke-linejoin="round"/>
</svg>
