<svg width="32" height="32" viewBox="0 0 32 32" fill="none" xmlns="http://www.w3.org/2000/svg">
<path d="M16 27.5C16.8284 27.5 17.5 26.8284 17.5 26C17.5 25.1716 16.8284 24.5 16 24.5C15.1716 24.5 14.5 25.1716 14.5 26C14.5 26.8284 15.1716 27.5 16 27.5Z" fill="black"/>
<path d="M12.5 21.2C13.5 20.5 14.7 20 16 20C17.3 20 18.5 20.4 19.5 21.2" stroke="black" stroke-width="2" stroke-miterlimit="10" stroke-linecap="round"/>
<path d="M9.5 17.1C11.3 15.8 13.5 15 16 15C18.5 15 20.6 15.8 22.5 17.1" stroke="black" stroke-width="2" stroke-miterlimit="10" stroke-linecap="round"/>
<path d="M25.4 13.1C22.8 11.1 19.5 10 16 10C12.5 10 9.2 11.1 6.6 13.1" stroke="black" stroke-width="2" stroke-miterlimit="10" stroke-linecap="round"/>
<path d="M28.3 9C24.9 6.5 20.6 5 16 5C11.4 5 7.1 6.5 3.7 9" stroke="black" stroke-width="2" stroke-miterlimit="10" stroke-linecap="round"/>
</svg>
