<svg width="32" height="32" viewBox="0 0 32 32" fill="none" xmlns="http://www.w3.org/2000/svg">
<path fill-rule="evenodd" clip-rule="evenodd" d="M28.38 7.94L31 19.17C31.074 19.7519 30.9278 20.3404 30.59 20.82L23.35 29.82C23.1749 30.0701 22.936 30.2688 22.6582 30.3955C22.3803 30.5221 22.0737 30.572 21.77 30.54H10.23C9.63466 30.4947 9.07474 30.2396 8.64999 29.82L1.40999 20.82C1.23511 20.5862 1.10875 20.3198 1.03834 20.0364C0.967931 19.753 0.954893 19.4585 0.999995 19.17L3.60999 7.87C3.66759 7.59558 3.7878 7.33818 3.96126 7.11789C4.13473 6.89759 4.35675 6.72035 4.60999 6.6L15.07 1.6C15.3733 1.51882 15.686 1.47846 16 1.48C16.2923 1.47384 16.5825 1.53187 16.85 1.65L27.32 6.65C27.825 6.92893 28.2043 7.39046 28.38 7.94ZM16 6.89C18.4076 6.88659 20.7282 7.78985 22.5 9.42C22.2822 9.40351 22.0633 9.43208 21.857 9.50394C21.6507 9.5758 21.4614 9.6894 21.301 9.83765C21.1405 9.9859 21.0123 10.1656 20.9244 10.3656C20.8365 10.5656 20.7907 10.7815 20.79 11C20.72 13.31 23.55 13.8 22.02 18.44L20.76 22.28L17.33 12.2C17.33 12.04 17.33 11.95 17.53 11.95H18.53C18.5539 11.95 18.5768 11.9405 18.5936 11.9236C18.6105 11.9068 18.62 11.8839 18.62 11.86V11.28C18.62 11.28 18.62 11.18 18.53 11.19C16.69 11.27 14.86 11.27 13.05 11.19C13.0374 11.1886 13.0246 11.1899 13.0125 11.1937C13.0004 11.1976 12.9892 11.204 12.9798 11.2125C12.9703 11.221 12.9628 11.2315 12.9577 11.2431C12.9525 11.2547 12.9499 11.2673 12.95 11.28V11.86C12.9433 11.8723 12.9393 11.8859 12.9383 11.8999C12.9372 11.9139 12.9391 11.9279 12.9438 11.9411C12.9485 11.9543 12.956 11.9664 12.9656 11.9765C12.9753 11.9867 12.987 11.9947 13 12H14C14.22 12 14.28 12.08 14.33 12.22L15.73 16L13.61 22.41L10.12 12.16C10.12 12.03 10.12 11.95 10.25 11.95H11.37C11.3939 11.95 11.4168 11.9405 11.4336 11.9236C11.4505 11.9068 11.46 11.8839 11.46 11.86V11.28C11.46 11.28 11.46 11.18 11.37 11.19C10.2 11.25 9.02999 11.26 7.92999 11.27C8.80281 9.92452 9.99849 8.81887 11.408 8.05384C12.8176 7.2888 14.3962 6.8887 16 6.89V6.89ZM24.45 11.89C25.6579 14.1245 25.9321 16.7463 25.2125 19.1824C24.4929 21.6184 22.8382 23.6705 20.61 24.89L23.61 16.4C24.1452 14.9521 24.4293 13.4235 24.45 11.88V11.89ZM19.22 25.55C17.2875 26.2431 15.1827 26.2922 13.22 25.69L16.22 17.21L19.22 25.55ZM11.89 25.18C9.60904 24.0991 7.84428 22.165 6.97628 19.7949C6.10828 17.4247 6.20658 14.8083 7.24999 12.51L11.89 25.18V25.18ZM16 5.49C18.1756 5.49 20.3023 6.13514 22.1113 7.34383C23.9202 8.55253 25.3301 10.2705 26.1627 12.2805C26.9952 14.2905 27.2131 16.5022 26.7886 18.636C26.3642 20.7698 25.3165 22.7298 23.7782 24.2682C22.2398 25.8065 20.2798 26.8542 18.146 27.2786C16.0122 27.7031 13.8005 27.4852 11.7905 26.6527C9.78049 25.8201 8.06252 24.4102 6.85383 22.6013C5.64513 20.7923 4.99999 18.6656 4.99999 16.49C4.99999 13.5726 6.15892 10.7747 8.22182 8.71182C10.2847 6.64892 13.0826 5.49 16 5.49V5.49Z" fill="black"/>
</svg>
