<svg width="32" height="32" viewBox="0 0 32 32" fill="none" xmlns="http://www.w3.org/2000/svg">
<path d="M16.23 17.18L20.13 27.85C17.6661 28.7093 14.9955 28.7792 12.49 28.05L16.23 17.18V17.18ZM16 3.44999C18.9169 3.43105 21.748 4.43609 24 6.28999C23.6058 6.49581 23.2759 6.80629 23.0465 7.18734C22.8172 7.56839 22.6973 8.00526 22.7 8.44999C22.8355 9.60258 23.2852 10.6957 24 11.61C24.7115 12.7177 25.0963 14.0035 25.11 15.32C25.0386 16.818 24.7 18.2912 24.11 19.67L22.77 24.16L17.85 9.68999C18.66 9.68999 19.39 9.55999 19.39 9.55999C19.5253 9.53471 19.6465 9.46051 19.7305 9.35156C19.8146 9.2426 19.8556 9.10651 19.8457 8.96927C19.8358 8.83202 19.7757 8.70322 19.6769 8.60744C19.5781 8.51166 19.4475 8.45561 19.31 8.44999C19.31 8.44999 17.12 8.61999 15.72 8.61999C14.32 8.61999 12.17 8.44999 12.17 8.44999C12.0325 8.45561 11.9019 8.51166 11.8031 8.60744C11.7043 8.70322 11.6442 8.83202 11.6343 8.96927C11.6245 9.10651 11.6654 9.2426 11.7495 9.35156C11.8335 9.46051 11.9548 9.53471 12.09 9.55999C12.09 9.55999 12.77 9.63999 13.5 9.68999L15.6 15.43L12.65 24.27L7.75001 9.68999C8.56001 9.68999 9.29001 9.55999 9.29001 9.55999C9.4258 9.53423 9.54726 9.45916 9.63103 9.34924C9.7148 9.23932 9.75496 9.1023 9.7438 8.96455C9.73263 8.8268 9.67091 8.69804 9.57053 8.60305C9.47014 8.50806 9.33817 8.45354 9.20001 8.44999C9.20001 8.44999 7.25001 8.59999 5.85001 8.61999C6.23206 8.08956 6.6568 7.59124 7.12001 7.12999C8.28442 5.96139 9.66846 5.03463 11.1925 4.40306C12.7165 3.7715 14.3503 3.44759 16 3.44999V3.44999ZM7.13001 24.87C5.44518 23.1981 4.26901 21.0827 3.738 18.7693C3.20699 16.4558 3.34292 14.0393 4.13001 11.8L9.62001 26.8C8.69405 26.2451 7.84367 25.5729 7.09001 24.8L7.13001 24.87ZM28.55 16C28.5533 17.6483 28.2297 19.2809 27.5981 20.8034C26.9664 22.3259 26.0392 23.7081 24.87 24.87C24.3707 25.3726 23.8286 25.831 23.25 26.24L26.88 15.75C27.3994 14.5188 27.7363 13.2185 27.88 11.89C28.3303 13.2132 28.5567 14.6023 28.55 16V16ZM16 1.32999C13.0981 1.32801 10.2609 2.18671 7.84708 3.79747C5.43329 5.40823 3.55144 7.69867 2.43957 10.3791C1.3277 13.0595 1.03576 16.0095 1.60068 18.8558C2.16559 21.7022 3.56198 24.3171 5.61322 26.3697C7.66446 28.4223 10.2784 29.8205 13.1244 30.3874C15.9703 30.9542 18.9205 30.6643 21.6017 29.5543C24.2828 28.4442 26.5746 26.5639 28.187 24.1512C29.7994 21.7386 30.66 18.9019 30.66 16C30.66 12.111 29.1158 8.38114 26.3668 5.63027C23.6178 2.8794 19.889 1.33264 16 1.32999V1.32999Z" fill="black"/>
</svg>
