<svg width="32" height="32" viewBox="0 0 32 32" fill="none" xmlns="http://www.w3.org/2000/svg">
<path fill-rule="evenodd" clip-rule="evenodd" d="M29 22.26C28.9489 22.1284 28.8705 22.0091 28.77 21.91L23.44 16.58C23.3414 16.4799 23.2238 16.4004 23.0942 16.3462C22.9646 16.292 22.8255 16.264 22.685 16.264C22.5445 16.264 22.4054 16.292 22.2758 16.3462C22.1461 16.4004 22.0286 16.4799 21.93 16.58C21.7327 16.7818 21.6222 17.0528 21.6222 17.335C21.6222 17.6172 21.7327 17.8882 21.93 18.09L25.44 21.6H11.91L23.42 10.09C23.567 9.94043 23.6668 9.75095 23.7071 9.54511C23.7473 9.33927 23.7261 9.12615 23.6462 8.93224C23.5663 8.73833 23.4312 8.57218 23.2576 8.45444C23.084 8.3367 22.8797 8.27256 22.67 8.27H6.56999L10.09 4.75999C10.2873 4.5582 10.3977 4.2872 10.3977 4.00499C10.3977 3.72279 10.2873 3.45179 10.09 3.24999C9.99136 3.14992 9.87383 3.07044 9.74421 3.0162C9.6146 2.96196 9.47549 2.93402 9.33499 2.93402C9.19448 2.93402 9.05537 2.96196 8.92576 3.0162C8.79615 3.07044 8.67861 3.14992 8.57999 3.24999L3.24999 8.57999V8.64C3.16882 8.72582 3.10136 8.82363 3.04999 8.93C2.94989 9.19072 2.94989 9.47927 3.04999 9.73999C3.10136 9.84636 3.16882 9.94417 3.24999 10.03C3.24711 10.0499 3.24711 10.0701 3.24999 10.09L8.57999 15.42C8.78052 15.6197 9.05199 15.7318 9.33499 15.7318C9.61798 15.7318 9.88945 15.6197 10.09 15.42C10.2873 15.2182 10.3977 14.9472 10.3977 14.665C10.3977 14.3828 10.2873 14.1118 10.09 13.91L6.56999 10.4H20.09L8.57999 21.91C8.43296 22.0596 8.33314 22.249 8.29292 22.4549C8.2527 22.6607 8.27386 22.8738 8.35377 23.0677C8.43367 23.2617 8.56881 23.4278 8.74237 23.5456C8.91593 23.6633 9.12027 23.7274 9.32999 23.73H25.42L21.91 27.25C21.8115 27.3491 21.7335 27.4667 21.6804 27.596C21.6274 27.7253 21.6003 27.8638 21.6008 28.0035C21.6013 28.1433 21.6292 28.2816 21.6831 28.4105C21.7371 28.5394 21.8158 28.6565 21.915 28.755C22.1152 28.9539 22.3863 29.0651 22.6685 29.0642C22.8083 29.0637 22.9466 29.0357 23.0755 28.9818C23.2044 28.9279 23.3215 28.8491 23.42 28.75L28.75 23.42C28.8505 23.3209 28.9289 23.2016 28.98 23.07C29.0365 22.9424 29.0657 22.8045 29.0657 22.665C29.0657 22.5255 29.0365 22.3875 28.98 22.26" fill="black"/>
</svg>
