<svg width="32" height="32" viewBox="0 0 32 32" fill="none" xmlns="http://www.w3.org/2000/svg">
<path d="M12.86 19.14V22.28H16V19.14H12.86ZM19.14 16H16V19.14H19.14V16ZM12.86 12.85V16H16V12.85H12.86ZM19.14 12.85V9.70999H16V12.85H19.14ZM12.86 9.70999H16V6.56999H12.86V9.70999ZM27.52 1.32999H2.37999C2.10151 1.32999 1.83444 1.44061 1.63752 1.63752C1.44061 1.83444 1.32999 2.10151 1.32999 2.37999C1.32999 2.65846 1.44061 2.92554 1.63752 3.12245C1.83444 3.31936 2.10151 3.42999 2.37999 3.42999H16V6.56999H19.14V3.42999H27.52C27.6598 3.4228 27.7995 3.44504 27.9301 3.49527C28.0608 3.5455 28.1794 3.62259 28.2784 3.72156C28.3774 3.82053 28.4545 3.93918 28.5047 4.06983C28.5549 4.20047 28.5772 4.3402 28.57 4.47999V27.48C28.5772 27.6198 28.5549 27.7595 28.5047 27.8901C28.4545 28.0208 28.3774 28.1394 28.2784 28.2384C28.1794 28.3374 28.0608 28.4145 27.9301 28.4647C27.7995 28.5149 27.6598 28.5372 27.52 28.53H16V25.43H12.85V28.57H4.46999C4.33435 28.5702 4.2001 28.5427 4.07539 28.4894C3.95069 28.436 3.83814 28.3579 3.7446 28.2596C3.65105 28.1614 3.57847 28.0452 3.53126 27.918C3.48405 27.7909 3.4632 27.6555 3.46999 27.52V8.66999C3.46999 8.40477 3.57534 8.15042 3.76288 7.96288C3.95042 7.77534 4.20477 7.66999 4.46999 7.66999H9.71999C9.99846 7.66999 10.2655 7.55936 10.4624 7.36245C10.6594 7.16554 10.77 6.89846 10.77 6.61999C10.77 6.34151 10.6594 6.07444 10.4624 5.87752C10.2655 5.68061 9.99846 5.56999 9.71999 5.56999H4.46999C3.64488 5.5725 2.8537 5.89866 2.26653 6.47835C1.67936 7.05804 1.34308 7.84498 1.32999 8.66999V27.52C1.32998 28.3537 1.66048 29.1534 2.24906 29.7438C2.83764 30.3343 3.63629 30.6673 4.46999 30.67H27.52C27.9332 30.67 28.3423 30.5884 28.7239 30.43C29.1055 30.2716 29.4521 30.0394 29.7438 29.7468C30.0356 29.4541 30.2666 29.1068 30.4238 28.7247C30.5811 28.3426 30.6613 27.9332 30.66 27.52V4.51999C30.6613 4.1068 30.5811 3.69741 30.4238 3.31529C30.2666 2.93317 30.0356 2.58584 29.7438 2.2932C29.4521 2.00057 29.1055 1.76838 28.7239 1.60996C28.3423 1.45153 27.9332 1.36998 27.52 1.36999V1.32999ZM19.14 25.43H16V22.28H19.14V25.43Z" fill="black"/>
</svg>
