<svg width="32" height="32" viewBox="0 0 32 32" fill="none" xmlns="http://www.w3.org/2000/svg">
<path d="M10.84 19.06C11.224 19.4464 11.7138 19.7105 12.2477 19.8191C12.7815 19.9276 13.3356 19.8757 13.84 19.67L10.23 16C10.0139 16.5125 9.95647 17.0781 10.0652 17.6236C10.174 18.1692 10.4439 18.6695 10.84 19.06V19.06ZM17.07 19.67C17.5821 19.8836 18.1463 19.9396 18.6905 19.8308C19.2346 19.7221 19.734 19.4536 20.1247 19.0596C20.5155 18.6657 20.7799 18.1641 20.8841 17.6191C20.9884 17.0741 20.9278 16.5104 20.71 16L17.07 19.67ZM9.82 13.93C10.16 13.8614 10.5116 13.8786 10.8433 13.9798C11.175 14.0811 11.4763 14.2633 11.72 14.51L15.4 18.18L15.47 18.26L15.55 18.18L19.23 14.51C19.4717 14.2634 19.7712 14.0811 20.1013 13.9798C20.4314 13.8785 20.7816 13.8614 21.12 13.93C21.4588 13.9944 21.7765 14.1412 22.0451 14.3574C22.3136 14.5737 22.5248 14.8528 22.66 15.17C22.9769 15.9159 23.1043 16.7287 23.0307 17.5358C22.9571 18.3429 22.6849 19.1192 22.2383 19.7956C21.7917 20.4719 21.1847 21.0271 20.4713 21.4118C19.7579 21.7964 18.9605 21.9985 18.15 22C17.4872 21.9992 16.8311 21.8666 16.22 21.61C15.9353 21.4838 15.6799 21.3 15.47 21.07C15.2656 21.3018 15.0131 21.4861 14.73 21.61C14.1189 21.8666 13.4628 21.9992 12.8 22C11.9883 21.9984 11.1897 21.7959 10.4752 21.4108C9.76073 21.0256 9.15265 20.4697 8.70516 19.7925C8.25767 19.1153 7.98467 18.3379 7.91049 17.5297C7.83631 16.7214 7.96325 15.9073 8.28 15.16C8.41589 14.8432 8.62731 14.5646 8.89577 14.3485C9.16423 14.1323 9.48155 13.9852 9.82 13.92V13.93ZM30.66 4.48V27.48C30.6613 27.8932 30.5811 28.3026 30.4239 28.6847C30.2666 29.0668 30.0356 29.4141 29.7439 29.7068C29.4522 29.9994 29.1056 30.2316 28.7239 30.39C28.3423 30.5484 27.9332 30.63 27.52 30.63H4.52C3.6863 30.6273 2.88765 30.2943 2.29908 29.7039C1.7105 29.1134 1.38 28.3137 1.38 27.48V8.67C1.3799 7.84581 1.70384 7.05462 2.28194 6.46717C2.86003 5.87972 3.64592 5.54312 4.47 5.53H15.47C17.6456 5.53 19.7723 6.17513 21.5813 7.38383C23.3902 8.59253 24.8001 10.3105 25.6327 12.3205C26.4652 14.3305 26.6831 16.5422 26.2586 18.676C25.8342 20.8098 24.7866 22.7698 23.2482 24.3082C21.7098 25.8465 19.7498 26.8942 17.616 27.3186C15.4822 27.7431 13.2705 27.5252 11.2605 26.6927C9.25049 25.8601 7.53253 24.4502 6.32383 22.6413C5.11514 20.8323 4.47 18.7056 4.47 16.53C4.49355 14.8843 4.92291 13.2699 5.72 11.83L5.28 11.39C5.18604 11.2957 5.11851 11.1783 5.08417 11.0497C5.04982 10.9211 5.04986 10.7857 5.08429 10.6571C5.11872 10.5285 5.18633 10.4112 5.28034 10.3169C5.37436 10.2227 5.49149 10.1548 5.62 10.12L8.77 9.27999C8.89873 9.24571 9.03421 9.24586 9.16286 9.28044C9.2915 9.31501 9.40881 9.38279 9.503 9.47699C9.5972 9.57119 9.66498 9.68849 9.69956 9.81714C9.73413 9.94579 9.73429 10.0813 9.7 10.21L8.85 13.35C8.81524 13.4785 8.74733 13.5956 8.65307 13.6897C8.55881 13.7837 8.44151 13.8513 8.31291 13.8857C8.1843 13.9201 8.04891 13.9202 7.92029 13.8858C7.79167 13.8515 7.67432 13.784 7.58 13.69L7.31 13.42C6.8577 14.3953 6.61579 15.455 6.6 16.53C6.59802 18.2891 7.11798 20.0093 8.09407 21.4728C9.07015 22.9363 10.4585 24.0773 12.0833 24.7514C13.7082 25.4255 15.4965 25.6024 17.2219 25.2597C18.9473 24.917 20.5323 24.0701 21.7762 22.8262C23.0201 21.5823 23.867 19.9973 24.2097 18.2719C24.5524 16.5465 24.3755 14.7582 23.7014 13.1333C23.0273 11.5085 21.8863 10.1201 20.4228 9.14406C18.9593 8.16798 17.2391 7.64802 15.48 7.65H4.48C4.21478 7.65 3.96043 7.75535 3.77289 7.94289C3.58536 8.13042 3.48 8.38478 3.48 8.64999V27.52C3.47322 27.6555 3.49407 27.7909 3.54128 27.9181C3.58848 28.0452 3.66107 28.1614 3.75461 28.2597C3.84815 28.3579 3.9607 28.436 4.0854 28.4894C4.21011 28.5427 4.34436 28.5702 4.48 28.57H27.52C27.6598 28.5772 27.7995 28.5549 27.9302 28.5047C28.0608 28.4545 28.1795 28.3774 28.2784 28.2784C28.3774 28.1794 28.4545 28.0608 28.5047 27.9302C28.5549 27.7995 28.5772 27.6598 28.57 27.52V4.52C28.5772 4.38021 28.5549 4.24048 28.5047 4.10983C28.4545 3.97919 28.3774 3.86054 28.2784 3.76157C28.1795 3.6626 28.0608 3.58551 27.9302 3.53528C27.7995 3.48505 27.6598 3.46281 27.52 3.47H2.38C2.10152 3.47 1.83445 3.35937 1.63754 3.16246C1.44062 2.96554 1.33 2.69847 1.33 2.42C1.33 2.14152 1.44062 1.87445 1.63754 1.67753C1.83445 1.48062 2.10152 1.37 2.38 1.37H27.52C27.9332 1.36999 28.3423 1.45154 28.7239 1.60997C29.1056 1.76839 29.4522 2.00058 29.7439 2.29321C30.0356 2.58585 30.2666 2.93318 30.4239 3.3153C30.5811 3.69742 30.6613 4.1068 30.66 4.52V4.48Z" fill="black"/>
</svg>
