<svg width="32" height="32" viewBox="0 0 32 32" fill="none" xmlns="http://www.w3.org/2000/svg">
<path fill-rule="evenodd" clip-rule="evenodd" d="M28.33 6.99999L17.66 1.63999C17.1442 1.38364 16.576 1.25024 16 1.25024C15.424 1.25024 14.8558 1.38364 14.34 1.63999L9.11 4.24999C8.93333 4.33926 8.78489 4.47579 8.68118 4.64439C8.57748 4.81299 8.52257 5.00705 8.52257 5.20499C8.52257 5.40293 8.57748 5.59699 8.68118 5.76559C8.78489 5.93419 8.93333 6.07072 9.11 6.15999L21.85 12.53V16.67C21.8757 16.9346 21.999 17.1803 22.1959 17.359C22.3927 17.5377 22.6491 17.6367 22.915 17.6367C23.1809 17.6367 23.4373 17.5377 23.6341 17.359C23.831 17.1803 23.9543 16.9346 23.98 16.67V11.87C23.9883 11.6642 23.9371 11.4604 23.8324 11.283C23.7278 11.1056 23.5742 10.9622 23.39 10.87L12 5.19999L15.32 3.54999C15.5403 3.43919 15.7834 3.38148 16.03 3.38148C16.2766 3.38148 16.5197 3.43919 16.74 3.54999L27.38 8.87999C27.6481 9.01014 27.874 9.21347 28.0314 9.46651C28.1889 9.71954 28.2716 10.012 28.27 10.31V21.69C28.2704 21.9878 28.1873 22.2797 28.0299 22.5325C27.8726 22.7853 27.6474 22.9889 27.38 23.12L17.07 28.27V15.33C17.0783 15.1242 17.0271 14.9204 16.9224 14.743C16.8178 14.5656 16.6642 14.4222 16.48 14.33L3.14 7.69999C2.9739 7.61862 2.78953 7.5817 2.60491 7.59283C2.42028 7.60396 2.24169 7.66276 2.08656 7.76349C1.93143 7.86422 1.80506 8.00345 1.71979 8.16758C1.63451 8.33171 1.59324 8.51515 1.6 8.69999V21.7C1.60538 22.3866 1.80067 23.0583 2.16426 23.6407C2.52784 24.2232 3.04553 24.6936 3.66 25L14.32 30.33C14.8427 30.587 15.4175 30.7205 16 30.72C16.5761 30.7206 17.1445 30.5871 17.66 30.33L28.33 25C28.9531 24.6929 29.4775 24.217 29.8435 23.6265C30.2095 23.0361 30.4023 22.3547 30.4 21.66V10.31C30.3978 9.62015 30.2029 8.94465 29.8371 8.35976C29.4713 7.77487 28.9493 7.30389 28.33 6.99999V6.99999ZM14.93 28.28L4.61 23.12C4.34365 22.9832 4.12041 22.7753 3.96507 22.5194C3.80973 22.2634 3.72836 21.9694 3.73 21.67V10.38L14.93 16V28.28Z" fill="black"/>
</svg>
